  0
SECTION
  2
HEADER
  9
$ACADVER
  1
AC1018
  9
$ACADMAINTVER
 70
     0
  9
$DWGCODEPAGE
  3
ANSI_1252
  9
$INSBASE
 10
0.0
 20
0.0
 30
0.0
  9
$EXTMIN
 10
1.000000000000000E+20
 20
1.000000000000000E+20
 30
1.000000000000000E+20
  9
$EXTMAX
 10
-1.000000000000000E+20
 20
-1.000000000000000E+20
 30
-1.000000000000000E+20
  9
$LIMMIN
 10
0.0
 20
0.0
  9
$LIMMAX
 10
12.0
 20
9.0
  9
$ORTHOMODE
 70
     0
  9
$REGENMODE
 70
     1
  9
$FILLMODE
 70
     1
  9
$QTEXTMODE
 70
     0
  9
$MIRRTEXT
 70
     1
  9
$LTSCALE
 40
1.0
  9
$ATTMODE
 70
     1
  9
$TEXTSIZE
 40
0.2
  9
$TRACEWID
 40
0.05
  9
$TEXTSTYLE
  7
Standard
  9
$CLAYER
  8
0
  9
$CELTYPE
  6
ByLayer
  9
$CECOLOR
 62
   256
  9
$CELTSCALE
 40
1.0
  9
$DISPSILH
 70
     0
  9
$DIMSCALE
 40
1.0
  9
$DIMASZ
 40
0.18
  9
$DIMEXO
 40
0.0625
  9
$DIMDLI
 40
0.38
  9
$DIMRND
 40
0.0
  9
$DIMDLE
 40
0.0
  9
$DIMEXE
 40
0.18
  9
$DIMTP
 40
0.0
  9
$DIMTM
 40
0.0
  9
$DIMTXT
 40
0.18
  9
$DIMCEN
 40
0.09
  9
$DIMTSZ
 40
0.0
  9
$DIMTOL
 70
     0
  9
$DIMLIM
 70
     0
  9
$DIMTIH
 70
     1
  9
$DIMTOH
 70
     1
  9
$DIMSE1
 70
     0
  9
$DIMSE2
 70
     0
  9
$DIMTAD
 70
     0
  9
$DIMZIN
 70
     0
  9
$DIMBLK
  1

  9
$DIMASO
 70
     1
  9
$DIMSHO
 70
     1
  9
$DIMPOST
  1

  9
$DIMAPOST
  1

  9
$DIMALT
 70
     0
  9
$DIMALTD
 70
     2
  9
$DIMALTF
 40
25.4
  9
$DIMLFAC
 40
1.0
  9
$DIMTOFL
 70
     0
  9
$DIMTVP
 40
0.0
  9
$DIMTIX
 70
     0
  9
$DIMSOXD
 70
     0
  9
$DIMSAH
 70
     0
  9
$DIMBLK1
  1

  9
$DIMBLK2
  1

  9
$DIMSTYLE
  2
Standard
  9
$DIMCLRD
 70
     0
  9
$DIMCLRE
 70
     0
  9
$DIMCLRT
 70
     0
  9
$DIMTFAC
 40
1.0
  9
$DIMGAP
 40
0.09
  9
$DIMJUST
 70
     0
  9
$DIMSD1
 70
     0
  9
$DIMSD2
 70
     0
  9
$DIMTOLJ
 70
     1
  9
$DIMTZIN
 70
     0
  9
$DIMALTZ
 70
     0
  9
$DIMALTTZ
 70
     0
  9
$DIMUPT
 70
     0
  9
$DIMDEC
 70
     4
  9
$DIMTDEC
 70
     4
  9
$DIMALTU
 70
     2
  9
$DIMALTTD
 70
     2
  9
$DIMTXSTY
  7
Standard
  9
$DIMAUNIT
 70
     0
  9
$DIMADEC
 70
     0
  9
$DIMALTRND
 40
0.0
  9
$DIMAZIN
 70
     0
  9
$DIMDSEP
 70
    46
  9
$DIMATFIT
 70
     3
  9
$DIMFRAC
 70
     0
  9
$DIMLDRBLK
  1

  9
$DIMLUNIT
 70
     2
  9
$DIMLWD
 70
    -2
  9
$DIMLWE
 70
    -2
  9
$DIMTMOVE
 70
     0
  9
$LUNITS
 70
     2
  9
$LUPREC
 70
     4
  9
$SKETCHINC
 40
0.1
  9
$FILLETRAD
 40
0.5
  9
$AUNITS
 70
     0
  9
$AUPREC
 70
     0
  9
$MENU
  1
.
  9
$ELEVATION
 40
0.0
  9
$PELEVATION
 40
0.0
  9
$THICKNESS
 40
0.0
  9
$LIMCHECK
 70
     0
  9
$CHAMFERA
 40
0.5
  9
$CHAMFERB
 40
0.5
  9
$CHAMFERC
 40
1.0
  9
$CHAMFERD
 40
0.0
  9
$SKPOLY
 70
     0
  9
$TDCREATE
 40
2456900.632325104
  9
$TDUCREATE
 40
2456900.757325104
  9
$TDUPDATE
 40
2456900.632325116
  9
$TDUUPDATE
 40
2456900.757325116
  9
$TDINDWG
 40
0.0000000116
  9
$TDUSRTIMER
 40
0.0000000116
  9
$USRTIMER
 70
     1
  9
$ANGBASE
 50
0.0
  9
$ANGDIR
 70
     0
  9
$PDMODE
 70
     0
  9
$PDSIZE
 40
0.0
  9
$PLINEWID
 40
0.0
  9
$SPLFRAME
 70
     0
  9
$SPLINETYPE
 70
     6
  9
$SPLINESEGS
 70
     8
  9
$HANDSEED
  5
185
  9
$SURFTAB1
 70
     6
  9
$SURFTAB2
 70
     6
  9
$SURFTYPE
 70
     6
  9
$SURFU
 70
     6
  9
$SURFV
 70
     6
  9
$UCSBASE
  2

  9
$UCSNAME
  2

  9
$UCSORG
 10
0.0
 20
0.0
 30
0.0
  9
$UCSXDIR
 10
1.0
 20
0.0
 30
0.0
  9
$UCSYDIR
 10
0.0
 20
1.0
 30
0.0
  9
$UCSORTHOREF
  2

  9
$UCSORTHOVIEW
 70
     0
  9
$UCSORGTOP
 10
0.0
 20
0.0
 30
0.0
  9
$UCSORGBOTTOM
 10
0.0
 20
0.0
 30
0.0
  9
$UCSORGLEFT
 10
0.0
 20
0.0
 30
0.0
  9
$UCSORGRIGHT
 10
0.0
 20
0.0
 30
0.0
  9
$UCSORGFRONT
 10
0.0
 20
0.0
 30
0.0
  9
$UCSORGBACK
 10
0.0
 20
0.0
 30
0.0
  9
$PUCSBASE
  2

  9
$PUCSNAME
  2

  9
$PUCSORG
 10
0.0
 20
0.0
 30
0.0
  9
$PUCSXDIR
 10
1.0
 20
0.0
 30
0.0
  9
$PUCSYDIR
 10
0.0
 20
1.0
 30
0.0
  9
$PUCSORTHOREF
  2

  9
$PUCSORTHOVIEW
 70
     0
  9
$PUCSORGTOP
 10
0.0
 20
0.0
 30
0.0
  9
$PUCSORGBOTTOM
 10
0.0
 20
0.0
 30
0.0
  9
$PUCSORGLEFT
 10
0.0
 20
0.0
 30
0.0
  9
$PUCSORGRIGHT
 10
0.0
 20
0.0
 30
0.0
  9
$PUCSORGFRONT
 10
0.0
 20
0.0
 30
0.0
  9
$PUCSORGBACK
 10
0.0
 20
0.0
 30
0.0
  9
$USERI1
 70
     0
  9
$USERI2
 70
     0
  9
$USERI3
 70
     0
  9
$USERI4
 70
     0
  9
$USERI5
 70
     0
  9
$USERR1
 40
0.0
  9
$USERR2
 40
0.0
  9
$USERR3
 40
0.0
  9
$USERR4
 40
0.0
  9
$USERR5
 40
0.0
  9
$WORLDVIEW
 70
     1
  9
$SHADEDGE
 70
     3
  9
$SHADEDIF
 70
    70
  9
$TILEMODE
 70
     1
  9
$MAXACTVP
 70
    64
  9
$PINSBASE
 10
0.0
 20
0.0
 30
0.0
  9
$PLIMCHECK
 70
     0
  9
$PEXTMIN
 10
1.000000000000000E+20
 20
1.000000000000000E+20
 30
1.000000000000000E+20
  9
$PEXTMAX
 10
-1.000000000000000E+20
 20
-1.000000000000000E+20
 30
-1.000000000000000E+20
  9
$PLIMMIN
 10
0.0
 20
0.0
  9
$PLIMMAX
 10
12.0
 20
9.0
  9
$UNITMODE
 70
     0
  9
$VISRETAIN
 70
     1
  9
$PLINEGEN
 70
     0
  9
$PSLTSCALE
 70
     1
  9
$TREEDEPTH
 70
  3020
  9
$CMLSTYLE
  2
Standard
  9
$CMLJUST
 70
     0
  9
$CMLSCALE
 40
1.0
  9
$PROXYGRAPHICS
 70
     1
  9
$MEASUREMENT
 70
     0
  9
$CELWEIGHT
370
    -1
  9
$ENDCAPS
280
     0
  9
$JOINSTYLE
280
     0
  9
$LWDISPLAY
290
     1
  9
$INSUNITS
 70
     1
  9
$HYPERLINKBASE
  1

  9
$STYLESHEET
  1

  9
$XEDIT
290
     1
  9
$CEPSNTYPE
380
     0
  9
$PSTYLEMODE
290
     1
  9
$FINGERPRINTGUID
  2
{6DA8D4A6-C01F-4B73-B3A5-68B80DC5F1B4}
  9
$VERSIONGUID
  2
{FAEB1C32-E019-11D5-929B-00C0DF256EC4}
  9
$EXTNAMES
290
     1
  9
$PSVPSCALE
 40
0.0
  9
$OLESTARTUP
290
     0
  9
$SORTENTS
280
   127
  9
$INDEXCTL
280
     0
  9
$HIDETEXT
280
     1
  9
$XCLIPFRAME
290
     0
  9
$HALOGAP
280
     0
  9
$OBSCOLOR
 70
   257
  9
$OBSLTYPE
280
     0
  9
$INTERSECTIONDISPLAY
280
     0
  9
$INTERSECTIONCOLOR
 70
   257
  9
$DIMASSOC
280
     2
  9
$PROJECTNAME
  1

  0
ENDSEC
  0
SECTION
  2
CLASSES
  0
CLASS
  1
ACDBDICTIONARYWDFLT
  2
AcDbDictionaryWithDefault
  3
ObjectDBX Classes
 90
        0
 91
        3
280
     0
281
     0
  0
CLASS
  1
VISUALSTYLE
  2
AcDbVisualStyle
  3
ObjectDBX Classes
 90
     4095
 91
        3
280
     0
281
     0
  0
ENDSEC
  0
SECTION
  2
TABLES
  0
TABLE
  2
VPORT
  5
8
330
0
100
AcDbSymbolTable
 70
     1
  0
VPORT
  5
29
330
8
100
AcDbSymbolTableRecord
100
AcDbViewportTableRecord
  2
*Active
 70
     0
 10
0.0
 20
0.0
 11
1.0
 21
1.0
 12
0.0
 22
0.0
 13
0.0
 23
0.0
 14
0.5
 24
0.5
 15
0.5
 25
0.5
 16
0.0
 26
0.0
 36
1.0
 17
100.0
 27
-100.0
 37
0.0
 40
200.0
 41
1.0
 42
50.0
 43
0.0
 44
0.0
 50
0.0
 51
0.0
 71
     0
 72
   100
 73
     1
 74
     3
 75
     0
 76
     0
 77
     0
 78
     0
281
     0
 65
     1
110
0.0
120
0.0
130
0.0
111
1.0
121
0.0
131
0.0
112
0.0
122
1.0
132
0.0
 79
     0
146
0.0
  0
ENDTAB
  0
TABLE
  2
LTYPE
  5
5
330
0
100
AcDbSymbolTable
 70
     1
  0
LTYPE
  5
14
330
5
100
AcDbSymbolTableRecord
100
AcDbLinetypeTableRecord
  2
ByBlock
 70
     0
  3

 72
    65
 73
     0
 40
0.0
  0
LTYPE
  5
15
330
5
100
AcDbSymbolTableRecord
100
AcDbLinetypeTableRecord
  2
ByLayer
 70
     0
  3

 72
    65
 73
     0
 40
0.0
  0
LTYPE
  5
16
330
5
100
AcDbSymbolTableRecord
100
AcDbLinetypeTableRecord
  2
Continuous
 70
     0
  3
Solid line
 72
    65
 73
     0
 40
0.0
  0
ENDTAB
  0
TABLE
  2
LAYER
  5
2
330
0
100
AcDbSymbolTable
 70
     2
  0
LAYER
  5
10
330
2
100
AcDbSymbolTableRecord
100
AcDbLayerTableRecord
  2
0
 70
     0
 62
     7
  6
Continuous
370
    -3
390
F
  0
LAYER
  5
3B
330
2
100
AcDbSymbolTableRecord
100
AcDbLayerTableRecord
  2
Layer 1
 70
     0
 62
     7
  6
Continuous
370
    -3
390
F
  0
ENDTAB
  0
TABLE
  2
STYLE
  5
3
330
0
100
AcDbSymbolTable
 70
     1
  0
STYLE
  5
11
330
3
100
AcDbSymbolTableRecord
100
AcDbTextStyleTableRecord
  2
Standard
 70
     0
 40
0.0
 41
1.0
 50
0.0
 71
     0
 42
0.2
  3
txt
  4

  0
ENDTAB
  0
TABLE
  2
VIEW
  5
6
330
0
100
AcDbSymbolTable
 70
     0
  0
ENDTAB
  0
TABLE
  2
UCS
  5
7
330
0
100
AcDbSymbolTable
 70
     0
  0
ENDTAB
  0
TABLE
  2
APPID
  5
9
330
0
100
AcDbSymbolTable
 70
     1
  0
APPID
  5
12
330
9
100
AcDbSymbolTableRecord
100
AcDbRegAppTableRecord
  2
ACAD
 70
     0
  0
ENDTAB
  0
TABLE
  2
DIMSTYLE
  5
A
330
0
100
AcDbSymbolTable
 70
     1
100
AcDbDimStyleTable
  0
DIMSTYLE
105
27
330
A
100
AcDbSymbolTableRecord
100
AcDbDimStyleTableRecord
  2
Standard
 70
     0
340
11
  0
ENDTAB
  0
TABLE
  2
BLOCK_RECORD
  5
1
330
0
100
AcDbSymbolTable
 70
    67
  0
BLOCK_RECORD
  5
1F
330
1
100
AcDbSymbolTableRecord
100
AcDbBlockTableRecord
  2
*Model_Space
340
22
  0
BLOCK_RECORD
  5
1B
330
1
100
AcDbSymbolTableRecord
100
AcDbBlockTableRecord
  2
*Paper_Space
340
1E
  0
BLOCK_RECORD
  5
23
330
1
100
AcDbSymbolTableRecord
100
AcDbBlockTableRecord
  2
*Paper_Space0
340
26
  0
BLOCK_RECORD
  5
3C
330
1
100
AcDbSymbolTableRecord
100
AcDbBlockTableRecord
  2
block 2
340
0
102
{BLKREFS
331
3D
102
}
  0
BLOCK_RECORD
  5
40
330
1
100
AcDbSymbolTableRecord
100
AcDbBlockTableRecord
  2
block 3
340
0
102
{BLKREFS
331
41
102
}
  0
BLOCK_RECORD
  5
48
330
1
100
AcDbSymbolTableRecord
100
AcDbBlockTableRecord
  2
block 4
340
0
102
{BLKREFS
331
49
102
}
  0
BLOCK_RECORD
  5
4C
330
1
100
AcDbSymbolTableRecord
100
AcDbBlockTableRecord
  2
block 5
340
0
102
{BLKREFS
331
4D
102
}
  0
BLOCK_RECORD
  5
50
330
1
100
AcDbSymbolTableRecord
100
AcDbBlockTableRecord
  2
block 6
340
0
102
{BLKREFS
331
51
102
}
  0
BLOCK_RECORD
  5
56
330
1
100
AcDbSymbolTableRecord
100
AcDbBlockTableRecord
  2
block 7
340
0
102
{BLKREFS
331
57
102
}
  0
BLOCK_RECORD
  5
5A
330
1
100
AcDbSymbolTableRecord
100
AcDbBlockTableRecord
  2
block 8
340
0
102
{BLKREFS
331
5B
102
}
  0
BLOCK_RECORD
  5
62
330
1
100
AcDbSymbolTableRecord
100
AcDbBlockTableRecord
  2
block 9
340
0
102
{BLKREFS
331
63
102
}
  0
BLOCK_RECORD
  5
66
330
1
100
AcDbSymbolTableRecord
100
AcDbBlockTableRecord
  2
block 10
340
0
102
{BLKREFS
331
67
102
}
  0
BLOCK_RECORD
  5
6C
330
1
100
AcDbSymbolTableRecord
100
AcDbBlockTableRecord
  2
block 11
340
0
102
{BLKREFS
331
6D
102
}
  0
BLOCK_RECORD
  5
70
330
1
100
AcDbSymbolTableRecord
100
AcDbBlockTableRecord
  2
block 12
340
0
102
{BLKREFS
331
71
102
}
  0
BLOCK_RECORD
  5
7A
330
1
100
AcDbSymbolTableRecord
100
AcDbBlockTableRecord
  2
block 13
340
0
102
{BLKREFS
331
7B
102
}
  0
BLOCK_RECORD
  5
7E
330
1
100
AcDbSymbolTableRecord
100
AcDbBlockTableRecord
  2
block 14
340
0
102
{BLKREFS
331
7F
102
}
  0
BLOCK_RECORD
  5
84
330
1
100
AcDbSymbolTableRecord
100
AcDbBlockTableRecord
  2
block 15
340
0
102
{BLKREFS
331
85
102
}
  0
BLOCK_RECORD
  5
88
330
1
100
AcDbSymbolTableRecord
100
AcDbBlockTableRecord
  2
block 16
340
0
102
{BLKREFS
331
89
102
}
  0
BLOCK_RECORD
  5
8E
330
1
100
AcDbSymbolTableRecord
100
AcDbBlockTableRecord
  2
block 17
340
0
102
{BLKREFS
331
8F
102
}
  0
BLOCK_RECORD
  5
92
330
1
100
AcDbSymbolTableRecord
100
AcDbBlockTableRecord
  2
block 18
340
0
102
{BLKREFS
331
93
102
}
  0
BLOCK_RECORD
  5
98
330
1
100
AcDbSymbolTableRecord
100
AcDbBlockTableRecord
  2
block 19
340
0
102
{BLKREFS
331
99
102
}
  0
BLOCK_RECORD
  5
9C
330
1
100
AcDbSymbolTableRecord
100
AcDbBlockTableRecord
  2
block 20
340
0
102
{BLKREFS
331
9D
102
}
  0
BLOCK_RECORD
  5
A0
330
1
100
AcDbSymbolTableRecord
100
AcDbBlockTableRecord
  2
block 21
340
0
102
{BLKREFS
331
A1
102
}
  0
BLOCK_RECORD
  5
A6
330
1
100
AcDbSymbolTableRecord
100
AcDbBlockTableRecord
  2
block 22
340
0
102
{BLKREFS
331
A7
102
}
  0
BLOCK_RECORD
  5
AA
330
1
100
AcDbSymbolTableRecord
100
AcDbBlockTableRecord
  2
block 23
340
0
102
{BLKREFS
331
AB
102
}
  0
BLOCK_RECORD
  5
AE
330
1
100
AcDbSymbolTableRecord
100
AcDbBlockTableRecord
  2
block 24
340
0
102
{BLKREFS
331
AF
102
}
  0
BLOCK_RECORD
  5
B2
330
1
100
AcDbSymbolTableRecord
100
AcDbBlockTableRecord
  2
block 25
340
0
102
{BLKREFS
331
B3
102
}
  0
BLOCK_RECORD
  5
B8
330
1
100
AcDbSymbolTableRecord
100
AcDbBlockTableRecord
  2
block 26
340
0
102
{BLKREFS
331
B9
102
}
  0
BLOCK_RECORD
  5
BC
330
1
100
AcDbSymbolTableRecord
100
AcDbBlockTableRecord
  2
block 27
340
0
102
{BLKREFS
331
BD
102
}
  0
BLOCK_RECORD
  5
C0
330
1
100
AcDbSymbolTableRecord
100
AcDbBlockTableRecord
  2
block 28
340
0
102
{BLKREFS
331
C1
102
}
  0
BLOCK_RECORD
  5
C6
330
1
100
AcDbSymbolTableRecord
100
AcDbBlockTableRecord
  2
block 29
340
0
102
{BLKREFS
331
C7
102
}
  0
BLOCK_RECORD
  5
CA
330
1
100
AcDbSymbolTableRecord
100
AcDbBlockTableRecord
  2
block 30
340
0
102
{BLKREFS
331
CB
102
}
  0
BLOCK_RECORD
  5
CE
330
1
100
AcDbSymbolTableRecord
100
AcDbBlockTableRecord
  2
block 31
340
0
102
{BLKREFS
331
CF
102
}
  0
BLOCK_RECORD
  5
D4
330
1
100
AcDbSymbolTableRecord
100
AcDbBlockTableRecord
  2
block 32
340
0
102
{BLKREFS
331
D5
102
}
  0
BLOCK_RECORD
  5
D8
330
1
100
AcDbSymbolTableRecord
100
AcDbBlockTableRecord
  2
block 33
340
0
102
{BLKREFS
331
D9
102
}
  0
BLOCK_RECORD
  5
DE
330
1
100
AcDbSymbolTableRecord
100
AcDbBlockTableRecord
  2
block 34
340
0
102
{BLKREFS
331
DF
102
}
  0
BLOCK_RECORD
  5
E2
330
1
100
AcDbSymbolTableRecord
100
AcDbBlockTableRecord
  2
block 35
340
0
102
{BLKREFS
331
E3
102
}
  0
BLOCK_RECORD
  5
E6
330
1
100
AcDbSymbolTableRecord
100
AcDbBlockTableRecord
  2
block 36
340
0
102
{BLKREFS
331
E7
102
}
  0
BLOCK_RECORD
  5
EC
330
1
100
AcDbSymbolTableRecord
100
AcDbBlockTableRecord
  2
block 37
340
0
102
{BLKREFS
331
ED
102
}
  0
BLOCK_RECORD
  5
F0
330
1
100
AcDbSymbolTableRecord
100
AcDbBlockTableRecord
  2
block 38
340
0
102
{BLKREFS
331
F1
102
}
  0
BLOCK_RECORD
  5
F6
330
1
100
AcDbSymbolTableRecord
100
AcDbBlockTableRecord
  2
block 39
340
0
102
{BLKREFS
331
F7
102
}
  0
BLOCK_RECORD
  5
FA
330
1
100
AcDbSymbolTableRecord
100
AcDbBlockTableRecord
  2
block 40
340
0
102
{BLKREFS
331
FB
102
}
  0
BLOCK_RECORD
  5
100
330
1
100
AcDbSymbolTableRecord
100
AcDbBlockTableRecord
  2
block 41
340
0
102
{BLKREFS
331
101
102
}
  0
BLOCK_RECORD
  5
104
330
1
100
AcDbSymbolTableRecord
100
AcDbBlockTableRecord
  2
block 42
340
0
102
{BLKREFS
331
105
102
}
  0
BLOCK_RECORD
  5
10A
330
1
100
AcDbSymbolTableRecord
100
AcDbBlockTableRecord
  2
block 43
340
0
102
{BLKREFS
331
10B
102
}
  0
BLOCK_RECORD
  5
10E
330
1
100
AcDbSymbolTableRecord
100
AcDbBlockTableRecord
  2
block 44
340
0
102
{BLKREFS
331
10F
102
}
  0
BLOCK_RECORD
  5
114
330
1
100
AcDbSymbolTableRecord
100
AcDbBlockTableRecord
  2
block 45
340
0
102
{BLKREFS
331
115
102
}
  0
BLOCK_RECORD
  5
118
330
1
100
AcDbSymbolTableRecord
100
AcDbBlockTableRecord
  2
block 46
340
0
102
{BLKREFS
331
119
102
}
  0
BLOCK_RECORD
  5
11C
330
1
100
AcDbSymbolTableRecord
100
AcDbBlockTableRecord
  2
block 47
340
0
102
{BLKREFS
331
11D
102
}
  0
BLOCK_RECORD
  5
122
330
1
100
AcDbSymbolTableRecord
100
AcDbBlockTableRecord
  2
block 48
340
0
102
{BLKREFS
331
123
102
}
  0
BLOCK_RECORD
  5
126
330
1
100
AcDbSymbolTableRecord
100
AcDbBlockTableRecord
  2
block 49
340
0
102
{BLKREFS
331
127
102
}
  0
BLOCK_RECORD
  5
12A
330
1
100
AcDbSymbolTableRecord
100
AcDbBlockTableRecord
  2
block 50
340
0
102
{BLKREFS
331
12B
102
}
  0
BLOCK_RECORD
  5
130
330
1
100
AcDbSymbolTableRecord
100
AcDbBlockTableRecord
  2
block 51
340
0
102
{BLKREFS
331
131
102
}
  0
BLOCK_RECORD
  5
134
330
1
100
AcDbSymbolTableRecord
100
AcDbBlockTableRecord
  2
block 52
340
0
102
{BLKREFS
331
135
102
}
  0
BLOCK_RECORD
  5
13A
330
1
100
AcDbSymbolTableRecord
100
AcDbBlockTableRecord
  2
block 53
340
0
102
{BLKREFS
331
13B
102
}
  0
BLOCK_RECORD
  5
13E
330
1
100
AcDbSymbolTableRecord
100
AcDbBlockTableRecord
  2
block 54
340
0
102
{BLKREFS
331
13F
102
}
  0
BLOCK_RECORD
  5
142
330
1
100
AcDbSymbolTableRecord
100
AcDbBlockTableRecord
  2
block 55
340
0
102
{BLKREFS
331
143
102
}
  0
BLOCK_RECORD
  5
148
330
1
100
AcDbSymbolTableRecord
100
AcDbBlockTableRecord
  2
block 56
340
0
102
{BLKREFS
331
149
102
}
  0
BLOCK_RECORD
  5
14C
330
1
100
AcDbSymbolTableRecord
100
AcDbBlockTableRecord
  2
block 57
340
0
102
{BLKREFS
331
14D
102
}
  0
BLOCK_RECORD
  5
152
330
1
100
AcDbSymbolTableRecord
100
AcDbBlockTableRecord
  2
block 58
340
0
102
{BLKREFS
331
153
102
}
  0
BLOCK_RECORD
  5
156
330
1
100
AcDbSymbolTableRecord
100
AcDbBlockTableRecord
  2
block 59
340
0
102
{BLKREFS
331
157
102
}
  0
BLOCK_RECORD
  5
15C
330
1
100
AcDbSymbolTableRecord
100
AcDbBlockTableRecord
  2
block 60
340
0
102
{BLKREFS
331
15D
102
}
  0
BLOCK_RECORD
  5
160
330
1
100
AcDbSymbolTableRecord
100
AcDbBlockTableRecord
  2
block 61
340
0
102
{BLKREFS
331
161
102
}
  0
BLOCK_RECORD
  5
166
330
1
100
AcDbSymbolTableRecord
100
AcDbBlockTableRecord
  2
block 62
340
0
102
{BLKREFS
331
167
102
}
  0
BLOCK_RECORD
  5
16A
330
1
100
AcDbSymbolTableRecord
100
AcDbBlockTableRecord
  2
block 63
340
0
102
{BLKREFS
331
16B
102
}
  0
BLOCK_RECORD
  5
16F
330
1
100
AcDbSymbolTableRecord
100
AcDbBlockTableRecord
  2
block 64
340
0
102
{BLKREFS
331
170
102
}
  0
BLOCK_RECORD
  5
173
330
1
100
AcDbSymbolTableRecord
100
AcDbBlockTableRecord
  2
block 65
340
0
102
{BLKREFS
331
174
102
}
  0
BLOCK_RECORD
  5
17A
330
1
100
AcDbSymbolTableRecord
100
AcDbBlockTableRecord
  2
block 66
340
0
102
{BLKREFS
331
17B
102
}
  0
BLOCK_RECORD
  5
17E
330
1
100
AcDbSymbolTableRecord
100
AcDbBlockTableRecord
  2
block 67
340
0
102
{BLKREFS
331
17F
102
}
  0
ENDTAB
  0
ENDSEC
  0
SECTION
  2
BLOCKS
  0
BLOCK
  5
20
330
1F
100
AcDbEntity
  8
0
100
AcDbBlockBegin
  2
*Model_Space
 70
     0
 71
     0
 10
0.0
 20
0.0
 30
0.0
  3
*Model_Space
  1

  0
ENDBLK
  5
21
330
1F
100
AcDbEntity
  8
0
100
AcDbBlockEnd
  0
BLOCK
  5
1C
330
1B
100
AcDbEntity
 67
     1
  8
0
100
AcDbBlockBegin
  2
*Paper_Space
 70
     0
 71
     0
 10
0.0
 20
0.0
 30
0.0
  3
*Paper_Space
  1

  0
ENDBLK
  5
1D
330
1B
100
AcDbEntity
 67
     1
  8
0
100
AcDbBlockEnd
  0
BLOCK
  5
24
330
23
100
AcDbEntity
  8
0
100
AcDbBlockBegin
  2
*Paper_Space0
 70
     0
 71
     0
 10
0.0
 20
0.0
 30
0.0
  3
*Paper_Space0
  1

  0
ENDBLK
  5
25
330
23
100
AcDbEntity
  8
0
100
AcDbBlockEnd
  0
BLOCK
  5
3E
330
3C
100
AcDbEntity
  8
0
100
AcDbBlockBegin
  2
block 2
 70
     0
 71
     0
 10
0.0
 20
0.0
 30
0.0
  3
block 2
  1

  0
INSERT
  5
41
330
3C
100
AcDbEntity
  8
Layer 1
100
AcDbBlockReference
  2
block 3
 10
0.0
 20
0.0
 30
0.0
  0
ENDBLK
  5
3F
330
3C
100
AcDbEntity
  8
0
100
AcDbBlockEnd
  0
BLOCK
  5
42
330
40
100
AcDbEntity
  8
0
100
AcDbBlockBegin
  2
block 3
 70
     0
 71
     0
 10
0.0
 20
0.0
 30
0.0
  3
block 3
  1

  0
SPLINE
  5
44
330
40
100
AcDbEntity
  8
Layer 1
370
     0
100
AcDbSpline
210
0.0
220
0.0
230
1.0
 70
    11
 71
     3
 72
    17
 73
    13
 74
     0
 42
0.0000000001
 43
0.0000000001
 40
0.0
 40
0.0
 40
0.0
 40
0.0
 40
1.0
 40
1.0
 40
1.0
 40
2.0
 40
2.0
 40
2.0
 40
3.0
 40
3.0
 40
3.0
 40
4.0
 40
4.0
 40
4.0
 40
4.0
 10
90.861328125
 20
-156.857421875
 30
0.0
 10
90.861328125
 20
-177.36328125
 30
0.0
 10
71.353515625
 20
-194.1748046875
 30
0.0
 10
47.291015625
 20
-194.1748046875
 30
0.0
 10
23.2275390625
 20
-194.1748046875
 30
0.0
 10
3.720703125
 20
-177.36328125
 30
0.0
 10
3.720703125
 20
-156.857421875
 30
0.0
 10
3.720703125
 20
-136.3515625
 30
0.0
 10
23.2275390625
 20
-119.728515625
 30
0.0
 10
47.291015625
 20
-119.728515625
 30
0.0
 10
71.353515625
 20
-119.728515625
 30
0.0
 10
90.861328125
 20
-136.3515625
 30
0.0
 10
90.861328125
 20
-156.857421875
 30
0.0
  0
HATCH
  5
45
330
40
100
AcDbEntity
  8
Layer 1
 62
    25
420
 11492394
100
AcDbHatch
 10
0.0
 20
0.0
 30
0.0
210
0.0
220
0.0
230
1.0
  2
SOLID
 70
     1
 71
     0
 91
        1
 92
        1
 93
        1
 72
     4
 94
        3
 73
     0
 74
     1
 95
       17
 96
       13
 40
0.0
 40
0.0
 40
0.0
 40
0.0
 40
1.0
 40
1.0
 40
1.0
 40
2.0
 40
2.0
 40
2.0
 40
3.0
 40
3.0
 40
3.0
 40
4.0
 40
4.0
 40
4.0
 40
4.0
 10
90.861328125
 20
-156.857421875
 10
90.861328125
 20
-177.36328125
 10
71.353515625
 20
-194.1748046875
 10
47.291015625
 20
-194.1748046875
 10
23.2275390625
 20
-194.1748046875
 10
3.720703125
 20
-177.36328125
 10
3.720703125
 20
-156.857421875
 10
3.720703125
 20
-136.3515625
 10
23.2275390625
 20
-119.728515625
 10
47.291015625
 20
-119.728515625
 10
71.353515625
 20
-119.728515625
 10
90.861328125
 20
-136.3515625
 10
90.861328125
 20
-156.857421875
 97
        0
 75
     2
 76
     1
 98
        0
  0
ENDBLK
  5
43
330
40
100
AcDbEntity
  8
0
100
AcDbBlockEnd
  0
BLOCK
  5
4A
330
48
100
AcDbEntity
  8
0
100
AcDbBlockBegin
  2
block 4
 70
     0
 71
     0
 10
0.0
 20
0.0
 30
0.0
  3
block 4
  1

  0
INSERT
  5
4D
330
48
100
AcDbEntity
  8
Layer 1
100
AcDbBlockReference
  2
block 5
 10
0.0
 20
0.0
 30
0.0
  0
INSERT
  5
57
330
48
100
AcDbEntity
  8
Layer 1
100
AcDbBlockReference
  2
block 7
 10
0.0
 20
0.0
 30
0.0
  0
ENDBLK
  5
4B
330
48
100
AcDbEntity
  8
0
100
AcDbBlockEnd
  0
BLOCK
  5
4E
330
4C
100
AcDbEntity
  8
0
100
AcDbBlockBegin
  2
block 5
 70
     0
 71
     0
 10
0.0
 20
0.0
 30
0.0
  3
block 5
  1

  0
INSERT
  5
51
330
4C
100
AcDbEntity
  8
Layer 1
100
AcDbBlockReference
  2
block 6
 10
0.0
 20
0.0
 30
0.0
  0
ENDBLK
  5
4F
330
4C
100
AcDbEntity
  8
0
100
AcDbBlockEnd
  0
BLOCK
  5
52
330
50
100
AcDbEntity
  8
0
100
AcDbBlockBegin
  2
block 6
 70
     0
 71
     0
 10
0.0
 20
0.0
 30
0.0
  3
block 6
  1

  0
SPLINE
  5
54
330
50
100
AcDbEntity
  8
Layer 1
370
     0
100
AcDbSpline
210
0.0
220
0.0
230
1.0
 70
    11
 71
     3
 72
    17
 73
    13
 74
     0
 42
0.0000000001
 43
0.0000000001
 40
0.0
 40
0.0
 40
0.0
 40
0.0
 40
1.0
 40
1.0
 40
1.0
 40
2.0
 40
2.0
 40
2.0
 40
3.0
 40
3.0
 40
3.0
 40
4.0
 40
4.0
 40
4.0
 40
4.0
 10
62.1728515625
 20
-113.4306640625
 30
0.0
 10
62.1943359375
 20
-113.4130859375
 30
0.0
 10
62.2177734375
 20
-113.396484375
 30
0.0
 10
62.240234375
 20
-113.380859375
 30
0.0
 10
62.263671875
 20
-113.3583984375
 30
0.0
 10
62.2880859375
 20
-113.337890625
 30
0.0
 10
62.3125
 20
-113.31640625
 30
0.0
 10
62.3125
 20
-113.322265625
 30
0.0
 10
62.3125
 20
-113.328125
 30
0.0
 10
62.3125
 20
-113.3330078125
 30
0.0
 10
62.267578125
 20
-113.3671875
 30
0.0
 10
62.2177734375
 20
-113.396484375
 30
0.0
 10
62.1728515625
 20
-113.4306640625
 30
0.0
  0
HATCH
  5
55
330
50
100
AcDbEntity
  8
Layer 1
 62
    32
420
 11954728
100
AcDbHatch
 10
0.0
 20
0.0
 30
0.0
210
0.0
220
0.0
230
1.0
  2
SOLID
 70
     1
 71
     0
 91
        1
 92
        1
 93
        1
 72
     4
 94
        3
 73
     0
 74
     1
 95
       17
 96
       13
 40
0.0
 40
0.0
 40
0.0
 40
0.0
 40
1.0
 40
1.0
 40
1.0
 40
2.0
 40
2.0
 40
2.0
 40
3.0
 40
3.0
 40
3.0
 40
4.0
 40
4.0
 40
4.0
 40
4.0
 10
62.1728515625
 20
-113.4306640625
 10
62.1943359375
 20
-113.4130859375
 10
62.2177734375
 20
-113.396484375
 10
62.240234375
 20
-113.380859375
 10
62.263671875
 20
-113.3583984375
 10
62.2880859375
 20
-113.337890625
 10
62.3125
 20
-113.31640625
 10
62.3125
 20
-113.322265625
 10
62.3125
 20
-113.328125
 10
62.3125
 20
-113.3330078125
 10
62.267578125
 20
-113.3671875
 10
62.2177734375
 20
-113.396484375
 10
62.1728515625
 20
-113.4306640625
 97
        0
 75
     2
 76
     1
 98
        0
  0
ENDBLK
  5
53
330
50
100
AcDbEntity
  8
0
100
AcDbBlockEnd
  0
BLOCK
  5
58
330
56
100
AcDbEntity
  8
0
100
AcDbBlockBegin
  2
block 7
 70
     0
 71
     0
 10
0.0
 20
0.0
 30
0.0
  3
block 7
  1

  0
INSERT
  5
5B
330
56
100
AcDbEntity
  8
Layer 1
100
AcDbBlockReference
  2
block 8
 10
0.0
 20
0.0
 30
0.0
  0
ENDBLK
  5
59
330
56
100
AcDbEntity
  8
0
100
AcDbBlockEnd
  0
BLOCK
  5
5C
330
5A
100
AcDbEntity
  8
0
100
AcDbBlockBegin
  2
block 8
 70
     0
 71
     0
 10
0.0
 20
0.0
 30
0.0
  3
block 8
  1

  0
SPLINE
  5
5E
330
5A
100
AcDbEntity
  8
Layer 1
370
     0
100
AcDbSpline
210
0.0
220
0.0
230
1.0
 70
    11
 71
     3
 72
    17
 73
    13
 74
     0
 42
0.0000000001
 43
0.0000000001
 40
0.0
 40
0.0
 40
0.0
 40
0.0
 40
1.0
 40
1.0
 40
1.0
 40
2.0
 40
2.0
 40
2.0
 40
3.0
 40
3.0
 40
3.0
 40
4.0
 40
4.0
 40
4.0
 40
4.0
 10
137.8359375
 20
-113.478515625
 30
0.0
 10
137.8359375
 20
-113.4716796875
 30
0.0
 10
137.8330078125
 20
-113.46875
 30
0.0
 10
137.8330078125
 20
-113.4619140625
 30
0.0
 10
137.859375
 20
-113.482421875
 30
0.0
 10
137.880859375
 20
-113.501953125
 30
0.0
 10
137.9033203125
 20
-113.521484375
 30
0.0
 10
137.927734375
 20
-113.5390625
 30
0.0
 10
137.94921875
 20
-113.5546875
 30
0.0
 10
137.9716796875
 20
-113.5712890625
 30
0.0
 10
137.927734375
 20
-113.5390625
 30
0.0
 10
137.8779296875
 20
-113.509765625
 30
0.0
 10
137.8359375
 20
-113.478515625
 30
0.0
  0
HATCH
  5
5F
330
5A
100
AcDbEntity
  8
Layer 1
 62
    32
420
 11954728
100
AcDbHatch
 10
0.0
 20
0.0
 30
0.0
210
0.0
220
0.0
230
1.0
  2
SOLID
 70
     1
 71
     0
 91
        1
 92
        1
 93
        1
 72
     4
 94
        3
 73
     0
 74
     1
 95
       17
 96
       13
 40
0.0
 40
0.0
 40
0.0
 40
0.0
 40
1.0
 40
1.0
 40
1.0
 40
2.0
 40
2.0
 40
2.0
 40
3.0
 40
3.0
 40
3.0
 40
4.0
 40
4.0
 40
4.0
 40
4.0
 10
137.8359375
 20
-113.478515625
 10
137.8359375
 20
-113.4716796875
 10
137.8330078125
 20
-113.46875
 10
137.8330078125
 20
-113.4619140625
 10
137.859375
 20
-113.482421875
 10
137.880859375
 20
-113.501953125
 10
137.9033203125
 20
-113.521484375
 10
137.927734375
 20
-113.5390625
 10
137.94921875
 20
-113.5546875
 10
137.9716796875
 20
-113.5712890625
 10
137.927734375
 20
-113.5390625
 10
137.8779296875
 20
-113.509765625
 10
137.8359375
 20
-113.478515625
 97
        0
 75
     2
 76
     1
 98
        0
  0
ENDBLK
  5
5D
330
5A
100
AcDbEntity
  8
0
100
AcDbBlockEnd
  0
BLOCK
  5
64
330
62
100
AcDbEntity
  8
0
100
AcDbBlockBegin
  2
block 9
 70
     0
 71
     0
 10
0.0
 20
0.0
 30
0.0
  3
block 9
  1

  0
INSERT
  5
67
330
62
100
AcDbEntity
  8
Layer 1
100
AcDbBlockReference
  2
block 10
 10
0.0
 20
0.0
 30
0.0
  0
ENDBLK
  5
65
330
62
100
AcDbEntity
  8
0
100
AcDbBlockEnd
  0
BLOCK
  5
68
330
66
100
AcDbEntity
  8
0
100
AcDbBlockBegin
  2
block 10
 70
     0
 71
     0
 10
0.0
 20
0.0
 30
0.0
  3
block 10
  1

  0
SPLINE
  5
6A
330
66
100
AcDbEntity
  8
Layer 1
370
     0
100
AcDbSpline
210
0.0
220
0.0
230
1.0
 70
    11
 71
     3
 72
    35
 73
    31
 74
     0
 42
0.0000000001
 43
0.0000000001
 40
0.0
 40
0.0
 40
0.0
 40
0.0
 40
1.0
 40
1.0
 40
1.0
 40
2.0
 40
2.0
 40
2.0
 40
3.0
 40
3.0
 40
3.0
 40
4.0
 40
4.0
 40
4.0
 40
5.0
 40
5.0
 40
5.0
 40
6.0
 40
6.0
 40
6.0
 40
7.0
 40
7.0
 40
7.0
 40
8.0
 40
8.0
 40
8.0
 40
9.0
 40
9.0
 40
9.0
 40
10.0
 40
10.0
 40
10.0
 40
10.0
 10
33.5673828125
 20
-80.13671875
 30
0.0
 10
35.263671875
 20
-81.498046875
 30
0.0
 10
36.3876953125
 20
-82.9033203125
 30
0.0
 10
37.396484375
 20
-84.09326171875
 30
0.0
 10
37.9091796875
 20
-84.716796875
 30
0.0
 10
38.2744140625
 20
-85.05029296875
 30
0.0
 10
38.7890625
 20
-85.62744140625
 30
0.0
 10
39.310546875
 20
-86.2431640625
 30
0.0
 10
39.8876953125
 20
-87.00048828125
 30
0.0
 10
40.361328125
 20
-87.8466796875
 30
0.0
 10
41.328125
 20
-89.53369140625
 30
0.0
 10
41.92578125
 20
-91.58251953125
 30
0.0
 10
41.8935546875
 20
-93.6044921875
 30
0.0
 10
41.8466796875
 20
-95.630859375
 30
0.0
 10
41.2626953125
 20
-97.62939453125
 30
0.0
 10
39.80859375
 20
-99.275390625
 30
0.0
 10
38.4912109375
 20
-97.52197265625
 30
0.0
 10
37.625
 20
-96.09814453125
 30
0.0
 10
36.80078125
 20
-94.8095703125
 30
0.0
 10
35.9873046875
 20
-93.51904296875
 30
0.0
 10
35.27734375
 20
-92.38818359375
 30
0.0
 10
34.564453125
 20
-91.1181640625
 30
0.0
 10
34.201171875
 20
-90.4794921875
 30
0.0
 10
33.853515625
 20
-89.80859375
 30
0.0
 10
33.462890625
 20
-88.9892578125
 30
0.0
 10
33.04296875
 20
-88.14306640625
 30
0.0
 10
32.6240234375
 20
-86.9580078125
 30
0.0
 10
32.5380859375
 20
-85.9873046875
 30
0.0
 10
32.330078125
 20
-83.99853515625
 30
0.0
 10
32.5810546875
 20
-82.10205078125
 30
0.0
 10
33.5673828125
 20
-80.13671875
 30
0.0
  0
HATCH
  5
6B
330
66
100
AcDbEntity
  8
Layer 1
 62
    13
420
 15292507
100
AcDbHatch
 10
0.0
 20
0.0
 30
0.0
210
0.0
220
0.0
230
1.0
  2
SOLID
 70
     1
 71
     0
 91
        1
 92
        1
 93
        1
 72
     4
 94
        3
 73
     0
 74
     1
 95
       35
 96
       31
 40
0.0
 40
0.0
 40
0.0
 40
0.0
 40
1.0
 40
1.0
 40
1.0
 40
2.0
 40
2.0
 40
2.0
 40
3.0
 40
3.0
 40
3.0
 40
4.0
 40
4.0
 40
4.0
 40
5.0
 40
5.0
 40
5.0
 40
6.0
 40
6.0
 40
6.0
 40
7.0
 40
7.0
 40
7.0
 40
8.0
 40
8.0
 40
8.0
 40
9.0
 40
9.0
 40
9.0
 40
10.0
 40
10.0
 40
10.0
 40
10.0
 10
33.5673828125
 20
-80.13671875
 10
35.263671875
 20
-81.498046875
 10
36.3876953125
 20
-82.9033203125
 10
37.396484375
 20
-84.09326171875
 10
37.9091796875
 20
-84.716796875
 10
38.2744140625
 20
-85.05029296875
 10
38.7890625
 20
-85.62744140625
 10
39.310546875
 20
-86.2431640625
 10
39.8876953125
 20
-87.00048828125
 10
40.361328125
 20
-87.8466796875
 10
41.328125
 20
-89.53369140625
 10
41.92578125
 20
-91.58251953125
 10
41.8935546875
 20
-93.6044921875
 10
41.8466796875
 20
-95.630859375
 10
41.2626953125
 20
-97.62939453125
 10
39.80859375
 20
-99.275390625
 10
38.4912109375
 20
-97.52197265625
 10
37.625
 20
-96.09814453125
 10
36.80078125
 20
-94.8095703125
 10
35.9873046875
 20
-93.51904296875
 10
35.27734375
 20
-92.38818359375
 10
34.564453125
 20
-91.1181640625
 10
34.201171875
 20
-90.4794921875
 10
33.853515625
 20
-89.80859375
 10
33.462890625
 20
-88.9892578125
 10
33.04296875
 20
-88.14306640625
 10
32.6240234375
 20
-86.9580078125
 10
32.5380859375
 20
-85.9873046875
 10
32.330078125
 20
-83.99853515625
 10
32.5810546875
 20
-82.10205078125
 10
33.5673828125
 20
-80.13671875
 97
        0
 75
     2
 76
     1
 98
        0
  0
ENDBLK
  5
69
330
66
100
AcDbEntity
  8
0
100
AcDbBlockEnd
  0
BLOCK
  5
6E
330
6C
100
AcDbEntity
  8
0
100
AcDbBlockBegin
  2
block 11
 70
     0
 71
     0
 10
0.0
 20
0.0
 30
0.0
  3
block 11
  1

  0
INSERT
  5
71
330
6C
100
AcDbEntity
  8
Layer 1
100
AcDbBlockReference
  2
block 12
 10
0.0
 20
0.0
 30
0.0
  0
ENDBLK
  5
6F
330
6C
100
AcDbEntity
  8
0
100
AcDbBlockEnd
  0
BLOCK
  5
72
330
70
100
AcDbEntity
  8
0
100
AcDbBlockBegin
  2
block 12
 70
     0
 71
     0
 10
0.0
 20
0.0
 30
0.0
  3
block 12
  1

  0
SPLINE
  5
74
330
70
100
AcDbEntity
  8
Layer 1
370
     0
100
AcDbSpline
210
0.0
220
0.0
230
1.0
 70
    11
 71
     3
 72
    32
 73
    28
 74
     0
 42
0.0000000001
 43
0.0000000001
 40
0.0
 40
0.0
 40
0.0
 40
0.0
 40
1.0
 40
1.0
 40
1.0
 40
2.0
 40
2.0
 40
2.0
 40
3.0
 40
3.0
 40
3.0
 40
4.0
 40
4.0
 40
4.0
 40
5.0
 40
5.0
 40
5.0
 40
6.0
 40
6.0
 40
6.0
 40
7.0
 40
7.0
 40
7.0
 40
8.0
 40
8.0
 40
8.0
 40
9.0
 40
9.0
 40
9.0
 40
9.0
 10
22.02734375
 20
-110.8017578125
 30
0.0
 10
22.02734375
 20
-110.798828125
 30
0.0
 10
22.02734375
 20
-110.79296875
 30
0.0
 10
22.02734375
 20
-110.7890625
 30
0.0
 10
22.02734375
 20
-105.2421875
 30
0.0
 10
17.0107421875
 20
-100.7451171875
 30
0.0
 10
12.8740234375
 20
-100.7451171875
 30
0.0
 10
8.73828125
 20
-100.7451171875
 30
0.0
 10
3.7216796875
 20
-105.2421875
 30
0.0
 10
3.7216796875
 20
-110.7890625
 30
0.0
 10
3.7216796875
 20
-113.0087890625
 30
0.0
 10
3.548828125
 20
-118.84375
 30
0.0
 10
7.74609375
 20
-118.84375
 30
0.0
 10
8.9814453125
 20
-118.84375
 30
0.0
 10
10.07421875
 20
-118.2705078125
 30
0.0
 10
10.8125
 20
-117.392578125
 30
0.0
 10
11.505859375
 20
-117.46875
 30
0.0
 10
12.2021484375
 20
-117.50390625
 30
0.0
 10
12.8740234375
 20
-117.50390625
 30
0.0
 10
13.5478515625
 20
-117.50390625
 30
0.0
 10
14.2421875
 20
-117.46875
 30
0.0
 10
14.9375
 20
-117.392578125
 30
0.0
 10
15.6748046875
 20
-118.2705078125
 30
0.0
 10
16.767578125
 20
-118.84375
 30
0.0
 10
18.0068359375
 20
-118.84375
 30
0.0
 10
22.193359375
 20
-118.84375
 30
0.0
 10
22.02734375
 20
-113.03125
 30
0.0
 10
22.02734375
 20
-110.8017578125
 30
0.0
  0
HATCH
  5
75
330
70
100
AcDbEntity
  8
Layer 1
 62
    13
420
 15292507
100
AcDbHatch
 10
0.0
 20
0.0
 30
0.0
210
0.0
220
0.0
230
1.0
  2
SOLID
 70
     1
 71
     0
 91
        1
 92
        1
 93
        1
 72
     4
 94
        3
 73
     0
 74
     1
 95
       32
 96
       28
 40
0.0
 40
0.0
 40
0.0
 40
0.0
 40
1.0
 40
1.0
 40
1.0
 40
2.0
 40
2.0
 40
2.0
 40
3.0
 40
3.0
 40
3.0
 40
4.0
 40
4.0
 40
4.0
 40
5.0
 40
5.0
 40
5.0
 40
6.0
 40
6.0
 40
6.0
 40
7.0
 40
7.0
 40
7.0
 40
8.0
 40
8.0
 40
8.0
 40
9.0
 40
9.0
 40
9.0
 40
9.0
 10
22.02734375
 20
-110.8017578125
 10
22.02734375
 20
-110.798828125
 10
22.02734375
 20
-110.79296875
 10
22.02734375
 20
-110.7890625
 10
22.02734375
 20
-105.2421875
 10
17.0107421875
 20
-100.7451171875
 10
12.8740234375
 20
-100.7451171875
 10
8.73828125
 20
-100.7451171875
 10
3.7216796875
 20
-105.2421875
 10
3.7216796875
 20
-110.7890625
 10
3.7216796875
 20
-113.0087890625
 10
3.548828125
 20
-118.84375
 10
7.74609375
 20
-118.84375
 10
8.9814453125
 20
-118.84375
 10
10.07421875
 20
-118.2705078125
 10
10.8125
 20
-117.392578125
 10
11.505859375
 20
-117.46875
 10
12.2021484375
 20
-117.50390625
 10
12.8740234375
 20
-117.50390625
 10
13.5478515625
 20
-117.50390625
 10
14.2421875
 20
-117.46875
 10
14.9375
 20
-117.392578125
 10
15.6748046875
 20
-118.2705078125
 10
16.767578125
 20
-118.84375
 10
18.0068359375
 20
-118.84375
 10
22.193359375
 20
-118.84375
 10
22.02734375
 20
-113.03125
 10
22.02734375
 20
-110.8017578125
 97
        0
 75
     2
 76
     1
 98
        0
  0
ENDBLK
  5
73
330
70
100
AcDbEntity
  8
0
100
AcDbBlockEnd
  0
BLOCK
  5
7C
330
7A
100
AcDbEntity
  8
0
100
AcDbBlockBegin
  2
block 13
 70
     0
 71
     0
 10
0.0
 20
0.0
 30
0.0
  3
block 13
  1

  0
INSERT
  5
7F
330
7A
100
AcDbEntity
  8
Layer 1
100
AcDbBlockReference
  2
block 14
 10
0.0
 20
0.0
 30
0.0
  0
ENDBLK
  5
7D
330
7A
100
AcDbEntity
  8
0
100
AcDbBlockEnd
  0
BLOCK
  5
80
330
7E
100
AcDbEntity
  8
0
100
AcDbBlockBegin
  2
block 14
 70
     0
 71
     0
 10
0.0
 20
0.0
 30
0.0
  3
block 14
  1

  0
SPLINE
  5
82
330
7E
100
AcDbEntity
  8
Layer 1
370
     0
100
AcDbSpline
210
0.0
220
0.0
230
1.0
 70
    11
 71
     3
 72
    32
 73
    28
 74
     0
 42
0.0000000001
 43
0.0000000001
 40
0.0
 40
0.0
 40
0.0
 40
0.0
 40
1.0
 40
1.0
 40
1.0
 40
2.0
 40
2.0
 40
2.0
 40
3.0
 40
3.0
 40
3.0
 40
4.0
 40
4.0
 40
4.0
 40
5.0
 40
5.0
 40
5.0
 40
6.0
 40
6.0
 40
6.0
 40
7.0
 40
7.0
 40
7.0
 40
8.0
 40
8.0
 40
8.0
 40
9.0
 40
9.0
 40
9.0
 40
9.0
 10
7.45751953125
 20
-88.91015625
 30
0.0
 10
6.74169921875
 20
-88.91015625
 30
0.0
 10
6.07958984375
 20
-89.125
 30
0.0
 10
5.51806640625
 20
-89.48486328125
 30
0.0
 10
5.39208984375
 20
-89.39990234375
 30
0.0
 10
5.24658203125
 20
-89.3193359375
 30
0.0
 10
5.12548828125
 20
-89.19482421875
 30
0.0
 10
5.12548828125
 20
-89.19482421875
 30
0.0
 10
3.77392578125
 20
-87.59619140625
 30
0.0
 10
3.77392578125
 20
-87.59619140625
 30
0.0
 10
3.67236328125
 20
-88.33349609375
 30
0.0
 10
3.70556640625
 20
-89.09375
 30
0.0
 10
3.96923828125
 20
-89.85791015625
 30
0.0
 10
4.06884765625
 20
-90.130859375
 30
0.0
 10
4.14013671875
 20
-90.47607421875
 30
0.0
 10
4.34521484375
 20
-90.728515625
 30
0.0
 10
4.04345703125
 20
-91.255859375
 30
0.0
 10
3.85791015625
 20
-91.85888671875
 30
0.0
 10
3.85791015625
 20
-92.509765625
 30
0.0
 10
3.85791015625
 20
-94.498046875
 30
0.0
 10
5.46923828125
 20
-96.107421875
 30
0.0
 10
7.45751953125
 20
-96.107421875
 30
0.0
 10
9.44384765625
 20
-96.107421875
 30
0.0
 10
11.05712890625
 20
-94.498046875
 30
0.0
 10
11.05712890625
 20
-92.509765625
 30
0.0
 10
11.05712890625
 20
-90.52099609375
 30
0.0
 10
9.44384765625
 20
-88.91015625
 30
0.0
 10
7.45751953125
 20
-88.91015625
 30
0.0
  0
HATCH
  5
83
330
7E
100
AcDbEntity
  8
Layer 1
 62
    28
420
  4986645
100
AcDbHatch
 10
0.0
 20
0.0
 30
0.0
210
0.0
220
0.0
230
1.0
  2
SOLID
 70
     1
 71
     0
 91
        1
 92
        1
 93
        1
 72
     4
 94
        3
 73
     0
 74
     1
 95
       32
 96
       28
 40
0.0
 40
0.0
 40
0.0
 40
0.0
 40
1.0
 40
1.0
 40
1.0
 40
2.0
 40
2.0
 40
2.0
 40
3.0
 40
3.0
 40
3.0
 40
4.0
 40
4.0
 40
4.0
 40
5.0
 40
5.0
 40
5.0
 40
6.0
 40
6.0
 40
6.0
 40
7.0
 40
7.0
 40
7.0
 40
8.0
 40
8.0
 40
8.0
 40
9.0
 40
9.0
 40
9.0
 40
9.0
 10
7.45751953125
 20
-88.91015625
 10
6.74169921875
 20
-88.91015625
 10
6.07958984375
 20
-89.125
 10
5.51806640625
 20
-89.48486328125
 10
5.39208984375
 20
-89.39990234375
 10
5.24658203125
 20
-89.3193359375
 10
5.12548828125
 20
-89.19482421875
 10
5.12548828125
 20
-89.19482421875
 10
3.77392578125
 20
-87.59619140625
 10
3.77392578125
 20
-87.59619140625
 10
3.67236328125
 20
-88.33349609375
 10
3.70556640625
 20
-89.09375
 10
3.96923828125
 20
-89.85791015625
 10
4.06884765625
 20
-90.130859375
 10
4.14013671875
 20
-90.47607421875
 10
4.34521484375
 20
-90.728515625
 10
4.04345703125
 20
-91.255859375
 10
3.85791015625
 20
-91.85888671875
 10
3.85791015625
 20
-92.509765625
 10
3.85791015625
 20
-94.498046875
 10
5.46923828125
 20
-96.107421875
 10
7.45751953125
 20
-96.107421875
 10
9.44384765625
 20
-96.107421875
 10
11.05712890625
 20
-94.498046875
 10
11.05712890625
 20
-92.509765625
 10
11.05712890625
 20
-90.52099609375
 10
9.44384765625
 20
-88.91015625
 10
7.45751953125
 20
-88.91015625
 97
        0
 75
     2
 76
     1
 98
        0
  0
ENDBLK
  5
81
330
7E
100
AcDbEntity
  8
0
100
AcDbBlockEnd
  0
BLOCK
  5
86
330
84
100
AcDbEntity
  8
0
100
AcDbBlockBegin
  2
block 15
 70
     0
 71
     0
 10
0.0
 20
0.0
 30
0.0
  3
block 15
  1

  0
INSERT
  5
89
330
84
100
AcDbEntity
  8
Layer 1
100
AcDbBlockReference
  2
block 16
 10
0.0
 20
0.0
 30
0.0
  0
ENDBLK
  5
87
330
84
100
AcDbEntity
  8
0
100
AcDbBlockEnd
  0
BLOCK
  5
8A
330
88
100
AcDbEntity
  8
0
100
AcDbBlockBegin
  2
block 16
 70
     0
 71
     0
 10
0.0
 20
0.0
 30
0.0
  3
block 16
  1

  0
SPLINE
  5
8C
330
88
100
AcDbEntity
  8
Layer 1
370
     0
100
AcDbSpline
210
0.0
220
0.0
230
1.0
 70
    11
 71
     3
 72
    35
 73
    31
 74
     0
 42
0.0000000001
 43
0.0000000001
 40
0.0
 40
0.0
 40
0.0
 40
0.0
 40
1.0
 40
1.0
 40
1.0
 40
2.0
 40
2.0
 40
2.0
 40
3.0
 40
3.0
 40
3.0
 40
4.0
 40
4.0
 40
4.0
 40
5.0
 40
5.0
 40
5.0
 40
6.0
 40
6.0
 40
6.0
 40
7.0
 40
7.0
 40
7.0
 40
8.0
 40
8.0
 40
8.0
 40
9.0
 40
9.0
 40
9.0
 40
10.0
 40
10.0
 40
10.0
 40
10.0
 10
20.04296875
 20
-91.01025390625
 30
0.0
 10
20.1103515625
 20
-90.837890625
 30
0.0
 10
20.1611328125
 20
-90.6591796875
 30
0.0
 10
20.2177734375
 20
-90.50146484375
 30
0.0
 10
20.48046875
 20
-89.7373046875
 30
0.0
 10
20.513671875
 20
-88.97705078125
 30
0.0
 10
20.4130859375
 20
-88.23974609375
 30
0.0
 10
20.4130859375
 20
-88.23974609375
 30
0.0
 10
20.248046875
 20
-88.2109375
 30
0.0
 10
20.248046875
 20
-88.2109375
 30
0.0
 10
19.8857421875
 20
-88.82763671875
 30
0.0
 10
19.4853515625
 20
-89.3994140625
 30
0.0
 10
19.0634765625
 20
-89.83837890625
 30
0.0
 10
19.0009765625
 20
-89.90087890625
 30
0.0
 10
18.93359375
 20
-89.95166015625
 30
0.0
 10
18.86328125
 20
-89.99853515625
 30
0.0
 10
18.3564453125
 20
-89.72412109375
 30
0.0
 10
17.783203125
 20
-89.5537109375
 30
0.0
 10
17.166015625
 20
-89.5537109375
 30
0.0
 10
15.1748046875
 20
-89.5537109375
 30
0.0
 10
13.5625
 20
-91.16455078125
 30
0.0
 10
13.5625
 20
-93.1533203125
 30
0.0
 10
13.5625
 20
-95.1416015625
 30
0.0
 10
15.1748046875
 20
-96.7509765625
 30
0.0
 10
17.166015625
 20
-96.7509765625
 30
0.0
 10
19.1513671875
 20
-96.7509765625
 30
0.0
 10
20.763671875
 20
-95.1416015625
 30
0.0
 10
20.763671875
 20
-93.1533203125
 30
0.0
 10
20.763671875
 20
-92.34619140625
 30
0.0
 10
20.490234375
 20
-91.60986328125
 30
0.0
 10
20.04296875
 20
-91.01025390625
 30
0.0
  0
HATCH
  5
8D
330
88
100
AcDbEntity
  8
Layer 1
 62
    28
420
  4986645
100
AcDbHatch
 10
0.0
 20
0.0
 30
0.0
210
0.0
220
0.0
230
1.0
  2
SOLID
 70
     1
 71
     0
 91
        1
 92
        1
 93
        1
 72
     4
 94
        3
 73
     0
 74
     1
 95
       35
 96
       31
 40
0.0
 40
0.0
 40
0.0
 40
0.0
 40
1.0
 40
1.0
 40
1.0
 40
2.0
 40
2.0
 40
2.0
 40
3.0
 40
3.0
 40
3.0
 40
4.0
 40
4.0
 40
4.0
 40
5.0
 40
5.0
 40
5.0
 40
6.0
 40
6.0
 40
6.0
 40
7.0
 40
7.0
 40
7.0
 40
8.0
 40
8.0
 40
8.0
 40
9.0
 40
9.0
 40
9.0
 40
10.0
 40
10.0
 40
10.0
 40
10.0
 10
20.04296875
 20
-91.01025390625
 10
20.1103515625
 20
-90.837890625
 10
20.1611328125
 20
-90.6591796875
 10
20.2177734375
 20
-90.50146484375
 10
20.48046875
 20
-89.7373046875
 10
20.513671875
 20
-88.97705078125
 10
20.4130859375
 20
-88.23974609375
 10
20.4130859375
 20
-88.23974609375
 10
20.248046875
 20
-88.2109375
 10
20.248046875
 20
-88.2109375
 10
19.8857421875
 20
-88.82763671875
 10
19.4853515625
 20
-89.3994140625
 10
19.0634765625
 20
-89.83837890625
 10
19.0009765625
 20
-89.90087890625
 10
18.93359375
 20
-89.95166015625
 10
18.86328125
 20
-89.99853515625
 10
18.3564453125
 20
-89.72412109375
 10
17.783203125
 20
-89.5537109375
 10
17.166015625
 20
-89.5537109375
 10
15.1748046875
 20
-89.5537109375
 10
13.5625
 20
-91.16455078125
 10
13.5625
 20
-93.1533203125
 10
13.5625
 20
-95.1416015625
 10
15.1748046875
 20
-96.7509765625
 10
17.166015625
 20
-96.7509765625
 10
19.1513671875
 20
-96.7509765625
 10
20.763671875
 20
-95.1416015625
 10
20.763671875
 20
-93.1533203125
 10
20.763671875
 20
-92.34619140625
 10
20.490234375
 20
-91.60986328125
 10
20.04296875
 20
-91.01025390625
 97
        0
 75
     2
 76
     1
 98
        0
  0
ENDBLK
  5
8B
330
88
100
AcDbEntity
  8
0
100
AcDbBlockEnd
  0
BLOCK
  5
90
330
8E
100
AcDbEntity
  8
0
100
AcDbBlockBegin
  2
block 17
 70
     0
 71
     0
 10
0.0
 20
0.0
 30
0.0
  3
block 17
  1

  0
INSERT
  5
93
330
8E
100
AcDbEntity
  8
Layer 1
100
AcDbBlockReference
  2
block 18
 10
0.0
 20
0.0
 30
0.0
  0
ENDBLK
  5
91
330
8E
100
AcDbEntity
  8
0
100
AcDbBlockEnd
  0
BLOCK
  5
94
330
92
100
AcDbEntity
  8
0
100
AcDbBlockBegin
  2
block 18
 70
     0
 71
     0
 10
0.0
 20
0.0
 30
0.0
  3
block 18
  1

  0
SPLINE
  5
96
330
92
100
AcDbEntity
  8
Layer 1
370
     0
100
AcDbSpline
210
0.0
220
0.0
230
1.0
 70
    11
 71
     3
 72
    17
 73
    13
 74
     0
 42
0.0000000001
 43
0.0000000001
 40
0.0
 40
0.0
 40
0.0
 40
0.0
 40
1.0
 40
1.0
 40
1.0
 40
2.0
 40
2.0
 40
2.0
 40
3.0
 40
3.0
 40
3.0
 40
4.0
 40
4.0
 40
4.0
 40
4.0
 10
27.3251953125
 20
-90.779296875
 30
0.0
 10
27.3251953125
 20
-91.37109375
 30
0.0
 10
26.8447265625
 20
-91.8515625
 30
0.0
 10
26.251953125
 20
-91.8515625
 30
0.0
 10
25.66015625
 20
-91.8515625
 30
0.0
 10
25.1796875
 20
-91.37109375
 30
0.0
 10
25.1796875
 20
-90.779296875
 30
0.0
 10
25.1796875
 20
-90.18701171875
 30
0.0
 10
25.66015625
 20
-89.7060546875
 30
0.0
 10
26.251953125
 20
-89.7060546875
 30
0.0
 10
26.8447265625
 20
-89.7060546875
 30
0.0
 10
27.3251953125
 20
-90.18701171875
 30
0.0
 10
27.3251953125
 20
-90.779296875
 30
0.0
  0
HATCH
  5
97
330
92
100
AcDbEntity
  8
Layer 1
 62
    22
420
 14427942
100
AcDbHatch
 10
0.0
 20
0.0
 30
0.0
210
0.0
220
0.0
230
1.0
  2
SOLID
 70
     1
 71
     0
 91
        1
 92
        1
 93
        1
 72
     4
 94
        3
 73
     0
 74
     1
 95
       17
 96
       13
 40
0.0
 40
0.0
 40
0.0
 40
0.0
 40
1.0
 40
1.0
 40
1.0
 40
2.0
 40
2.0
 40
2.0
 40
3.0
 40
3.0
 40
3.0
 40
4.0
 40
4.0
 40
4.0
 40
4.0
 10
27.3251953125
 20
-90.779296875
 10
27.3251953125
 20
-91.37109375
 10
26.8447265625
 20
-91.8515625
 10
26.251953125
 20
-91.8515625
 10
25.66015625
 20
-91.8515625
 10
25.1796875
 20
-91.37109375
 10
25.1796875
 20
-90.779296875
 10
25.1796875
 20
-90.18701171875
 10
25.66015625
 20
-89.7060546875
 10
26.251953125
 20
-89.7060546875
 10
26.8447265625
 20
-89.7060546875
 10
27.3251953125
 20
-90.18701171875
 10
27.3251953125
 20
-90.779296875
 97
        0
 75
     2
 76
     1
 98
        0
  0
ENDBLK
  5
95
330
92
100
AcDbEntity
  8
0
100
AcDbBlockEnd
  0
BLOCK
  5
9A
330
98
100
AcDbEntity
  8
0
100
AcDbBlockBegin
  2
block 19
 70
     0
 71
     0
 10
0.0
 20
0.0
 30
0.0
  3
block 19
  1

  0
INSERT
  5
9D
330
98
100
AcDbEntity
  8
Layer 1
100
AcDbBlockReference
  2
block 20
 10
0.0
 20
0.0
 30
0.0
  0
INSERT
  5
A7
330
98
100
AcDbEntity
  8
Layer 1
100
AcDbBlockReference
  2
block 22
 10
0.0
 20
0.0
 30
0.0
  0
INSERT
  5
C7
330
98
100
AcDbEntity
  8
Layer 1
100
AcDbBlockReference
  2
block 29
 10
0.0
 20
0.0
 30
0.0
  0
INSERT
  5
DF
330
98
100
AcDbEntity
  8
Layer 1
100
AcDbBlockReference
  2
block 34
 10
0.0
 20
0.0
 30
0.0
  0
INSERT
  5
10B
330
98
100
AcDbEntity
  8
Layer 1
100
AcDbBlockReference
  2
block 43
 10
0.0
 20
0.0
 30
0.0
  0
INSERT
  5
115
330
98
100
AcDbEntity
  8
Layer 1
100
AcDbBlockReference
  2
block 45
 10
0.0
 20
0.0
 30
0.0
  0
ENDBLK
  5
9B
330
98
100
AcDbEntity
  8
0
100
AcDbBlockEnd
  0
BLOCK
  5
9E
330
9C
100
AcDbEntity
  8
0
100
AcDbBlockBegin
  2
block 20
 70
     0
 71
     0
 10
0.0
 20
0.0
 30
0.0
  3
block 20
  1

  0
INSERT
  5
A1
330
9C
100
AcDbEntity
  8
Layer 1
100
AcDbBlockReference
  2
block 21
 10
0.0
 20
0.0
 30
0.0
  0
ENDBLK
  5
9F
330
9C
100
AcDbEntity
  8
0
100
AcDbBlockEnd
  0
BLOCK
  5
A2
330
A0
100
AcDbEntity
  8
0
100
AcDbBlockBegin
  2
block 21
 70
     0
 71
     0
 10
0.0
 20
0.0
 30
0.0
  3
block 21
  1

  0
SPLINE
  5
A4
330
A0
100
AcDbEntity
  8
Layer 1
370
     0
100
AcDbSpline
210
0.0
220
0.0
230
1.0
 70
    11
 71
     3
 72
    17
 73
    13
 74
     0
 42
0.0000000001
 43
0.0000000001
 40
0.0
 40
0.0
 40
0.0
 40
0.0
 40
1.0
 40
1.0
 40
1.0
 40
2.0
 40
2.0
 40
2.0
 40
3.0
 40
3.0
 40
3.0
 40
4.0
 40
4.0
 40
4.0
 40
4.0
 10
-17.98681640625
 20
-136.8388671875
 30
0.0
 10
-17.98681640625
 20
-157.3447265625
 30
0.0
 10
-37.49462890625
 20
-174.15625
 30
0.0
 10
-61.55712890625
 20
-174.15625
 30
0.0
 10
-85.62060546875
 20
-174.15625
 30
0.0
 10
-105.12744140625
 20
-157.3447265625
 30
0.0
 10
-105.12744140625
 20
-136.8388671875
 30
0.0
 10
-105.12744140625
 20
-116.333984375
 30
0.0
 10
-85.62060546875
 20
-99.71044921875
 30
0.0
 10
-61.55712890625
 20
-99.71044921875
 30
0.0
 10
-37.49462890625
 20
-99.71044921875
 30
0.0
 10
-17.98681640625
 20
-116.333984375
 30
0.0
 10
-17.98681640625
 20
-136.8388671875
 30
0.0
  0
HATCH
  5
A5
330
A0
100
AcDbEntity
  8
Layer 1
 62
    25
420
 11492394
100
AcDbHatch
 10
0.0
 20
0.0
 30
0.0
210
0.0
220
0.0
230
1.0
  2
SOLID
 70
     1
 71
     0
 91
        1
 92
        1
 93
        1
 72
     4
 94
        3
 73
     0
 74
     1
 95
       17
 96
       13
 40
0.0
 40
0.0
 40
0.0
 40
0.0
 40
1.0
 40
1.0
 40
1.0
 40
2.0
 40
2.0
 40
2.0
 40
3.0
 40
3.0
 40
3.0
 40
4.0
 40
4.0
 40
4.0
 40
4.0
 10
-17.98681640625
 20
-136.8388671875
 10
-17.98681640625
 20
-157.3447265625
 10
-37.49462890625
 20
-174.15625
 10
-61.55712890625
 20
-174.15625
 10
-85.62060546875
 20
-174.15625
 10
-105.12744140625
 20
-157.3447265625
 10
-105.12744140625
 20
-136.8388671875
 10
-105.12744140625
 20
-116.333984375
 10
-85.62060546875
 20
-99.71044921875
 10
-61.55712890625
 20
-99.71044921875
 10
-37.49462890625
 20
-99.71044921875
 10
-17.98681640625
 20
-116.333984375
 10
-17.98681640625
 20
-136.8388671875
 97
        0
 75
     2
 76
     1
 98
        0
  0
ENDBLK
  5
A3
330
A0
100
AcDbEntity
  8
0
100
AcDbBlockEnd
  0
BLOCK
  5
A8
330
A6
100
AcDbEntity
  8
0
100
AcDbBlockBegin
  2
block 22
 70
     0
 71
     0
 10
0.0
 20
0.0
 30
0.0
  3
block 22
  1

  0
INSERT
  5
AB
330
A6
100
AcDbEntity
  8
Layer 1
100
AcDbBlockReference
  2
block 23
 10
0.0
 20
0.0
 30
0.0
  0
INSERT
  5
B9
330
A6
100
AcDbEntity
  8
Layer 1
100
AcDbBlockReference
  2
block 26
 10
0.0
 20
0.0
 30
0.0
  0
ENDBLK
  5
A9
330
A6
100
AcDbEntity
  8
0
100
AcDbBlockEnd
  0
BLOCK
  5
AC
330
AA
100
AcDbEntity
  8
0
100
AcDbBlockBegin
  2
block 23
 70
     0
 71
     0
 10
0.0
 20
0.0
 30
0.0
  3
block 23
  1

  0
INSERT
  5
AF
330
AA
100
AcDbEntity
  8
Layer 1
100
AcDbBlockReference
  2
block 24
 10
0.0
 20
0.0
 30
0.0
  0
ENDBLK
  5
AD
330
AA
100
AcDbEntity
  8
0
100
AcDbBlockEnd
  0
BLOCK
  5
B0
330
AE
100
AcDbEntity
  8
0
100
AcDbBlockBegin
  2
block 24
 70
     0
 71
     0
 10
0.0
 20
0.0
 30
0.0
  3
block 24
  1

  0
INSERT
  5
B3
330
AE
100
AcDbEntity
  8
Layer 1
100
AcDbBlockReference
  2
block 25
 10
0.0
 20
0.0
 30
0.0
  0
ENDBLK
  5
B1
330
AE
100
AcDbEntity
  8
0
100
AcDbBlockEnd
  0
BLOCK
  5
B4
330
B2
100
AcDbEntity
  8
0
100
AcDbBlockBegin
  2
block 25
 70
     0
 71
     0
 10
0.0
 20
0.0
 30
0.0
  3
block 25
  1

  0
SPLINE
  5
B6
330
B2
100
AcDbEntity
  8
Layer 1
370
     0
100
AcDbSpline
210
0.0
220
0.0
230
1.0
 70
    11
 71
     3
 72
    23
 73
    19
 74
     0
 42
0.0000000001
 43
0.0000000001
 40
0.0
 40
0.0
 40
0.0
 40
0.0
 40
1.0
 40
1.0
 40
1.0
 40
2.0
 40
2.0
 40
2.0
 40
3.0
 40
3.0
 40
3.0
 40
4.0
 40
4.0
 40
4.0
 40
5.0
 40
5.0
 40
5.0
 40
6.0
 40
6.0
 40
6.0
 40
6.0
 10
-59.06005859375
 20
-73.89306640625
 30
0.0
 10
-60.43994140625
 20
-73.89306640625
 30
0.0
 10
-61.55712890625
 20
-72.77587890625
 30
0.0
 10
-61.55712890625
 20
-71.396484375
 30
0.0
 10
-61.55712890625
 20
-71.396484375
 30
0.0
 10
-61.55712890625
 20
-63.07568359375
 30
0.0
 10
-61.55712890625
 20
-63.07568359375
 30
0.0
 10
-61.55712890625
 20
-61.69580078125
 30
0.0
 10
-60.43994140625
 20
-60.5791015625
 30
0.0
 10
-59.06005859375
 20
-60.5791015625
 30
0.0
 10
-57.68017578125
 20
-60.5791015625
 30
0.0
 10
-56.56396484375
 20
-61.69580078125
 30
0.0
 10
-56.56396484375
 20
-63.07568359375
 30
0.0
 10
-56.56396484375
 20
-63.07568359375
 30
0.0
 10
-56.56396484375
 20
-71.396484375
 30
0.0
 10
-56.56396484375
 20
-71.396484375
 30
0.0
 10
-56.56396484375
 20
-72.77587890625
 30
0.0
 10
-57.68017578125
 20
-73.89306640625
 30
0.0
 10
-59.06005859375
 20
-73.89306640625
 30
0.0
  0
HATCH
  5
B7
330
B2
100
AcDbEntity
  8
Layer 1
 62
    15
420
 11941935
100
AcDbHatch
 10
0.0
 20
0.0
 30
0.0
210
0.0
220
0.0
230
1.0
  2
SOLID
 70
     1
 71
     0
 91
        1
 92
        1
 93
        1
 72
     4
 94
        3
 73
     0
 74
     1
 95
       23
 96
       19
 40
0.0
 40
0.0
 40
0.0
 40
0.0
 40
1.0
 40
1.0
 40
1.0
 40
2.0
 40
2.0
 40
2.0
 40
3.0
 40
3.0
 40
3.0
 40
4.0
 40
4.0
 40
4.0
 40
5.0
 40
5.0
 40
5.0
 40
6.0
 40
6.0
 40
6.0
 40
6.0
 10
-59.06005859375
 20
-73.89306640625
 10
-60.43994140625
 20
-73.89306640625
 10
-61.55712890625
 20
-72.77587890625
 10
-61.55712890625
 20
-71.396484375
 10
-61.55712890625
 20
-71.396484375
 10
-61.55712890625
 20
-63.07568359375
 10
-61.55712890625
 20
-63.07568359375
 10
-61.55712890625
 20
-61.69580078125
 10
-60.43994140625
 20
-60.5791015625
 10
-59.06005859375
 20
-60.5791015625
 10
-57.68017578125
 20
-60.5791015625
 10
-56.56396484375
 20
-61.69580078125
 10
-56.56396484375
 20
-63.07568359375
 10
-56.56396484375
 20
-63.07568359375
 10
-56.56396484375
 20
-71.396484375
 10
-56.56396484375
 20
-71.396484375
 10
-56.56396484375
 20
-72.77587890625
 10
-57.68017578125
 20
-73.89306640625
 10
-59.06005859375
 20
-73.89306640625
 97
        0
 75
     2
 76
     1
 98
        0
  0
ENDBLK
  5
B5
330
B2
100
AcDbEntity
  8
0
100
AcDbBlockEnd
  0
BLOCK
  5
BA
330
B8
100
AcDbEntity
  8
0
100
AcDbBlockBegin
  2
block 26
 70
     0
 71
     0
 10
0.0
 20
0.0
 30
0.0
  3
block 26
  1

  0
INSERT
  5
BD
330
B8
100
AcDbEntity
  8
Layer 1
100
AcDbBlockReference
  2
block 27
 10
0.0
 20
0.0
 30
0.0
  0
ENDBLK
  5
BB
330
B8
100
AcDbEntity
  8
0
100
AcDbBlockEnd
  0
BLOCK
  5
BE
330
BC
100
AcDbEntity
  8
0
100
AcDbBlockBegin
  2
block 27
 70
     0
 71
     0
 10
0.0
 20
0.0
 30
0.0
  3
block 27
  1

  0
INSERT
  5
C1
330
BC
100
AcDbEntity
  8
Layer 1
100
AcDbBlockReference
  2
block 28
 10
0.0
 20
0.0
 30
0.0
  0
ENDBLK
  5
BF
330
BC
100
AcDbEntity
  8
0
100
AcDbBlockEnd
  0
BLOCK
  5
C2
330
C0
100
AcDbEntity
  8
0
100
AcDbBlockBegin
  2
block 28
 70
     0
 71
     0
 10
0.0
 20
0.0
 30
0.0
  3
block 28
  1

  0
SPLINE
  5
C4
330
C0
100
AcDbEntity
  8
Layer 1
370
     0
100
AcDbSpline
210
0.0
220
0.0
230
1.0
 70
    11
 71
     3
 72
    23
 73
    19
 74
     0
 42
0.0000000001
 43
0.0000000001
 40
0.0
 40
0.0
 40
0.0
 40
0.0
 40
1.0
 40
1.0
 40
1.0
 40
2.0
 40
2.0
 40
2.0
 40
3.0
 40
3.0
 40
3.0
 40
4.0
 40
4.0
 40
4.0
 40
5.0
 40
5.0
 40
5.0
 40
6.0
 40
6.0
 40
6.0
 40
6.0
 10
-54.62060546875
 20
-76.3896484375
 30
0.0
 10
-56.00146484375
 20
-76.3896484375
 30
0.0
 10
-57.11767578125
 20
-75.2724609375
 30
0.0
 10
-57.11767578125
 20
-73.89306640625
 30
0.0
 10
-57.11767578125
 20
-73.89306640625
 30
0.0
 10
-57.11767578125
 20
-65.572265625
 30
0.0
 10
-57.11767578125
 20
-65.572265625
 30
0.0
 10
-57.11767578125
 20
-64.19287109375
 30
0.0
 10
-56.00146484375
 20
-63.07568359375
 30
0.0
 10
-54.62060546875
 20
-63.07568359375
 30
0.0
 10
-53.24267578125
 20
-63.07568359375
 30
0.0
 10
-52.12451171875
 20
-64.19287109375
 30
0.0
 10
-52.12451171875
 20
-65.572265625
 30
0.0
 10
-52.12451171875
 20
-65.572265625
 30
0.0
 10
-52.12451171875
 20
-73.89306640625
 30
0.0
 10
-52.12451171875
 20
-73.89306640625
 30
0.0
 10
-52.12451171875
 20
-75.2724609375
 30
0.0
 10
-53.24267578125
 20
-76.3896484375
 30
0.0
 10
-54.62060546875
 20
-76.3896484375
 30
0.0
  0
HATCH
  5
C5
330
C0
100
AcDbEntity
  8
Layer 1
 62
    15
420
 11941935
100
AcDbHatch
 10
0.0
 20
0.0
 30
0.0
210
0.0
220
0.0
230
1.0
  2
SOLID
 70
     1
 71
     0
 91
        1
 92
        1
 93
        1
 72
     4
 94
        3
 73
     0
 74
     1
 95
       23
 96
       19
 40
0.0
 40
0.0
 40
0.0
 40
0.0
 40
1.0
 40
1.0
 40
1.0
 40
2.0
 40
2.0
 40
2.0
 40
3.0
 40
3.0
 40
3.0
 40
4.0
 40
4.0
 40
4.0
 40
5.0
 40
5.0
 40
5.0
 40
6.0
 40
6.0
 40
6.0
 40
6.0
 10
-54.62060546875
 20
-76.3896484375
 10
-56.00146484375
 20
-76.3896484375
 10
-57.11767578125
 20
-75.2724609375
 10
-57.11767578125
 20
-73.89306640625
 10
-57.11767578125
 20
-73.89306640625
 10
-57.11767578125
 20
-65.572265625
 10
-57.11767578125
 20
-65.572265625
 10
-57.11767578125
 20
-64.19287109375
 10
-56.00146484375
 20
-63.07568359375
 10
-54.62060546875
 20
-63.07568359375
 10
-53.24267578125
 20
-63.07568359375
 10
-52.12451171875
 20
-64.19287109375
 10
-52.12451171875
 20
-65.572265625
 10
-52.12451171875
 20
-65.572265625
 10
-52.12451171875
 20
-73.89306640625
 10
-52.12451171875
 20
-73.89306640625
 10
-52.12451171875
 20
-75.2724609375
 10
-53.24267578125
 20
-76.3896484375
 10
-54.62060546875
 20
-76.3896484375
 97
        0
 75
     2
 76
     1
 98
        0
  0
ENDBLK
  5
C3
330
C0
100
AcDbEntity
  8
0
100
AcDbBlockEnd
  0
BLOCK
  5
C8
330
C6
100
AcDbEntity
  8
0
100
AcDbBlockBegin
  2
block 29
 70
     0
 71
     0
 10
0.0
 20
0.0
 30
0.0
  3
block 29
  1

  0
INSERT
  5
CB
330
C6
100
AcDbEntity
  8
Layer 1
100
AcDbBlockReference
  2
block 30
 10
0.0
 20
0.0
 30
0.0
  0
INSERT
  5
D5
330
C6
100
AcDbEntity
  8
Layer 1
100
AcDbBlockReference
  2
block 32
 10
0.0
 20
0.0
 30
0.0
  0
ENDBLK
  5
C9
330
C6
100
AcDbEntity
  8
0
100
AcDbBlockEnd
  0
BLOCK
  5
CC
330
CA
100
AcDbEntity
  8
0
100
AcDbBlockBegin
  2
block 30
 70
     0
 71
     0
 10
0.0
 20
0.0
 30
0.0
  3
block 30
  1

  0
INSERT
  5
CF
330
CA
100
AcDbEntity
  8
Layer 1
100
AcDbBlockReference
  2
block 31
 10
0.0
 20
0.0
 30
0.0
  0
ENDBLK
  5
CD
330
CA
100
AcDbEntity
  8
0
100
AcDbBlockEnd
  0
BLOCK
  5
D0
330
CE
100
AcDbEntity
  8
0
100
AcDbBlockBegin
  2
block 31
 70
     0
 71
     0
 10
0.0
 20
0.0
 30
0.0
  3
block 31
  1

  0
SPLINE
  5
D2
330
CE
100
AcDbEntity
  8
Layer 1
370
     0
100
AcDbSpline
210
0.0
220
0.0
230
1.0
 70
    11
 71
     3
 72
    17
 73
    13
 74
     0
 42
0.0000000001
 43
0.0000000001
 40
0.0
 40
0.0
 40
0.0
 40
0.0
 40
1.0
 40
1.0
 40
1.0
 40
2.0
 40
2.0
 40
2.0
 40
3.0
 40
3.0
 40
3.0
 40
4.0
 40
4.0
 40
4.0
 40
4.0
 10
-99.19091796875
 20
-129.56640625
 30
0.0
 10
-99.16943359375
 20
-129.548828125
 30
0.0
 10
-99.14599609375
 20
-129.5322265625
 30
0.0
 10
-99.12353515625
 20
-129.5166015625
 30
0.0
 10
-99.10009765625
 20
-129.494140625
 30
0.0
 10
-99.07568359375
 20
-129.4736328125
 30
0.0
 10
-99.05126953125
 20
-129.4521484375
 30
0.0
 10
-99.05126953125
 20
-129.4580078125
 30
0.0
 10
-99.05126953125
 20
-129.4638671875
 30
0.0
 10
-99.05126953125
 20
-129.46875
 30
0.0
 10
-99.09619140625
 20
-129.5029296875
 30
0.0
 10
-99.14599609375
 20
-129.5322265625
 30
0.0
 10
-99.19091796875
 20
-129.56640625
 30
0.0
  0
HATCH
  5
D3
330
CE
100
AcDbEntity
  8
Layer 1
 62
    32
420
 11954728
100
AcDbHatch
 10
0.0
 20
0.0
 30
0.0
210
0.0
220
0.0
230
1.0
  2
SOLID
 70
     1
 71
     0
 91
        1
 92
        1
 93
        1
 72
     4
 94
        3
 73
     0
 74
     1
 95
       17
 96
       13
 40
0.0
 40
0.0
 40
0.0
 40
0.0
 40
1.0
 40
1.0
 40
1.0
 40
2.0
 40
2.0
 40
2.0
 40
3.0
 40
3.0
 40
3.0
 40
4.0
 40
4.0
 40
4.0
 40
4.0
 10
-99.19091796875
 20
-129.56640625
 10
-99.16943359375
 20
-129.548828125
 10
-99.14599609375
 20
-129.5322265625
 10
-99.12353515625
 20
-129.5166015625
 10
-99.10009765625
 20
-129.494140625
 10
-99.07568359375
 20
-129.4736328125
 10
-99.05126953125
 20
-129.4521484375
 10
-99.05126953125
 20
-129.4580078125
 10
-99.05126953125
 20
-129.4638671875
 10
-99.05126953125
 20
-129.46875
 10
-99.09619140625
 20
-129.5029296875
 10
-99.14599609375
 20
-129.5322265625
 10
-99.19091796875
 20
-129.56640625
 97
        0
 75
     2
 76
     1
 98
        0
  0
ENDBLK
  5
D1
330
CE
100
AcDbEntity
  8
0
100
AcDbBlockEnd
  0
BLOCK
  5
D6
330
D4
100
AcDbEntity
  8
0
100
AcDbBlockBegin
  2
block 32
 70
     0
 71
     0
 10
0.0
 20
0.0
 30
0.0
  3
block 32
  1

  0
INSERT
  5
D9
330
D4
100
AcDbEntity
  8
Layer 1
100
AcDbBlockReference
  2
block 33
 10
0.0
 20
0.0
 30
0.0
  0
ENDBLK
  5
D7
330
D4
100
AcDbEntity
  8
0
100
AcDbBlockEnd
  0
BLOCK
  5
DA
330
D8
100
AcDbEntity
  8
0
100
AcDbBlockBegin
  2
block 33
 70
     0
 71
     0
 10
0.0
 20
0.0
 30
0.0
  3
block 33
  1

  0
SPLINE
  5
DC
330
D8
100
AcDbEntity
  8
Layer 1
370
     0
100
AcDbSpline
210
0.0
220
0.0
230
1.0
 70
    11
 71
     3
 72
    17
 73
    13
 74
     0
 42
0.0000000001
 43
0.0000000001
 40
0.0
 40
0.0
 40
0.0
 40
0.0
 40
1.0
 40
1.0
 40
1.0
 40
2.0
 40
2.0
 40
2.0
 40
3.0
 40
3.0
 40
3.0
 40
4.0
 40
4.0
 40
4.0
 40
4.0
 10
-23.52783203125
 20
-129.6142578125
 30
0.0
 10
-23.52783203125
 20
-129.607421875
 30
0.0
 10
-23.53076171875
 20
-129.6044921875
 30
0.0
 10
-23.53076171875
 20
-129.59765625
 30
0.0
 10
-23.50439453125
 20
-129.6181640625
 30
0.0
 10
-23.48291015625
 20
-129.6376953125
 30
0.0
 10
-23.46044921875
 20
-129.6572265625
 30
0.0
 10
-23.43603515625
 20
-129.6748046875
 30
0.0
 10
-23.41455078125
 20
-129.6904296875
 30
0.0
 10
-23.39208984375
 20
-129.70703125
 30
0.0
 10
-23.43603515625
 20
-129.6748046875
 30
0.0
 10
-23.48583984375
 20
-129.6455078125
 30
0.0
 10
-23.52783203125
 20
-129.6142578125
 30
0.0
  0
HATCH
  5
DD
330
D8
100
AcDbEntity
  8
Layer 1
 62
    32
420
 11954728
100
AcDbHatch
 10
0.0
 20
0.0
 30
0.0
210
0.0
220
0.0
230
1.0
  2
SOLID
 70
     1
 71
     0
 91
        1
 92
        1
 93
        1
 72
     4
 94
        3
 73
     0
 74
     1
 95
       17
 96
       13
 40
0.0
 40
0.0
 40
0.0
 40
0.0
 40
1.0
 40
1.0
 40
1.0
 40
2.0
 40
2.0
 40
2.0
 40
3.0
 40
3.0
 40
3.0
 40
4.0
 40
4.0
 40
4.0
 40
4.0
 10
-23.52783203125
 20
-129.6142578125
 10
-23.52783203125
 20
-129.607421875
 10
-23.53076171875
 20
-129.6044921875
 10
-23.53076171875
 20
-129.59765625
 10
-23.50439453125
 20
-129.6181640625
 10
-23.48291015625
 20
-129.6376953125
 10
-23.46044921875
 20
-129.6572265625
 10
-23.43603515625
 20
-129.6748046875
 10
-23.41455078125
 20
-129.6904296875
 10
-23.39208984375
 20
-129.70703125
 10
-23.43603515625
 20
-129.6748046875
 10
-23.48583984375
 20
-129.6455078125
 10
-23.52783203125
 20
-129.6142578125
 97
        0
 75
     2
 76
     1
 98
        0
  0
ENDBLK
  5
DB
330
D8
100
AcDbEntity
  8
0
100
AcDbBlockEnd
  0
BLOCK
  5
E0
330
DE
100
AcDbEntity
  8
0
100
AcDbBlockBegin
  2
block 34
 70
     0
 71
     0
 10
0.0
 20
0.0
 30
0.0
  3
block 34
  1

  0
INSERT
  5
E3
330
DE
100
AcDbEntity
  8
Layer 1
100
AcDbBlockReference
  2
block 35
 10
0.0
 20
0.0
 30
0.0
  0
INSERT
  5
ED
330
DE
100
AcDbEntity
  8
Layer 1
100
AcDbBlockReference
  2
block 37
 10
0.0
 20
0.0
 30
0.0
  0
INSERT
  5
F7
330
DE
100
AcDbEntity
  8
Layer 1
100
AcDbBlockReference
  2
block 39
 10
0.0
 20
0.0
 30
0.0
  0
INSERT
  5
101
330
DE
100
AcDbEntity
  8
Layer 1
100
AcDbBlockReference
  2
block 41
 10
0.0
 20
0.0
 30
0.0
  0
ENDBLK
  5
E1
330
DE
100
AcDbEntity
  8
0
100
AcDbBlockEnd
  0
BLOCK
  5
E4
330
E2
100
AcDbEntity
  8
0
100
AcDbBlockBegin
  2
block 35
 70
     0
 71
     0
 10
0.0
 20
0.0
 30
0.0
  3
block 35
  1

  0
INSERT
  5
E7
330
E2
100
AcDbEntity
  8
Layer 1
100
AcDbBlockReference
  2
block 36
 10
0.0
 20
0.0
 30
0.0
  0
ENDBLK
  5
E5
330
E2
100
AcDbEntity
  8
0
100
AcDbBlockEnd
  0
BLOCK
  5
E8
330
E6
100
AcDbEntity
  8
0
100
AcDbBlockBegin
  2
block 36
 70
     0
 71
     0
 10
0.0
 20
0.0
 30
0.0
  3
block 36
  1

  0
SPLINE
  5
EA
330
E6
100
AcDbEntity
  8
Layer 1
370
     0
100
AcDbSpline
210
0.0
220
0.0
230
1.0
 70
    11
 71
     3
 72
    47
 73
    43
 74
     0
 42
0.0000000001
 43
0.0000000001
 40
0.0
 40
0.0
 40
0.0
 40
0.0
 40
1.0
 40
1.0
 40
1.0
 40
2.0
 40
2.0
 40
2.0
 40
3.0
 40
3.0
 40
3.0
 40
4.0
 40
4.0
 40
4.0
 40
5.0
 40
5.0
 40
5.0
 40
6.0
 40
6.0
 40
6.0
 40
7.0
 40
7.0
 40
7.0
 40
8.0
 40
8.0
 40
8.0
 40
9.0
 40
9.0
 40
9.0
 40
10.0
 40
10.0
 40
10.0
 40
11.0
 40
11.0
 40
11.0
 40
12.0
 40
12.0
 40
12.0
 40
13.0
 40
13.0
 40
13.0
 40
14.0
 40
14.0
 40
14.0
 40
14.0
 10
-61.64013671875
 20
-137.1923828125
 30
0.0
 10
-61.72412109375
 20
-137.1923828125
 30
0.0
 10
-61.80615234375
 20
-137.1923828125
 30
0.0
 10
-61.88916015625
 20
-137.1923828125
 30
0.0
 10
-66.48291015625
 20
-137.0625
 30
0.0
 10
-70.09228515625
 20
-133.21875
 30
0.0
 10
-69.94384765625
 20
-128.6240234375
 30
0.0
 10
-69.94384765625
 20
-128.2744140625
 30
0.0
 10
-69.91162109375
 20
-127.9423828125
 30
0.0
 10
-69.86181640625
 20
-127.6083984375
 30
0.0
 10
-69.95947265625
 20
-127.8251953125
 30
0.0
 10
-70.07666015625
 20
-128.0400390625
 30
0.0
 10
-70.19287109375
 20
-128.2578125
 30
0.0
 10
-72.52392578125
 20
-132.21875
 30
0.0
 10
-77.63232421875
 20
-133.5498046875
 30
0.0
 10
-81.59326171875
 20
-131.21875
 30
0.0
 10
-85.55517578125
 20
-128.890625
 30
0.0
 10
-86.88623046875
 20
-123.7822265625
 30
0.0
 10
-84.55712890625
 20
-119.8193359375
 30
0.0
 10
-84.40380859375
 20
-119.5869140625
 30
0.0
 10
-84.25439453125
 20
-119.3720703125
 30
0.0
 10
-84.10595703125
 20
-119.1533203125
 30
0.0
 10
-84.35693359375
 20
-119.3876953125
 30
0.0
 10
-84.60595703125
 20
-119.6220703125
 30
0.0
 10
-84.89111328125
 20
-119.8369140625
 30
0.0
 10
-87.67138671875
 20
-121.9853515625
 30
0.0
 10
-91.36572265625
 20
-122.0810546875
 30
0.0
 10
-94.21337890625
 20
-120.3974609375
 30
0.0
 10
-97.21826171875
 20
-129.4345703125
 30
0.0
 10
-97.22705078125
 20
-139.5966796875
 30
0.0
 10
-97.22705078125
 20
-139.5966796875
 30
0.0
 10
-96.75634765625
 20
-159.1015625
 30
0.0
 10
-80.80908203125
 20
-174.76953125
 30
0.0
 10
-61.19384765625
 20
-174.76953125
 30
0.0
 10
-61.19384765625
 20
-174.76953125
 30
0.0
 10
-61.19091796875
 20
-174.76953125
 30
0.0
 10
-61.19091796875
 20
-174.76953125
 30
0.0
 10
-61.19091796875
 20
-174.76953125
 30
0.0
 10
-61.19091796875
 20
-137.1513671875
 30
0.0
 10
-61.19091796875
 20
-137.1513671875
 30
0.0
 10
-61.34423828125
 20
-137.1572265625
 30
0.0
 10
-61.48388671875
 20
-137.1923828125
 30
0.0
 10
-61.64013671875
 20
-137.1923828125
 30
0.0
  0
HATCH
  5
EB
330
E6
100
AcDbEntity
  8
Layer 1
 62
     9
420
 13813185
100
AcDbHatch
 10
0.0
 20
0.0
 30
0.0
210
0.0
220
0.0
230
1.0
  2
SOLID
 70
     1
 71
     0
 91
        1
 92
        1
 93
        1
 72
     4
 94
        3
 73
     0
 74
     1
 95
       47
 96
       43
 40
0.0
 40
0.0
 40
0.0
 40
0.0
 40
1.0
 40
1.0
 40
1.0
 40
2.0
 40
2.0
 40
2.0
 40
3.0
 40
3.0
 40
3.0
 40
4.0
 40
4.0
 40
4.0
 40
5.0
 40
5.0
 40
5.0
 40
6.0
 40
6.0
 40
6.0
 40
7.0
 40
7.0
 40
7.0
 40
8.0
 40
8.0
 40
8.0
 40
9.0
 40
9.0
 40
9.0
 40
10.0
 40
10.0
 40
10.0
 40
11.0
 40
11.0
 40
11.0
 40
12.0
 40
12.0
 40
12.0
 40
13.0
 40
13.0
 40
13.0
 40
14.0
 40
14.0
 40
14.0
 40
14.0
 10
-61.64013671875
 20
-137.1923828125
 10
-61.72412109375
 20
-137.1923828125
 10
-61.80615234375
 20
-137.1923828125
 10
-61.88916015625
 20
-137.1923828125
 10
-66.48291015625
 20
-137.0625
 10
-70.09228515625
 20
-133.21875
 10
-69.94384765625
 20
-128.6240234375
 10
-69.94384765625
 20
-128.2744140625
 10
-69.91162109375
 20
-127.9423828125
 10
-69.86181640625
 20
-127.6083984375
 10
-69.95947265625
 20
-127.8251953125
 10
-70.07666015625
 20
-128.0400390625
 10
-70.19287109375
 20
-128.2578125
 10
-72.52392578125
 20
-132.21875
 10
-77.63232421875
 20
-133.5498046875
 10
-81.59326171875
 20
-131.21875
 10
-85.55517578125
 20
-128.890625
 10
-86.88623046875
 20
-123.7822265625
 10
-84.55712890625
 20
-119.8193359375
 10
-84.40380859375
 20
-119.5869140625
 10
-84.25439453125
 20
-119.3720703125
 10
-84.10595703125
 20
-119.1533203125
 10
-84.35693359375
 20
-119.3876953125
 10
-84.60595703125
 20
-119.6220703125
 10
-84.89111328125
 20
-119.8369140625
 10
-87.67138671875
 20
-121.9853515625
 10
-91.36572265625
 20
-122.0810546875
 10
-94.21337890625
 20
-120.3974609375
 10
-97.21826171875
 20
-129.4345703125
 10
-97.22705078125
 20
-139.5966796875
 10
-97.22705078125
 20
-139.5966796875
 10
-96.75634765625
 20
-159.1015625
 10
-80.80908203125
 20
-174.76953125
 10
-61.19384765625
 20
-174.76953125
 10
-61.19384765625
 20
-174.76953125
 10
-61.19091796875
 20
-174.76953125
 10
-61.19091796875
 20
-174.76953125
 10
-61.19091796875
 20
-174.76953125
 10
-61.19091796875
 20
-137.1513671875
 10
-61.19091796875
 20
-137.1513671875
 10
-61.34423828125
 20
-137.1572265625
 10
-61.48388671875
 20
-137.1923828125
 10
-61.64013671875
 20
-137.1923828125
 97
        0
 75
     2
 76
     1
 98
        0
  0
ENDBLK
  5
E9
330
E6
100
AcDbEntity
  8
0
100
AcDbBlockEnd
  0
BLOCK
  5
EE
330
EC
100
AcDbEntity
  8
0
100
AcDbBlockBegin
  2
block 37
 70
     0
 71
     0
 10
0.0
 20
0.0
 30
0.0
  3
block 37
  1

  0
INSERT
  5
F1
330
EC
100
AcDbEntity
  8
Layer 1
100
AcDbBlockReference
  2
block 38
 10
0.0
 20
0.0
 30
0.0
  0
ENDBLK
  5
EF
330
EC
100
AcDbEntity
  8
0
100
AcDbBlockEnd
  0
BLOCK
  5
F2
330
F0
100
AcDbEntity
  8
0
100
AcDbBlockBegin
  2
block 38
 70
     0
 71
     0
 10
0.0
 20
0.0
 30
0.0
  3
block 38
  1

  0
SPLINE
  5
F4
330
F0
100
AcDbEntity
  8
Layer 1
370
     0
100
AcDbSpline
210
0.0
220
0.0
230
1.0
 70
    11
 71
     3
 72
    65
 73
    61
 74
     0
 42
0.0000000001
 43
0.0000000001
 40
0.0
 40
0.0
 40
0.0
 40
0.0
 40
1.0
 40
1.0
 40
1.0
 40
2.0
 40
2.0
 40
2.0
 40
3.0
 40
3.0
 40
3.0
 40
4.0
 40
4.0
 40
4.0
 40
5.0
 40
5.0
 40
5.0
 40
6.0
 40
6.0
 40
6.0
 40
7.0
 40
7.0
 40
7.0
 40
8.0
 40
8.0
 40
8.0
 40
9.0
 40
9.0
 40
9.0
 40
10.0
 40
10.0
 40
10.0
 40
11.0
 40
11.0
 40
11.0
 40
12.0
 40
12.0
 40
12.0
 40
13.0
 40
13.0
 40
13.0
 40
14.0
 40
14.0
 40
14.0
 40
15.0
 40
15.0
 40
15.0
 40
16.0
 40
16.0
 40
16.0
 40
17.0
 40
17.0
 40
17.0
 40
18.0
 40
18.0
 40
18.0
 40
19.0
 40
19.0
 40
19.0
 40
20.0
 40
20.0
 40
20.0
 40
20.0
 10
-84.89111328125
 20
-119.8369140625
 30
0.0
 10
-84.60595703125
 20
-119.6220703125
 30
0.0
 10
-84.35693359375
 20
-119.3876953125
 30
0.0
 10
-84.10595703125
 20
-119.1533203125
 30
0.0
 10
-84.25439453125
 20
-119.3720703125
 30
0.0
 10
-84.40380859375
 20
-119.5869140625
 30
0.0
 10
-84.55712890625
 20
-119.8193359375
 30
0.0
 10
-86.88623046875
 20
-123.7822265625
 30
0.0
 10
-85.55517578125
 20
-128.890625
 30
0.0
 10
-81.59326171875
 20
-131.21875
 30
0.0
 10
-77.63232421875
 20
-133.5498046875
 30
0.0
 10
-72.52392578125
 20
-132.21875
 30
0.0
 10
-70.19287109375
 20
-128.2578125
 30
0.0
 10
-70.07666015625
 20
-128.0400390625
 30
0.0
 10
-69.95947265625
 20
-127.8251953125
 30
0.0
 10
-69.86181640625
 20
-127.6083984375
 30
0.0
 10
-69.91162109375
 20
-127.9423828125
 30
0.0
 10
-69.94384765625
 20
-128.2744140625
 30
0.0
 10
-69.94384765625
 20
-128.6240234375
 30
0.0
 10
-70.09228515625
 20
-133.21875
 30
0.0
 10
-66.48291015625
 20
-137.0625
 30
0.0
 10
-61.88916015625
 20
-137.1923828125
 30
0.0
 10
-61.80615234375
 20
-137.1923828125
 30
0.0
 10
-61.72412109375
 20
-137.1923828125
 30
0.0
 10
-61.64013671875
 20
-137.1923828125
 30
0.0
 10
-61.48388671875
 20
-137.1923828125
 30
0.0
 10
-61.34423828125
 20
-137.1572265625
 30
0.0
 10
-61.19091796875
 20
-137.1513671875
 30
0.0
 10
-61.19091796875
 20
-137.1513671875
 30
0.0
 10
-61.19091796875
 20
-69.09228515625
 30
0.0
 10
-61.19091796875
 20
-69.09228515625
 30
0.0
 10
-61.19091796875
 20
-69.09228515625
 30
0.0
 10
-61.19384765625
 20
-69.09228515625
 30
0.0
 10
-61.19384765625
 20
-69.09228515625
 30
0.0
 10
-74.23779296875
 20
-69.09228515625
 30
0.0
 10
-84.93212890625
 20
-79.1025390625
 30
0.0
 10
-86.04443359375
 20
-91.859375
 30
0.0
 10
-86.04443359375
 20
-91.859375
 30
0.0
 10
-86.05810546875
 20
-91.8427734375
 30
0.0
 10
-86.05810546875
 20
-91.8427734375
 30
0.0
 10
-86.05810546875
 20
-91.8427734375
 30
0.0
 10
-86.05517578125
 20
-91.9150390625
 30
0.0
 10
-86.05322265625
 20
-92.03173828125
 30
0.0
 10
-86.10888671875
 20
-92.7021484375
 30
0.0
 10
-86.15673828125
 20
-93.37109375
 30
0.0
 10
-86.15673828125
 20
-94.05517578125
 30
0.0
 10
-86.15673828125
 20
-94.2646484375
 30
0.0
 10
-86.13525390625
 20
-94.46923828125
 30
0.0
 10
-86.13037109375
 20
-94.67822265625
 30
0.0
 10
-86.27197265625
 20
-97.19384765625
 30
0.0
 10
-86.64404296875
 20
-101.123046875
 30
0.0
 10
-87.73876953125
 20
-105.265625
 30
0.0
 10
-88.51123046875
 20
-108.173828125
 30
0.0
 10
-89.63232421875
 20
-111.18359375
 30
0.0
 10
-91.28857421875
 20
-113.888671875
 30
0.0
 10
-92.49365234375
 20
-115.857421875
 30
0.0
 10
-93.44873046875
 20
-118.09375
 30
0.0
 10
-94.21337890625
 20
-120.3974609375
 30
0.0
 10
-91.36572265625
 20
-122.0810546875
 30
0.0
 10
-87.67138671875
 20
-121.9853515625
 30
0.0
 10
-84.89111328125
 20
-119.8369140625
 30
0.0
  0
HATCH
  5
F5
330
F0
100
AcDbEntity
  8
Layer 1
 62
    25
420
 11492394
100
AcDbHatch
 10
0.0
 20
0.0
 30
0.0
210
0.0
220
0.0
230
1.0
  2
SOLID
 70
     1
 71
     0
 91
        1
 92
        1
 93
        1
 72
     4
 94
        3
 73
     0
 74
     1
 95
       65
 96
       61
 40
0.0
 40
0.0
 40
0.0
 40
0.0
 40
1.0
 40
1.0
 40
1.0
 40
2.0
 40
2.0
 40
2.0
 40
3.0
 40
3.0
 40
3.0
 40
4.0
 40
4.0
 40
4.0
 40
5.0
 40
5.0
 40
5.0
 40
6.0
 40
6.0
 40
6.0
 40
7.0
 40
7.0
 40
7.0
 40
8.0
 40
8.0
 40
8.0
 40
9.0
 40
9.0
 40
9.0
 40
10.0
 40
10.0
 40
10.0
 40
11.0
 40
11.0
 40
11.0
 40
12.0
 40
12.0
 40
12.0
 40
13.0
 40
13.0
 40
13.0
 40
14.0
 40
14.0
 40
14.0
 40
15.0
 40
15.0
 40
15.0
 40
16.0
 40
16.0
 40
16.0
 40
17.0
 40
17.0
 40
17.0
 40
18.0
 40
18.0
 40
18.0
 40
19.0
 40
19.0
 40
19.0
 40
20.0
 40
20.0
 40
20.0
 40
20.0
 10
-84.89111328125
 20
-119.8369140625
 10
-84.60595703125
 20
-119.6220703125
 10
-84.35693359375
 20
-119.3876953125
 10
-84.10595703125
 20
-119.1533203125
 10
-84.25439453125
 20
-119.3720703125
 10
-84.40380859375
 20
-119.5869140625
 10
-84.55712890625
 20
-119.8193359375
 10
-86.88623046875
 20
-123.7822265625
 10
-85.55517578125
 20
-128.890625
 10
-81.59326171875
 20
-131.21875
 10
-77.63232421875
 20
-133.5498046875
 10
-72.52392578125
 20
-132.21875
 10
-70.19287109375
 20
-128.2578125
 10
-70.07666015625
 20
-128.0400390625
 10
-69.95947265625
 20
-127.8251953125
 10
-69.86181640625
 20
-127.6083984375
 10
-69.91162109375
 20
-127.9423828125
 10
-69.94384765625
 20
-128.2744140625
 10
-69.94384765625
 20
-128.6240234375
 10
-70.09228515625
 20
-133.21875
 10
-66.48291015625
 20
-137.0625
 10
-61.88916015625
 20
-137.1923828125
 10
-61.80615234375
 20
-137.1923828125
 10
-61.72412109375
 20
-137.1923828125
 10
-61.64013671875
 20
-137.1923828125
 10
-61.48388671875
 20
-137.1923828125
 10
-61.34423828125
 20
-137.1572265625
 10
-61.19091796875
 20
-137.1513671875
 10
-61.19091796875
 20
-137.1513671875
 10
-61.19091796875
 20
-69.09228515625
 10
-61.19091796875
 20
-69.09228515625
 10
-61.19091796875
 20
-69.09228515625
 10
-61.19384765625
 20
-69.09228515625
 10
-61.19384765625
 20
-69.09228515625
 10
-74.23779296875
 20
-69.09228515625
 10
-84.93212890625
 20
-79.1025390625
 10
-86.04443359375
 20
-91.859375
 10
-86.04443359375
 20
-91.859375
 10
-86.05810546875
 20
-91.8427734375
 10
-86.05810546875
 20
-91.8427734375
 10
-86.05810546875
 20
-91.8427734375
 10
-86.05517578125
 20
-91.9150390625
 10
-86.05322265625
 20
-92.03173828125
 10
-86.10888671875
 20
-92.7021484375
 10
-86.15673828125
 20
-93.37109375
 10
-86.15673828125
 20
-94.05517578125
 10
-86.15673828125
 20
-94.2646484375
 10
-86.13525390625
 20
-94.46923828125
 10
-86.13037109375
 20
-94.67822265625
 10
-86.27197265625
 20
-97.19384765625
 10
-86.64404296875
 20
-101.123046875
 10
-87.73876953125
 20
-105.265625
 10
-88.51123046875
 20
-108.173828125
 10
-89.63232421875
 20
-111.18359375
 10
-91.28857421875
 20
-113.888671875
 10
-92.49365234375
 20
-115.857421875
 10
-93.44873046875
 20
-118.09375
 10
-94.21337890625
 20
-120.3974609375
 10
-91.36572265625
 20
-122.0810546875
 10
-87.67138671875
 20
-121.9853515625
 10
-84.89111328125
 20
-119.8369140625
 97
        0
 75
     2
 76
     1
 98
        0
  0
ENDBLK
  5
F3
330
F0
100
AcDbEntity
  8
0
100
AcDbBlockEnd
  0
BLOCK
  5
F8
330
F6
100
AcDbEntity
  8
0
100
AcDbBlockBegin
  2
block 39
 70
     0
 71
     0
 10
0.0
 20
0.0
 30
0.0
  3
block 39
  1

  0
INSERT
  5
FB
330
F6
100
AcDbEntity
  8
Layer 1
100
AcDbBlockReference
  2
block 40
 10
0.0
 20
0.0
 30
0.0
  0
ENDBLK
  5
F9
330
F6
100
AcDbEntity
  8
0
100
AcDbBlockEnd
  0
BLOCK
  5
FC
330
FA
100
AcDbEntity
  8
0
100
AcDbBlockBegin
  2
block 40
 70
     0
 71
     0
 10
0.0
 20
0.0
 30
0.0
  3
block 40
  1

  0
SPLINE
  5
FE
330
FA
100
AcDbEntity
  8
Layer 1
370
     0
100
AcDbSpline
210
0.0
220
0.0
230
1.0
 70
    11
 71
     3
 72
    38
 73
    34
 74
     0
 42
0.0000000001
 43
0.0000000001
 40
0.0
 40
0.0
 40
0.0
 40
0.0
 40
1.0
 40
1.0
 40
1.0
 40
2.0
 40
2.0
 40
2.0
 40
3.0
 40
3.0
 40
3.0
 40
4.0
 40
4.0
 40
4.0
 40
5.0
 40
5.0
 40
5.0
 40
6.0
 40
6.0
 40
6.0
 40
7.0
 40
7.0
 40
7.0
 40
8.0
 40
8.0
 40
8.0
 40
9.0
 40
9.0
 40
9.0
 40
10.0
 40
10.0
 40
10.0
 40
11.0
 40
11.0
 40
11.0
 40
11.0
 10
-25.15576171875
 20
-139.5498046875
 30
0.0
 10
-25.15576171875
 20
-139.5498046875
 30
0.0
 10
-25.16845703125
 20
-129.716796875
 30
0.0
 10
-28.02685546875
 20
-120.7978515625
 30
0.0
 10
-31.14599609375
 20
-123.1298828125
 30
0.0
 10
-35.56298828125
 20
-123.021484375
 30
0.0
 10
-38.55810546875
 20
-120.3193359375
 30
0.0
 10
-38.65771484375
 20
-120.2353515625
 30
0.0
 10
-38.75732421875
 20
-120.1357421875
 30
0.0
 10
-38.85595703125
 20
-120.0546875
 30
0.0
 10
-38.72412109375
 20
-120.2353515625
 30
0.0
 10
-38.60693359375
 20
-120.4365234375
 30
0.0
 10
-38.49072265625
 20
-120.6357421875
 30
0.0
 10
-36.24267578125
 20
-124.6318359375
 30
0.0
 10
-37.64111328125
 20
-129.7041015625
 30
0.0
 10
-41.65283203125
 20
-131.9697265625
 30
0.0
 10
-45.64697265625
 20
-134.232421875
 30
0.0
 10
-50.72314453125
 20
-132.8173828125
 30
0.0
 10
-52.98681640625
 20
-128.806640625
 30
0.0
 10
-53.12060546875
 20
-128.5732421875
 30
0.0
 10
-53.23486328125
 20
-128.3408203125
 30
0.0
 10
-53.35205078125
 20
-128.0927734375
 30
0.0
 10
-53.31787109375
 20
-128.4404296875
 30
0.0
 10
-53.30224609375
 20
-128.7744140625
 30
0.0
 10
-53.31787109375
 20
-129.1220703125
 30
0.0
 10
-53.44677734375
 20
-133.48046875
 30
0.0
 10
-56.90673828125
 20
-136.9189453125
 30
0.0
 10
-61.19091796875
 20
-137.1513671875
 30
0.0
 10
-61.19091796875
 20
-137.1513671875
 30
0.0
 10
-61.19091796875
 20
-174.76953125
 30
0.0
 10
-61.19091796875
 20
-174.76953125
 30
0.0
 10
-41.55810546875
 20
-174.76953125
 30
0.0
 10
-25.60302734375
 20
-159.0771484375
 30
0.0
 10
-25.15576171875
 20
-139.5498046875
 30
0.0
  0
HATCH
  5
FF
330
FA
100
AcDbEntity
  8
Layer 1
 62
     7
420
 16115940
100
AcDbHatch
 10
0.0
 20
0.0
 30
0.0
210
0.0
220
0.0
230
1.0
  2
SOLID
 70
     1
 71
     0
 91
        1
 92
        1
 93
        1
 72
     4
 94
        3
 73
     0
 74
     1
 95
       38
 96
       34
 40
0.0
 40
0.0
 40
0.0
 40
0.0
 40
1.0
 40
1.0
 40
1.0
 40
2.0
 40
2.0
 40
2.0
 40
3.0
 40
3.0
 40
3.0
 40
4.0
 40
4.0
 40
4.0
 40
5.0
 40
5.0
 40
5.0
 40
6.0
 40
6.0
 40
6.0
 40
7.0
 40
7.0
 40
7.0
 40
8.0
 40
8.0
 40
8.0
 40
9.0
 40
9.0
 40
9.0
 40
10.0
 40
10.0
 40
10.0
 40
11.0
 40
11.0
 40
11.0
 40
11.0
 10
-25.15576171875
 20
-139.5498046875
 10
-25.15576171875
 20
-139.5498046875
 10
-25.16845703125
 20
-129.716796875
 10
-28.02685546875
 20
-120.7978515625
 10
-31.14599609375
 20
-123.1298828125
 10
-35.56298828125
 20
-123.021484375
 10
-38.55810546875
 20
-120.3193359375
 10
-38.65771484375
 20
-120.2353515625
 10
-38.75732421875
 20
-120.1357421875
 10
-38.85595703125
 20
-120.0546875
 10
-38.72412109375
 20
-120.2353515625
 10
-38.60693359375
 20
-120.4365234375
 10
-38.49072265625
 20
-120.6357421875
 10
-36.24267578125
 20
-124.6318359375
 10
-37.64111328125
 20
-129.7041015625
 10
-41.65283203125
 20
-131.9697265625
 10
-45.64697265625
 20
-134.232421875
 10
-50.72314453125
 20
-132.8173828125
 10
-52.98681640625
 20
-128.806640625
 10
-53.12060546875
 20
-128.5732421875
 10
-53.23486328125
 20
-128.3408203125
 10
-53.35205078125
 20
-128.0927734375
 10
-53.31787109375
 20
-128.4404296875
 10
-53.30224609375
 20
-128.7744140625
 10
-53.31787109375
 20
-129.1220703125
 10
-53.44677734375
 20
-133.48046875
 10
-56.90673828125
 20
-136.9189453125
 10
-61.19091796875
 20
-137.1513671875
 10
-61.19091796875
 20
-137.1513671875
 10
-61.19091796875
 20
-174.76953125
 10
-61.19091796875
 20
-174.76953125
 10
-41.55810546875
 20
-174.76953125
 10
-25.60302734375
 20
-159.0771484375
 10
-25.15576171875
 20
-139.5498046875
 97
        0
 75
     2
 76
     1
 98
        0
  0
ENDBLK
  5
FD
330
FA
100
AcDbEntity
  8
0
100
AcDbBlockEnd
  0
BLOCK
  5
102
330
100
100
AcDbEntity
  8
0
100
AcDbBlockBegin
  2
block 41
 70
     0
 71
     0
 10
0.0
 20
0.0
 30
0.0
  3
block 41
  1

  0
INSERT
  5
105
330
100
100
AcDbEntity
  8
Layer 1
100
AcDbBlockReference
  2
block 42
 10
0.0
 20
0.0
 30
0.0
  0
ENDBLK
  5
103
330
100
100
AcDbEntity
  8
0
100
AcDbBlockEnd
  0
BLOCK
  5
106
330
104
100
AcDbEntity
  8
0
100
AcDbBlockBegin
  2
block 42
 70
     0
 71
     0
 10
0.0
 20
0.0
 30
0.0
  3
block 42
  1

  0
SPLINE
  5
108
330
104
100
AcDbEntity
  8
Layer 1
370
     0
100
AcDbSpline
210
0.0
220
0.0
230
1.0
 70
    11
 71
     3
 72
    56
 73
    52
 74
     0
 42
0.0000000001
 43
0.0000000001
 40
0.0
 40
0.0
 40
0.0
 40
0.0
 40
1.0
 40
1.0
 40
1.0
 40
2.0
 40
2.0
 40
2.0
 40
3.0
 40
3.0
 40
3.0
 40
4.0
 40
4.0
 40
4.0
 40
5.0
 40
5.0
 40
5.0
 40
6.0
 40
6.0
 40
6.0
 40
7.0
 40
7.0
 40
7.0
 40
8.0
 40
8.0
 40
8.0
 40
9.0
 40
9.0
 40
9.0
 40
10.0
 40
10.0
 40
10.0
 40
11.0
 40
11.0
 40
11.0
 40
12.0
 40
12.0
 40
12.0
 40
13.0
 40
13.0
 40
13.0
 40
14.0
 40
14.0
 40
14.0
 40
15.0
 40
15.0
 40
15.0
 40
16.0
 40
16.0
 40
16.0
 40
17.0
 40
17.0
 40
17.0
 40
17.0
 10
-53.31787109375
 20
-129.1220703125
 30
0.0
 10
-53.30224609375
 20
-128.7744140625
 30
0.0
 10
-53.31787109375
 20
-128.4404296875
 30
0.0
 10
-53.35205078125
 20
-128.0927734375
 30
0.0
 10
-53.23486328125
 20
-128.3408203125
 30
0.0
 10
-53.12060546875
 20
-128.5732421875
 30
0.0
 10
-52.98681640625
 20
-128.806640625
 30
0.0
 10
-50.72314453125
 20
-132.8173828125
 30
0.0
 10
-45.64697265625
 20
-134.232421875
 30
0.0
 10
-41.65283203125
 20
-131.9697265625
 30
0.0
 10
-37.64111328125
 20
-129.7041015625
 30
0.0
 10
-36.24267578125
 20
-124.6318359375
 30
0.0
 10
-38.49072265625
 20
-120.6357421875
 30
0.0
 10
-38.60693359375
 20
-120.4365234375
 30
0.0
 10
-38.72412109375
 20
-120.2353515625
 30
0.0
 10
-38.85595703125
 20
-120.0546875
 30
0.0
 10
-38.75732421875
 20
-120.1357421875
 30
0.0
 10
-38.65771484375
 20
-120.2353515625
 30
0.0
 10
-38.55810546875
 20
-120.3193359375
 30
0.0
 10
-35.56298828125
 20
-123.021484375
 30
0.0
 10
-31.14599609375
 20
-123.1298828125
 30
0.0
 10
-28.02685546875
 20
-120.7978515625
 30
0.0
 10
-28.81005859375
 20
-118.3525390625
 30
0.0
 10
-29.79736328125
 20
-115.970703125
 30
0.0
 10
-31.06787109375
 20
-113.888671875
 30
0.0
 10
-32.58544921875
 20
-111.3994140625
 30
0.0
 10
-33.65576171875
 20
-108.654296875
 30
0.0
 10
-34.41943359375
 20
-105.970703125
 30
0.0
 10
-35.72119140625
 20
-101.3896484375
 30
0.0
 10
-36.11181640625
 20
-96.98876953125
 30
0.0
 10
-36.24072265625
 20
-94.35888671875
 30
0.0
 10
-36.24072265625
 20
-94.25732421875
 30
0.0
 10
-36.23095703125
 20
-94.15771484375
 30
0.0
 10
-36.23095703125
 20
-94.05517578125
 30
0.0
 10
-36.23095703125
 20
-93.60009765625
 30
0.0
 10
-36.27392578125
 20
-93.15673828125
 30
0.0
 10
-36.30029296875
 20
-92.708984375
 30
0.0
 10
-36.30517578125
 20
-92.17138671875
 30
0.0
 10
-36.30029296875
 20
-91.8427734375
 30
0.0
 10
-36.30029296875
 20
-91.8427734375
 30
0.0
 10
-36.30029296875
 20
-91.8427734375
 30
0.0
 10
-36.33837890625
 20
-91.900390625
 30
0.0
 10
-36.33837890625
 20
-91.900390625
 30
0.0
 10
-37.43408203125
 20
-79.12451171875
 30
0.0
 10
-48.13232421875
 20
-69.09228515625
 30
0.0
 10
-61.19091796875
 20
-69.09228515625
 30
0.0
 10
-61.19091796875
 20
-69.09228515625
 30
0.0
 10
-61.19091796875
 20
-137.1513671875
 30
0.0
 10
-61.19091796875
 20
-137.1513671875
 30
0.0
 10
-56.90673828125
 20
-136.9189453125
 30
0.0
 10
-53.44677734375
 20
-133.48046875
 30
0.0
 10
-53.31787109375
 20
-129.1220703125
 30
0.0
  0
HATCH
  5
109
330
104
100
AcDbEntity
  8
Layer 1
 62
    23
420
 12614753
100
AcDbHatch
 10
0.0
 20
0.0
 30
0.0
210
0.0
220
0.0
230
1.0
  2
SOLID
 70
     1
 71
     0
 91
        1
 92
        1
 93
        1
 72
     4
 94
        3
 73
     0
 74
     1
 95
       56
 96
       52
 40
0.0
 40
0.0
 40
0.0
 40
0.0
 40
1.0
 40
1.0
 40
1.0
 40
2.0
 40
2.0
 40
2.0
 40
3.0
 40
3.0
 40
3.0
 40
4.0
 40
4.0
 40
4.0
 40
5.0
 40
5.0
 40
5.0
 40
6.0
 40
6.0
 40
6.0
 40
7.0
 40
7.0
 40
7.0
 40
8.0
 40
8.0
 40
8.0
 40
9.0
 40
9.0
 40
9.0
 40
10.0
 40
10.0
 40
10.0
 40
11.0
 40
11.0
 40
11.0
 40
12.0
 40
12.0
 40
12.0
 40
13.0
 40
13.0
 40
13.0
 40
14.0
 40
14.0
 40
14.0
 40
15.0
 40
15.0
 40
15.0
 40
16.0
 40
16.0
 40
16.0
 40
17.0
 40
17.0
 40
17.0
 40
17.0
 10
-53.31787109375
 20
-129.1220703125
 10
-53.30224609375
 20
-128.7744140625
 10
-53.31787109375
 20
-128.4404296875
 10
-53.35205078125
 20
-128.0927734375
 10
-53.23486328125
 20
-128.3408203125
 10
-53.12060546875
 20
-128.5732421875
 10
-52.98681640625
 20
-128.806640625
 10
-50.72314453125
 20
-132.8173828125
 10
-45.64697265625
 20
-134.232421875
 10
-41.65283203125
 20
-131.9697265625
 10
-37.64111328125
 20
-129.7041015625
 10
-36.24267578125
 20
-124.6318359375
 10
-38.49072265625
 20
-120.6357421875
 10
-38.60693359375
 20
-120.4365234375
 10
-38.72412109375
 20
-120.2353515625
 10
-38.85595703125
 20
-120.0546875
 10
-38.75732421875
 20
-120.1357421875
 10
-38.65771484375
 20
-120.2353515625
 10
-38.55810546875
 20
-120.3193359375
 10
-35.56298828125
 20
-123.021484375
 10
-31.14599609375
 20
-123.1298828125
 10
-28.02685546875
 20
-120.7978515625
 10
-28.81005859375
 20
-118.3525390625
 10
-29.79736328125
 20
-115.970703125
 10
-31.06787109375
 20
-113.888671875
 10
-32.58544921875
 20
-111.3994140625
 10
-33.65576171875
 20
-108.654296875
 10
-34.41943359375
 20
-105.970703125
 10
-35.72119140625
 20
-101.3896484375
 10
-36.11181640625
 20
-96.98876953125
 10
-36.24072265625
 20
-94.35888671875
 10
-36.24072265625
 20
-94.25732421875
 10
-36.23095703125
 20
-94.15771484375
 10
-36.23095703125
 20
-94.05517578125
 10
-36.23095703125
 20
-93.60009765625
 10
-36.27392578125
 20
-93.15673828125
 10
-36.30029296875
 20
-92.708984375
 10
-36.30517578125
 20
-92.17138671875
 10
-36.30029296875
 20
-91.8427734375
 10
-36.30029296875
 20
-91.8427734375
 10
-36.30029296875
 20
-91.8427734375
 10
-36.33837890625
 20
-91.900390625
 10
-36.33837890625
 20
-91.900390625
 10
-37.43408203125
 20
-79.12451171875
 10
-48.13232421875
 20
-69.09228515625
 10
-61.19091796875
 20
-69.09228515625
 10
-61.19091796875
 20
-69.09228515625
 10
-61.19091796875
 20
-137.1513671875
 10
-61.19091796875
 20
-137.1513671875
 10
-56.90673828125
 20
-136.9189453125
 10
-53.44677734375
 20
-133.48046875
 10
-53.31787109375
 20
-129.1220703125
 97
        0
 75
     2
 76
     1
 98
        0
  0
ENDBLK
  5
107
330
104
100
AcDbEntity
  8
0
100
AcDbBlockEnd
  0
BLOCK
  5
10C
330
10A
100
AcDbEntity
  8
0
100
AcDbBlockBegin
  2
block 43
 70
     0
 71
     0
 10
0.0
 20
0.0
 30
0.0
  3
block 43
  1

  0
INSERT
  5
10F
330
10A
100
AcDbEntity
  8
Layer 1
100
AcDbBlockReference
  2
block 44
 10
0.0
 20
0.0
 30
0.0
  0
ENDBLK
  5
10D
330
10A
100
AcDbEntity
  8
0
100
AcDbBlockEnd
  0
BLOCK
  5
110
330
10E
100
AcDbEntity
  8
0
100
AcDbBlockBegin
  2
block 44
 70
     0
 71
     0
 10
0.0
 20
0.0
 30
0.0
  3
block 44
  1

  0
SPLINE
  5
112
330
10E
100
AcDbEntity
  8
Layer 1
370
     0
100
AcDbSpline
210
0.0
220
0.0
230
1.0
 70
    11
 71
     3
 72
    35
 73
    31
 74
     0
 42
0.0000000001
 43
0.0000000001
 40
0.0
 40
0.0
 40
0.0
 40
0.0
 40
1.0
 40
1.0
 40
1.0
 40
2.0
 40
2.0
 40
2.0
 40
3.0
 40
3.0
 40
3.0
 40
4.0
 40
4.0
 40
4.0
 40
5.0
 40
5.0
 40
5.0
 40
6.0
 40
6.0
 40
6.0
 40
7.0
 40
7.0
 40
7.0
 40
8.0
 40
8.0
 40
8.0
 40
9.0
 40
9.0
 40
9.0
 40
10.0
 40
10.0
 40
10.0
 40
10.0
 10
-67.67138671875
 20
-56.83447265625
 30
0.0
 10
-65.97509765625
 20
-58.19580078125
 30
0.0
 10
-64.85107421875
 20
-59.60107421875
 30
0.0
 10
-63.84228515625
 20
-60.791015625
 30
0.0
 10
-63.32958984375
 20
-61.41455078125
 30
0.0
 10
-62.96435546875
 20
-61.748046875
 30
0.0
 10
-62.44970703125
 20
-62.3251953125
 30
0.0
 10
-61.92822265625
 20
-62.94091796875
 30
0.0
 10
-61.35107421875
 20
-63.6982421875
 30
0.0
 10
-60.87744140625
 20
-64.54443359375
 30
0.0
 10
-59.91064453125
 20
-66.2314453125
 30
0.0
 10
-59.31298828125
 20
-68.2802734375
 30
0.0
 10
-59.34521484375
 20
-70.30224609375
 30
0.0
 10
-59.39208984375
 20
-72.32861328125
 30
0.0
 10
-59.97607421875
 20
-74.3271484375
 30
0.0
 10
-61.43017578125
 20
-75.97314453125
 30
0.0
 10
-62.74755859375
 20
-74.2197265625
 30
0.0
 10
-63.61376953125
 20
-72.7958984375
 30
0.0
 10
-64.43798828125
 20
-71.50732421875
 30
0.0
 10
-65.25146484375
 20
-70.216796875
 30
0.0
 10
-65.96142578125
 20
-69.0859375
 30
0.0
 10
-66.67431640625
 20
-67.81591796875
 30
0.0
 10
-67.03759765625
 20
-67.17724609375
 30
0.0
 10
-67.38525390625
 20
-66.50634765625
 30
0.0
 10
-67.77587890625
 20
-65.68701171875
 30
0.0
 10
-68.19580078125
 20
-64.8408203125
 30
0.0
 10
-68.61474609375
 20
-63.65576171875
 30
0.0
 10
-68.70068359375
 20
-62.68505859375
 30
0.0
 10
-68.90869140625
 20
-60.6962890625
 30
0.0
 10
-68.65771484375
 20
-58.7998046875
 30
0.0
 10
-67.67138671875
 20
-56.83447265625
 30
0.0
  0
HATCH
  5
113
330
10E
100
AcDbEntity
  8
Layer 1
 62
    13
420
 15292507
100
AcDbHatch
 10
0.0
 20
0.0
 30
0.0
210
0.0
220
0.0
230
1.0
  2
SOLID
 70
     1
 71
     0
 91
        1
 92
        1
 93
        1
 72
     4
 94
        3
 73
     0
 74
     1
 95
       35
 96
       31
 40
0.0
 40
0.0
 40
0.0
 40
0.0
 40
1.0
 40
1.0
 40
1.0
 40
2.0
 40
2.0
 40
2.0
 40
3.0
 40
3.0
 40
3.0
 40
4.0
 40
4.0
 40
4.0
 40
5.0
 40
5.0
 40
5.0
 40
6.0
 40
6.0
 40
6.0
 40
7.0
 40
7.0
 40
7.0
 40
8.0
 40
8.0
 40
8.0
 40
9.0
 40
9.0
 40
9.0
 40
10.0
 40
10.0
 40
10.0
 40
10.0
 10
-67.67138671875
 20
-56.83447265625
 10
-65.97509765625
 20
-58.19580078125
 10
-64.85107421875
 20
-59.60107421875
 10
-63.84228515625
 20
-60.791015625
 10
-63.32958984375
 20
-61.41455078125
 10
-62.96435546875
 20
-61.748046875
 10
-62.44970703125
 20
-62.3251953125
 10
-61.92822265625
 20
-62.94091796875
 10
-61.35107421875
 20
-63.6982421875
 10
-60.87744140625
 20
-64.54443359375
 10
-59.91064453125
 20
-66.2314453125
 10
-59.31298828125
 20
-68.2802734375
 10
-59.34521484375
 20
-70.30224609375
 10
-59.39208984375
 20
-72.32861328125
 10
-59.97607421875
 20
-74.3271484375
 10
-61.43017578125
 20
-75.97314453125
 10
-62.74755859375
 20
-74.2197265625
 10
-63.61376953125
 20
-72.7958984375
 10
-64.43798828125
 20
-71.50732421875
 10
-65.25146484375
 20
-70.216796875
 10
-65.96142578125
 20
-69.0859375
 10
-66.67431640625
 20
-67.81591796875
 10
-67.03759765625
 20
-67.17724609375
 10
-67.38525390625
 20
-66.50634765625
 10
-67.77587890625
 20
-65.68701171875
 10
-68.19580078125
 20
-64.8408203125
 10
-68.61474609375
 20
-63.65576171875
 10
-68.70068359375
 20
-62.68505859375
 10
-68.90869140625
 20
-60.6962890625
 10
-68.65771484375
 20
-58.7998046875
 10
-67.67138671875
 20
-56.83447265625
 97
        0
 75
     2
 76
     1
 98
        0
  0
ENDBLK
  5
111
330
10E
100
AcDbEntity
  8
0
100
AcDbBlockEnd
  0
BLOCK
  5
116
330
114
100
AcDbEntity
  8
0
100
AcDbBlockBegin
  2
block 45
 70
     0
 71
     0
 10
0.0
 20
0.0
 30
0.0
  3
block 45
  1

  0
INSERT
  5
119
330
114
100
AcDbEntity
  8
Layer 1
100
AcDbBlockReference
  2
block 46
 10
0.0
 20
0.0
 30
0.0
  0
INSERT
  5
123
330
114
100
AcDbEntity
  8
Layer 1
100
AcDbBlockReference
  2
block 48
 10
0.0
 20
0.0
 30
0.0
  0
INSERT
  5
13B
330
114
100
AcDbEntity
  8
Layer 1
100
AcDbBlockReference
  2
block 53
 10
0.0
 20
0.0
 30
0.0
  0
INSERT
  5
153
330
114
100
AcDbEntity
  8
Layer 1
100
AcDbBlockReference
  2
block 58
 10
0.0
 20
0.0
 30
0.0
  0
INSERT
  5
15D
330
114
100
AcDbEntity
  8
Layer 1
100
AcDbBlockReference
  2
block 60
 10
0.0
 20
0.0
 30
0.0
  0
INSERT
  5
167
330
114
100
AcDbEntity
  8
Layer 1
100
AcDbBlockReference
  2
block 62
 10
0.0
 20
0.0
 30
0.0
  0
INSERT
  5
170
330
114
100
AcDbEntity
  8
Layer 1
100
AcDbBlockReference
  2
block 64
 10
0.0
 20
0.0
 30
0.0
  0
ENDBLK
  5
117
330
114
100
AcDbEntity
  8
0
100
AcDbBlockEnd
  0
BLOCK
  5
11A
330
118
100
AcDbEntity
  8
0
100
AcDbBlockBegin
  2
block 46
 70
     0
 71
     0
 10
0.0
 20
0.0
 30
0.0
  3
block 46
  1

  0
INSERT
  5
11D
330
118
100
AcDbEntity
  8
Layer 1
100
AcDbBlockReference
  2
block 47
 10
0.0
 20
0.0
 30
0.0
  0
ENDBLK
  5
11B
330
118
100
AcDbEntity
  8
0
100
AcDbBlockEnd
  0
BLOCK
  5
11E
330
11C
100
AcDbEntity
  8
0
100
AcDbBlockBegin
  2
block 47
 70
     0
 71
     0
 10
0.0
 20
0.0
 30
0.0
  3
block 47
  1

  0
SPLINE
  5
120
330
11C
100
AcDbEntity
  8
Layer 1
370
     0
100
AcDbSpline
210
0.0
220
0.0
230
1.0
 70
    11
 71
     3
 72
    32
 73
    28
 74
     0
 42
0.0000000001
 43
0.0000000001
 40
0.0
 40
0.0
 40
0.0
 40
0.0
 40
1.0
 40
1.0
 40
1.0
 40
2.0
 40
2.0
 40
2.0
 40
3.0
 40
3.0
 40
3.0
 40
4.0
 40
4.0
 40
4.0
 40
5.0
 40
5.0
 40
5.0
 40
6.0
 40
6.0
 40
6.0
 40
7.0
 40
7.0
 40
7.0
 40
8.0
 40
8.0
 40
8.0
 40
9.0
 40
9.0
 40
9.0
 40
9.0
 10
-52.19580078125
 20
-111.6875
 30
0.0
 10
-52.19580078125
 20
-111.6845703125
 30
0.0
 10
-52.19580078125
 20
-111.6796875
 30
0.0
 10
-52.19580078125
 20
-111.673828125
 30
0.0
 10
-52.19580078125
 20
-106.1279296875
 30
0.0
 10
-57.21240234375
 20
-101.630859375
 30
0.0
 10
-61.34912109375
 20
-101.630859375
 30
0.0
 10
-65.48486328125
 20
-101.630859375
 30
0.0
 10
-70.50146484375
 20
-106.1279296875
 30
0.0
 10
-70.50146484375
 20
-111.673828125
 30
0.0
 10
-70.50146484375
 20
-113.89453125
 30
0.0
 10
-70.67431640625
 20
-119.7294921875
 30
0.0
 10
-66.47705078125
 20
-119.7294921875
 30
0.0
 10
-65.24169921875
 20
-119.7294921875
 30
0.0
 10
-64.14892578125
 20
-119.15625
 30
0.0
 10
-63.41064453125
 20
-118.2783203125
 30
0.0
 10
-62.71728515625
 20
-118.3544921875
 30
0.0
 10
-62.02099609375
 20
-118.3896484375
 30
0.0
 10
-61.34912109375
 20
-118.3896484375
 30
0.0
 10
-60.67529296875
 20
-118.3896484375
 30
0.0
 10
-59.98095703125
 20
-118.3544921875
 30
0.0
 10
-59.28564453125
 20
-118.2783203125
 30
0.0
 10
-58.54833984375
 20
-119.15625
 30
0.0
 10
-57.45556640625
 20
-119.7294921875
 30
0.0
 10
-56.21630859375
 20
-119.7294921875
 30
0.0
 10
-52.02978515625
 20
-119.7294921875
 30
0.0
 10
-52.19580078125
 20
-113.91796875
 30
0.0
 10
-52.19580078125
 20
-111.6875
 30
0.0
  0
HATCH
  5
121
330
11C
100
AcDbEntity
  8
Layer 1
 62
    13
420
 15292507
100
AcDbHatch
 10
0.0
 20
0.0
 30
0.0
210
0.0
220
0.0
230
1.0
  2
SOLID
 70
     1
 71
     0
 91
        1
 92
        1
 93
        1
 72
     4
 94
        3
 73
     0
 74
     1
 95
       32
 96
       28
 40
0.0
 40
0.0
 40
0.0
 40
0.0
 40
1.0
 40
1.0
 40
1.0
 40
2.0
 40
2.0
 40
2.0
 40
3.0
 40
3.0
 40
3.0
 40
4.0
 40
4.0
 40
4.0
 40
5.0
 40
5.0
 40
5.0
 40
6.0
 40
6.0
 40
6.0
 40
7.0
 40
7.0
 40
7.0
 40
8.0
 40
8.0
 40
8.0
 40
9.0
 40
9.0
 40
9.0
 40
9.0
 10
-52.19580078125
 20
-111.6875
 10
-52.19580078125
 20
-111.6845703125
 10
-52.19580078125
 20
-111.6796875
 10
-52.19580078125
 20
-111.673828125
 10
-52.19580078125
 20
-106.1279296875
 10
-57.21240234375
 20
-101.630859375
 10
-61.34912109375
 20
-101.630859375
 10
-65.48486328125
 20
-101.630859375
 10
-70.50146484375
 20
-106.1279296875
 10
-70.50146484375
 20
-111.673828125
 10
-70.50146484375
 20
-113.89453125
 10
-70.67431640625
 20
-119.7294921875
 10
-66.47705078125
 20
-119.7294921875
 10
-65.24169921875
 20
-119.7294921875
 10
-64.14892578125
 20
-119.15625
 10
-63.41064453125
 20
-118.2783203125
 10
-62.71728515625
 20
-118.3544921875
 10
-62.02099609375
 20
-118.3896484375
 10
-61.34912109375
 20
-118.3896484375
 10
-60.67529296875
 20
-118.3896484375
 10
-59.98095703125
 20
-118.3544921875
 10
-59.28564453125
 20
-118.2783203125
 10
-58.54833984375
 20
-119.15625
 10
-57.45556640625
 20
-119.7294921875
 10
-56.21630859375
 20
-119.7294921875
 10
-52.02978515625
 20
-119.7294921875
 10
-52.19580078125
 20
-113.91796875
 10
-52.19580078125
 20
-111.6875
 97
        0
 75
     2
 76
     1
 98
        0
  0
ENDBLK
  5
11F
330
11C
100
AcDbEntity
  8
0
100
AcDbBlockEnd
  0
BLOCK
  5
124
330
122
100
AcDbEntity
  8
0
100
AcDbBlockBegin
  2
block 48
 70
     0
 71
     0
 10
0.0
 20
0.0
 30
0.0
  3
block 48
  1

  0
INSERT
  5
127
330
122
100
AcDbEntity
  8
Layer 1
100
AcDbBlockReference
  2
block 49
 10
0.0
 20
0.0
 30
0.0
  0
INSERT
  5
131
330
122
100
AcDbEntity
  8
Layer 1
100
AcDbBlockReference
  2
block 51
 10
0.0
 20
0.0
 30
0.0
  0
ENDBLK
  5
125
330
122
100
AcDbEntity
  8
0
100
AcDbBlockEnd
  0
BLOCK
  5
128
330
126
100
AcDbEntity
  8
0
100
AcDbBlockBegin
  2
block 49
 70
     0
 71
     0
 10
0.0
 20
0.0
 30
0.0
  3
block 49
  1

  0
INSERT
  5
12B
330
126
100
AcDbEntity
  8
Layer 1
100
AcDbBlockReference
  2
block 50
 10
0.0
 20
0.0
 30
0.0
  0
ENDBLK
  5
129
330
126
100
AcDbEntity
  8
0
100
AcDbBlockEnd
  0
BLOCK
  5
12C
330
12A
100
AcDbEntity
  8
0
100
AcDbBlockBegin
  2
block 50
 70
     0
 71
     0
 10
0.0
 20
0.0
 30
0.0
  3
block 50
  1

  0
SPLINE
  5
12E
330
12A
100
AcDbEntity
  8
Layer 1
370
     0
100
AcDbSpline
210
0.0
220
0.0
230
1.0
 70
    11
 71
     3
 72
    20
 73
    16
 74
     0
 42
0.0000000001
 43
0.0000000001
 40
0.0
 40
0.0
 40
0.0
 40
0.0
 40
1.0
 40
1.0
 40
1.0
 40
2.0
 40
2.0
 40
2.0
 40
3.0
 40
3.0
 40
3.0
 40
4.0
 40
4.0
 40
4.0
 40
5.0
 40
5.0
 40
5.0
 40
5.0
 10
-71.41259765625
 20
-83.3623046875
 30
0.0
 10
-77.54541015625
 20
-83.3623046875
 30
0.0
 10
-82.52001953125
 20
-88.0859375
 30
0.0
 10
-82.52001953125
 20
-93.91748046875
 30
0.0
 10
-82.52001953125
 20
-99.74560546875
 30
0.0
 10
-77.54541015625
 20
-104.470703125
 30
0.0
 10
-71.41259765625
 20
-104.470703125
 30
0.0
 10
-66.82275390625
 20
-104.470703125
 30
0.0
 10
-62.88623046875
 20
-105.13671875
 30
0.0
 10
-61.19091796875
 20
-101.384765625
 30
0.0
 10
-61.19091796875
 20
-101.384765625
 30
0.0
 10
-61.19091796875
 20
-89.7763671875
 30
0.0
 10
-61.19091796875
 20
-89.7763671875
 30
0.0
 10
-62.88623046875
 20
-86.005859375
 30
0.0
 10
-66.82275390625
 20
-83.3623046875
 30
0.0
 10
-71.41259765625
 20
-83.3623046875
 30
0.0
  0
HATCH
  5
12F
330
12A
100
AcDbEntity
  8
Layer 1
 62
     9
420
 13813185
100
AcDbHatch
 10
0.0
 20
0.0
 30
0.0
210
0.0
220
0.0
230
1.0
  2
SOLID
 70
     1
 71
     0
 91
        1
 92
        1
 93
        1
 72
     4
 94
        3
 73
     0
 74
     1
 95
       20
 96
       16
 40
0.0
 40
0.0
 40
0.0
 40
0.0
 40
1.0
 40
1.0
 40
1.0
 40
2.0
 40
2.0
 40
2.0
 40
3.0
 40
3.0
 40
3.0
 40
4.0
 40
4.0
 40
4.0
 40
5.0
 40
5.0
 40
5.0
 40
5.0
 10
-71.41259765625
 20
-83.3623046875
 10
-77.54541015625
 20
-83.3623046875
 10
-82.52001953125
 20
-88.0859375
 10
-82.52001953125
 20
-93.91748046875
 10
-82.52001953125
 20
-99.74560546875
 10
-77.54541015625
 20
-104.470703125
 10
-71.41259765625
 20
-104.470703125
 10
-66.82275390625
 20
-104.470703125
 10
-62.88623046875
 20
-105.13671875
 10
-61.19091796875
 20
-101.384765625
 10
-61.19091796875
 20
-101.384765625
 10
-61.19091796875
 20
-89.7763671875
 10
-61.19091796875
 20
-89.7763671875
 10
-62.88623046875
 20
-86.005859375
 10
-66.82275390625
 20
-83.3623046875
 10
-71.41259765625
 20
-83.3623046875
 97
        0
 75
     2
 76
     1
 98
        0
  0
ENDBLK
  5
12D
330
12A
100
AcDbEntity
  8
0
100
AcDbBlockEnd
  0
BLOCK
  5
132
330
130
100
AcDbEntity
  8
0
100
AcDbBlockBegin
  2
block 51
 70
     0
 71
     0
 10
0.0
 20
0.0
 30
0.0
  3
block 51
  1

  0
INSERT
  5
135
330
130
100
AcDbEntity
  8
Layer 1
100
AcDbBlockReference
  2
block 52
 10
0.0
 20
0.0
 30
0.0
  0
ENDBLK
  5
133
330
130
100
AcDbEntity
  8
0
100
AcDbBlockEnd
  0
BLOCK
  5
136
330
134
100
AcDbEntity
  8
0
100
AcDbBlockBegin
  2
block 52
 70
     0
 71
     0
 10
0.0
 20
0.0
 30
0.0
  3
block 52
  1

  0
SPLINE
  5
138
330
134
100
AcDbEntity
  8
Layer 1
370
     0
100
AcDbSpline
210
0.0
220
0.0
230
1.0
 70
    11
 71
     3
 72
    26
 73
    22
 74
     0
 42
0.0000000001
 43
0.0000000001
 40
0.0
 40
0.0
 40
0.0
 40
0.0
 40
1.0
 40
1.0
 40
1.0
 40
2.0
 40
2.0
 40
2.0
 40
3.0
 40
3.0
 40
3.0
 40
4.0
 40
4.0
 40
4.0
 40
5.0
 40
5.0
 40
5.0
 40
6.0
 40
6.0
 40
6.0
 40
7.0
 40
7.0
 40
7.0
 40
7.0
 10
-50.94384765625
 20
-104.470703125
 30
0.0
 10
-44.80810546875
 20
-104.470703125
 30
0.0
 10
-39.83447265625
 20
-99.74560546875
 30
0.0
 10
-39.83447265625
 20
-93.91748046875
 30
0.0
 10
-39.83447265625
 20
-88.0859375
 30
0.0
 10
-44.80810546875
 20
-83.3623046875
 30
0.0
 10
-50.94384765625
 20
-83.3623046875
 30
0.0
 10
-55.54541015625
 20
-83.3623046875
 30
0.0
 10
-59.49072265625
 20
-86.017578125
 30
0.0
 10
-61.17626953125
 20
-89.80224609375
 30
0.0
 10
-61.18212890625
 20
-89.7919921875
 30
0.0
 10
-61.18701171875
 20
-89.78564453125
 30
0.0
 10
-61.19091796875
 20
-89.7763671875
 30
0.0
 10
-61.19091796875
 20
-89.7763671875
 30
0.0
 10
-61.19091796875
 20
-101.384765625
 30
0.0
 10
-61.19091796875
 20
-101.384765625
 30
0.0
 10
-61.18701171875
 20
-101.3759765625
 30
0.0
 10
-61.18212890625
 20
-101.3671875
 30
0.0
 10
-61.17626953125
 20
-101.357421875
 30
0.0
 10
-59.49072265625
 20
-105.14453125
 30
0.0
 10
-55.54541015625
 20
-104.470703125
 30
0.0
 10
-50.94384765625
 20
-104.470703125
 30
0.0
  0
HATCH
  5
139
330
134
100
AcDbEntity
  8
Layer 1
 62
     7
420
 16115940
100
AcDbHatch
 10
0.0
 20
0.0
 30
0.0
210
0.0
220
0.0
230
1.0
  2
SOLID
 70
     1
 71
     0
 91
        1
 92
        1
 93
        1
 72
     4
 94
        3
 73
     0
 74
     1
 95
       26
 96
       22
 40
0.0
 40
0.0
 40
0.0
 40
0.0
 40
1.0
 40
1.0
 40
1.0
 40
2.0
 40
2.0
 40
2.0
 40
3.0
 40
3.0
 40
3.0
 40
4.0
 40
4.0
 40
4.0
 40
5.0
 40
5.0
 40
5.0
 40
6.0
 40
6.0
 40
6.0
 40
7.0
 40
7.0
 40
7.0
 40
7.0
 10
-50.94384765625
 20
-104.470703125
 10
-44.80810546875
 20
-104.470703125
 10
-39.83447265625
 20
-99.74560546875
 10
-39.83447265625
 20
-93.91748046875
 10
-39.83447265625
 20
-88.0859375
 10
-44.80810546875
 20
-83.3623046875
 10
-50.94384765625
 20
-83.3623046875
 10
-55.54541015625
 20
-83.3623046875
 10
-59.49072265625
 20
-86.017578125
 10
-61.17626953125
 20
-89.80224609375
 10
-61.18212890625
 20
-89.7919921875
 10
-61.18701171875
 20
-89.78564453125
 10
-61.19091796875
 20
-89.7763671875
 10
-61.19091796875
 20
-89.7763671875
 10
-61.19091796875
 20
-101.384765625
 10
-61.19091796875
 20
-101.384765625
 10
-61.18701171875
 20
-101.3759765625
 10
-61.18212890625
 20
-101.3671875
 10
-61.17626953125
 20
-101.357421875
 10
-59.49072265625
 20
-105.14453125
 10
-55.54541015625
 20
-104.470703125
 10
-50.94384765625
 20
-104.470703125
 97
        0
 75
     2
 76
     1
 98
        0
  0
ENDBLK
  5
137
330
134
100
AcDbEntity
  8
0
100
AcDbBlockEnd
  0
BLOCK
  5
13C
330
13A
100
AcDbEntity
  8
0
100
AcDbBlockBegin
  2
block 53
 70
     0
 71
     0
 10
0.0
 20
0.0
 30
0.0
  3
block 53
  1

  0
INSERT
  5
13F
330
13A
100
AcDbEntity
  8
Layer 1
100
AcDbBlockReference
  2
block 54
 10
0.0
 20
0.0
 30
0.0
  0
INSERT
  5
149
330
13A
100
AcDbEntity
  8
Layer 1
100
AcDbBlockReference
  2
block 56
 10
0.0
 20
0.0
 30
0.0
  0
ENDBLK
  5
13D
330
13A
100
AcDbEntity
  8
0
100
AcDbBlockEnd
  0
BLOCK
  5
140
330
13E
100
AcDbEntity
  8
0
100
AcDbBlockBegin
  2
block 54
 70
     0
 71
     0
 10
0.0
 20
0.0
 30
0.0
  3
block 54
  1

  0
INSERT
  5
143
330
13E
100
AcDbEntity
  8
Layer 1
100
AcDbBlockReference
  2
block 55
 10
0.0
 20
0.0
 30
0.0
  0
ENDBLK
  5
141
330
13E
100
AcDbEntity
  8
0
100
AcDbBlockEnd
  0
BLOCK
  5
144
330
142
100
AcDbEntity
  8
0
100
AcDbBlockBegin
  2
block 55
 70
     0
 71
     0
 10
0.0
 20
0.0
 30
0.0
  3
block 55
  1

  0
SPLINE
  5
146
330
142
100
AcDbEntity
  8
Layer 1
370
     0
100
AcDbSpline
210
0.0
220
0.0
230
1.0
 70
    11
 71
     3
 72
    23
 73
    19
 74
     0
 42
0.0000000001
 43
0.0000000001
 40
0.0
 40
0.0
 40
0.0
 40
0.0
 40
1.0
 40
1.0
 40
1.0
 40
2.0
 40
2.0
 40
2.0
 40
3.0
 40
3.0
 40
3.0
 40
4.0
 40
4.0
 40
4.0
 40
5.0
 40
5.0
 40
5.0
 40
6.0
 40
6.0
 40
6.0
 40
6.0
 10
-63.14599609375
 20
-101.904296875
 30
0.0
 10
-63.14599609375
 20
-101.904296875
 30
0.0
 10
-65.83642578125
 20
-103.6796875
 30
0.0
 10
-65.83642578125
 20
-103.6796875
 30
0.0
 10
-66.91845703125
 20
-104.39453125
 30
0.0
 10
-67.26318359375
 20
-105.890625
 30
0.0
 10
-66.59814453125
 20
-107.0068359375
 30
0.0
 10
-66.59814453125
 20
-107.0068359375
 30
0.0
 10
-62.38525390625
 20
-114.080078125
 30
0.0
 10
-62.38525390625
 20
-114.080078125
 30
0.0
 10
-62.05224609375
 20
-114.6376953125
 30
0.0
 10
-61.61474609375
 20
-114.9150390625
 30
0.0
 10
-61.17626953125
 20
-114.9150390625
 30
0.0
 10
-61.17626953125
 20
-114.9150390625
 30
0.0
 10
-61.17626953125
 20
-101.3671875
 30
0.0
 10
-61.17626953125
 20
-101.3671875
 30
0.0
 10
-61.89306640625
 20
-101.3671875
 30
0.0
 10
-62.60400390625
 20
-101.5458984375
 30
0.0
 10
-63.14599609375
 20
-101.904296875
 30
0.0
  0
HATCH
  5
147
330
142
100
AcDbEntity
  8
Layer 1
 62
    30
420
 15965740
100
AcDbHatch
 10
0.0
 20
0.0
 30
0.0
210
0.0
220
0.0
230
1.0
  2
SOLID
 70
     1
 71
     0
 91
        1
 92
        1
 93
        1
 72
     4
 94
        3
 73
     0
 74
     1
 95
       23
 96
       19
 40
0.0
 40
0.0
 40
0.0
 40
0.0
 40
1.0
 40
1.0
 40
1.0
 40
2.0
 40
2.0
 40
2.0
 40
3.0
 40
3.0
 40
3.0
 40
4.0
 40
4.0
 40
4.0
 40
5.0
 40
5.0
 40
5.0
 40
6.0
 40
6.0
 40
6.0
 40
6.0
 10
-63.14599609375
 20
-101.904296875
 10
-63.14599609375
 20
-101.904296875
 10
-65.83642578125
 20
-103.6796875
 10
-65.83642578125
 20
-103.6796875
 10
-66.91845703125
 20
-104.39453125
 10
-67.26318359375
 20
-105.890625
 10
-66.59814453125
 20
-107.0068359375
 10
-66.59814453125
 20
-107.0068359375
 10
-62.38525390625
 20
-114.080078125
 10
-62.38525390625
 20
-114.080078125
 10
-62.05224609375
 20
-114.6376953125
 10
-61.61474609375
 20
-114.9150390625
 10
-61.17626953125
 20
-114.9150390625
 10
-61.17626953125
 20
-114.9150390625
 10
-61.17626953125
 20
-101.3671875
 10
-61.17626953125
 20
-101.3671875
 10
-61.89306640625
 20
-101.3671875
 10
-62.60400390625
 20
-101.5458984375
 10
-63.14599609375
 20
-101.904296875
 97
        0
 75
     2
 76
     1
 98
        0
  0
ENDBLK
  5
145
330
142
100
AcDbEntity
  8
0
100
AcDbBlockEnd
  0
BLOCK
  5
14A
330
148
100
AcDbEntity
  8
0
100
AcDbBlockBegin
  2
block 56
 70
     0
 71
     0
 10
0.0
 20
0.0
 30
0.0
  3
block 56
  1

  0
INSERT
  5
14D
330
148
100
AcDbEntity
  8
Layer 1
100
AcDbBlockReference
  2
block 57
 10
0.0
 20
0.0
 30
0.0
  0
ENDBLK
  5
14B
330
148
100
AcDbEntity
  8
0
100
AcDbBlockEnd
  0
BLOCK
  5
14E
330
14C
100
AcDbEntity
  8
0
100
AcDbBlockBegin
  2
block 57
 70
     0
 71
     0
 10
0.0
 20
0.0
 30
0.0
  3
block 57
  1

  0
SPLINE
  5
150
330
14C
100
AcDbEntity
  8
Layer 1
370
     0
100
AcDbSpline
210
0.0
220
0.0
230
1.0
 70
    11
 71
     3
 72
    23
 73
    19
 74
     0
 42
0.0000000001
 43
0.0000000001
 40
0.0
 40
0.0
 40
0.0
 40
0.0
 40
1.0
 40
1.0
 40
1.0
 40
2.0
 40
2.0
 40
2.0
 40
3.0
 40
3.0
 40
3.0
 40
4.0
 40
4.0
 40
4.0
 40
5.0
 40
5.0
 40
5.0
 40
6.0
 40
6.0
 40
6.0
 40
6.0
 10
-59.97216796875
 20
-114.080078125
 30
0.0
 10
-59.97216796875
 20
-114.080078125
 30
0.0
 10
-55.75927734375
 20
-107.0068359375
 30
0.0
 10
-55.75927734375
 20
-107.0068359375
 30
0.0
 10
-55.09521484375
 20
-105.890625
 30
0.0
 10
-55.43798828125
 20
-104.39453125
 30
0.0
 10
-56.52001953125
 20
-103.6796875
 30
0.0
 10
-56.52001953125
 20
-103.6796875
 30
0.0
 10
-59.21044921875
 20
-101.904296875
 30
0.0
 10
-59.21044921875
 20
-101.904296875
 30
0.0
 10
-59.75048828125
 20
-101.5458984375
 30
0.0
 10
-60.46630859375
 20
-101.3671875
 30
0.0
 10
-61.17626953125
 20
-101.3671875
 30
0.0
 10
-61.17626953125
 20
-101.3671875
 30
0.0
 10
-61.17626953125
 20
-114.9150390625
 30
0.0
 10
-61.17626953125
 20
-114.9150390625
 30
0.0
 10
-60.74169921875
 20
-114.9150390625
 30
0.0
 10
-60.30419921875
 20
-114.6376953125
 30
0.0
 10
-59.97216796875
 20
-114.080078125
 30
0.0
  0
HATCH
  5
151
330
14C
100
AcDbEntity
  8
Layer 1
 62
    41
420
 16440407
100
AcDbHatch
 10
0.0
 20
0.0
 30
0.0
210
0.0
220
0.0
230
1.0
  2
SOLID
 70
     1
 71
     0
 91
        1
 92
        1
 93
        1
 72
     4
 94
        3
 73
     0
 74
     1
 95
       23
 96
       19
 40
0.0
 40
0.0
 40
0.0
 40
0.0
 40
1.0
 40
1.0
 40
1.0
 40
2.0
 40
2.0
 40
2.0
 40
3.0
 40
3.0
 40
3.0
 40
4.0
 40
4.0
 40
4.0
 40
5.0
 40
5.0
 40
5.0
 40
6.0
 40
6.0
 40
6.0
 40
6.0
 10
-59.97216796875
 20
-114.080078125
 10
-59.97216796875
 20
-114.080078125
 10
-55.75927734375
 20
-107.0068359375
 10
-55.75927734375
 20
-107.0068359375
 10
-55.09521484375
 20
-105.890625
 10
-55.43798828125
 20
-104.39453125
 10
-56.52001953125
 20
-103.6796875
 10
-56.52001953125
 20
-103.6796875
 10
-59.21044921875
 20
-101.904296875
 10
-59.21044921875
 20
-101.904296875
 10
-59.75048828125
 20
-101.5458984375
 10
-60.46630859375
 20
-101.3671875
 10
-61.17626953125
 20
-101.3671875
 10
-61.17626953125
 20
-101.3671875
 10
-61.17626953125
 20
-114.9150390625
 10
-61.17626953125
 20
-114.9150390625
 10
-60.74169921875
 20
-114.9150390625
 10
-60.30419921875
 20
-114.6376953125
 10
-59.97216796875
 20
-114.080078125
 97
        0
 75
     2
 76
     1
 98
        0
  0
ENDBLK
  5
14F
330
14C
100
AcDbEntity
  8
0
100
AcDbBlockEnd
  0
BLOCK
  5
154
330
152
100
AcDbEntity
  8
0
100
AcDbBlockBegin
  2
block 58
 70
     0
 71
     0
 10
0.0
 20
0.0
 30
0.0
  3
block 58
  1

  0
INSERT
  5
157
330
152
100
AcDbEntity
  8
Layer 1
100
AcDbBlockReference
  2
block 59
 10
0.0
 20
0.0
 30
0.0
  0
ENDBLK
  5
155
330
152
100
AcDbEntity
  8
0
100
AcDbBlockEnd
  0
BLOCK
  5
158
330
156
100
AcDbEntity
  8
0
100
AcDbBlockBegin
  2
block 59
 70
     0
 71
     0
 10
0.0
 20
0.0
 30
0.0
  3
block 59
  1

  0
SPLINE
  5
15A
330
156
100
AcDbEntity
  8
Layer 1
370
     0
100
AcDbSpline
210
0.0
220
0.0
230
1.0
 70
    11
 71
     3
 72
    32
 73
    28
 74
     0
 42
0.0000000001
 43
0.0000000001
 40
0.0
 40
0.0
 40
0.0
 40
0.0
 40
1.0
 40
1.0
 40
1.0
 40
2.0
 40
2.0
 40
2.0
 40
3.0
 40
3.0
 40
3.0
 40
4.0
 40
4.0
 40
4.0
 40
5.0
 40
5.0
 40
5.0
 40
6.0
 40
6.0
 40
6.0
 40
7.0
 40
7.0
 40
7.0
 40
8.0
 40
8.0
 40
8.0
 40
9.0
 40
9.0
 40
9.0
 40
9.0
 10
-73.06689453125
 20
-90.33984375
 30
0.0
 10
-73.78271484375
 20
-90.33984375
 30
0.0
 10
-74.44482421875
 20
-90.5546875
 30
0.0
 10
-75.00634765625
 20
-90.91455078125
 30
0.0
 10
-75.13232421875
 20
-90.82958984375
 30
0.0
 10
-75.27783203125
 20
-90.7490234375
 30
0.0
 10
-75.39892578125
 20
-90.62451171875
 30
0.0
 10
-75.39892578125
 20
-90.62451171875
 30
0.0
 10
-76.75048828125
 20
-89.02587890625
 30
0.0
 10
-76.75048828125
 20
-89.02587890625
 30
0.0
 10
-76.85205078125
 20
-89.76318359375
 30
0.0
 10
-76.81884765625
 20
-90.5234375
 30
0.0
 10
-76.55517578125
 20
-91.28759765625
 30
0.0
 10
-76.45556640625
 20
-91.560546875
 30
0.0
 10
-76.38427734375
 20
-91.90576171875
 30
0.0
 10
-76.17919921875
 20
-92.158203125
 30
0.0
 10
-76.48095703125
 20
-92.685546875
 30
0.0
 10
-76.66650390625
 20
-93.28857421875
 30
0.0
 10
-76.66650390625
 20
-93.939453125
 30
0.0
 10
-76.66650390625
 20
-95.927734375
 30
0.0
 10
-75.05517578125
 20
-97.537109375
 30
0.0
 10
-73.06689453125
 20
-97.537109375
 30
0.0
 10
-71.08056640625
 20
-97.537109375
 30
0.0
 10
-69.46728515625
 20
-95.927734375
 30
0.0
 10
-69.46728515625
 20
-93.939453125
 30
0.0
 10
-69.46728515625
 20
-91.95068359375
 30
0.0
 10
-71.08056640625
 20
-90.33984375
 30
0.0
 10
-73.06689453125
 20
-90.33984375
 30
0.0
  0
HATCH
  5
15B
330
156
100
AcDbEntity
  8
Layer 1
 62
    28
420
  4986645
100
AcDbHatch
 10
0.0
 20
0.0
 30
0.0
210
0.0
220
0.0
230
1.0
  2
SOLID
 70
     1
 71
     0
 91
        1
 92
        1
 93
        1
 72
     4
 94
        3
 73
     0
 74
     1
 95
       32
 96
       28
 40
0.0
 40
0.0
 40
0.0
 40
0.0
 40
1.0
 40
1.0
 40
1.0
 40
2.0
 40
2.0
 40
2.0
 40
3.0
 40
3.0
 40
3.0
 40
4.0
 40
4.0
 40
4.0
 40
5.0
 40
5.0
 40
5.0
 40
6.0
 40
6.0
 40
6.0
 40
7.0
 40
7.0
 40
7.0
 40
8.0
 40
8.0
 40
8.0
 40
9.0
 40
9.0
 40
9.0
 40
9.0
 10
-73.06689453125
 20
-90.33984375
 10
-73.78271484375
 20
-90.33984375
 10
-74.44482421875
 20
-90.5546875
 10
-75.00634765625
 20
-90.91455078125
 10
-75.13232421875
 20
-90.82958984375
 10
-75.27783203125
 20
-90.7490234375
 10
-75.39892578125
 20
-90.62451171875
 10
-75.39892578125
 20
-90.62451171875
 10
-76.75048828125
 20
-89.02587890625
 10
-76.75048828125
 20
-89.02587890625
 10
-76.85205078125
 20
-89.76318359375
 10
-76.81884765625
 20
-90.5234375
 10
-76.55517578125
 20
-91.28759765625
 10
-76.45556640625
 20
-91.560546875
 10
-76.38427734375
 20
-91.90576171875
 10
-76.17919921875
 20
-92.158203125
 10
-76.48095703125
 20
-92.685546875
 10
-76.66650390625
 20
-93.28857421875
 10
-76.66650390625
 20
-93.939453125
 10
-76.66650390625
 20
-95.927734375
 10
-75.05517578125
 20
-97.537109375
 10
-73.06689453125
 20
-97.537109375
 10
-71.08056640625
 20
-97.537109375
 10
-69.46728515625
 20
-95.927734375
 10
-69.46728515625
 20
-93.939453125
 10
-69.46728515625
 20
-91.95068359375
 10
-71.08056640625
 20
-90.33984375
 10
-73.06689453125
 20
-90.33984375
 97
        0
 75
     2
 76
     1
 98
        0
  0
ENDBLK
  5
159
330
156
100
AcDbEntity
  8
0
100
AcDbBlockEnd
  0
BLOCK
  5
15E
330
15C
100
AcDbEntity
  8
0
100
AcDbBlockBegin
  2
block 60
 70
     0
 71
     0
 10
0.0
 20
0.0
 30
0.0
  3
block 60
  1

  0
INSERT
  5
161
330
15C
100
AcDbEntity
  8
Layer 1
100
AcDbBlockReference
  2
block 61
 10
0.0
 20
0.0
 30
0.0
  0
ENDBLK
  5
15F
330
15C
100
AcDbEntity
  8
0
100
AcDbBlockEnd
  0
BLOCK
  5
162
330
160
100
AcDbEntity
  8
0
100
AcDbBlockBegin
  2
block 61
 70
     0
 71
     0
 10
0.0
 20
0.0
 30
0.0
  3
block 61
  1

  0
SPLINE
  5
164
330
160
100
AcDbEntity
  8
Layer 1
370
     0
100
AcDbSpline
210
0.0
220
0.0
230
1.0
 70
    11
 71
     3
 72
    35
 73
    31
 74
     0
 42
0.0000000001
 43
0.0000000001
 40
0.0
 40
0.0
 40
0.0
 40
0.0
 40
1.0
 40
1.0
 40
1.0
 40
2.0
 40
2.0
 40
2.0
 40
3.0
 40
3.0
 40
3.0
 40
4.0
 40
4.0
 40
4.0
 40
5.0
 40
5.0
 40
5.0
 40
6.0
 40
6.0
 40
6.0
 40
7.0
 40
7.0
 40
7.0
 40
8.0
 40
8.0
 40
8.0
 40
9.0
 40
9.0
 40
9.0
 40
10.0
 40
10.0
 40
10.0
 40
10.0
 10
-46.75048828125
 20
-91.79638671875
 30
0.0
 10
-46.68310546875
 20
-91.6240234375
 30
0.0
 10
-46.63232421875
 20
-91.4453125
 30
0.0
 10
-46.57568359375
 20
-91.28759765625
 30
0.0
 10
-46.31298828125
 20
-90.5234375
 30
0.0
 10
-46.27978515625
 20
-89.76318359375
 30
0.0
 10
-46.38037109375
 20
-89.02587890625
 30
0.0
 10
-46.38037109375
 20
-89.02587890625
 30
0.0
 10
-46.54541015625
 20
-88.9970703125
 30
0.0
 10
-46.54541015625
 20
-88.9970703125
 30
0.0
 10
-46.90771484375
 20
-89.61376953125
 30
0.0
 10
-47.30810546875
 20
-90.185546875
 30
0.0
 10
-47.72998046875
 20
-90.62451171875
 30
0.0
 10
-47.79248046875
 20
-90.68701171875
 30
0.0
 10
-47.85986328125
 20
-90.73779296875
 30
0.0
 10
-47.93017578125
 20
-90.78466796875
 30
0.0
 10
-48.43701171875
 20
-90.51025390625
 30
0.0
 10
-49.01025390625
 20
-90.33984375
 30
0.0
 10
-49.62744140625
 20
-90.33984375
 30
0.0
 10
-51.61865234375
 20
-90.33984375
 30
0.0
 10
-53.23095703125
 20
-91.95068359375
 30
0.0
 10
-53.23095703125
 20
-93.939453125
 30
0.0
 10
-53.23095703125
 20
-95.927734375
 30
0.0
 10
-51.61865234375
 20
-97.537109375
 30
0.0
 10
-49.62744140625
 20
-97.537109375
 30
0.0
 10
-47.64208984375
 20
-97.537109375
 30
0.0
 10
-46.02978515625
 20
-95.927734375
 30
0.0
 10
-46.02978515625
 20
-93.939453125
 30
0.0
 10
-46.02978515625
 20
-93.13232421875
 30
0.0
 10
-46.30322265625
 20
-92.39599609375
 30
0.0
 10
-46.75048828125
 20
-91.79638671875
 30
0.0
  0
HATCH
  5
165
330
160
100
AcDbEntity
  8
Layer 1
 62
    28
420
  4986645
100
AcDbHatch
 10
0.0
 20
0.0
 30
0.0
210
0.0
220
0.0
230
1.0
  2
SOLID
 70
     1
 71
     0
 91
        1
 92
        1
 93
        1
 72
     4
 94
        3
 73
     0
 74
     1
 95
       35
 96
       31
 40
0.0
 40
0.0
 40
0.0
 40
0.0
 40
1.0
 40
1.0
 40
1.0
 40
2.0
 40
2.0
 40
2.0
 40
3.0
 40
3.0
 40
3.0
 40
4.0
 40
4.0
 40
4.0
 40
5.0
 40
5.0
 40
5.0
 40
6.0
 40
6.0
 40
6.0
 40
7.0
 40
7.0
 40
7.0
 40
8.0
 40
8.0
 40
8.0
 40
9.0
 40
9.0
 40
9.0
 40
10.0
 40
10.0
 40
10.0
 40
10.0
 10
-46.75048828125
 20
-91.79638671875
 10
-46.68310546875
 20
-91.6240234375
 10
-46.63232421875
 20
-91.4453125
 10
-46.57568359375
 20
-91.28759765625
 10
-46.31298828125
 20
-90.5234375
 10
-46.27978515625
 20
-89.76318359375
 10
-46.38037109375
 20
-89.02587890625
 10
-46.38037109375
 20
-89.02587890625
 10
-46.54541015625
 20
-88.9970703125
 10
-46.54541015625
 20
-88.9970703125
 10
-46.90771484375
 20
-89.61376953125
 10
-47.30810546875
 20
-90.185546875
 10
-47.72998046875
 20
-90.62451171875
 10
-47.79248046875
 20
-90.68701171875
 10
-47.85986328125
 20
-90.73779296875
 10
-47.93017578125
 20
-90.78466796875
 10
-48.43701171875
 20
-90.51025390625
 10
-49.01025390625
 20
-90.33984375
 10
-49.62744140625
 20
-90.33984375
 10
-51.61865234375
 20
-90.33984375
 10
-53.23095703125
 20
-91.95068359375
 10
-53.23095703125
 20
-93.939453125
 10
-53.23095703125
 20
-95.927734375
 10
-51.61865234375
 20
-97.537109375
 10
-49.62744140625
 20
-97.537109375
 10
-47.64208984375
 20
-97.537109375
 10
-46.02978515625
 20
-95.927734375
 10
-46.02978515625
 20
-93.939453125
 10
-46.02978515625
 20
-93.13232421875
 10
-46.30322265625
 20
-92.39599609375
 10
-46.75048828125
 20
-91.79638671875
 97
        0
 75
     2
 76
     1
 98
        0
  0
ENDBLK
  5
163
330
160
100
AcDbEntity
  8
0
100
AcDbBlockEnd
  0
BLOCK
  5
168
330
166
100
AcDbEntity
  8
0
100
AcDbBlockBegin
  2
block 62
 70
     0
 71
     0
 10
0.0
 20
0.0
 30
0.0
  3
block 62
  1

  0
INSERT
  5
16B
330
166
100
AcDbEntity
  8
Layer 1
100
AcDbBlockReference
  2
block 63
 10
0.0
 20
0.0
 30
0.0
  0
ENDBLK
  5
169
330
166
100
AcDbEntity
  8
0
100
AcDbBlockEnd
  0
BLOCK
  5
16C
330
16A
100
AcDbEntity
  8
0
100
AcDbBlockBegin
  2
block 63
 70
     0
 71
     0
 10
0.0
 20
0.0
 30
0.0
  3
block 63
  1

  0
SPLINE
  5
16E
330
16A
100
AcDbEntity
  8
Layer 1
370
     0
100
AcDbSpline
210
0.0
220
0.0
230
1.0
 70
    11
 71
     3
 72
    17
 73
    13
 74
     0
 42
0.0000000001
 43
0.0000000001
 40
0.0
 40
0.0
 40
0.0
 40
0.0
 40
1.0
 40
1.0
 40
1.0
 40
2.0
 40
2.0
 40
2.0
 40
3.0
 40
3.0
 40
3.0
 40
4.0
 40
4.0
 40
4.0
 40
4.0
 10
-70.50244140625
 20
-92.9248046875
 30
0.0
 10
-70.50244140625
 20
-93.5166015625
 30
0.0
 10
-70.98291015625
 20
-93.9970703125
 30
0.0
 10
-71.57568359375
 20
-93.9970703125
 30
0.0
 10
-72.16748046875
 20
-93.9970703125
 30
0.0
 10
-72.64794921875
 20
-93.5166015625
 30
0.0
 10
-72.64794921875
 20
-92.9248046875
 30
0.0
 10
-72.64794921875
 20
-92.33251953125
 30
0.0
 10
-72.16748046875
 20
-91.8515625
 30
0.0
 10
-71.57568359375
 20
-91.8515625
 30
0.0
 10
-70.98291015625
 20
-91.8515625
 30
0.0
 10
-70.50244140625
 20
-92.33251953125
 30
0.0
 10
-70.50244140625
 20
-92.9248046875
 30
0.0
  0
ENDBLK
  5
16D
330
16A
100
AcDbEntity
  8
0
100
AcDbBlockEnd
  0
BLOCK
  5
171
330
16F
100
AcDbEntity
  8
0
100
AcDbBlockBegin
  2
block 64
 70
     0
 71
     0
 10
0.0
 20
0.0
 30
0.0
  3
block 64
  1

  0
INSERT
  5
174
330
16F
100
AcDbEntity
  8
Layer 1
100
AcDbBlockReference
  2
block 65
 10
0.0
 20
0.0
 30
0.0
  0
ENDBLK
  5
172
330
16F
100
AcDbEntity
  8
0
100
AcDbBlockEnd
  0
BLOCK
  5
175
330
173
100
AcDbEntity
  8
0
100
AcDbBlockBegin
  2
block 65
 70
     0
 71
     0
 10
0.0
 20
0.0
 30
0.0
  3
block 65
  1

  0
SPLINE
  5
177
330
173
100
AcDbEntity
  8
Layer 1
370
     0
100
AcDbSpline
210
0.0
220
0.0
230
1.0
 70
    11
 71
     3
 72
    17
 73
    13
 74
     0
 42
0.0000000001
 43
0.0000000001
 40
0.0
 40
0.0
 40
0.0
 40
0.0
 40
1.0
 40
1.0
 40
1.0
 40
2.0
 40
2.0
 40
2.0
 40
3.0
 40
3.0
 40
3.0
 40
4.0
 40
4.0
 40
4.0
 40
4.0
 10
-46.97509765625
 20
-92.9248046875
 30
0.0
 10
-46.97509765625
 20
-93.5166015625
 30
0.0
 10
-47.45556640625
 20
-93.9970703125
 30
0.0
 10
-48.04638671875
 20
-93.9970703125
 30
0.0
 10
-48.64013671875
 20
-93.9970703125
 30
0.0
 10
-49.11865234375
 20
-93.5166015625
 30
0.0
 10
-49.11865234375
 20
-92.9248046875
 30
0.0
 10
-49.11865234375
 20
-92.33251953125
 30
0.0
 10
-48.64013671875
 20
-91.8515625
 30
0.0
 10
-48.04638671875
 20
-91.8515625
 30
0.0
 10
-47.45556640625
 20
-91.8515625
 30
0.0
 10
-46.97509765625
 20
-92.33251953125
 30
0.0
 10
-46.97509765625
 20
-92.9248046875
 30
0.0
  0
ENDBLK
  5
176
330
173
100
AcDbEntity
  8
0
100
AcDbBlockEnd
  0
BLOCK
  5
17C
330
17A
100
AcDbEntity
  8
0
100
AcDbBlockBegin
  2
block 66
 70
     0
 71
     0
 10
0.0
 20
0.0
 30
0.0
  3
block 66
  1

  0
INSERT
  5
17F
330
17A
100
AcDbEntity
  8
Layer 1
100
AcDbBlockReference
  2
block 67
 10
0.0
 20
0.0
 30
0.0
  0
ENDBLK
  5
17D
330
17A
100
AcDbEntity
  8
0
100
AcDbBlockEnd
  0
BLOCK
  5
180
330
17E
100
AcDbEntity
  8
0
100
AcDbBlockBegin
  2
block 67
 70
     0
 71
     0
 10
0.0
 20
0.0
 30
0.0
  3
block 67
  1

  0
SPLINE
  5
182
330
17E
100
AcDbEntity
  8
Layer 1
370
     0
100
AcDbSpline
210
0.0
220
0.0
230
1.0
 70
    11
 71
     3
 72
    17
 73
    13
 74
     0
 42
0.0000000001
 43
0.0000000001
 40
0.0
 40
0.0
 40
0.0
 40
0.0
 40
1.0
 40
1.0
 40
1.0
 40
2.0
 40
2.0
 40
2.0
 40
3.0
 40
3.0
 40
3.0
 40
4.0
 40
4.0
 40
4.0
 40
4.0
 10
27.3251953125
 20
-96.10791015625
 30
0.0
 10
27.3251953125
 20
-96.69970703125
 30
0.0
 10
26.8447265625
 20
-97.18017578125
 30
0.0
 10
26.251953125
 20
-97.18017578125
 30
0.0
 10
25.66015625
 20
-97.18017578125
 30
0.0
 10
25.1796875
 20
-96.69970703125
 30
0.0
 10
25.1796875
 20
-96.10791015625
 30
0.0
 10
25.1796875
 20
-95.515625
 30
0.0
 10
25.66015625
 20
-95.03466796875
 30
0.0
 10
26.251953125
 20
-95.03466796875
 30
0.0
 10
26.8447265625
 20
-95.03466796875
 30
0.0
 10
27.3251953125
 20
-95.515625
 30
0.0
 10
27.3251953125
 20
-96.10791015625
 30
0.0
  0
HATCH
  5
183
330
17E
100
AcDbEntity
  8
Layer 1
 62
    22
420
 14427942
100
AcDbHatch
 10
0.0
 20
0.0
 30
0.0
210
0.0
220
0.0
230
1.0
  2
SOLID
 70
     1
 71
     0
 91
        1
 92
        1
 93
        1
 72
     4
 94
        3
 73
     0
 74
     1
 95
       17
 96
       13
 40
0.0
 40
0.0
 40
0.0
 40
0.0
 40
1.0
 40
1.0
 40
1.0
 40
2.0
 40
2.0
 40
2.0
 40
3.0
 40
3.0
 40
3.0
 40
4.0
 40
4.0
 40
4.0
 40
4.0
 10
27.3251953125
 20
-96.10791015625
 10
27.3251953125
 20
-96.69970703125
 10
26.8447265625
 20
-97.18017578125
 10
26.251953125
 20
-97.18017578125
 10
25.66015625
 20
-97.18017578125
 10
25.1796875
 20
-96.69970703125
 10
25.1796875
 20
-96.10791015625
 10
25.1796875
 20
-95.515625
 10
25.66015625
 20
-95.03466796875
 10
26.251953125
 20
-95.03466796875
 10
26.8447265625
 20
-95.03466796875
 10
27.3251953125
 20
-95.515625
 10
27.3251953125
 20
-96.10791015625
 97
        0
 75
     2
 76
     1
 98
        0
  0
ENDBLK
  5
181
330
17E
100
AcDbEntity
  8
0
100
AcDbBlockEnd
  0
ENDSEC
  0
SECTION
  2
ENTITIES
  0
INSERT
  5
3D
330
1F
100
AcDbEntity
  8
Layer 1
100
AcDbBlockReference
  2
block 2
 10
0.0
 20
0.0
 30
0.0
  0
SPLINE
  5
46
330
1F
100
AcDbEntity
  8
Layer 1
370
     0
100
AcDbSpline
210
0.0
220
0.0
230
1.0
 70
    11
 71
     3
 72
    41
 73
    37
 74
     0
 42
0.0000000001
 43
0.0000000001
 40
0.0
 40
0.0
 40
0.0
 40
0.0
 40
1.0
 40
1.0
 40
1.0
 40
2.0
 40
2.0
 40
2.0
 40
3.0
 40
3.0
 40
3.0
 40
4.0
 40
4.0
 40
4.0
 40
5.0
 40
5.0
 40
5.0
 40
6.0
 40
6.0
 40
6.0
 40
7.0
 40
7.0
 40
7.0
 40
8.0
 40
8.0
 40
8.0
 40
9.0
 40
9.0
 40
9.0
 40
10.0
 40
10.0
 40
10.0
 40
11.0
 40
11.0
 40
11.0
 40
12.0
 40
12.0
 40
12.0
 40
12.0
 10
53.212890625
 20
-86.44287109375
 30
0.0
 10
52.421875
 20
-86.44287109375
 30
0.0
 10
51.7265625
 20
-86.81640625
 30
0.0
 10
51.26953125
 20
-87.388671875
 30
0.0
 10
51.26953125
 20
-87.388671875
 30
0.0
 10
51.26953125
 20
-86.44287109375
 30
0.0
 10
51.26953125
 20
-86.44287109375
 30
0.0
 10
51.26953125
 20
-85.06298828125
 30
0.0
 10
50.1533203125
 20
-83.9462890625
 30
0.0
 10
48.7734375
 20
-83.9462890625
 30
0.0
 10
47.3935546875
 20
-83.9462890625
 30
0.0
 10
46.2763671875
 20
-85.06298828125
 30
0.0
 10
46.2763671875
 20
-86.44287109375
 30
0.0
 10
46.2763671875
 20
-86.44287109375
 30
0.0
 10
46.2763671875
 20
-94.763671875
 30
0.0
 10
46.2763671875
 20
-94.763671875
 30
0.0
 10
46.2763671875
 20
-96.14306640625
 30
0.0
 10
47.3935546875
 20
-97.26025390625
 30
0.0
 10
48.7734375
 20
-97.26025390625
 30
0.0
 10
49.5634765625
 20
-97.26025390625
 30
0.0
 10
50.2587890625
 20
-96.88671875
 30
0.0
 10
50.7158203125
 20
-96.314453125
 30
0.0
 10
50.7158203125
 20
-96.314453125
 30
0.0
 10
50.7158203125
 20
-97.26025390625
 30
0.0
 10
50.7158203125
 20
-97.26025390625
 30
0.0
 10
50.7158203125
 20
-98.6396484375
 30
0.0
 10
51.83203125
 20
-99.7568359375
 30
0.0
 10
53.212890625
 20
-99.7568359375
 30
0.0
 10
54.5908203125
 20
-99.7568359375
 30
0.0
 10
55.708984375
 20
-98.6396484375
 30
0.0
 10
55.708984375
 20
-97.26025390625
 30
0.0
 10
55.708984375
 20
-97.26025390625
 30
0.0
 10
55.708984375
 20
-88.939453125
 30
0.0
 10
55.708984375
 20
-88.939453125
 30
0.0
 10
55.708984375
 20
-87.56005859375
 30
0.0
 10
54.5908203125
 20
-86.44287109375
 30
0.0
 10
53.212890625
 20
-86.44287109375
 30
0.0
  0
HATCH
  5
47
330
1F
100
AcDbEntity
  8
Layer 1
 62
    15
420
 11941935
100
AcDbHatch
 10
0.0
 20
0.0
 30
0.0
210
0.0
220
0.0
230
1.0
  2
SOLID
 70
     1
 71
     0
 91
        1
 92
        1
 93
        1
 72
     4
 94
        3
 73
     0
 74
     1
 95
       41
 96
       37
 40
0.0
 40
0.0
 40
0.0
 40
0.0
 40
1.0
 40
1.0
 40
1.0
 40
2.0
 40
2.0
 40
2.0
 40
3.0
 40
3.0
 40
3.0
 40
4.0
 40
4.0
 40
4.0
 40
5.0
 40
5.0
 40
5.0
 40
6.0
 40
6.0
 40
6.0
 40
7.0
 40
7.0
 40
7.0
 40
8.0
 40
8.0
 40
8.0
 40
9.0
 40
9.0
 40
9.0
 40
10.0
 40
10.0
 40
10.0
 40
11.0
 40
11.0
 40
11.0
 40
12.0
 40
12.0
 40
12.0
 40
12.0
 10
53.212890625
 20
-86.44287109375
 10
52.421875
 20
-86.44287109375
 10
51.7265625
 20
-86.81640625
 10
51.26953125
 20
-87.388671875
 10
51.26953125
 20
-87.388671875
 10
51.26953125
 20
-86.44287109375
 10
51.26953125
 20
-86.44287109375
 10
51.26953125
 20
-85.06298828125
 10
50.1533203125
 20
-83.9462890625
 10
48.7734375
 20
-83.9462890625
 10
47.3935546875
 20
-83.9462890625
 10
46.2763671875
 20
-85.06298828125
 10
46.2763671875
 20
-86.44287109375
 10
46.2763671875
 20
-86.44287109375
 10
46.2763671875
 20
-94.763671875
 10
46.2763671875
 20
-94.763671875
 10
46.2763671875
 20
-96.14306640625
 10
47.3935546875
 20
-97.26025390625
 10
48.7734375
 20
-97.26025390625
 10
49.5634765625
 20
-97.26025390625
 10
50.2587890625
 20
-96.88671875
 10
50.7158203125
 20
-96.314453125
 10
50.7158203125
 20
-96.314453125
 10
50.7158203125
 20
-97.26025390625
 10
50.7158203125
 20
-97.26025390625
 10
50.7158203125
 20
-98.6396484375
 10
51.83203125
 20
-99.7568359375
 10
53.212890625
 20
-99.7568359375
 10
54.5908203125
 20
-99.7568359375
 10
55.708984375
 20
-98.6396484375
 10
55.708984375
 20
-97.26025390625
 10
55.708984375
 20
-97.26025390625
 10
55.708984375
 20
-88.939453125
 10
55.708984375
 20
-88.939453125
 10
55.708984375
 20
-87.56005859375
 10
54.5908203125
 20
-86.44287109375
 10
53.212890625
 20
-86.44287109375
 97
        0
 75
     2
 76
     1
 98
        0
  0
INSERT
  5
49
330
1F
100
AcDbEntity
  8
Layer 1
100
AcDbBlockReference
  2
block 4
 10
0.0
 20
0.0
 30
0.0
  0
SPLINE
  5
60
330
1F
100
AcDbEntity
  8
Layer 1
370
     0
100
AcDbSpline
210
0.0
220
0.0
230
1.0
 70
    11
 71
     3
 72
    71
 73
    67
 74
     0
 42
0.0000000001
 43
0.0000000001
 40
0.0
 40
0.0
 40
0.0
 40
0.0
 40
1.0
 40
1.0
 40
1.0
 40
2.0
 40
2.0
 40
2.0
 40
3.0
 40
3.0
 40
3.0
 40
4.0
 40
4.0
 40
4.0
 40
5.0
 40
5.0
 40
5.0
 40
6.0
 40
6.0
 40
6.0
 40
7.0
 40
7.0
 40
7.0
 40
8.0
 40
8.0
 40
8.0
 40
9.0
 40
9.0
 40
9.0
 40
10.0
 40
10.0
 40
10.0
 40
11.0
 40
11.0
 40
11.0
 40
12.0
 40
12.0
 40
12.0
 40
13.0
 40
13.0
 40
13.0
 40
14.0
 40
14.0
 40
14.0
 40
15.0
 40
15.0
 40
15.0
 40
16.0
 40
16.0
 40
16.0
 40
17.0
 40
17.0
 40
17.0
 40
18.0
 40
18.0
 40
18.0
 40
19.0
 40
19.0
 40
19.0
 40
20.0
 40
20.0
 40
20.0
 40
21.0
 40
21.0
 40
21.0
 40
22.0
 40
22.0
 40
22.0
 40
22.0
 10
192.939453125
 20
-143.5576171875
 30
0.0
 10
192.15625
 20
-141.1123046875
 30
0.0
 10
191.1689453125
 20
-138.73046875
 30
0.0
 10
189.8984375
 20
-136.6474609375
 30
0.0
 10
188.380859375
 20
-134.1591796875
 30
0.0
 10
187.310546875
 20
-131.4130859375
 30
0.0
 10
186.546875
 20
-128.7294921875
 30
0.0
 10
185.2451171875
 20
-124.1494140625
 30
0.0
 10
184.8544921875
 20
-119.748046875
 30
0.0
 10
184.7255859375
 20
-117.1181640625
 30
0.0
 10
184.7255859375
 20
-117.0166015625
 30
0.0
 10
184.7353515625
 20
-116.9169921875
 30
0.0
 10
184.7353515625
 20
-116.814453125
 30
0.0
 10
184.7353515625
 20
-116.359375
 30
0.0
 10
184.6923828125
 20
-115.916015625
 30
0.0
 10
184.666015625
 20
-115.4677734375
 30
0.0
 10
184.6611328125
 20
-114.9306640625
 30
0.0
 10
184.666015625
 20
-114.6025390625
 30
0.0
 10
184.666015625
 20
-114.6025390625
 30
0.0
 10
184.666015625
 20
-114.6025390625
 30
0.0
 10
184.6279296875
 20
-114.6591796875
 30
0.0
 10
184.6279296875
 20
-114.6591796875
 30
0.0
 10
183.5322265625
 20
-101.8837890625
 30
0.0
 10
172.833984375
 20
-91.8515625
 30
0.0
 10
159.775390625
 20
-91.8515625
 30
0.0
 10
159.775390625
 20
-91.8515625
 30
0.0
 10
159.7724609375
 20
-91.8515625
 30
0.0
 10
159.7724609375
 20
-91.8515625
 30
0.0
 10
146.728515625
 20
-91.8515625
 30
0.0
 10
136.0341796875
 20
-101.8623046875
 30
0.0
 10
134.921875
 20
-114.6181640625
 30
0.0
 10
134.921875
 20
-114.6181640625
 30
0.0
 10
134.908203125
 20
-114.6025390625
 30
0.0
 10
134.908203125
 20
-114.6025390625
 30
0.0
 10
134.908203125
 20
-114.6025390625
 30
0.0
 10
134.9111328125
 20
-114.6748046875
 30
0.0
 10
134.9130859375
 20
-114.791015625
 30
0.0
 10
134.857421875
 20
-115.4619140625
 30
0.0
 10
134.8095703125
 20
-116.1298828125
 30
0.0
 10
134.8095703125
 20
-116.814453125
 30
0.0
 10
134.8095703125
 20
-117.0244140625
 30
0.0
 10
134.8310546875
 20
-117.228515625
 30
0.0
 10
134.8359375
 20
-117.4375
 30
0.0
 10
134.6943359375
 20
-119.953125
 30
0.0
 10
134.322265625
 20
-123.8818359375
 30
0.0
 10
133.2275390625
 20
-128.0244140625
 30
0.0
 10
132.455078125
 20
-130.9326171875
 30
0.0
 10
131.333984375
 20
-133.943359375
 30
0.0
 10
129.677734375
 20
-136.6474609375
 30
0.0
 10
128.47265625
 20
-138.6162109375
 30
0.0
 10
127.517578125
 20
-140.8525390625
 30
0.0
 10
126.7529296875
 20
-143.1572265625
 30
0.0
 10
123.748046875
 20
-152.1943359375
 30
0.0
 10
123.7392578125
 20
-162.3564453125
 30
0.0
 10
123.7392578125
 20
-162.3564453125
 30
0.0
 10
124.2099609375
 20
-181.8603515625
 30
0.0
 10
140.1572265625
 20
-197.5283203125
 30
0.0
 10
159.7724609375
 20
-197.5283203125
 30
0.0
 10
159.7724609375
 20
-197.5283203125
 30
0.0
 10
159.775390625
 20
-197.5283203125
 30
0.0
 10
159.775390625
 20
-197.5283203125
 30
0.0
 10
179.408203125
 20
-197.5283203125
 30
0.0
 10
195.36328125
 20
-181.8369140625
 30
0.0
 10
195.810546875
 20
-162.3095703125
 30
0.0
 10
195.810546875
 20
-162.3095703125
 30
0.0
 10
195.7978515625
 20
-152.4755859375
 30
0.0
 10
192.939453125
 20
-143.5576171875
 30
0.0
  0
HATCH
  5
61
330
1F
100
AcDbEntity
  8
Layer 1
 62
    23
420
 12614753
100
AcDbHatch
 10
0.0
 20
0.0
 30
0.0
210
0.0
220
0.0
230
1.0
  2
SOLID
 70
     1
 71
     0
 91
        1
 92
        1
 93
        1
 72
     4
 94
        3
 73
     0
 74
     1
 95
       71
 96
       67
 40
0.0
 40
0.0
 40
0.0
 40
0.0
 40
1.0
 40
1.0
 40
1.0
 40
2.0
 40
2.0
 40
2.0
 40
3.0
 40
3.0
 40
3.0
 40
4.0
 40
4.0
 40
4.0
 40
5.0
 40
5.0
 40
5.0
 40
6.0
 40
6.0
 40
6.0
 40
7.0
 40
7.0
 40
7.0
 40
8.0
 40
8.0
 40
8.0
 40
9.0
 40
9.0
 40
9.0
 40
10.0
 40
10.0
 40
10.0
 40
11.0
 40
11.0
 40
11.0
 40
12.0
 40
12.0
 40
12.0
 40
13.0
 40
13.0
 40
13.0
 40
14.0
 40
14.0
 40
14.0
 40
15.0
 40
15.0
 40
15.0
 40
16.0
 40
16.0
 40
16.0
 40
17.0
 40
17.0
 40
17.0
 40
18.0
 40
18.0
 40
18.0
 40
19.0
 40
19.0
 40
19.0
 40
20.0
 40
20.0
 40
20.0
 40
21.0
 40
21.0
 40
21.0
 40
22.0
 40
22.0
 40
22.0
 40
22.0
 10
192.939453125
 20
-143.5576171875
 10
192.15625
 20
-141.1123046875
 10
191.1689453125
 20
-138.73046875
 10
189.8984375
 20
-136.6474609375
 10
188.380859375
 20
-134.1591796875
 10
187.310546875
 20
-131.4130859375
 10
186.546875
 20
-128.7294921875
 10
185.2451171875
 20
-124.1494140625
 10
184.8544921875
 20
-119.748046875
 10
184.7255859375
 20
-117.1181640625
 10
184.7255859375
 20
-117.0166015625
 10
184.7353515625
 20
-116.9169921875
 10
184.7353515625
 20
-116.814453125
 10
184.7353515625
 20
-116.359375
 10
184.6923828125
 20
-115.916015625
 10
184.666015625
 20
-115.4677734375
 10
184.6611328125
 20
-114.9306640625
 10
184.666015625
 20
-114.6025390625
 10
184.666015625
 20
-114.6025390625
 10
184.666015625
 20
-114.6025390625
 10
184.6279296875
 20
-114.6591796875
 10
184.6279296875
 20
-114.6591796875
 10
183.5322265625
 20
-101.8837890625
 10
172.833984375
 20
-91.8515625
 10
159.775390625
 20
-91.8515625
 10
159.775390625
 20
-91.8515625
 10
159.7724609375
 20
-91.8515625
 10
159.7724609375
 20
-91.8515625
 10
146.728515625
 20
-91.8515625
 10
136.0341796875
 20
-101.8623046875
 10
134.921875
 20
-114.6181640625
 10
134.921875
 20
-114.6181640625
 10
134.908203125
 20
-114.6025390625
 10
134.908203125
 20
-114.6025390625
 10
134.908203125
 20
-114.6025390625
 10
134.9111328125
 20
-114.6748046875
 10
134.9130859375
 20
-114.791015625
 10
134.857421875
 20
-115.4619140625
 10
134.8095703125
 20
-116.1298828125
 10
134.8095703125
 20
-116.814453125
 10
134.8095703125
 20
-117.0244140625
 10
134.8310546875
 20
-117.228515625
 10
134.8359375
 20
-117.4375
 10
134.6943359375
 20
-119.953125
 10
134.322265625
 20
-123.8818359375
 10
133.2275390625
 20
-128.0244140625
 10
132.455078125
 20
-130.9326171875
 10
131.333984375
 20
-133.943359375
 10
129.677734375
 20
-136.6474609375
 10
128.47265625
 20
-138.6162109375
 10
127.517578125
 20
-140.8525390625
 10
126.7529296875
 20
-143.1572265625
 10
123.748046875
 20
-152.1943359375
 10
123.7392578125
 20
-162.3564453125
 10
123.7392578125
 20
-162.3564453125
 10
124.2099609375
 20
-181.8603515625
 10
140.1572265625
 20
-197.5283203125
 10
159.7724609375
 20
-197.5283203125
 10
159.7724609375
 20
-197.5283203125
 10
159.775390625
 20
-197.5283203125
 10
159.775390625
 20
-197.5283203125
 10
179.408203125
 20
-197.5283203125
 10
195.36328125
 20
-181.8369140625
 10
195.810546875
 20
-162.3095703125
 10
195.810546875
 20
-162.3095703125
 10
195.7978515625
 20
-152.4755859375
 10
192.939453125
 20
-143.5576171875
 97
        0
 75
     2
 76
     1
 98
        0
  0
INSERT
  5
63
330
1F
100
AcDbEntity
  8
Layer 1
100
AcDbBlockReference
  2
block 9
 10
0.0
 20
0.0
 30
0.0
  0
INSERT
  5
6D
330
1F
100
AcDbEntity
  8
Layer 1
100
AcDbBlockReference
  2
block 11
 10
0.0
 20
0.0
 30
0.0
  0
SPLINE
  5
76
330
1F
100
AcDbEntity
  8
Layer 1
370
     0
100
AcDbSpline
210
0.0
220
0.0
230
1.0
 70
    11
 71
     3
 72
    35
 73
    31
 74
     0
 42
0.0000000001
 43
0.0000000001
 40
0.0
 40
0.0
 40
0.0
 40
0.0
 40
1.0
 40
1.0
 40
1.0
 40
2.0
 40
2.0
 40
2.0
 40
3.0
 40
3.0
 40
3.0
 40
4.0
 40
4.0
 40
4.0
 40
5.0
 40
5.0
 40
5.0
 40
6.0
 40
6.0
 40
6.0
 40
7.0
 40
7.0
 40
7.0
 40
8.0
 40
8.0
 40
8.0
 40
9.0
 40
9.0
 40
9.0
 40
10.0
 40
10.0
 40
10.0
 40
10.0
 10
35.4130859375
 20
-54.81787109375
 30
0.0
 10
30.8115234375
 20
-54.81787109375
 30
0.0
 10
26.8662109375
 20
-57.47314453125
 30
0.0
 10
25.1806640625
 20
-61.2578125
 30
0.0
 10
25.1748046875
 20
-61.24755859375
 30
0.0
 10
25.169921875
 20
-61.2412109375
 30
0.0
 10
25.166015625
 20
-61.23193359375
 30
0.0
 10
23.470703125
 20
-57.46142578125
 30
0.0
 10
19.5341796875
 20
-54.81787109375
 30
0.0
 10
14.9443359375
 20
-54.81787109375
 30
0.0
 10
8.8115234375
 20
-54.81787109375
 30
0.0
 10
3.8369140625
 20
-59.54150390625
 30
0.0
 10
3.8369140625
 20
-65.373046875
 30
0.0
 10
3.8369140625
 20
-71.201171875
 30
0.0
 10
8.8115234375
 20
-75.9267578125
 30
0.0
 10
14.9443359375
 20
-75.9267578125
 30
0.0
 10
19.5341796875
 20
-75.9267578125
 30
0.0
 10
23.470703125
 20
-76.5927734375
 30
0.0
 10
25.166015625
 20
-72.8408203125
 30
0.0
 10
25.169921875
 20
-72.83154296875
 30
0.0
 10
25.1748046875
 20
-72.8232421875
 30
0.0
 10
25.1806640625
 20
-72.8125
 30
0.0
 10
26.8662109375
 20
-76.599609375
 30
0.0
 10
30.8115234375
 20
-75.9267578125
 30
0.0
 10
35.4130859375
 20
-75.9267578125
 30
0.0
 10
41.548828125
 20
-75.9267578125
 30
0.0
 10
46.5224609375
 20
-71.201171875
 30
0.0
 10
46.5224609375
 20
-65.373046875
 30
0.0
 10
46.5224609375
 20
-59.54150390625
 30
0.0
 10
41.548828125
 20
-54.81787109375
 30
0.0
 10
35.4130859375
 20
-54.81787109375
 30
0.0
  0
HATCH
  5
77
330
1F
100
AcDbEntity
  8
Layer 1
 62
     7
420
 16115940
100
AcDbHatch
 10
0.0
 20
0.0
 30
0.0
210
0.0
220
0.0
230
1.0
  2
SOLID
 70
     1
 71
     0
 91
        1
 92
        1
 93
        1
 72
     4
 94
        3
 73
     0
 74
     1
 95
       35
 96
       31
 40
0.0
 40
0.0
 40
0.0
 40
0.0
 40
1.0
 40
1.0
 40
1.0
 40
2.0
 40
2.0
 40
2.0
 40
3.0
 40
3.0
 40
3.0
 40
4.0
 40
4.0
 40
4.0
 40
5.0
 40
5.0
 40
5.0
 40
6.0
 40
6.0
 40
6.0
 40
7.0
 40
7.0
 40
7.0
 40
8.0
 40
8.0
 40
8.0
 40
9.0
 40
9.0
 40
9.0
 40
10.0
 40
10.0
 40
10.0
 40
10.0
 10
35.4130859375
 20
-54.81787109375
 10
30.8115234375
 20
-54.81787109375
 10
26.8662109375
 20
-57.47314453125
 10
25.1806640625
 20
-61.2578125
 10
25.1748046875
 20
-61.24755859375
 10
25.169921875
 20
-61.2412109375
 10
25.166015625
 20
-61.23193359375
 10
23.470703125
 20
-57.46142578125
 10
19.5341796875
 20
-54.81787109375
 10
14.9443359375
 20
-54.81787109375
 10
8.8115234375
 20
-54.81787109375
 10
3.8369140625
 20
-59.54150390625
 10
3.8369140625
 20
-65.373046875
 10
3.8369140625
 20
-71.201171875
 10
8.8115234375
 20
-75.9267578125
 10
14.9443359375
 20
-75.9267578125
 10
19.5341796875
 20
-75.9267578125
 10
23.470703125
 20
-76.5927734375
 10
25.166015625
 20
-72.8408203125
 10
25.169921875
 20
-72.83154296875
 10
25.1748046875
 20
-72.8232421875
 10
25.1806640625
 20
-72.8125
 10
26.8662109375
 20
-76.599609375
 10
30.8115234375
 20
-75.9267578125
 10
35.4130859375
 20
-75.9267578125
 10
41.548828125
 20
-75.9267578125
 10
46.5224609375
 20
-71.201171875
 10
46.5224609375
 20
-65.373046875
 10
46.5224609375
 20
-59.54150390625
 10
41.548828125
 20
-54.81787109375
 10
35.4130859375
 20
-54.81787109375
 97
        0
 75
     2
 76
     1
 98
        0
  0
SPLINE
  5
78
330
1F
100
AcDbEntity
  8
Layer 1
370
     0
100
AcDbSpline
210
0.0
220
0.0
230
1.0
 70
    11
 71
     3
 72
    35
 73
    31
 74
     0
 42
0.0000000001
 43
0.0000000001
 40
0.0
 40
0.0
 40
0.0
 40
0.0
 40
1.0
 40
1.0
 40
1.0
 40
2.0
 40
2.0
 40
2.0
 40
3.0
 40
3.0
 40
3.0
 40
4.0
 40
4.0
 40
4.0
 40
5.0
 40
5.0
 40
5.0
 40
6.0
 40
6.0
 40
6.0
 40
7.0
 40
7.0
 40
7.0
 40
8.0
 40
8.0
 40
8.0
 40
9.0
 40
9.0
 40
9.0
 40
10.0
 40
10.0
 40
10.0
 40
10.0
 10
37.7421875
 20
-105.939453125
 30
0.0
 10
37.7421875
 20
-105.939453125
 30
0.0
 10
35.0517578125
 20
-104.1640625
 30
0.0
 10
35.0517578125
 20
-104.1640625
 30
0.0
 10
34.51171875
 20
-103.8056640625
 30
0.0
 10
33.7958984375
 20
-103.626953125
 30
0.0
 10
33.0859375
 20
-103.626953125
 30
0.0
 10
32.369140625
 20
-103.626953125
 30
0.0
 10
31.658203125
 20
-103.8056640625
 30
0.0
 10
31.1162109375
 20
-104.1640625
 30
0.0
 10
31.1162109375
 20
-104.1640625
 30
0.0
 10
28.42578125
 20
-105.939453125
 30
0.0
 10
28.42578125
 20
-105.939453125
 30
0.0
 10
27.34375
 20
-106.654296875
 30
0.0
 10
26.9990234375
 20
-108.150390625
 30
0.0
 10
27.6640625
 20
-109.2666015625
 30
0.0
 10
27.6640625
 20
-109.2666015625
 30
0.0
 10
31.876953125
 20
-116.33984375
 30
0.0
 10
31.876953125
 20
-116.33984375
 30
0.0
 10
32.2099609375
 20
-116.8974609375
 30
0.0
 10
32.6474609375
 20
-117.1748046875
 30
0.0
 10
33.0859375
 20
-117.1748046875
 30
0.0
 10
33.5205078125
 20
-117.1748046875
 30
0.0
 10
33.9580078125
 20
-116.8974609375
 30
0.0
 10
34.2900390625
 20
-116.33984375
 30
0.0
 10
34.2900390625
 20
-116.33984375
 30
0.0
 10
38.5029296875
 20
-109.2666015625
 30
0.0
 10
38.5029296875
 20
-109.2666015625
 30
0.0
 10
39.1669921875
 20
-108.150390625
 30
0.0
 10
38.82421875
 20
-106.654296875
 30
0.0
 10
37.7421875
 20
-105.939453125
 30
0.0
  0
HATCH
  5
79
330
1F
100
AcDbEntity
  8
Layer 1
 62
    41
420
 16440407
100
AcDbHatch
 10
0.0
 20
0.0
 30
0.0
210
0.0
220
0.0
230
1.0
  2
SOLID
 70
     1
 71
     0
 91
        1
 92
        1
 93
        1
 72
     4
 94
        3
 73
     0
 74
     1
 95
       35
 96
       31
 40
0.0
 40
0.0
 40
0.0
 40
0.0
 40
1.0
 40
1.0
 40
1.0
 40
2.0
 40
2.0
 40
2.0
 40
3.0
 40
3.0
 40
3.0
 40
4.0
 40
4.0
 40
4.0
 40
5.0
 40
5.0
 40
5.0
 40
6.0
 40
6.0
 40
6.0
 40
7.0
 40
7.0
 40
7.0
 40
8.0
 40
8.0
 40
8.0
 40
9.0
 40
9.0
 40
9.0
 40
10.0
 40
10.0
 40
10.0
 40
10.0
 10
37.7421875
 20
-105.939453125
 10
37.7421875
 20
-105.939453125
 10
35.0517578125
 20
-104.1640625
 10
35.0517578125
 20
-104.1640625
 10
34.51171875
 20
-103.8056640625
 10
33.7958984375
 20
-103.626953125
 10
33.0859375
 20
-103.626953125
 10
32.369140625
 20
-103.626953125
 10
31.658203125
 20
-103.8056640625
 10
31.1162109375
 20
-104.1640625
 10
31.1162109375
 20
-104.1640625
 10
28.42578125
 20
-105.939453125
 10
28.42578125
 20
-105.939453125
 10
27.34375
 20
-106.654296875
 10
26.9990234375
 20
-108.150390625
 10
27.6640625
 20
-109.2666015625
 10
27.6640625
 20
-109.2666015625
 10
31.876953125
 20
-116.33984375
 10
31.876953125
 20
-116.33984375
 10
32.2099609375
 20
-116.8974609375
 10
32.6474609375
 20
-117.1748046875
 10
33.0859375
 20
-117.1748046875
 10
33.5205078125
 20
-117.1748046875
 10
33.9580078125
 20
-116.8974609375
 10
34.2900390625
 20
-116.33984375
 10
34.2900390625
 20
-116.33984375
 10
38.5029296875
 20
-109.2666015625
 10
38.5029296875
 20
-109.2666015625
 10
39.1669921875
 20
-108.150390625
 10
38.82421875
 20
-106.654296875
 10
37.7421875
 20
-105.939453125
 97
        0
 75
     2
 76
     1
 98
        0
  0
INSERT
  5
7B
330
1F
100
AcDbEntity
  8
Layer 1
100
AcDbBlockReference
  2
block 13
 10
0.0
 20
0.0
 30
0.0
  0
INSERT
  5
85
330
1F
100
AcDbEntity
  8
Layer 1
100
AcDbBlockReference
  2
block 15
 10
0.0
 20
0.0
 30
0.0
  0
INSERT
  5
8F
330
1F
100
AcDbEntity
  8
Layer 1
100
AcDbBlockReference
  2
block 17
 10
0.0
 20
0.0
 30
0.0
  0
INSERT
  5
99
330
1F
100
AcDbEntity
  8
Layer 1
100
AcDbBlockReference
  2
block 19
 10
0.0
 20
0.0
 30
0.0
  0
SPLINE
  5
178
330
1F
100
AcDbEntity
  8
Layer 1
370
     0
100
AcDbSpline
210
0.0
220
0.0
230
1.0
 70
    11
 71
     3
 72
   110
 73
   106
 74
     0
 42
0.0000000001
 43
0.0000000001
 40
0.0
 40
0.0
 40
0.0
 40
0.0
 40
1.0
 40
1.0
 40
1.0
 40
2.0
 40
2.0
 40
2.0
 40
3.0
 40
3.0
 40
3.0
 40
4.0
 40
4.0
 40
4.0
 40
5.0
 40
5.0
 40
5.0
 40
6.0
 40
6.0
 40
6.0
 40
7.0
 40
7.0
 40
7.0
 40
8.0
 40
8.0
 40
8.0
 40
9.0
 40
9.0
 40
9.0
 40
10.0
 40
10.0
 40
10.0
 40
11.0
 40
11.0
 40
11.0
 40
12.0
 40
12.0
 40
12.0
 40
13.0
 40
13.0
 40
13.0
 40
14.0
 40
14.0
 40
14.0
 40
15.0
 40
15.0
 40
15.0
 40
16.0
 40
16.0
 40
16.0
 40
17.0
 40
17.0
 40
17.0
 40
18.0
 40
18.0
 40
18.0
 40
19.0
 40
19.0
 40
19.0
 40
20.0
 40
20.0
 40
20.0
 40
21.0
 40
21.0
 40
21.0
 40
22.0
 40
22.0
 40
22.0
 40
23.0
 40
23.0
 40
23.0
 40
24.0
 40
24.0
 40
24.0
 40
25.0
 40
25.0
 40
25.0
 40
26.0
 40
26.0
 40
26.0
 40
27.0
 40
27.0
 40
27.0
 40
28.0
 40
28.0
 40
28.0
 40
29.0
 40
29.0
 40
29.0
 40
30.0
 40
30.0
 40
30.0
 40
31.0
 40
31.0
 40
31.0
 40
32.0
 40
32.0
 40
32.0
 40
33.0
 40
33.0
 40
33.0
 40
34.0
 40
34.0
 40
34.0
 40
35.0
 40
35.0
 40
35.0
 40
35.0
 10
136.8525390625
 20
-67.5517578125
 30
0.0
 10
136.0693359375
 20
-65.1064453125
 30
0.0
 10
135.0830078125
 20
-62.724609375
 30
0.0
 10
133.8115234375
 20
-60.642578125
 30
0.0
 10
132.2939453125
 20
-58.1533203125
 30
0.0
 10
131.2236328125
 20
-55.408203125
 30
0.0
 10
130.4599609375
 20
-52.724609375
 30
0.0
 10
129.1591796875
 20
-48.1435546875
 30
0.0
 10
128.7685546875
 20
-43.7431640625
 30
0.0
 10
128.6396484375
 20
-41.1123046875
 30
0.0
 10
128.6396484375
 20
-41.0107421875
 30
0.0
 10
128.6494140625
 20
-40.9111328125
 30
0.0
 10
128.6494140625
 20
-40.8095703125
 30
0.0
 10
128.6494140625
 20
-40.3544921875
 30
0.0
 10
128.6064453125
 20
-39.9111328125
 30
0.0
 10
128.5791015625
 20
-39.462890625
 30
0.0
 10
128.5751953125
 20
-38.9248046875
 30
0.0
 10
128.5791015625
 20
-38.5966796875
 30
0.0
 10
128.5791015625
 20
-38.5966796875
 30
0.0
 10
128.5791015625
 20
-38.5966796875
 30
0.0
 10
128.5419921875
 20
-38.654296875
 30
0.0
 10
128.5419921875
 20
-38.654296875
 30
0.0
 10
127.4462890625
 20
-25.8779296875
 30
0.0
 10
116.7470703125
 20
-15.8466796875
 30
0.0
 10
103.6884765625
 20
-15.8466796875
 30
0.0
 10
103.6884765625
 20
-15.8466796875
 30
0.0
 10
103.6865234375
 20
-15.8466796875
 30
0.0
 10
103.6865234375
 20
-15.8466796875
 30
0.0
 10
90.6416015625
 20
-15.8466796875
 30
0.0
 10
79.9482421875
 20
-25.8564453125
 30
0.0
 10
78.8349609375
 20
-38.61328125
 30
0.0
 10
78.8349609375
 20
-38.61328125
 30
0.0
 10
78.8212890625
 20
-38.5966796875
 30
0.0
 10
78.8212890625
 20
-38.5966796875
 30
0.0
 10
78.8212890625
 20
-38.5966796875
 30
0.0
 10
78.8251953125
 20
-38.6689453125
 30
0.0
 10
78.8271484375
 20
-38.7861328125
 30
0.0
 10
78.7705078125
 20
-39.4560546875
 30
0.0
 10
78.7236328125
 20
-40.125
 30
0.0
 10
78.7236328125
 20
-40.8095703125
 30
0.0
 10
78.7236328125
 20
-41.0185546875
 30
0.0
 10
78.7451171875
 20
-41.2236328125
 30
0.0
 10
78.7490234375
 20
-41.4326171875
 30
0.0
 10
78.6083984375
 20
-43.9482421875
 30
0.0
 10
78.2353515625
 20
-47.876953125
 30
0.0
 10
77.1416015625
 20
-52.01953125
 30
0.0
 10
76.3681640625
 20
-54.927734375
 30
0.0
 10
75.2470703125
 20
-57.9375
 30
0.0
 10
73.5908203125
 20
-60.642578125
 30
0.0
 10
72.3857421875
 20
-62.611328125
 30
0.0
 10
71.4306640625
 20
-64.84765625
 30
0.0
 10
70.6669921875
 20
-67.1513671875
 30
0.0
 10
73.5146484375
 20
-68.8349609375
 30
0.0
 10
77.2080078125
 20
-68.7392578125
 30
0.0
 10
79.9892578125
 20
-66.5908203125
 30
0.0
 10
80.2744140625
 20
-66.3759765625
 30
0.0
 10
80.5224609375
 20
-66.1416015625
 30
0.0
 10
80.7744140625
 20
-65.9072265625
 30
0.0
 10
80.6259765625
 20
-66.1259765625
 30
0.0
 10
80.4755859375
 20
-66.3408203125
 30
0.0
 10
80.3232421875
 20
-66.5732421875
 30
0.0
 10
77.9931640625
 20
-70.5361328125
 30
0.0
 10
79.3251953125
 20
-75.64453125
 30
0.0
 10
83.2861328125
 20
-77.97265625
 30
0.0
 10
87.2470703125
 20
-80.3037109375
 30
0.0
 10
92.3564453125
 20
-78.97265625
 30
0.0
 10
94.6865234375
 20
-75.01171875
 30
0.0
 10
94.8037109375
 20
-74.7939453125
 30
0.0
 10
94.9208984375
 20
-74.5791015625
 30
0.0
 10
95.0185546875
 20
-74.3623046875
 30
0.0
 10
94.9677734375
 20
-74.6962890625
 30
0.0
 10
94.9365234375
 20
-75.0283203125
 30
0.0
 10
94.9365234375
 20
-75.3779296875
 30
0.0
 10
94.7880859375
 20
-79.97265625
 30
0.0
 10
98.3974609375
 20
-83.81640625
 30
0.0
 10
102.9912109375
 20
-83.9462890625
 30
0.0
 10
103.0732421875
 20
-83.9462890625
 30
0.0
 10
103.1552734375
 20
-83.9462890625
 30
0.0
 10
103.2392578125
 20
-83.9462890625
 30
0.0
 10
103.3955078125
 20
-83.9462890625
 30
0.0
 10
103.5361328125
 20
-83.9111328125
 30
0.0
 10
103.6884765625
 20
-83.9052734375
 30
0.0
 10
107.9736328125
 20
-83.6728515625
 30
0.0
 10
111.4326171875
 20
-80.234375
 30
0.0
 10
111.5615234375
 20
-75.8759765625
 30
0.0
 10
111.5771484375
 20
-75.5283203125
 30
0.0
 10
111.5615234375
 20
-75.1943359375
 30
0.0
 10
111.5283203125
 20
-74.8466796875
 30
0.0
 10
111.6455078125
 20
-75.0947265625
 30
0.0
 10
111.7587890625
 20
-75.3271484375
 30
0.0
 10
111.8935546875
 20
-75.560546875
 30
0.0
 10
114.1572265625
 20
-79.5712890625
 30
0.0
 10
119.2333984375
 20
-80.986328125
 30
0.0
 10
123.2275390625
 20
-78.7236328125
 30
0.0
 10
127.2392578125
 20
-76.4580078125
 30
0.0
 10
128.6376953125
 20
-71.3857421875
 30
0.0
 10
126.3896484375
 20
-67.3896484375
 30
0.0
 10
126.2724609375
 20
-67.1904296875
 30
0.0
 10
126.1552734375
 20
-66.9892578125
 30
0.0
 10
126.0244140625
 20
-66.80859375
 30
0.0
 10
126.1220703125
 20
-66.8896484375
 30
0.0
 10
126.2216796875
 20
-66.9892578125
 30
0.0
 10
126.3212890625
 20
-67.0732421875
 30
0.0
 10
129.3173828125
 20
-69.775390625
 30
0.0
 10
133.7333984375
 20
-69.8837890625
 30
0.0
 10
136.8525390625
 20
-67.5517578125
 30
0.0
  0
HATCH
  5
179
330
1F
100
AcDbEntity
  8
Layer 1
 62
    23
420
 12614753
100
AcDbHatch
 10
0.0
 20
0.0
 30
0.0
210
0.0
220
0.0
230
1.0
  2
SOLID
 70
     1
 71
     0
 91
        1
 92
        1
 93
        1
 72
     4
 94
        3
 73
     0
 74
     1
 95
      110
 96
      106
 40
0.0
 40
0.0
 40
0.0
 40
0.0
 40
1.0
 40
1.0
 40
1.0
 40
2.0
 40
2.0
 40
2.0
 40
3.0
 40
3.0
 40
3.0
 40
4.0
 40
4.0
 40
4.0
 40
5.0
 40
5.0
 40
5.0
 40
6.0
 40
6.0
 40
6.0
 40
7.0
 40
7.0
 40
7.0
 40
8.0
 40
8.0
 40
8.0
 40
9.0
 40
9.0
 40
9.0
 40
10.0
 40
10.0
 40
10.0
 40
11.0
 40
11.0
 40
11.0
 40
12.0
 40
12.0
 40
12.0
 40
13.0
 40
13.0
 40
13.0
 40
14.0
 40
14.0
 40
14.0
 40
15.0
 40
15.0
 40
15.0
 40
16.0
 40
16.0
 40
16.0
 40
17.0
 40
17.0
 40
17.0
 40
18.0
 40
18.0
 40
18.0
 40
19.0
 40
19.0
 40
19.0
 40
20.0
 40
20.0
 40
20.0
 40
21.0
 40
21.0
 40
21.0
 40
22.0
 40
22.0
 40
22.0
 40
23.0
 40
23.0
 40
23.0
 40
24.0
 40
24.0
 40
24.0
 40
25.0
 40
25.0
 40
25.0
 40
26.0
 40
26.0
 40
26.0
 40
27.0
 40
27.0
 40
27.0
 40
28.0
 40
28.0
 40
28.0
 40
29.0
 40
29.0
 40
29.0
 40
30.0
 40
30.0
 40
30.0
 40
31.0
 40
31.0
 40
31.0
 40
32.0
 40
32.0
 40
32.0
 40
33.0
 40
33.0
 40
33.0
 40
34.0
 40
34.0
 40
34.0
 40
35.0
 40
35.0
 40
35.0
 40
35.0
 10
136.8525390625
 20
-67.5517578125
 10
136.0693359375
 20
-65.1064453125
 10
135.0830078125
 20
-62.724609375
 10
133.8115234375
 20
-60.642578125
 10
132.2939453125
 20
-58.1533203125
 10
131.2236328125
 20
-55.408203125
 10
130.4599609375
 20
-52.724609375
 10
129.1591796875
 20
-48.1435546875
 10
128.7685546875
 20
-43.7431640625
 10
128.6396484375
 20
-41.1123046875
 10
128.6396484375
 20
-41.0107421875
 10
128.6494140625
 20
-40.9111328125
 10
128.6494140625
 20
-40.8095703125
 10
128.6494140625
 20
-40.3544921875
 10
128.6064453125
 20
-39.9111328125
 10
128.5791015625
 20
-39.462890625
 10
128.5751953125
 20
-38.9248046875
 10
128.5791015625
 20
-38.5966796875
 10
128.5791015625
 20
-38.5966796875
 10
128.5791015625
 20
-38.5966796875
 10
128.5419921875
 20
-38.654296875
 10
128.5419921875
 20
-38.654296875
 10
127.4462890625
 20
-25.8779296875
 10
116.7470703125
 20
-15.8466796875
 10
103.6884765625
 20
-15.8466796875
 10
103.6884765625
 20
-15.8466796875
 10
103.6865234375
 20
-15.8466796875
 10
103.6865234375
 20
-15.8466796875
 10
90.6416015625
 20
-15.8466796875
 10
79.9482421875
 20
-25.8564453125
 10
78.8349609375
 20
-38.61328125
 10
78.8349609375
 20
-38.61328125
 10
78.8212890625
 20
-38.5966796875
 10
78.8212890625
 20
-38.5966796875
 10
78.8212890625
 20
-38.5966796875
 10
78.8251953125
 20
-38.6689453125
 10
78.8271484375
 20
-38.7861328125
 10
78.7705078125
 20
-39.4560546875
 10
78.7236328125
 20
-40.125
 10
78.7236328125
 20
-40.8095703125
 10
78.7236328125
 20
-41.0185546875
 10
78.7451171875
 20
-41.2236328125
 10
78.7490234375
 20
-41.4326171875
 10
78.6083984375
 20
-43.9482421875
 10
78.2353515625
 20
-47.876953125
 10
77.1416015625
 20
-52.01953125
 10
76.3681640625
 20
-54.927734375
 10
75.2470703125
 20
-57.9375
 10
73.5908203125
 20
-60.642578125
 10
72.3857421875
 20
-62.611328125
 10
71.4306640625
 20
-64.84765625
 10
70.6669921875
 20
-67.1513671875
 10
73.5146484375
 20
-68.8349609375
 10
77.2080078125
 20
-68.7392578125
 10
79.9892578125
 20
-66.5908203125
 10
80.2744140625
 20
-66.3759765625
 10
80.5224609375
 20
-66.1416015625
 10
80.7744140625
 20
-65.9072265625
 10
80.6259765625
 20
-66.1259765625
 10
80.4755859375
 20
-66.3408203125
 10
80.3232421875
 20
-66.5732421875
 10
77.9931640625
 20
-70.5361328125
 10
79.3251953125
 20
-75.64453125
 10
83.2861328125
 20
-77.97265625
 10
87.2470703125
 20
-80.3037109375
 10
92.3564453125
 20
-78.97265625
 10
94.6865234375
 20
-75.01171875
 10
94.8037109375
 20
-74.7939453125
 10
94.9208984375
 20
-74.5791015625
 10
95.0185546875
 20
-74.3623046875
 10
94.9677734375
 20
-74.6962890625
 10
94.9365234375
 20
-75.0283203125
 10
94.9365234375
 20
-75.3779296875
 10
94.7880859375
 20
-79.97265625
 10
98.3974609375
 20
-83.81640625
 10
102.9912109375
 20
-83.9462890625
 10
103.0732421875
 20
-83.9462890625
 10
103.1552734375
 20
-83.9462890625
 10
103.2392578125
 20
-83.9462890625
 10
103.3955078125
 20
-83.9462890625
 10
103.5361328125
 20
-83.9111328125
 10
103.6884765625
 20
-83.9052734375
 10
107.9736328125
 20
-83.6728515625
 10
111.4326171875
 20
-80.234375
 10
111.5615234375
 20
-75.8759765625
 10
111.5771484375
 20
-75.5283203125
 10
111.5615234375
 20
-75.1943359375
 10
111.5283203125
 20
-74.8466796875
 10
111.6455078125
 20
-75.0947265625
 10
111.7587890625
 20
-75.3271484375
 10
111.8935546875
 20
-75.560546875
 10
114.1572265625
 20
-79.5712890625
 10
119.2333984375
 20
-80.986328125
 10
123.2275390625
 20
-78.7236328125
 10
127.2392578125
 20
-76.4580078125
 10
128.6376953125
 20
-71.3857421875
 10
126.3896484375
 20
-67.3896484375
 10
126.2724609375
 20
-67.1904296875
 10
126.1552734375
 20
-66.9892578125
 10
126.0244140625
 20
-66.80859375
 10
126.1220703125
 20
-66.8896484375
 10
126.2216796875
 20
-66.9892578125
 10
126.3212890625
 20
-67.0732421875
 10
129.3173828125
 20
-69.775390625
 10
133.7333984375
 20
-69.8837890625
 10
136.8525390625
 20
-67.5517578125
 97
        0
 75
     2
 76
     1
 98
        0
  0
INSERT
  5
17B
330
1F
100
AcDbEntity
  8
Layer 1
100
AcDbBlockReference
  2
block 66
 10
0.0
 20
0.0
 30
0.0
  0
ENDSEC
  0
SECTION
  2
OBJECTS
  0
DICTIONARY
  5
C
330
0
100
AcDbDictionary
281
     1
  3
ACAD_GROUP
350
D
  3
ACAD_LAYOUT
350
1A
  3
ACAD_MLINESTYLE
350
17
  3
ACAD_PLOTSETTINGS
350
19
  3
ACAD_PLOTSTYLENAME
350
E
  3
ACAD_TABLESTYLE
350
184
  3
ACAD_VISUALSTYLE
350
2A
  0
DICTIONARY
  5
D
102
{ACAD_REACTORS
330
C
102
}
330
C
100
AcDbDictionary
281
     1
  0
DICTIONARY
  5
1A
102
{ACAD_REACTORS
330
C
102
}
330
C
100
AcDbDictionary
281
     1
  3
Layout1
350
1E
  3
Layout2
350
26
  3
Model
350
22
  0
DICTIONARY
  5
17
102
{ACAD_REACTORS
330
C
102
}
330
C
100
AcDbDictionary
281
     1
  3
Standard
350
18
  0
DICTIONARY
  5
19
102
{ACAD_REACTORS
330
C
102
}
330
C
100
AcDbDictionary
281
     1
  0
ACDBDICTIONARYWDFLT
  5
E
102
{ACAD_REACTORS
330
C
102
}
330
C
100
AcDbDictionary
281
     1
  3
Normal
350
F
100
AcDbDictionaryWithDefault
340
F
  0
DICTIONARY
  5
184
102
{ACAD_REACTORS
330
C
102
}
330
C
100
AcDbDictionary
281
     1
  0
DICTIONARY
  5
2A
102
{ACAD_REACTORS
330
C
102
}
330
C
100
AcDbDictionary
281
     1
  3
2dWireframe
350
2F
  3
3D Hidden
350
31
  3
3dWireframe
350
30
  3
Basic
350
32
  3
Brighten
350
36
  3
ColorChange
350
3A
  3
Conceptual
350
34
  3
Dim
350
35
  3
Facepattern
350
39
  3
Flat
350
2B
  3
FlatWithEdges
350
2C
  3
Gouraud
350
2D
  3
GouraudWithEdges
350
2E
  3
Linepattern
350
38
  3
Realistic
350
33
  3
Thicken
350
37
  0
LAYOUT
  5
1E
102
{ACAD_REACTORS
330
1A
102
}
330
1A
100
AcDbPlotSettings
  1

  2
none_device
  4

  6

 40
0.0
 41
0.0
 42
0.0
 43
0.0
 44
0.0
 45
0.0
 46
0.0
 47
0.0
 48
0.0
 49
0.0
140
0.0
141
0.0
142
1.0
143
1.0
 70
   688
 72
     0
 73
     0
 74
     5
  7

 75
    16
 76
     0
 77
     2
 78
   300
147
1.0
148
0.0
149
0.0
100
AcDbLayout
  1
Layout1
 70
     1
 71
     1
 10
0.0
 20
0.0
 11
12.0
 21
9.0
 12
0.0
 22
0.0
 32
0.0
 14
1.000000000000000E+20
 24
1.000000000000000E+20
 34
1.000000000000000E+20
 15
-1.000000000000000E+20
 25
-1.000000000000000E+20
 35
-1.000000000000000E+20
146
0.0
 13
0.0
 23
0.0
 33
0.0
 16
1.0
 26
0.0
 36
0.0
 17
0.0
 27
1.0
 37
0.0
 76
     0
330
1B
  0
LAYOUT
  5
26
102
{ACAD_REACTORS
330
1A
102
}
330
1A
100
AcDbPlotSettings
  1

  2
none_device
  4

  6

 40
0.0
 41
0.0
 42
0.0
 43
0.0
 44
0.0
 45
0.0
 46
0.0
 47
0.0
 48
0.0
 49
0.0
140
0.0
141
0.0
142
1.0
143
1.0
 70
   688
 72
     0
 73
     0
 74
     5
  7

 75
    16
 76
     0
 77
     2
 78
   300
147
1.0
148
0.0
149
0.0
100
AcDbLayout
  1
Layout2
 70
     1
 71
     2
 10
0.0
 20
0.0
 11
0.0
 21
0.0
 12
0.0
 22
0.0
 32
0.0
 14
0.0
 24
0.0
 34
0.0
 15
0.0
 25
0.0
 35
0.0
146
0.0
 13
0.0
 23
0.0
 33
0.0
 16
1.0
 26
0.0
 36
0.0
 17
0.0
 27
1.0
 37
0.0
 76
     0
330
23
  0
LAYOUT
  5
22
102
{ACAD_REACTORS
330
1A
102
}
330
1A
100
AcDbPlotSettings
  1

  2
none_device
  4

  6

 40
0.0
 41
0.0
 42
0.0
 43
0.0
 44
0.0
 45
0.0
 46
0.0
 47
0.0
 48
0.0
 49
0.0
140
0.0
141
0.0
142
1.0
143
1.0
 70
  1712
 72
     0
 73
     0
 74
     0
  7

 75
     0
 76
     0
 77
     2
 78
   300
147
1.0
148
0.0
149
0.0
100
AcDbLayout
  1
Model
 70
     1
 71
     0
 10
0.0
 20
0.0
 11
12.0
 21
9.0
 12
0.0
 22
0.0
 32
0.0
 14
1.000000000000000E+20
 24
1.000000000000000E+20
 34
1.000000000000000E+20
 15
-1.000000000000000E+20
 25
-1.000000000000000E+20
 35
-1.000000000000000E+20
146
0.0
 13
0.0
 23
0.0
 33
0.0
 16
1.0
 26
0.0
 36
0.0
 17
0.0
 27
1.0
 37
0.0
 76
     0
330
1F
331
29
  0
MLINESTYLE
  5
18
102
{ACAD_REACTORS
330
17
102
}
330
17
100
AcDbMlineStyle
  2
Standard
 70
     0
  3

 62
   256
 51
90.0
 52
90.0
 71
     2
 49
0.5
 62
   256
  6
BYLAYER
 49
-0.5
 62
   256
  6
BYLAYER
  0
ACDBPLACEHOLDER
  5
F
102
{ACAD_REACTORS
330
E
102
}
330
E
  0
VISUALSTYLE
  5
2F
102
{ACAD_REACTORS
330
2A
102
}
330
2A
100
AcDbVisualStyle
  2
2dWireframe
 70
     4
 71
     0
 72
     2
 73
     0
 90
        0
 40
-0.6
 41
-30.0
 62
     5
 63
     7
421
 16777215
 74
     1
 91
        4
 64
     7
 65
   257
 75
     1
175
     1
 42
1.0
 92
        0
 66
   257
 43
1.0
 76
     1
 77
     6
 78
     2
 67
     7
 79
     5
170
     0
171
     0
290
     0
174
     0
 93
        1
 44
0.0
173
     0
291
     0
 45
0.0
1001
ACAD
1000
AcDbSavedByObjectVersion
1070
     0
  0
VISUALSTYLE
  5
31
102
{ACAD_REACTORS
330
2A
102
}
330
2A
100
AcDbVisualStyle
  2
3D Hidden
 70
     6
 71
     1
 72
     2
 73
     2
 90
        0
 40
-0.6
 41
-30.0
 62
     5
 63
     7
421
 16777215
 74
     2
 91
        2
 64
     7
 65
   257
 75
     2
175
     1
 42
40.0
 92
        0
 66
   257
 43
1.0
 76
     1
 77
     6
 78
     2
 67
     7
 79
     3
170
     0
171
     0
290
     0
174
     0
 93
        1
 44
0.0
173
     0
291
     0
 45
0.0
1001
ACAD
1000
AcDbSavedByObjectVersion
1070
     0
  0
VISUALSTYLE
  5
30
102
{ACAD_REACTORS
330
2A
102
}
330
2A
100
AcDbVisualStyle
  2
3dWireframe
 70
     5
 71
     0
 72
     2
 73
     0
 90
        0
 40
-0.6
 41
-30.0
 62
     5
 63
     7
421
 16777215
 74
     1
 91
        4
 64
     7
 65
   257
 75
     1
175
     1
 42
1.0
 92
        0
 66
   257
 43
1.0
 76
     1
 77
     6
 78
     2
 67
     7
 79
     5
170
     0
171
     0
290
     0
174
     0
 93
        1
 44
0.0
173
     0
291
     0
 45
0.0
1001
ACAD
1000
AcDbSavedByObjectVersion
1070
     0
  0
VISUALSTYLE
  5
32
102
{ACAD_REACTORS
330
2A
102
}
330
2A
100
AcDbVisualStyle
  2
Basic
 70
     7
 71
     1
 72
     0
 73
     1
 90
        0
 40
-0.6
 41
-30.0
 62
     5
 63
     7
421
 16777215
 74
     0
 91
        4
 64
     7
 65
   257
 75
     1
175
     1
 42
1.0
 92
        8
 66
     7
 43
1.0
 76
     1
 77
     6
 78
     2
 67
     7
 79
     5
170
     0
171
     0
290
     0
174
     0
 93
        1
 44
0.0
173
     0
291
     1
 45
0.0
1001
ACAD
1000
AcDbSavedByObjectVersion
1070
     0
  0
VISUALSTYLE
  5
36
102
{ACAD_REACTORS
330
2A
102
}
330
2A
100
AcDbVisualStyle
  2
Brighten
 70
    12
 71
     2
 72
     2
 73
     0
 90
        0
 40
-0.6
 41
-30.0
 62
     5
 63
     7
421
 16777215
 74
     1
 91
        4
 64
     7
 65
   257
 75
     1
175
     1
 42
1.0
 92
        8
 66
     7
 43
1.0
 76
     1
 77
     6
 78
     2
 67
     7
 79
     5
170
     0
171
     0
290
     0
174
     0
 93
        1
 44
50.0
173
     0
291
     1
 45
0.0
1001
ACAD
1000
AcDbSavedByObjectVersion
1070
     0
  0
VISUALSTYLE
  5
3A
102
{ACAD_REACTORS
330
2A
102
}
330
2A
100
AcDbVisualStyle
  2
ColorChange
 70
    16
 71
     2
 72
     2
 73
     3
 90
        0
 40
-0.6
 41
-30.0
 62
     5
 63
     8
421
  8421504
 74
     1
 91
        4
 64
     7
 65
   257
 75
     1
175
     1
 42
1.0
 92
        8
 66
     8
424
  8421504
 43
1.0
 76
     1
 77
     6
 78
     2
 67
     7
 79
     5
170
     0
171
     0
290
     0
174
     0
 93
        1
 44
0.0
173
     0
291
     1
 45
0.0
1001
ACAD
1000
AcDbSavedByObjectVersion
1070
     0
  0
VISUALSTYLE
  5
34
102
{ACAD_REACTORS
330
2A
102
}
330
2A
100
AcDbVisualStyle
  2
Conceptual
 70
     9
 71
     3
 72
     2
 73
     0
 90
        0
 40
-0.6
 41
-30.0
 62
     5
 63
     7
421
 16777215
 74
     2
 91
        2
 64
     7
 65
   257
 75
     1
175
     1
 42
40.0
 92
        8
 66
     7
 43
1.0
 76
     1
 77
     6
 78
     2
 67
     7
 79
     3
170
     0
171
     0
290
     0
174
     0
 93
        1
 44
0.0
173
     0
291
     0
 45
0.0
1001
ACAD
1000
AcDbSavedByObjectVersion
1070
     0
  0
VISUALSTYLE
  5
35
102
{ACAD_REACTORS
330
2A
102
}
330
2A
100
AcDbVisualStyle
  2
Dim
 70
    11
 71
     2
 72
     2
 73
     0
 90
        0
 40
-0.6
 41
-30.0
 62
     5
 63
     7
421
 16777215
 74
     1
 91
        4
 64
     7
 65
   257
 75
     1
175
     1
 42
1.0
 92
        8
 66
     7
 43
1.0
 76
     1
 77
     6
 78
     2
 67
     7
 79
     5
170
     0
171
     0
290
     0
174
     0
 93
        1
 44
-50.0
173
     0
291
     1
 45
0.0
1001
ACAD
1000
AcDbSavedByObjectVersion
1070
     0
  0
VISUALSTYLE
  5
39
102
{ACAD_REACTORS
330
2A
102
}
330
2A
100
AcDbVisualStyle
  2
Facepattern
 70
    15
 71
     2
 72
     2
 73
     0
 90
        0
 40
-0.6
 41
-30.0
 62
     5
 63
     7
421
 16777215
 74
     1
 91
        4
 64
     7
 65
   257
 75
     1
175
     1
 42
1.0
 92
        8
 66
     7
 43
1.0
 76
     1
 77
     6
 78
     2
 67
     7
 79
     5
170
     0
171
     0
290
     0
174
     0
 93
        1
 44
0.0
173
     0
291
     1
 45
0.0
1001
ACAD
1000
AcDbSavedByObjectVersion
1070
     0
  0
VISUALSTYLE
  5
2B
102
{ACAD_REACTORS
330
2A
102
}
330
2A
100
AcDbVisualStyle
  2
Flat
 70
     0
 71
     2
 72
     1
 73
     1
 90
        2
 40
-0.6
 41
30.0
 62
     5
 63
     7
421
 16777215
 74
     0
 91
        4
 64
     7
 65
   257
 75
     1
175
     1
 42
1.0
 92
        8
 66
     7
 43
1.0
 76
     1
 77
     6
 78
     2
 67
     7
 79
     5
170
     0
171
     0
290
     0
174
     0
 93
       13
 44
0.0
173
     0
291
     1
 45
0.0
1001
ACAD
1000
AcDbSavedByObjectVersion
1070
     0
  0
VISUALSTYLE
  5
2C
102
{ACAD_REACTORS
330
2A
102
}
330
2A
100
AcDbVisualStyle
  2
FlatWithEdges
 70
     1
 71
     2
 72
     1
 73
     1
 90
        2
 40
-0.6
 41
30.0
 62
     5
 63
     7
421
 16777215
 74
     1
 91
        4
 64
     7
 65
   257
 75
     1
175
     1
 42
1.0
 92
        0
 66
   257
 43
1.0
 76
     1
 77
     6
 78
     2
 67
     7
 79
     5
170
     0
171
     0
290
     0
174
     0
 93
       13
 44
0.0
173
     0
291
     1
 45
0.0
1001
ACAD
1000
AcDbSavedByObjectVersion
1070
     0
  0
VISUALSTYLE
  5
2D
102
{ACAD_REACTORS
330
2A
102
}
330
2A
100
AcDbVisualStyle
  2
Gouraud
 70
     2
 71
     2
 72
     2
 73
     1
 90
        2
 40
-0.6
 41
30.0
 62
     5
 63
     7
421
 16777215
 74
     0
 91
        4
 64
     7
 65
   257
 75
     1
175
     1
 42
1.0
 92
        0
 66
     7
 43
1.0
 76
     1
 77
     6
 78
     2
 67
     7
 79
     5
170
     0
171
     0
290
     0
174
     0
 93
       13
 44
0.0
173
     0
291
     1
 45
0.0
1001
ACAD
1000
AcDbSavedByObjectVersion
1070
     0
  0
VISUALSTYLE
  5
2E
102
{ACAD_REACTORS
330
2A
102
}
330
2A
100
AcDbVisualStyle
  2
GouraudWithEdges
 70
     3
 71
     2
 72
     2
 73
     1
 90
        2
 40
-0.6
 41
30.0
 62
     5
 63
     7
421
 16777215
 74
     1
 91
        4
 64
     7
 65
   257
 75
     1
175
     1
 42
1.0
 92
        0
 66
   257
 43
1.0
 76
     1
 77
     6
 78
     2
 67
     7
 79
     5
170
     0
171
     0
290
     0
174
     0
 93
       13
 44
0.0
173
     0
291
     1
 45
0.0
1001
ACAD
1000
AcDbSavedByObjectVersion
1070
     0
  0
VISUALSTYLE
  5
38
102
{ACAD_REACTORS
330
2A
102
}
330
2A
100
AcDbVisualStyle
  2
Linepattern
 70
    14
 71
     2
 72
     2
 73
     0
 90
        0
 40
-0.6
 41
-30.0
 62
     5
 63
     7
421
 16777215
 74
     1
 91
        4
 64
     7
 65
   257
 75
     7
175
     7
 42
1.0
 92
        8
 66
     7
 43
1.0
 76
     1
 77
     6
 78
     2
 67
     7
 79
     5
170
     0
171
     0
290
     0
174
     0
 93
        1
 44
0.0
173
     0
291
     1
 45
0.0
1001
ACAD
1000
AcDbSavedByObjectVersion
1070
     0
  0
VISUALSTYLE
  5
33
102
{ACAD_REACTORS
330
2A
102
}
330
2A
100
AcDbVisualStyle
  2
Realistic
 70
     8
 71
     2
 72
     2
 73
     0
 90
        0
 40
-0.6
 41
-30.0
 62
     5
 63
     7
421
 16777215
 74
     1
 91
        0
 64
     7
 65
   257
 75
     1
175
     1
 42
1.0
 92
        8
 66
     8
424
  7895160
 43
1.0
 76
     1
 77
     6
 78
     2
 67
     7
 79
     5
170
     0
171
     0
290
     0
174
     0
 93
       13
 44
0.0
173
     0
291
     0
 45
0.0
1001
ACAD
1000
AcDbSavedByObjectVersion
1070
     0
  0
VISUALSTYLE
  5
37
102
{ACAD_REACTORS
330
2A
102
}
330
2A
100
AcDbVisualStyle
  2
Thicken
 70
    13
 71
     2
 72
     2
 73
     0
 90
        0
 40
-0.6
 41
-30.0
 62
     5
 63
     7
421
 16777215
 74
     1
 91
        4
 64
     7
 65
   257
 75
     1
175
     1
 42
1.0
 92
       12
 66
     7
 43
1.0
 76
     1
 77
     6
 78
     2
 67
     7
 79
     5
170
     0
171
     0
290
     0
174
     0
 93
        1
 44
0.0
173
     0
291
     1
 45
0.0
1001
ACAD
1000
AcDbSavedByObjectVersion
1070
     0
  0
ENDSEC
  0
EOF
