<?xml version="1.0" encoding="utf-8"?>
<!-- Generator: Adobe Illustrator 15.0.0, SVG Export Plug-In . SVG Version: 6.00 Build 0)  -->
<!DOCTYPE svg PUBLIC "-//W3C//DTD SVG 1.1//EN" "http://www.w3.org/Graphics/SVG/1.1/DTD/svg11.dtd">
<svg version="1.1" id="Layer_1" xmlns="http://www.w3.org/2000/svg" xmlns:xlink="http://www.w3.org/1999/xlink" x="0px" y="0px"
	 width="200px" height="200px" viewBox="0 0 200 200" enable-background="new 0 0 200 200" xml:space="preserve">
<g>
	<g>
		<path fill="none" stroke="#000000" stroke-width="0.25" stroke-miterlimit="10" d="M90.861,156.857
			c0,20.506-19.508,37.317-43.57,37.317c-24.063,0-43.57-16.812-43.57-37.317s19.507-37.129,43.57-37.129
			C71.354,119.729,90.861,136.352,90.861,156.857z"/>
	</g>
</g>
<path fill="none" stroke="#000000" stroke-width="0.25" stroke-miterlimit="10" d="M53.213,86.443c-0.791,0-1.486,0.374-1.943,0.946
	v-0.946c0-1.38-1.116-2.497-2.496-2.497s-2.497,1.117-2.497,2.497v8.321c0,1.379,1.117,2.497,2.497,2.497
	c0.79,0,1.485-0.374,1.942-0.946v0.946c0,1.379,1.116,2.497,2.497,2.497c1.378,0,2.496-1.117,2.496-2.497v-8.321
	C55.709,87.56,54.591,86.443,53.213,86.443z"/>
<g>
	<g>
		<g>
			<path fill="none" stroke="#000000" stroke-width="0.25" stroke-miterlimit="10" d="M62.173,113.431
				c0.021-0.018,0.045-0.034,0.067-0.05c0.023-0.022,0.048-0.043,0.072-0.064c0,0.006,0,0.012,0,0.017
				C62.268,113.367,62.218,113.396,62.173,113.431z"/>
		</g>
	</g>
	<g>
		<g>
			<path fill="none" stroke="#000000" stroke-width="0.25" stroke-miterlimit="10" d="M137.836,113.479
				c0-0.007-0.003-0.01-0.003-0.017c0.026,0.021,0.048,0.04,0.07,0.06c0.024,0.018,0.046,0.033,0.068,0.05
				C137.928,113.539,137.878,113.51,137.836,113.479z"/>
		</g>
	</g>
</g>
<path fill="none" stroke="#000000" stroke-width="0.25" stroke-miterlimit="10" d="M192.939,143.558
	c-0.783-2.445-1.771-4.827-3.041-6.91c-1.518-2.488-2.588-5.234-3.352-7.918c-1.302-4.58-1.692-8.981-1.821-11.611
	c0-0.102,0.01-0.201,0.01-0.304c0-0.455-0.043-0.898-0.069-1.347c-0.005-0.537,0-0.865,0-0.865l-0.038,0.057
	c-1.096-12.775-11.794-22.808-24.853-22.808h-0.003c-13.044,0-23.738,10.011-24.851,22.767l-0.014-0.016
	c0,0,0.003,0.072,0.005,0.188c-0.056,0.671-0.104,1.339-0.104,2.023c0,0.21,0.021,0.414,0.026,0.623
	c-0.142,2.516-0.514,6.444-1.608,10.587c-0.772,2.908-1.894,5.919-3.55,8.623c-1.205,1.969-2.16,4.205-2.925,6.51
	c-3.005,9.037-3.014,19.199-3.014,19.199c0.471,19.504,16.418,35.172,36.033,35.172h0.003c19.633,0,35.588-15.691,36.035-35.219
	C195.811,162.31,195.798,152.476,192.939,143.558z"/>
<g>
	<g>
		<path fill="none" stroke="#000000" stroke-width="0.25" stroke-miterlimit="10" d="M33.567,80.137
			c1.696,1.361,2.82,2.767,3.829,3.957c0.513,0.624,0.878,0.957,1.393,1.534c0.521,0.616,1.099,1.373,1.572,2.219
			c0.967,1.687,1.564,3.736,1.532,5.758c-0.047,2.026-0.631,4.025-2.085,5.671c-1.317-1.753-2.184-3.177-3.008-4.466
			c-0.813-1.291-1.523-2.421-2.236-3.691c-0.363-0.639-0.711-1.31-1.102-2.129c-0.42-0.846-0.839-2.031-0.925-3.002
			C32.33,83.999,32.581,82.102,33.567,80.137z"/>
	</g>
</g>
<g>
	<g>
		<path fill="none" stroke="#000000" stroke-width="0.25" stroke-miterlimit="10" d="M22.027,110.802c0-0.003,0-0.009,0-0.013
			c0-5.547-5.017-10.044-9.153-10.044c-4.136,0-9.152,4.497-9.152,10.044c0,2.22-0.173,8.055,4.024,8.055
			c1.235,0,2.328-0.573,3.066-1.451c0.693,0.076,1.39,0.111,2.062,0.111c0.674,0,1.368-0.035,2.063-0.111
			c0.737,0.878,1.83,1.451,3.069,1.451C22.193,118.844,22.027,113.031,22.027,110.802z"/>
	</g>
</g>
<path fill="none" stroke="#000000" stroke-width="0.25" stroke-miterlimit="10" d="M35.413,54.818c-4.602,0-8.547,2.655-10.232,6.44
	c-0.006-0.01-0.011-0.017-0.015-0.026c-1.695-3.771-5.632-6.414-10.222-6.414c-6.133,0-11.107,4.724-11.107,10.555
	c0,5.828,4.975,10.554,11.107,10.554c4.59,0,8.526,0.666,10.222-3.086c0.004-0.009,0.009-0.018,0.015-0.028
	c1.686,3.787,5.631,3.114,10.232,3.114c6.136,0,11.109-4.726,11.109-10.554C46.522,59.542,41.549,54.818,35.413,54.818z"/>
<path fill="none" stroke="#000000" stroke-width="0.25" stroke-miterlimit="10" d="M37.742,105.939l-2.69-1.775
	c-0.54-0.358-1.256-0.537-1.966-0.537c-0.717,0-1.428,0.179-1.97,0.537l-2.69,1.775c-1.082,0.715-1.427,2.211-0.762,3.327
	l4.213,7.073c0.333,0.558,0.771,0.835,1.209,0.835c0.435,0,0.872-0.277,1.204-0.835l4.213-7.073
	C39.167,108.15,38.824,106.654,37.742,105.939z"/>
<g>
	<g>
		<path fill="none" stroke="#000000" stroke-width="0.25" stroke-miterlimit="10" d="M7.458,88.91c-0.716,0-1.378,0.215-1.939,0.575
			c-0.126-0.085-0.271-0.166-0.393-0.29l-1.352-1.599c-0.102,0.737-0.068,1.498,0.195,2.262c0.1,0.273,0.171,0.618,0.376,0.871
			c-0.302,0.527-0.487,1.13-0.487,1.781c0,1.988,1.611,3.598,3.6,3.598c1.986,0,3.6-1.609,3.6-3.598
			C11.057,90.521,9.444,88.91,7.458,88.91z"/>
	</g>
</g>
<g>
	<g>
		<path fill="none" stroke="#000000" stroke-width="0.25" stroke-miterlimit="10" d="M20.043,91.01
			c0.067-0.172,0.118-0.351,0.175-0.509c0.263-0.764,0.296-1.524,0.195-2.262l-0.165-0.029c-0.362,0.617-0.763,1.188-1.185,1.627
			c-0.063,0.063-0.13,0.113-0.2,0.16c-0.507-0.274-1.08-0.445-1.697-0.445c-1.991,0-3.604,1.611-3.604,3.6
			c0,1.988,1.612,3.598,3.604,3.598c1.985,0,3.598-1.609,3.598-3.598C20.764,92.346,20.49,91.61,20.043,91.01z"/>
	</g>
</g>
<g>
	<g>
		<circle fill="none" stroke="#000000" stroke-width="0.25" stroke-miterlimit="10" cx="26.252" cy="90.779" r="1.073"/>
	</g>
</g>
<path fill="none" stroke="#000000" stroke-width="0.25" stroke-miterlimit="10" d="M136.853,67.552
	c-0.783-2.445-1.77-4.827-3.041-6.909c-1.518-2.489-2.588-5.234-3.352-7.918c-1.301-4.581-1.691-8.981-1.82-11.612
	c0-0.102,0.01-0.201,0.01-0.303c0-0.455-0.043-0.898-0.07-1.347c-0.004-0.538,0-0.866,0-0.866l-0.037,0.058
	c-1.096-12.776-11.795-22.808-24.854-22.808h-0.002c-13.045,0-23.738,10.01-24.852,22.767l-0.014-0.017c0,0,0.004,0.072,0.006,0.189
	c-0.057,0.67-0.104,1.339-0.104,2.023c0,0.209,0.021,0.414,0.025,0.623c-0.141,2.516-0.514,6.444-1.607,10.587
	c-0.773,2.908-1.895,5.918-3.551,8.623c-1.205,1.969-2.16,4.205-2.924,6.509c2.848,1.684,6.541,1.588,9.322-0.561
	c0.285-0.215,0.533-0.449,0.785-0.684c-0.148,0.219-0.299,0.434-0.451,0.666c-2.33,3.963-0.998,9.071,2.963,11.399
	c3.961,2.331,9.07,1,11.4-2.961c0.117-0.218,0.234-0.433,0.332-0.649c-0.051,0.334-0.082,0.666-0.082,1.016
	c-0.148,4.595,3.461,8.438,8.055,8.568c0.082,0,0.164,0,0.248,0c0.156,0,0.297-0.035,0.449-0.041
	c4.285-0.232,7.744-3.671,7.873-8.029c0.016-0.348,0-0.682-0.033-1.029c0.117,0.248,0.23,0.48,0.365,0.714
	c2.264,4.011,7.34,5.426,11.334,3.163c4.012-2.266,5.41-7.338,3.162-11.334c-0.117-0.199-0.234-0.4-0.365-0.581
	c0.098,0.081,0.197,0.181,0.297,0.265C129.317,69.775,133.733,69.884,136.853,67.552z"/>
<g>
	<g>
		<circle fill="none" stroke="#000000" stroke-width="0.25" stroke-miterlimit="10" cx="26.252" cy="96.108" r="1.073"/>
	</g>
</g>
</svg>
