  0
SECTION
  2
HEADER
  9
$ACADVER
  1
AC1018
  9
$ACADMAINTVER
 70
     0
  9
$DWGCODEPAGE
  3
ANSI_1252
  9
$INSBASE
 10
0.0
 20
0.0
 30
0.0
  9
$EXTMIN
 10
1.000000000000000E+20
 20
1.000000000000000E+20
 30
1.000000000000000E+20
  9
$EXTMAX
 10
-1.000000000000000E+20
 20
-1.000000000000000E+20
 30
-1.000000000000000E+20
  9
$LIMMIN
 10
0.0
 20
0.0
  9
$LIMMAX
 10
12.0
 20
9.0
  9
$ORTHOMODE
 70
     0
  9
$REGENMODE
 70
     1
  9
$FILLMODE
 70
     1
  9
$QTEXTMODE
 70
     0
  9
$MIRRTEXT
 70
     1
  9
$LTSCALE
 40
1.0
  9
$ATTMODE
 70
     1
  9
$TEXTSIZE
 40
0.2
  9
$TRACEWID
 40
0.05
  9
$TEXTSTYLE
  7
Standard
  9
$CLAYER
  8
0
  9
$CELTYPE
  6
ByLayer
  9
$CECOLOR
 62
   256
  9
$CELTSCALE
 40
1.0
  9
$DISPSILH
 70
     0
  9
$DIMSCALE
 40
1.0
  9
$DIMASZ
 40
0.18
  9
$DIMEXO
 40
0.0625
  9
$DIMDLI
 40
0.38
  9
$DIMRND
 40
0.0
  9
$DIMDLE
 40
0.0
  9
$DIMEXE
 40
0.18
  9
$DIMTP
 40
0.0
  9
$DIMTM
 40
0.0
  9
$DIMTXT
 40
0.18
  9
$DIMCEN
 40
0.09
  9
$DIMTSZ
 40
0.0
  9
$DIMTOL
 70
     0
  9
$DIMLIM
 70
     0
  9
$DIMTIH
 70
     1
  9
$DIMTOH
 70
     1
  9
$DIMSE1
 70
     0
  9
$DIMSE2
 70
     0
  9
$DIMTAD
 70
     0
  9
$DIMZIN
 70
     0
  9
$DIMBLK
  1

  9
$DIMASO
 70
     1
  9
$DIMSHO
 70
     1
  9
$DIMPOST
  1

  9
$DIMAPOST
  1

  9
$DIMALT
 70
     0
  9
$DIMALTD
 70
     2
  9
$DIMALTF
 40
25.4
  9
$DIMLFAC
 40
1.0
  9
$DIMTOFL
 70
     0
  9
$DIMTVP
 40
0.0
  9
$DIMTIX
 70
     0
  9
$DIMSOXD
 70
     0
  9
$DIMSAH
 70
     0
  9
$DIMBLK1
  1

  9
$DIMBLK2
  1

  9
$DIMSTYLE
  2
Standard
  9
$DIMCLRD
 70
     0
  9
$DIMCLRE
 70
     0
  9
$DIMCLRT
 70
     0
  9
$DIMTFAC
 40
1.0
  9
$DIMGAP
 40
0.09
  9
$DIMJUST
 70
     0
  9
$DIMSD1
 70
     0
  9
$DIMSD2
 70
     0
  9
$DIMTOLJ
 70
     1
  9
$DIMTZIN
 70
     0
  9
$DIMALTZ
 70
     0
  9
$DIMALTTZ
 70
     0
  9
$DIMUPT
 70
     0
  9
$DIMDEC
 70
     4
  9
$DIMTDEC
 70
     4
  9
$DIMALTU
 70
     2
  9
$DIMALTTD
 70
     2
  9
$DIMTXSTY
  7
Standard
  9
$DIMAUNIT
 70
     0
  9
$DIMADEC
 70
     0
  9
$DIMALTRND
 40
0.0
  9
$DIMAZIN
 70
     0
  9
$DIMDSEP
 70
    46
  9
$DIMATFIT
 70
     3
  9
$DIMFRAC
 70
     0
  9
$DIMLDRBLK
  1

  9
$DIMLUNIT
 70
     2
  9
$DIMLWD
 70
    -2
  9
$DIMLWE
 70
    -2
  9
$DIMTMOVE
 70
     0
  9
$LUNITS
 70
     2
  9
$LUPREC
 70
     4
  9
$SKETCHINC
 40
0.1
  9
$FILLETRAD
 40
0.5
  9
$AUNITS
 70
     0
  9
$AUPREC
 70
     0
  9
$MENU
  1
.
  9
$ELEVATION
 40
0.0
  9
$PELEVATION
 40
0.0
  9
$THICKNESS
 40
0.0
  9
$LIMCHECK
 70
     0
  9
$CHAMFERA
 40
0.5
  9
$CHAMFERB
 40
0.5
  9
$CHAMFERC
 40
1.0
  9
$CHAMFERD
 40
0.0
  9
$SKPOLY
 70
     0
  9
$TDCREATE
 40
2456900.632598854
  9
$TDUCREATE
 40
2456900.757598854
  9
$TDUPDATE
 40
2456900.632598866
  9
$TDUUPDATE
 40
2456900.757598866
  9
$TDINDWG
 40
0.0000000116
  9
$TDUSRTIMER
 40
0.0000000116
  9
$USRTIMER
 70
     1
  9
$ANGBASE
 50
0.0
  9
$ANGDIR
 70
     0
  9
$PDMODE
 70
     0
  9
$PDSIZE
 40
0.0
  9
$PLINEWID
 40
0.0
  9
$SPLFRAME
 70
     0
  9
$SPLINETYPE
 70
     6
  9
$SPLINESEGS
 70
     8
  9
$HANDSEED
  5
279
  9
$SURFTAB1
 70
     6
  9
$SURFTAB2
 70
     6
  9
$SURFTYPE
 70
     6
  9
$SURFU
 70
     6
  9
$SURFV
 70
     6
  9
$UCSBASE
  2

  9
$UCSNAME
  2

  9
$UCSORG
 10
0.0
 20
0.0
 30
0.0
  9
$UCSXDIR
 10
1.0
 20
0.0
 30
0.0
  9
$UCSYDIR
 10
0.0
 20
1.0
 30
0.0
  9
$UCSORTHOREF
  2

  9
$UCSORTHOVIEW
 70
     0
  9
$UCSORGTOP
 10
0.0
 20
0.0
 30
0.0
  9
$UCSORGBOTTOM
 10
0.0
 20
0.0
 30
0.0
  9
$UCSORGLEFT
 10
0.0
 20
0.0
 30
0.0
  9
$UCSORGRIGHT
 10
0.0
 20
0.0
 30
0.0
  9
$UCSORGFRONT
 10
0.0
 20
0.0
 30
0.0
  9
$UCSORGBACK
 10
0.0
 20
0.0
 30
0.0
  9
$PUCSBASE
  2

  9
$PUCSNAME
  2

  9
$PUCSORG
 10
0.0
 20
0.0
 30
0.0
  9
$PUCSXDIR
 10
1.0
 20
0.0
 30
0.0
  9
$PUCSYDIR
 10
0.0
 20
1.0
 30
0.0
  9
$PUCSORTHOREF
  2

  9
$PUCSORTHOVIEW
 70
     0
  9
$PUCSORGTOP
 10
0.0
 20
0.0
 30
0.0
  9
$PUCSORGBOTTOM
 10
0.0
 20
0.0
 30
0.0
  9
$PUCSORGLEFT
 10
0.0
 20
0.0
 30
0.0
  9
$PUCSORGRIGHT
 10
0.0
 20
0.0
 30
0.0
  9
$PUCSORGFRONT
 10
0.0
 20
0.0
 30
0.0
  9
$PUCSORGBACK
 10
0.0
 20
0.0
 30
0.0
  9
$USERI1
 70
     0
  9
$USERI2
 70
     0
  9
$USERI3
 70
     0
  9
$USERI4
 70
     0
  9
$USERI5
 70
     0
  9
$USERR1
 40
0.0
  9
$USERR2
 40
0.0
  9
$USERR3
 40
0.0
  9
$USERR4
 40
0.0
  9
$USERR5
 40
0.0
  9
$WORLDVIEW
 70
     1
  9
$SHADEDGE
 70
     3
  9
$SHADEDIF
 70
    70
  9
$TILEMODE
 70
     1
  9
$MAXACTVP
 70
    64
  9
$PINSBASE
 10
0.0
 20
0.0
 30
0.0
  9
$PLIMCHECK
 70
     0
  9
$PEXTMIN
 10
1.000000000000000E+20
 20
1.000000000000000E+20
 30
1.000000000000000E+20
  9
$PEXTMAX
 10
-1.000000000000000E+20
 20
-1.000000000000000E+20
 30
-1.000000000000000E+20
  9
$PLIMMIN
 10
0.0
 20
0.0
  9
$PLIMMAX
 10
12.0
 20
9.0
  9
$UNITMODE
 70
     0
  9
$VISRETAIN
 70
     1
  9
$PLINEGEN
 70
     0
  9
$PSLTSCALE
 70
     1
  9
$TREEDEPTH
 70
  3020
  9
$CMLSTYLE
  2
Standard
  9
$CMLJUST
 70
     0
  9
$CMLSCALE
 40
1.0
  9
$PROXYGRAPHICS
 70
     1
  9
$MEASUREMENT
 70
     0
  9
$CELWEIGHT
370
    -1
  9
$ENDCAPS
280
     0
  9
$JOINSTYLE
280
     0
  9
$LWDISPLAY
290
     1
  9
$INSUNITS
 70
     1
  9
$HYPERLINKBASE
  1

  9
$STYLESHEET
  1

  9
$XEDIT
290
     1
  9
$CEPSNTYPE
380
     0
  9
$PSTYLEMODE
290
     1
  9
$FINGERPRINTGUID
  2
{C24443BB-9832-4E93-9B4B-5DDFFFF6CDB3}
  9
$VERSIONGUID
  2
{FAEB1C32-E019-11D5-929B-00C0DF256EC4}
  9
$EXTNAMES
290
     1
  9
$PSVPSCALE
 40
0.0
  9
$OLESTARTUP
290
     0
  9
$SORTENTS
280
   127
  9
$INDEXCTL
280
     0
  9
$HIDETEXT
280
     1
  9
$XCLIPFRAME
290
     0
  9
$HALOGAP
280
     0
  9
$OBSCOLOR
 70
   257
  9
$OBSLTYPE
280
     0
  9
$INTERSECTIONDISPLAY
280
     0
  9
$INTERSECTIONCOLOR
 70
   257
  9
$DIMASSOC
280
     2
  9
$PROJECTNAME
  1

  0
ENDSEC
  0
SECTION
  2
CLASSES
  0
CLASS
  1
ACDBDICTIONARYWDFLT
  2
AcDbDictionaryWithDefault
  3
ObjectDBX Classes
 90
        0
 91
        3
280
     0
281
     0
  0
CLASS
  1
VISUALSTYLE
  2
AcDbVisualStyle
  3
ObjectDBX Classes
 90
     4095
 91
        3
280
     0
281
     0
  0
ENDSEC
  0
SECTION
  2
TABLES
  0
TABLE
  2
VPORT
  5
8
330
0
100
AcDbSymbolTable
 70
     1
  0
VPORT
  5
29
330
8
100
AcDbSymbolTableRecord
100
AcDbViewportTableRecord
  2
*Active
 70
     0
 10
0.0
 20
0.0
 11
1.0
 21
1.0
 12
0.0
 22
0.0
 13
0.0
 23
0.0
 14
0.5
 24
0.5
 15
0.5
 25
0.5
 16
0.0
 26
0.0
 36
1.0
 17
100.0
 27
-100.0
 37
0.0
 40
200.0
 41
1.0
 42
50.0
 43
0.0
 44
0.0
 50
0.0
 51
0.0
 71
     0
 72
   100
 73
     1
 74
     3
 75
     0
 76
     0
 77
     0
 78
     0
281
     0
 65
     1
110
0.0
120
0.0
130
0.0
111
1.0
121
0.0
131
0.0
112
0.0
122
1.0
132
0.0
 79
     0
146
0.0
  0
ENDTAB
  0
TABLE
  2
LTYPE
  5
5
330
0
100
AcDbSymbolTable
 70
     1
  0
LTYPE
  5
14
330
5
100
AcDbSymbolTableRecord
100
AcDbLinetypeTableRecord
  2
ByBlock
 70
     0
  3

 72
    65
 73
     0
 40
0.0
  0
LTYPE
  5
15
330
5
100
AcDbSymbolTableRecord
100
AcDbLinetypeTableRecord
  2
ByLayer
 70
     0
  3

 72
    65
 73
     0
 40
0.0
  0
LTYPE
  5
16
330
5
100
AcDbSymbolTableRecord
100
AcDbLinetypeTableRecord
  2
Continuous
 70
     0
  3
Solid line
 72
    65
 73
     0
 40
0.0
  0
ENDTAB
  0
TABLE
  2
LAYER
  5
2
330
0
100
AcDbSymbolTable
 70
     2
  0
LAYER
  5
10
330
2
100
AcDbSymbolTableRecord
100
AcDbLayerTableRecord
  2
0
 70
     0
 62
     7
  6
Continuous
370
    -3
390
F
  0
LAYER
  5
3B
330
2
100
AcDbSymbolTableRecord
100
AcDbLayerTableRecord
  2
Layer 1
 70
     0
 62
     7
  6
Continuous
370
    -3
390
F
  0
ENDTAB
  0
TABLE
  2
STYLE
  5
3
330
0
100
AcDbSymbolTable
 70
     1
  0
STYLE
  5
11
330
3
100
AcDbSymbolTableRecord
100
AcDbTextStyleTableRecord
  2
Standard
 70
     0
 40
0.0
 41
1.0
 50
0.0
 71
     0
 42
0.2
  3
txt
  4

  0
ENDTAB
  0
TABLE
  2
VIEW
  5
6
330
0
100
AcDbSymbolTable
 70
     0
  0
ENDTAB
  0
TABLE
  2
UCS
  5
7
330
0
100
AcDbSymbolTable
 70
     0
  0
ENDTAB
  0
TABLE
  2
APPID
  5
9
330
0
100
AcDbSymbolTable
 70
     1
  0
APPID
  5
12
330
9
100
AcDbSymbolTableRecord
100
AcDbRegAppTableRecord
  2
ACAD
 70
     0
  0
ENDTAB
  0
TABLE
  2
DIMSTYLE
  5
A
330
0
100
AcDbSymbolTable
 70
     1
100
AcDbDimStyleTable
  0
DIMSTYLE
105
27
330
A
100
AcDbSymbolTableRecord
100
AcDbDimStyleTableRecord
  2
Standard
 70
     0
340
11
  0
ENDTAB
  0
TABLE
  2
BLOCK_RECORD
  5
1
330
0
100
AcDbSymbolTable
 70
   113
  0
BLOCK_RECORD
  5
1F
330
1
100
AcDbSymbolTableRecord
100
AcDbBlockTableRecord
  2
*Model_Space
340
22
  0
BLOCK_RECORD
  5
1B
330
1
100
AcDbSymbolTableRecord
100
AcDbBlockTableRecord
  2
*Paper_Space
340
1E
  0
BLOCK_RECORD
  5
23
330
1
100
AcDbSymbolTableRecord
100
AcDbBlockTableRecord
  2
*Paper_Space0
340
26
  0
BLOCK_RECORD
  5
3C
330
1
100
AcDbSymbolTableRecord
100
AcDbBlockTableRecord
  2
block 2
340
0
102
{BLKREFS
331
3D
102
}
  0
BLOCK_RECORD
  5
40
330
1
100
AcDbSymbolTableRecord
100
AcDbBlockTableRecord
  2
block 3
340
0
102
{BLKREFS
331
41
102
}
  0
BLOCK_RECORD
  5
4C
330
1
100
AcDbSymbolTableRecord
100
AcDbBlockTableRecord
  2
block 4
340
0
102
{BLKREFS
331
4D
102
}
  0
BLOCK_RECORD
  5
50
330
1
100
AcDbSymbolTableRecord
100
AcDbBlockTableRecord
  2
block 5
340
0
102
{BLKREFS
331
51
102
}
  0
BLOCK_RECORD
  5
5C
330
1
100
AcDbSymbolTableRecord
100
AcDbBlockTableRecord
  2
block 6
340
0
102
{BLKREFS
331
5D
102
}
  0
BLOCK_RECORD
  5
60
330
1
100
AcDbSymbolTableRecord
100
AcDbBlockTableRecord
  2
block 7
340
0
102
{BLKREFS
331
61
102
}
  0
BLOCK_RECORD
  5
66
330
1
100
AcDbSymbolTableRecord
100
AcDbBlockTableRecord
  2
block 8
340
0
102
{BLKREFS
331
67
102
}
  0
BLOCK_RECORD
  5
6A
330
1
100
AcDbSymbolTableRecord
100
AcDbBlockTableRecord
  2
block 9
340
0
102
{BLKREFS
331
6B
102
}
  0
BLOCK_RECORD
  5
72
330
1
100
AcDbSymbolTableRecord
100
AcDbBlockTableRecord
  2
block 10
340
0
102
{BLKREFS
331
73
102
}
  0
BLOCK_RECORD
  5
76
330
1
100
AcDbSymbolTableRecord
100
AcDbBlockTableRecord
  2
block 11
340
0
102
{BLKREFS
331
77
102
}
  0
BLOCK_RECORD
  5
7C
330
1
100
AcDbSymbolTableRecord
100
AcDbBlockTableRecord
  2
block 12
340
0
102
{BLKREFS
331
7D
102
}
  0
BLOCK_RECORD
  5
80
330
1
100
AcDbSymbolTableRecord
100
AcDbBlockTableRecord
  2
block 13
340
0
102
{BLKREFS
331
81
102
}
  0
BLOCK_RECORD
  5
86
330
1
100
AcDbSymbolTableRecord
100
AcDbBlockTableRecord
  2
block 14
340
0
102
{BLKREFS
331
87
102
}
  0
BLOCK_RECORD
  5
8C
330
1
100
AcDbSymbolTableRecord
100
AcDbBlockTableRecord
  2
block 15
340
0
102
{BLKREFS
331
8D
102
}
  0
BLOCK_RECORD
  5
96
330
1
100
AcDbSymbolTableRecord
100
AcDbBlockTableRecord
  2
block 16
340
0
102
{BLKREFS
331
97
102
}
  0
BLOCK_RECORD
  5
9A
330
1
100
AcDbSymbolTableRecord
100
AcDbBlockTableRecord
  2
block 17
340
0
102
{BLKREFS
331
9B
102
}
  0
BLOCK_RECORD
  5
A0
330
1
100
AcDbSymbolTableRecord
100
AcDbBlockTableRecord
  2
block 18
340
0
102
{BLKREFS
331
A1
102
}
  0
BLOCK_RECORD
  5
A4
330
1
100
AcDbSymbolTableRecord
100
AcDbBlockTableRecord
  2
block 19
340
0
102
{BLKREFS
331
A5
102
}
  0
BLOCK_RECORD
  5
AA
330
1
100
AcDbSymbolTableRecord
100
AcDbBlockTableRecord
  2
block 20
340
0
102
{BLKREFS
331
AB
102
}
  0
BLOCK_RECORD
  5
AE
330
1
100
AcDbSymbolTableRecord
100
AcDbBlockTableRecord
  2
block 21
340
0
102
{BLKREFS
331
AF
102
}
  0
BLOCK_RECORD
  5
B4
330
1
100
AcDbSymbolTableRecord
100
AcDbBlockTableRecord
  2
block 22
340
0
102
{BLKREFS
331
B5
102
}
  0
BLOCK_RECORD
  5
B8
330
1
100
AcDbSymbolTableRecord
100
AcDbBlockTableRecord
  2
block 23
340
0
102
{BLKREFS
331
B9
102
}
  0
BLOCK_RECORD
  5
BC
330
1
100
AcDbSymbolTableRecord
100
AcDbBlockTableRecord
  2
block 24
340
0
102
{BLKREFS
331
BD
102
}
  0
BLOCK_RECORD
  5
C2
330
1
100
AcDbSymbolTableRecord
100
AcDbBlockTableRecord
  2
block 25
340
0
102
{BLKREFS
331
C3
102
}
  0
BLOCK_RECORD
  5
C6
330
1
100
AcDbSymbolTableRecord
100
AcDbBlockTableRecord
  2
block 26
340
0
102
{BLKREFS
331
C7
102
}
  0
BLOCK_RECORD
  5
CA
330
1
100
AcDbSymbolTableRecord
100
AcDbBlockTableRecord
  2
block 27
340
0
102
{BLKREFS
331
CB
102
}
  0
BLOCK_RECORD
  5
D0
330
1
100
AcDbSymbolTableRecord
100
AcDbBlockTableRecord
  2
block 28
340
0
102
{BLKREFS
331
D1
102
}
  0
BLOCK_RECORD
  5
D4
330
1
100
AcDbSymbolTableRecord
100
AcDbBlockTableRecord
  2
block 29
340
0
102
{BLKREFS
331
D5
102
}
  0
BLOCK_RECORD
  5
DA
330
1
100
AcDbSymbolTableRecord
100
AcDbBlockTableRecord
  2
block 30
340
0
102
{BLKREFS
331
DB
102
}
  0
BLOCK_RECORD
  5
DE
330
1
100
AcDbSymbolTableRecord
100
AcDbBlockTableRecord
  2
block 31
340
0
102
{BLKREFS
331
DF
102
}
  0
BLOCK_RECORD
  5
E4
330
1
100
AcDbSymbolTableRecord
100
AcDbBlockTableRecord
  2
block 32
340
0
102
{BLKREFS
331
E5
102
}
  0
BLOCK_RECORD
  5
E8
330
1
100
AcDbSymbolTableRecord
100
AcDbBlockTableRecord
  2
block 33
340
0
102
{BLKREFS
331
E9
102
}
  0
BLOCK_RECORD
  5
EC
330
1
100
AcDbSymbolTableRecord
100
AcDbBlockTableRecord
  2
block 34
340
0
102
{BLKREFS
331
ED
102
}
  0
BLOCK_RECORD
  5
F0
330
1
100
AcDbSymbolTableRecord
100
AcDbBlockTableRecord
  2
block 35
340
0
102
{BLKREFS
331
F1
102
}
  0
BLOCK_RECORD
  5
F6
330
1
100
AcDbSymbolTableRecord
100
AcDbBlockTableRecord
  2
block 36
340
0
102
{BLKREFS
331
F7
102
}
  0
BLOCK_RECORD
  5
FA
330
1
100
AcDbSymbolTableRecord
100
AcDbBlockTableRecord
  2
block 37
340
0
102
{BLKREFS
331
FB
102
}
  0
BLOCK_RECORD
  5
100
330
1
100
AcDbSymbolTableRecord
100
AcDbBlockTableRecord
  2
block 38
340
0
102
{BLKREFS
331
101
102
}
  0
BLOCK_RECORD
  5
104
330
1
100
AcDbSymbolTableRecord
100
AcDbBlockTableRecord
  2
block 39
340
0
102
{BLKREFS
331
105
102
}
  0
BLOCK_RECORD
  5
10C
330
1
100
AcDbSymbolTableRecord
100
AcDbBlockTableRecord
  2
block 40
340
0
102
{BLKREFS
331
10D
102
}
  0
BLOCK_RECORD
  5
110
330
1
100
AcDbSymbolTableRecord
100
AcDbBlockTableRecord
  2
block 41
340
0
102
{BLKREFS
331
111
102
}
  0
BLOCK_RECORD
  5
114
330
1
100
AcDbSymbolTableRecord
100
AcDbBlockTableRecord
  2
block 42
340
0
102
{BLKREFS
331
115
102
}
  0
BLOCK_RECORD
  5
118
330
1
100
AcDbSymbolTableRecord
100
AcDbBlockTableRecord
  2
block 43
340
0
102
{BLKREFS
331
119
102
}
  0
BLOCK_RECORD
  5
124
330
1
100
AcDbSymbolTableRecord
100
AcDbBlockTableRecord
  2
block 44
340
0
102
{BLKREFS
331
125
102
}
  0
BLOCK_RECORD
  5
128
330
1
100
AcDbSymbolTableRecord
100
AcDbBlockTableRecord
  2
block 45
340
0
102
{BLKREFS
331
129
102
}
  0
BLOCK_RECORD
  5
134
330
1
100
AcDbSymbolTableRecord
100
AcDbBlockTableRecord
  2
block 46
340
0
102
{BLKREFS
331
135
102
}
  0
BLOCK_RECORD
  5
138
330
1
100
AcDbSymbolTableRecord
100
AcDbBlockTableRecord
  2
block 47
340
0
102
{BLKREFS
331
139
102
}
  0
BLOCK_RECORD
  5
13E
330
1
100
AcDbSymbolTableRecord
100
AcDbBlockTableRecord
  2
block 48
340
0
102
{BLKREFS
331
13F
102
}
  0
BLOCK_RECORD
  5
142
330
1
100
AcDbSymbolTableRecord
100
AcDbBlockTableRecord
  2
block 49
340
0
102
{BLKREFS
331
143
102
}
  0
BLOCK_RECORD
  5
148
330
1
100
AcDbSymbolTableRecord
100
AcDbBlockTableRecord
  2
block 50
340
0
102
{BLKREFS
331
149
102
}
  0
BLOCK_RECORD
  5
14C
330
1
100
AcDbSymbolTableRecord
100
AcDbBlockTableRecord
  2
block 51
340
0
102
{BLKREFS
331
14D
102
}
  0
BLOCK_RECORD
  5
150
330
1
100
AcDbSymbolTableRecord
100
AcDbBlockTableRecord
  2
block 52
340
0
102
{BLKREFS
331
151
102
}
  0
BLOCK_RECORD
  5
156
330
1
100
AcDbSymbolTableRecord
100
AcDbBlockTableRecord
  2
block 53
340
0
102
{BLKREFS
331
157
102
}
  0
BLOCK_RECORD
  5
15A
330
1
100
AcDbSymbolTableRecord
100
AcDbBlockTableRecord
  2
block 54
340
0
102
{BLKREFS
331
15B
102
}
  0
BLOCK_RECORD
  5
160
330
1
100
AcDbSymbolTableRecord
100
AcDbBlockTableRecord
  2
block 55
340
0
102
{BLKREFS
331
161
102
}
  0
BLOCK_RECORD
  5
164
330
1
100
AcDbSymbolTableRecord
100
AcDbBlockTableRecord
  2
block 56
340
0
102
{BLKREFS
331
165
102
}
  0
BLOCK_RECORD
  5
16A
330
1
100
AcDbSymbolTableRecord
100
AcDbBlockTableRecord
  2
block 57
340
0
102
{BLKREFS
331
16B
102
}
  0
BLOCK_RECORD
  5
16E
330
1
100
AcDbSymbolTableRecord
100
AcDbBlockTableRecord
  2
block 58
340
0
102
{BLKREFS
331
16F
102
}
  0
BLOCK_RECORD
  5
172
330
1
100
AcDbSymbolTableRecord
100
AcDbBlockTableRecord
  2
block 59
340
0
102
{BLKREFS
331
173
102
}
  0
BLOCK_RECORD
  5
176
330
1
100
AcDbSymbolTableRecord
100
AcDbBlockTableRecord
  2
block 60
340
0
102
{BLKREFS
331
177
102
}
  0
BLOCK_RECORD
  5
17A
330
1
100
AcDbSymbolTableRecord
100
AcDbBlockTableRecord
  2
block 61
340
0
102
{BLKREFS
331
17B
102
}
  0
BLOCK_RECORD
  5
180
330
1
100
AcDbSymbolTableRecord
100
AcDbBlockTableRecord
  2
block 62
340
0
102
{BLKREFS
331
181
102
}
  0
BLOCK_RECORD
  5
184
330
1
100
AcDbSymbolTableRecord
100
AcDbBlockTableRecord
  2
block 63
340
0
102
{BLKREFS
331
185
102
}
  0
BLOCK_RECORD
  5
18A
330
1
100
AcDbSymbolTableRecord
100
AcDbBlockTableRecord
  2
block 64
340
0
102
{BLKREFS
331
18B
102
}
  0
BLOCK_RECORD
  5
18E
330
1
100
AcDbSymbolTableRecord
100
AcDbBlockTableRecord
  2
block 65
340
0
102
{BLKREFS
331
18F
102
}
  0
BLOCK_RECORD
  5
192
330
1
100
AcDbSymbolTableRecord
100
AcDbBlockTableRecord
  2
block 66
340
0
102
{BLKREFS
331
193
102
}
  0
BLOCK_RECORD
  5
198
330
1
100
AcDbSymbolTableRecord
100
AcDbBlockTableRecord
  2
block 67
340
0
102
{BLKREFS
331
199
102
}
  0
BLOCK_RECORD
  5
19C
330
1
100
AcDbSymbolTableRecord
100
AcDbBlockTableRecord
  2
block 68
340
0
102
{BLKREFS
331
19D
102
}
  0
BLOCK_RECORD
  5
1A2
330
1
100
AcDbSymbolTableRecord
100
AcDbBlockTableRecord
  2
block 69
340
0
102
{BLKREFS
331
1A3
102
}
  0
BLOCK_RECORD
  5
1A6
330
1
100
AcDbSymbolTableRecord
100
AcDbBlockTableRecord
  2
block 70
340
0
102
{BLKREFS
331
1A7
102
}
  0
BLOCK_RECORD
  5
1AA
330
1
100
AcDbSymbolTableRecord
100
AcDbBlockTableRecord
  2
block 71
340
0
102
{BLKREFS
331
1AB
102
}
  0
BLOCK_RECORD
  5
1B0
330
1
100
AcDbSymbolTableRecord
100
AcDbBlockTableRecord
  2
block 72
340
0
102
{BLKREFS
331
1B1
102
}
  0
BLOCK_RECORD
  5
1B4
330
1
100
AcDbSymbolTableRecord
100
AcDbBlockTableRecord
  2
block 73
340
0
102
{BLKREFS
331
1B5
102
}
  0
BLOCK_RECORD
  5
1BA
330
1
100
AcDbSymbolTableRecord
100
AcDbBlockTableRecord
  2
block 74
340
0
102
{BLKREFS
331
1BB
102
}
  0
BLOCK_RECORD
  5
1BE
330
1
100
AcDbSymbolTableRecord
100
AcDbBlockTableRecord
  2
block 75
340
0
102
{BLKREFS
331
1BF
102
}
  0
BLOCK_RECORD
  5
1C2
330
1
100
AcDbSymbolTableRecord
100
AcDbBlockTableRecord
  2
block 76
340
0
102
{BLKREFS
331
1C3
102
}
  0
BLOCK_RECORD
  5
1C8
330
1
100
AcDbSymbolTableRecord
100
AcDbBlockTableRecord
  2
block 77
340
0
102
{BLKREFS
331
1C9
102
}
  0
BLOCK_RECORD
  5
1CC
330
1
100
AcDbSymbolTableRecord
100
AcDbBlockTableRecord
  2
block 78
340
0
102
{BLKREFS
331
1CD
102
}
  0
BLOCK_RECORD
  5
1D2
330
1
100
AcDbSymbolTableRecord
100
AcDbBlockTableRecord
  2
block 79
340
0
102
{BLKREFS
331
1D3
102
}
  0
BLOCK_RECORD
  5
1D6
330
1
100
AcDbSymbolTableRecord
100
AcDbBlockTableRecord
  2
block 80
340
0
102
{BLKREFS
331
1D7
102
}
  0
BLOCK_RECORD
  5
1DA
330
1
100
AcDbSymbolTableRecord
100
AcDbBlockTableRecord
  2
block 81
340
0
102
{BLKREFS
331
1DB
102
}
  0
BLOCK_RECORD
  5
1E0
330
1
100
AcDbSymbolTableRecord
100
AcDbBlockTableRecord
  2
block 82
340
0
102
{BLKREFS
331
1E1
102
}
  0
BLOCK_RECORD
  5
1E4
330
1
100
AcDbSymbolTableRecord
100
AcDbBlockTableRecord
  2
block 83
340
0
102
{BLKREFS
331
1E5
102
}
  0
BLOCK_RECORD
  5
1E8
330
1
100
AcDbSymbolTableRecord
100
AcDbBlockTableRecord
  2
block 84
340
0
102
{BLKREFS
331
1E9
102
}
  0
BLOCK_RECORD
  5
1EE
330
1
100
AcDbSymbolTableRecord
100
AcDbBlockTableRecord
  2
block 85
340
0
102
{BLKREFS
331
1EF
102
}
  0
BLOCK_RECORD
  5
1F2
330
1
100
AcDbSymbolTableRecord
100
AcDbBlockTableRecord
  2
block 86
340
0
102
{BLKREFS
331
1F3
102
}
  0
BLOCK_RECORD
  5
1F8
330
1
100
AcDbSymbolTableRecord
100
AcDbBlockTableRecord
  2
block 87
340
0
102
{BLKREFS
331
1F9
102
}
  0
BLOCK_RECORD
  5
1FC
330
1
100
AcDbSymbolTableRecord
100
AcDbBlockTableRecord
  2
block 88
340
0
102
{BLKREFS
331
1FD
102
}
  0
BLOCK_RECORD
  5
200
330
1
100
AcDbSymbolTableRecord
100
AcDbBlockTableRecord
  2
block 89
340
0
102
{BLKREFS
331
201
102
}
  0
BLOCK_RECORD
  5
204
330
1
100
AcDbSymbolTableRecord
100
AcDbBlockTableRecord
  2
block 90
340
0
102
{BLKREFS
331
205
102
}
  0
BLOCK_RECORD
  5
20A
330
1
100
AcDbSymbolTableRecord
100
AcDbBlockTableRecord
  2
block 91
340
0
102
{BLKREFS
331
20B
102
}
  0
BLOCK_RECORD
  5
20E
330
1
100
AcDbSymbolTableRecord
100
AcDbBlockTableRecord
  2
block 92
340
0
102
{BLKREFS
331
20F
102
}
  0
BLOCK_RECORD
  5
212
330
1
100
AcDbSymbolTableRecord
100
AcDbBlockTableRecord
  2
block 93
340
0
102
{BLKREFS
331
213
102
}
  0
BLOCK_RECORD
  5
218
330
1
100
AcDbSymbolTableRecord
100
AcDbBlockTableRecord
  2
block 94
340
0
102
{BLKREFS
331
219
102
}
  0
BLOCK_RECORD
  5
21C
330
1
100
AcDbSymbolTableRecord
100
AcDbBlockTableRecord
  2
block 95
340
0
102
{BLKREFS
331
21D
102
}
  0
BLOCK_RECORD
  5
221
330
1
100
AcDbSymbolTableRecord
100
AcDbBlockTableRecord
  2
block 96
340
0
102
{BLKREFS
331
222
102
}
  0
BLOCK_RECORD
  5
225
330
1
100
AcDbSymbolTableRecord
100
AcDbBlockTableRecord
  2
block 97
340
0
102
{BLKREFS
331
226
102
}
  0
BLOCK_RECORD
  5
22A
330
1
100
AcDbSymbolTableRecord
100
AcDbBlockTableRecord
  2
block 98
340
0
102
{BLKREFS
331
22B
102
}
  0
BLOCK_RECORD
  5
22E
330
1
100
AcDbSymbolTableRecord
100
AcDbBlockTableRecord
  2
block 99
340
0
102
{BLKREFS
331
22F
102
}
  0
BLOCK_RECORD
  5
232
330
1
100
AcDbSymbolTableRecord
100
AcDbBlockTableRecord
  2
block 100
340
0
102
{BLKREFS
331
233
102
}
  0
BLOCK_RECORD
  5
236
330
1
100
AcDbSymbolTableRecord
100
AcDbBlockTableRecord
  2
block 101
340
0
102
{BLKREFS
331
237
102
}
  0
BLOCK_RECORD
  5
23C
330
1
100
AcDbSymbolTableRecord
100
AcDbBlockTableRecord
  2
block 102
340
0
102
{BLKREFS
331
23D
102
}
  0
BLOCK_RECORD
  5
240
330
1
100
AcDbSymbolTableRecord
100
AcDbBlockTableRecord
  2
block 103
340
0
102
{BLKREFS
331
241
102
}
  0
BLOCK_RECORD
  5
244
330
1
100
AcDbSymbolTableRecord
100
AcDbBlockTableRecord
  2
block 104
340
0
102
{BLKREFS
331
245
102
}
  0
BLOCK_RECORD
  5
24A
330
1
100
AcDbSymbolTableRecord
100
AcDbBlockTableRecord
  2
block 105
340
0
102
{BLKREFS
331
24B
102
}
  0
BLOCK_RECORD
  5
24E
330
1
100
AcDbSymbolTableRecord
100
AcDbBlockTableRecord
  2
block 106
340
0
102
{BLKREFS
331
24F
102
}
  0
BLOCK_RECORD
  5
254
330
1
100
AcDbSymbolTableRecord
100
AcDbBlockTableRecord
  2
block 107
340
0
102
{BLKREFS
331
255
102
}
  0
BLOCK_RECORD
  5
258
330
1
100
AcDbSymbolTableRecord
100
AcDbBlockTableRecord
  2
block 108
340
0
102
{BLKREFS
331
259
102
}
  0
BLOCK_RECORD
  5
25C
330
1
100
AcDbSymbolTableRecord
100
AcDbBlockTableRecord
  2
block 109
340
0
102
{BLKREFS
331
25D
102
}
  0
BLOCK_RECORD
  5
262
330
1
100
AcDbSymbolTableRecord
100
AcDbBlockTableRecord
  2
block 110
340
0
102
{BLKREFS
331
263
102
}
  0
BLOCK_RECORD
  5
266
330
1
100
AcDbSymbolTableRecord
100
AcDbBlockTableRecord
  2
block 111
340
0
102
{BLKREFS
331
267
102
}
  0
BLOCK_RECORD
  5
26C
330
1
100
AcDbSymbolTableRecord
100
AcDbBlockTableRecord
  2
block 112
340
0
102
{BLKREFS
331
26D
102
}
  0
BLOCK_RECORD
  5
270
330
1
100
AcDbSymbolTableRecord
100
AcDbBlockTableRecord
  2
block 113
340
0
102
{BLKREFS
331
271
102
}
  0
ENDTAB
  0
ENDSEC
  0
SECTION
  2
BLOCKS
  0
BLOCK
  5
20
330
1F
100
AcDbEntity
  8
0
100
AcDbBlockBegin
  2
*Model_Space
 70
     0
 71
     0
 10
0.0
 20
0.0
 30
0.0
  3
*Model_Space
  1

  0
ENDBLK
  5
21
330
1F
100
AcDbEntity
  8
0
100
AcDbBlockEnd
  0
BLOCK
  5
1C
330
1B
100
AcDbEntity
 67
     1
  8
0
100
AcDbBlockBegin
  2
*Paper_Space
 70
     0
 71
     0
 10
0.0
 20
0.0
 30
0.0
  3
*Paper_Space
  1

  0
ENDBLK
  5
1D
330
1B
100
AcDbEntity
 67
     1
  8
0
100
AcDbBlockEnd
  0
BLOCK
  5
24
330
23
100
AcDbEntity
  8
0
100
AcDbBlockBegin
  2
*Paper_Space0
 70
     0
 71
     0
 10
0.0
 20
0.0
 30
0.0
  3
*Paper_Space0
  1

  0
ENDBLK
  5
25
330
23
100
AcDbEntity
  8
0
100
AcDbBlockEnd
  0
BLOCK
  5
3E
330
3C
100
AcDbEntity
  8
0
100
AcDbBlockBegin
  2
block 2
 70
     0
 71
     0
 10
0.0
 20
0.0
 30
0.0
  3
block 2
  1

  0
INSERT
  5
41
330
3C
100
AcDbEntity
  8
Layer 1
100
AcDbBlockReference
  2
block 3
 10
0.0
 20
0.0
 30
0.0
  0
ENDBLK
  5
3F
330
3C
100
AcDbEntity
  8
0
100
AcDbBlockEnd
  0
BLOCK
  5
42
330
40
100
AcDbEntity
  8
0
100
AcDbBlockBegin
  2
block 3
 70
     0
 71
     0
 10
0.0
 20
0.0
 30
0.0
  3
block 3
  1

  0
POLYLINE
  5
44
330
40
100
AcDbEntity
  8
Layer 1
370
     0
100
AcDb2dPolyline
 66
     1
 10
0.0
 20
0.0
 30
0.0
  0
VERTEX
  5
45
330
44
100
AcDbEntity
  8
Layer 1
370
     0
100
AcDbVertex
100
AcDb2dVertex
 10
66.05810546875
 20
-184.216796875
 30
0.0
  0
VERTEX
  5
46
330
44
100
AcDbEntity
  8
Layer 1
370
     0
100
AcDbVertex
100
AcDb2dVertex
 10
52.23388671875
 20
-184.216796875
 30
0.0
  0
VERTEX
  5
47
330
44
100
AcDbEntity
  8
Layer 1
370
     0
100
AcDbVertex
100
AcDb2dVertex
 10
52.23388671875
 20
-169.2431640625
 30
0.0
  0
VERTEX
  5
48
330
44
100
AcDbEntity
  8
Layer 1
370
     0
100
AcDbVertex
100
AcDb2dVertex
 10
66.05810546875
 20
-169.2431640625
 30
0.0
  0
VERTEX
  5
49
330
44
100
AcDbEntity
  8
Layer 1
370
     0
100
AcDbVertex
100
AcDb2dVertex
 10
66.05810546875
 20
-184.216796875
 30
0.0
  0
SEQEND
  5
4A
330
44
100
AcDbEntity
  8
Layer 1
370
     0
  0
HATCH
  5
4B
330
40
100
AcDbEntity
  8
Layer 1
 62
    17
420
  7487019
100
AcDbHatch
 10
0.0
 20
0.0
 30
0.0
210
0.0
220
0.0
230
1.0
  2
SOLID
 70
     1
 71
     0
 91
        1
 92
        1
 93
        4
 72
     1
 10
66.05810546875
 20
-184.216796875
 11
52.23388671875
 21
-184.216796875
 72
     1
 10
52.23388671875
 20
-184.216796875
 11
52.23388671875
 21
-169.2431640625
 72
     1
 10
52.23388671875
 20
-169.2431640625
 11
66.05810546875
 21
-169.2431640625
 72
     1
 10
66.05810546875
 20
-169.2431640625
 11
66.05810546875
 21
-184.216796875
 97
        0
 75
     2
 76
     1
 98
        0
  0
ENDBLK
  5
43
330
40
100
AcDbEntity
  8
0
100
AcDbBlockEnd
  0
BLOCK
  5
4E
330
4C
100
AcDbEntity
  8
0
100
AcDbBlockBegin
  2
block 4
 70
     0
 71
     0
 10
0.0
 20
0.0
 30
0.0
  3
block 4
  1

  0
INSERT
  5
51
330
4C
100
AcDbEntity
  8
Layer 1
100
AcDbBlockReference
  2
block 5
 10
0.0
 20
0.0
 30
0.0
  0
ENDBLK
  5
4F
330
4C
100
AcDbEntity
  8
0
100
AcDbBlockEnd
  0
BLOCK
  5
52
330
50
100
AcDbEntity
  8
0
100
AcDbBlockBegin
  2
block 5
 70
     0
 71
     0
 10
0.0
 20
0.0
 30
0.0
  3
block 5
  1

  0
POLYLINE
  5
54
330
50
100
AcDbEntity
  8
Layer 1
370
     0
100
AcDb2dPolyline
 66
     1
 10
0.0
 20
0.0
 30
0.0
  0
VERTEX
  5
55
330
54
100
AcDbEntity
  8
Layer 1
370
     0
100
AcDbVertex
100
AcDb2dVertex
 10
90.1630859375
 20
-184.216796875
 30
0.0
  0
VERTEX
  5
56
330
54
100
AcDbEntity
  8
Layer 1
370
     0
100
AcDbVertex
100
AcDb2dVertex
 10
76.3359375
 20
-184.216796875
 30
0.0
  0
VERTEX
  5
57
330
54
100
AcDbEntity
  8
Layer 1
370
     0
100
AcDbVertex
100
AcDb2dVertex
 10
76.3359375
 20
-169.2431640625
 30
0.0
  0
VERTEX
  5
58
330
54
100
AcDbEntity
  8
Layer 1
370
     0
100
AcDbVertex
100
AcDb2dVertex
 10
90.1630859375
 20
-169.2431640625
 30
0.0
  0
VERTEX
  5
59
330
54
100
AcDbEntity
  8
Layer 1
370
     0
100
AcDbVertex
100
AcDb2dVertex
 10
90.1630859375
 20
-184.216796875
 30
0.0
  0
SEQEND
  5
5A
330
54
100
AcDbEntity
  8
Layer 1
370
     0
  0
HATCH
  5
5B
330
50
100
AcDbEntity
  8
Layer 1
 62
    25
420
  9332049
100
AcDbHatch
 10
0.0
 20
0.0
 30
0.0
210
0.0
220
0.0
230
1.0
  2
SOLID
 70
     1
 71
     0
 91
        1
 92
        1
 93
        4
 72
     1
 10
90.1630859375
 20
-184.216796875
 11
76.3359375
 21
-184.216796875
 72
     1
 10
76.3359375
 20
-184.216796875
 11
76.3359375
 21
-169.2431640625
 72
     1
 10
76.3359375
 20
-169.2431640625
 11
90.1630859375
 21
-169.2431640625
 72
     1
 10
90.1630859375
 20
-169.2431640625
 11
90.1630859375
 21
-184.216796875
 97
        0
 75
     2
 76
     1
 98
        0
  0
ENDBLK
  5
53
330
50
100
AcDbEntity
  8
0
100
AcDbBlockEnd
  0
BLOCK
  5
5E
330
5C
100
AcDbEntity
  8
0
100
AcDbBlockBegin
  2
block 6
 70
     0
 71
     0
 10
0.0
 20
0.0
 30
0.0
  3
block 6
  1

  0
INSERT
  5
61
330
5C
100
AcDbEntity
  8
Layer 1
100
AcDbBlockReference
  2
block 7
 10
0.0
 20
0.0
 30
0.0
  0
ENDBLK
  5
5F
330
5C
100
AcDbEntity
  8
0
100
AcDbBlockEnd
  0
BLOCK
  5
62
330
60
100
AcDbEntity
  8
0
100
AcDbBlockBegin
  2
block 7
 70
     0
 71
     0
 10
0.0
 20
0.0
 30
0.0
  3
block 7
  1

  0
SPLINE
  5
64
330
60
100
AcDbEntity
  8
Layer 1
370
     0
100
AcDbSpline
210
0.0
220
0.0
230
1.0
 70
    11
 71
     3
 72
    14
 73
    10
 74
     0
 42
0.0000000001
 43
0.0000000001
 40
0.0
 40
0.0
 40
0.0
 40
0.0
 40
1.0
 40
1.0
 40
1.0
 40
2.0
 40
2.0
 40
2.0
 40
3.0
 40
3.0
 40
3.0
 40
3.0
 10
59.146484375
 20
-187.5849609375
 30
0.0
 10
53.763671875
 20
-187.5849609375
 30
0.0
 10
49.4013671875
 20
-191.947265625
 30
0.0
 10
49.4013671875
 20
-197.3310546875
 30
0.0
 10
49.4013671875
 20
-197.3310546875
 30
0.0
 10
68.890625
 20
-197.3310546875
 30
0.0
 10
68.890625
 20
-197.3310546875
 30
0.0
 10
68.890625
 20
-191.947265625
 30
0.0
 10
64.5283203125
 20
-187.5849609375
 30
0.0
 10
59.146484375
 20
-187.5849609375
 30
0.0
  0
HATCH
  5
65
330
60
100
AcDbEntity
  8
Layer 1
 62
    31
420
 16107417
100
AcDbHatch
 10
0.0
 20
0.0
 30
0.0
210
0.0
220
0.0
230
1.0
  2
SOLID
 70
     1
 71
     0
 91
        1
 92
        1
 93
        1
 72
     4
 94
        3
 73
     0
 74
     1
 95
       14
 96
       10
 40
0.0
 40
0.0
 40
0.0
 40
0.0
 40
1.0
 40
1.0
 40
1.0
 40
2.0
 40
2.0
 40
2.0
 40
3.0
 40
3.0
 40
3.0
 40
3.0
 10
59.146484375
 20
-187.5849609375
 10
53.763671875
 20
-187.5849609375
 10
49.4013671875
 20
-191.947265625
 10
49.4013671875
 20
-197.3310546875
 10
49.4013671875
 20
-197.3310546875
 10
68.890625
 20
-197.3310546875
 10
68.890625
 20
-197.3310546875
 10
68.890625
 20
-191.947265625
 10
64.5283203125
 20
-187.5849609375
 10
59.146484375
 20
-187.5849609375
 97
        0
 75
     2
 76
     1
 98
        0
  0
ENDBLK
  5
63
330
60
100
AcDbEntity
  8
0
100
AcDbBlockEnd
  0
BLOCK
  5
68
330
66
100
AcDbEntity
  8
0
100
AcDbBlockBegin
  2
block 8
 70
     0
 71
     0
 10
0.0
 20
0.0
 30
0.0
  3
block 8
  1

  0
INSERT
  5
6B
330
66
100
AcDbEntity
  8
Layer 1
100
AcDbBlockReference
  2
block 9
 10
0.0
 20
0.0
 30
0.0
  0
ENDBLK
  5
69
330
66
100
AcDbEntity
  8
0
100
AcDbBlockEnd
  0
BLOCK
  5
6C
330
6A
100
AcDbEntity
  8
0
100
AcDbBlockBegin
  2
block 9
 70
     0
 71
     0
 10
0.0
 20
0.0
 30
0.0
  3
block 9
  1

  0
SPLINE
  5
6E
330
6A
100
AcDbEntity
  8
Layer 1
370
     0
100
AcDbSpline
210
0.0
220
0.0
230
1.0
 70
    11
 71
     3
 72
    14
 73
    10
 74
     0
 42
0.0000000001
 43
0.0000000001
 40
0.0
 40
0.0
 40
0.0
 40
0.0
 40
1.0
 40
1.0
 40
1.0
 40
2.0
 40
2.0
 40
2.0
 40
3.0
 40
3.0
 40
3.0
 40
3.0
 10
83.248046875
 20
-187.5849609375
 30
0.0
 10
77.8671875
 20
-187.5849609375
 30
0.0
 10
73.5029296875
 20
-191.947265625
 30
0.0
 10
73.5029296875
 20
-197.3310546875
 30
0.0
 10
73.5029296875
 20
-197.3310546875
 30
0.0
 10
92.99609375
 20
-197.3310546875
 30
0.0
 10
92.99609375
 20
-197.3310546875
 30
0.0
 10
92.99609375
 20
-191.947265625
 30
0.0
 10
88.6318359375
 20
-187.5849609375
 30
0.0
 10
83.248046875
 20
-187.5849609375
 30
0.0
  0
HATCH
  5
6F
330
6A
100
AcDbEntity
  8
Layer 1
 62
    31
420
 16107417
100
AcDbHatch
 10
0.0
 20
0.0
 30
0.0
210
0.0
220
0.0
230
1.0
  2
SOLID
 70
     1
 71
     0
 91
        1
 92
        1
 93
        1
 72
     4
 94
        3
 73
     0
 74
     1
 95
       14
 96
       10
 40
0.0
 40
0.0
 40
0.0
 40
0.0
 40
1.0
 40
1.0
 40
1.0
 40
2.0
 40
2.0
 40
2.0
 40
3.0
 40
3.0
 40
3.0
 40
3.0
 10
83.248046875
 20
-187.5849609375
 10
77.8671875
 20
-187.5849609375
 10
73.5029296875
 20
-191.947265625
 10
73.5029296875
 20
-197.3310546875
 10
73.5029296875
 20
-197.3310546875
 10
92.99609375
 20
-197.3310546875
 10
92.99609375
 20
-197.3310546875
 10
92.99609375
 20
-191.947265625
 10
88.6318359375
 20
-187.5849609375
 10
83.248046875
 20
-187.5849609375
 97
        0
 75
     2
 76
     1
 98
        0
  0
ENDBLK
  5
6D
330
6A
100
AcDbEntity
  8
0
100
AcDbBlockEnd
  0
BLOCK
  5
74
330
72
100
AcDbEntity
  8
0
100
AcDbBlockBegin
  2
block 10
 70
     0
 71
     0
 10
0.0
 20
0.0
 30
0.0
  3
block 10
  1

  0
INSERT
  5
77
330
72
100
AcDbEntity
  8
Layer 1
100
AcDbBlockReference
  2
block 11
 10
0.0
 20
0.0
 30
0.0
  0
ENDBLK
  5
75
330
72
100
AcDbEntity
  8
0
100
AcDbBlockEnd
  0
BLOCK
  5
78
330
76
100
AcDbEntity
  8
0
100
AcDbBlockBegin
  2
block 11
 70
     0
 71
     0
 10
0.0
 20
0.0
 30
0.0
  3
block 11
  1

  0
SPLINE
  5
7A
330
76
100
AcDbEntity
  8
Layer 1
370
     0
100
AcDbSpline
210
0.0
220
0.0
230
1.0
 70
    11
 71
     3
 72
    17
 73
    13
 74
     0
 42
0.0000000001
 43
0.0000000001
 40
0.0
 40
0.0
 40
0.0
 40
0.0
 40
1.0
 40
1.0
 40
1.0
 40
2.0
 40
2.0
 40
2.0
 40
3.0
 40
3.0
 40
3.0
 40
4.0
 40
4.0
 40
4.0
 40
4.0
 10
133.154296875
 20
-158.5546875
 30
0.0
 10
133.154296875
 20
-165.1845703125
 30
0.0
 10
127.7802734375
 20
-170.5595703125
 30
0.0
 10
121.1484375
 20
-170.5595703125
 30
0.0
 10
114.517578125
 20
-170.5595703125
 30
0.0
 10
109.1435546875
 20
-165.1845703125
 30
0.0
 10
109.1435546875
 20
-158.5546875
 30
0.0
 10
109.1435546875
 20
-151.923828125
 30
0.0
 10
114.517578125
 20
-146.546875
 30
0.0
 10
121.1484375
 20
-146.546875
 30
0.0
 10
127.7802734375
 20
-146.546875
 30
0.0
 10
133.154296875
 20
-151.923828125
 30
0.0
 10
133.154296875
 20
-158.5546875
 30
0.0
  0
HATCH
  5
7B
330
76
100
AcDbEntity
  8
Layer 1
 62
    17
420
  7487019
100
AcDbHatch
 10
0.0
 20
0.0
 30
0.0
210
0.0
220
0.0
230
1.0
  2
SOLID
 70
     1
 71
     0
 91
        1
 92
        1
 93
        1
 72
     4
 94
        3
 73
     0
 74
     1
 95
       17
 96
       13
 40
0.0
 40
0.0
 40
0.0
 40
0.0
 40
1.0
 40
1.0
 40
1.0
 40
2.0
 40
2.0
 40
2.0
 40
3.0
 40
3.0
 40
3.0
 40
4.0
 40
4.0
 40
4.0
 40
4.0
 10
133.154296875
 20
-158.5546875
 10
133.154296875
 20
-165.1845703125
 10
127.7802734375
 20
-170.5595703125
 10
121.1484375
 20
-170.5595703125
 10
114.517578125
 20
-170.5595703125
 10
109.1435546875
 20
-165.1845703125
 10
109.1435546875
 20
-158.5546875
 10
109.1435546875
 20
-151.923828125
 10
114.517578125
 20
-146.546875
 10
121.1484375
 20
-146.546875
 10
127.7802734375
 20
-146.546875
 10
133.154296875
 20
-151.923828125
 10
133.154296875
 20
-158.5546875
 97
        0
 75
     2
 76
     1
 98
        0
  0
ENDBLK
  5
79
330
76
100
AcDbEntity
  8
0
100
AcDbBlockEnd
  0
BLOCK
  5
7E
330
7C
100
AcDbEntity
  8
0
100
AcDbBlockBegin
  2
block 12
 70
     0
 71
     0
 10
0.0
 20
0.0
 30
0.0
  3
block 12
  1

  0
INSERT
  5
81
330
7C
100
AcDbEntity
  8
Layer 1
100
AcDbBlockReference
  2
block 13
 10
0.0
 20
0.0
 30
0.0
  0
ENDBLK
  5
7F
330
7C
100
AcDbEntity
  8
0
100
AcDbBlockEnd
  0
BLOCK
  5
82
330
80
100
AcDbEntity
  8
0
100
AcDbBlockBegin
  2
block 13
 70
     0
 71
     0
 10
0.0
 20
0.0
 30
0.0
  3
block 13
  1

  0
SPLINE
  5
84
330
80
100
AcDbEntity
  8
Layer 1
370
     0
100
AcDbSpline
210
0.0
220
0.0
230
1.0
 70
    11
 71
     3
 72
    17
 73
    13
 74
     0
 42
0.0000000001
 43
0.0000000001
 40
0.0
 40
0.0
 40
0.0
 40
0.0
 40
1.0
 40
1.0
 40
1.0
 40
2.0
 40
2.0
 40
2.0
 40
3.0
 40
3.0
 40
3.0
 40
4.0
 40
4.0
 40
4.0
 40
4.0
 10
119.9150390625
 20
-184.216796875
 30
0.0
 10
119.9150390625
 20
-188.537109375
 30
0.0
 10
116.412109375
 20
-192.041015625
 30
0.0
 10
112.0908203125
 20
-192.041015625
 30
0.0
 10
107.76953125
 20
-192.041015625
 30
0.0
 10
104.2666015625
 20
-188.537109375
 30
0.0
 10
104.2666015625
 20
-184.216796875
 30
0.0
 10
104.2666015625
 20
-179.89453125
 30
0.0
 10
107.76953125
 20
-176.392578125
 30
0.0
 10
112.0908203125
 20
-176.392578125
 30
0.0
 10
116.412109375
 20
-176.392578125
 30
0.0
 10
119.9150390625
 20
-179.89453125
 30
0.0
 10
119.9150390625
 20
-184.216796875
 30
0.0
  0
HATCH
  5
85
330
80
100
AcDbEntity
  8
Layer 1
 62
   243
420
 14183545
100
AcDbHatch
 10
0.0
 20
0.0
 30
0.0
210
0.0
220
0.0
230
1.0
  2
SOLID
 70
     1
 71
     0
 91
        1
 92
        1
 93
        1
 72
     4
 94
        3
 73
     0
 74
     1
 95
       17
 96
       13
 40
0.0
 40
0.0
 40
0.0
 40
0.0
 40
1.0
 40
1.0
 40
1.0
 40
2.0
 40
2.0
 40
2.0
 40
3.0
 40
3.0
 40
3.0
 40
4.0
 40
4.0
 40
4.0
 40
4.0
 10
119.9150390625
 20
-184.216796875
 10
119.9150390625
 20
-188.537109375
 10
116.412109375
 20
-192.041015625
 10
112.0908203125
 20
-192.041015625
 10
107.76953125
 20
-192.041015625
 10
104.2666015625
 20
-188.537109375
 10
104.2666015625
 20
-184.216796875
 10
104.2666015625
 20
-179.89453125
 10
107.76953125
 20
-176.392578125
 10
112.0908203125
 20
-176.392578125
 10
116.412109375
 20
-176.392578125
 10
119.9150390625
 20
-179.89453125
 10
119.9150390625
 20
-184.216796875
 97
        0
 75
     2
 76
     1
 98
        0
  0
ENDBLK
  5
83
330
80
100
AcDbEntity
  8
0
100
AcDbBlockEnd
  0
BLOCK
  5
88
330
86
100
AcDbEntity
  8
0
100
AcDbBlockBegin
  2
block 14
 70
     0
 71
     0
 10
0.0
 20
0.0
 30
0.0
  3
block 14
  1

  0
SPLINE
  5
8A
330
86
100
AcDbEntity
  8
Layer 1
370
     0
100
AcDbSpline
210
0.0
220
0.0
230
1.0
 70
    11
 71
     3
 72
    17
 73
    13
 74
     0
 42
0.0000000001
 43
0.0000000001
 40
0.0
 40
0.0
 40
0.0
 40
0.0
 40
1.0
 40
1.0
 40
1.0
 40
2.0
 40
2.0
 40
2.0
 40
3.0
 40
3.0
 40
3.0
 40
4.0
 40
4.0
 40
4.0
 40
4.0
 10
197.5068359375
 20
-179.7607421875
 30
0.0
 10
197.5068359375
 20
-186.3916015625
 30
0.0
 10
192.130859375
 20
-191.7666015625
 30
0.0
 10
185.5
 20
-191.7666015625
 30
0.0
 10
178.8671875
 20
-191.7666015625
 30
0.0
 10
173.494140625
 20
-186.3916015625
 30
0.0
 10
173.494140625
 20
-179.7607421875
 30
0.0
 10
173.494140625
 20
-173.130859375
 30
0.0
 10
178.8671875
 20
-167.75390625
 30
0.0
 10
185.5
 20
-167.75390625
 30
0.0
 10
192.130859375
 20
-167.75390625
 30
0.0
 10
197.5068359375
 20
-173.130859375
 30
0.0
 10
197.5068359375
 20
-179.7607421875
 30
0.0
  0
HATCH
  5
8B
330
86
100
AcDbEntity
  8
Layer 1
 62
    25
420
  9332049
100
AcDbHatch
 10
0.0
 20
0.0
 30
0.0
210
0.0
220
0.0
230
1.0
  2
SOLID
 70
     1
 71
     0
 91
        1
 92
        1
 93
        1
 72
     4
 94
        3
 73
     0
 74
     1
 95
       17
 96
       13
 40
0.0
 40
0.0
 40
0.0
 40
0.0
 40
1.0
 40
1.0
 40
1.0
 40
2.0
 40
2.0
 40
2.0
 40
3.0
 40
3.0
 40
3.0
 40
4.0
 40
4.0
 40
4.0
 40
4.0
 10
197.5068359375
 20
-179.7607421875
 10
197.5068359375
 20
-186.3916015625
 10
192.130859375
 20
-191.7666015625
 10
185.5
 20
-191.7666015625
 10
178.8671875
 20
-191.7666015625
 10
173.494140625
 20
-186.3916015625
 10
173.494140625
 20
-179.7607421875
 10
173.494140625
 20
-173.130859375
 10
178.8671875
 20
-167.75390625
 10
185.5
 20
-167.75390625
 10
192.130859375
 20
-167.75390625
 10
197.5068359375
 20
-173.130859375
 10
197.5068359375
 20
-179.7607421875
 97
        0
 75
     2
 76
     1
 98
        0
  0
ENDBLK
  5
89
330
86
100
AcDbEntity
  8
0
100
AcDbBlockEnd
  0
BLOCK
  5
8E
330
8C
100
AcDbEntity
  8
0
100
AcDbBlockBegin
  2
block 15
 70
     0
 71
     0
 10
0.0
 20
0.0
 30
0.0
  3
block 15
  1

  0
SPLINE
  5
90
330
8C
100
AcDbEntity
  8
Layer 1
370
     0
100
AcDbSpline
210
0.0
220
0.0
230
1.0
 70
    11
 71
     3
 72
    17
 73
    13
 74
     0
 42
0.0000000001
 43
0.0000000001
 40
0.0
 40
0.0
 40
0.0
 40
0.0
 40
1.0
 40
1.0
 40
1.0
 40
2.0
 40
2.0
 40
2.0
 40
3.0
 40
3.0
 40
3.0
 40
4.0
 40
4.0
 40
4.0
 40
4.0
 10
168.6318359375
 20
-187.5849609375
 30
0.0
 10
168.6318359375
 20
-191.9052734375
 30
0.0
 10
165.1279296875
 20
-195.4091796875
 30
0.0
 10
160.80859375
 20
-195.4091796875
 30
0.0
 10
156.4892578125
 20
-195.4091796875
 30
0.0
 10
152.9833984375
 20
-191.9052734375
 30
0.0
 10
152.9833984375
 20
-187.5849609375
 30
0.0
 10
152.9833984375
 20
-183.2626953125
 30
0.0
 10
156.4892578125
 20
-179.7607421875
 30
0.0
 10
160.80859375
 20
-179.7607421875
 30
0.0
 10
165.1279296875
 20
-179.7607421875
 30
0.0
 10
168.6318359375
 20
-183.2626953125
 30
0.0
 10
168.6318359375
 20
-187.5849609375
 30
0.0
  0
HATCH
  5
91
330
8C
100
AcDbEntity
  8
Layer 1
 62
   243
420
 14183545
100
AcDbHatch
 10
0.0
 20
0.0
 30
0.0
210
0.0
220
0.0
230
1.0
  2
SOLID
 70
     1
 71
     0
 91
        1
 92
        1
 93
        1
 72
     4
 94
        3
 73
     0
 74
     1
 95
       17
 96
       13
 40
0.0
 40
0.0
 40
0.0
 40
0.0
 40
1.0
 40
1.0
 40
1.0
 40
2.0
 40
2.0
 40
2.0
 40
3.0
 40
3.0
 40
3.0
 40
4.0
 40
4.0
 40
4.0
 40
4.0
 10
168.6318359375
 20
-187.5849609375
 10
168.6318359375
 20
-191.9052734375
 10
165.1279296875
 20
-195.4091796875
 10
160.80859375
 20
-195.4091796875
 10
156.4892578125
 20
-195.4091796875
 10
152.9833984375
 20
-191.9052734375
 10
152.9833984375
 20
-187.5849609375
 10
152.9833984375
 20
-183.2626953125
 10
156.4892578125
 20
-179.7607421875
 10
160.80859375
 20
-179.7607421875
 10
165.1279296875
 20
-179.7607421875
 10
168.6318359375
 20
-183.2626953125
 10
168.6318359375
 20
-187.5849609375
 97
        0
 75
     2
 76
     1
 98
        0
  0
ENDBLK
  5
8F
330
8C
100
AcDbEntity
  8
0
100
AcDbBlockEnd
  0
BLOCK
  5
98
330
96
100
AcDbEntity
  8
0
100
AcDbBlockBegin
  2
block 16
 70
     0
 71
     0
 10
0.0
 20
0.0
 30
0.0
  3
block 16
  1

  0
INSERT
  5
9B
330
96
100
AcDbEntity
  8
Layer 1
100
AcDbBlockReference
  2
block 17
 10
0.0
 20
0.0
 30
0.0
  0
ENDBLK
  5
99
330
96
100
AcDbEntity
  8
0
100
AcDbBlockEnd
  0
BLOCK
  5
9C
330
9A
100
AcDbEntity
  8
0
100
AcDbBlockBegin
  2
block 17
 70
     0
 71
     0
 10
0.0
 20
0.0
 30
0.0
  3
block 17
  1

  0
SPLINE
  5
9E
330
9A
100
AcDbEntity
  8
Layer 1
370
     0
100
AcDbSpline
210
0.0
220
0.0
230
1.0
 70
    11
 71
     3
 72
    35
 73
    31
 74
     0
 42
0.0000000001
 43
0.0000000001
 40
0.0
 40
0.0
 40
0.0
 40
0.0
 40
1.0
 40
1.0
 40
1.0
 40
2.0
 40
2.0
 40
2.0
 40
3.0
 40
3.0
 40
3.0
 40
4.0
 40
4.0
 40
4.0
 40
5.0
 40
5.0
 40
5.0
 40
6.0
 40
6.0
 40
6.0
 40
7.0
 40
7.0
 40
7.0
 40
8.0
 40
8.0
 40
8.0
 40
9.0
 40
9.0
 40
9.0
 40
10.0
 40
10.0
 40
10.0
 40
10.0
 10
198.986328125
 20
-112.220703125
 30
0.0
 10
198.986328125
 20
-102.9833984375
 30
0.0
 10
191.49609375
 20
-95.494140625
 30
0.0
 10
182.2578125
 20
-95.494140625
 30
0.0
 10
174.455078125
 20
-95.494140625
 30
0.0
 10
167.919921875
 20
-100.8447265625
 30
0.0
 10
166.0703125
 20
-108.0712890625
 30
0.0
 10
164.22265625
 20
-100.8447265625
 30
0.0
 10
157.685546875
 20
-95.494140625
 30
0.0
 10
149.8828125
 20
-95.494140625
 30
0.0
 10
140.64453125
 20
-95.494140625
 30
0.0
 10
133.154296875
 20
-102.9833984375
 30
0.0
 10
133.154296875
 20
-112.220703125
 30
0.0
 10
133.154296875
 20
-121.4599609375
 30
0.0
 10
140.64453125
 20
-128.9482421875
 30
0.0
 10
149.8828125
 20
-128.9482421875
 30
0.0
 10
149.8828125
 20
-128.9482421875
 30
0.0
 10
149.8828125
 20
-137.5810546875
 30
0.0
 10
149.8828125
 20
-137.5810546875
 30
0.0
 10
149.8828125
 20
-146.8203125
 30
0.0
 10
157.373046875
 20
-154.3076171875
 30
0.0
 10
166.611328125
 20
-154.3076171875
 30
0.0
 10
175.849609375
 20
-154.3076171875
 30
0.0
 10
183.337890625
 20
-146.8203125
 30
0.0
 10
183.337890625
 20
-137.5810546875
 30
0.0
 10
183.337890625
 20
-137.5810546875
 30
0.0
 10
183.337890625
 20
-128.8935546875
 30
0.0
 10
183.337890625
 20
-128.8935546875
 30
0.0
 10
192.0703125
 20
-128.3349609375
 30
0.0
 10
198.986328125
 20
-121.0947265625
 30
0.0
 10
198.986328125
 20
-112.220703125
 30
0.0
  0
HATCH
  5
9F
330
9A
100
AcDbEntity
  8
Layer 1
 62
    31
420
 16107417
100
AcDbHatch
 10
0.0
 20
0.0
 30
0.0
210
0.0
220
0.0
230
1.0
  2
SOLID
 70
     1
 71
     0
 91
        1
 92
        1
 93
        1
 72
     4
 94
        3
 73
     0
 74
     1
 95
       35
 96
       31
 40
0.0
 40
0.0
 40
0.0
 40
0.0
 40
1.0
 40
1.0
 40
1.0
 40
2.0
 40
2.0
 40
2.0
 40
3.0
 40
3.0
 40
3.0
 40
4.0
 40
4.0
 40
4.0
 40
5.0
 40
5.0
 40
5.0
 40
6.0
 40
6.0
 40
6.0
 40
7.0
 40
7.0
 40
7.0
 40
8.0
 40
8.0
 40
8.0
 40
9.0
 40
9.0
 40
9.0
 40
10.0
 40
10.0
 40
10.0
 40
10.0
 10
198.986328125
 20
-112.220703125
 10
198.986328125
 20
-102.9833984375
 10
191.49609375
 20
-95.494140625
 10
182.2578125
 20
-95.494140625
 10
174.455078125
 20
-95.494140625
 10
167.919921875
 20
-100.8447265625
 10
166.0703125
 20
-108.0712890625
 10
164.22265625
 20
-100.8447265625
 10
157.685546875
 20
-95.494140625
 10
149.8828125
 20
-95.494140625
 10
140.64453125
 20
-95.494140625
 10
133.154296875
 20
-102.9833984375
 10
133.154296875
 20
-112.220703125
 10
133.154296875
 20
-121.4599609375
 10
140.64453125
 20
-128.9482421875
 10
149.8828125
 20
-128.9482421875
 10
149.8828125
 20
-128.9482421875
 10
149.8828125
 20
-137.5810546875
 10
149.8828125
 20
-137.5810546875
 10
149.8828125
 20
-146.8203125
 10
157.373046875
 20
-154.3076171875
 10
166.611328125
 20
-154.3076171875
 10
175.849609375
 20
-154.3076171875
 10
183.337890625
 20
-146.8203125
 10
183.337890625
 20
-137.5810546875
 10
183.337890625
 20
-137.5810546875
 10
183.337890625
 20
-128.8935546875
 10
183.337890625
 20
-128.8935546875
 10
192.0703125
 20
-128.3349609375
 10
198.986328125
 20
-121.0947265625
 10
198.986328125
 20
-112.220703125
 97
        0
 75
     2
 76
     1
 98
        0
  0
ENDBLK
  5
9D
330
9A
100
AcDbEntity
  8
0
100
AcDbBlockEnd
  0
BLOCK
  5
A2
330
A0
100
AcDbEntity
  8
0
100
AcDbBlockBegin
  2
block 18
 70
     0
 71
     0
 10
0.0
 20
0.0
 30
0.0
  3
block 18
  1

  0
INSERT
  5
A5
330
A0
100
AcDbEntity
  8
Layer 1
100
AcDbBlockReference
  2
block 19
 10
0.0
 20
0.0
 30
0.0
  0
ENDBLK
  5
A3
330
A0
100
AcDbEntity
  8
0
100
AcDbBlockEnd
  0
BLOCK
  5
A6
330
A4
100
AcDbEntity
  8
0
100
AcDbBlockBegin
  2
block 19
 70
     0
 71
     0
 10
0.0
 20
0.0
 30
0.0
  3
block 19
  1

  0
SPLINE
  5
A8
330
A4
100
AcDbEntity
  8
Layer 1
370
     0
100
AcDbSpline
210
0.0
220
0.0
230
1.0
 70
    11
 71
     3
 72
    17
 73
    13
 74
     0
 42
0.0000000001
 43
0.0000000001
 40
0.0
 40
0.0
 40
0.0
 40
0.0
 40
1.0
 40
1.0
 40
1.0
 40
2.0
 40
2.0
 40
2.0
 40
3.0
 40
3.0
 40
3.0
 40
4.0
 40
4.0
 40
4.0
 40
4.0
 10
93.3125
 20
-102.4296875
 30
0.0
 10
93.3125
 20
-103.76953125
 30
0.0
 10
92.2265625
 20
-104.85546875
 30
0.0
 10
90.884765625
 20
-104.85546875
 30
0.0
 10
89.54296875
 20
-104.85546875
 30
0.0
 10
88.458984375
 20
-103.76953125
 30
0.0
 10
88.458984375
 20
-102.4296875
 30
0.0
 10
88.458984375
 20
-101.0859375
 30
0.0
 10
89.54296875
 20
-100.00048828125
 30
0.0
 10
90.884765625
 20
-100.00048828125
 30
0.0
 10
92.2265625
 20
-100.00048828125
 30
0.0
 10
93.3125
 20
-101.0859375
 30
0.0
 10
93.3125
 20
-102.4296875
 30
0.0
  0
HATCH
  5
A9
330
A4
100
AcDbEntity
  8
Layer 1
 62
    28
420
  4200210
100
AcDbHatch
 10
0.0
 20
0.0
 30
0.0
210
0.0
220
0.0
230
1.0
  2
SOLID
 70
     1
 71
     0
 91
        1
 92
        1
 93
        1
 72
     4
 94
        3
 73
     0
 74
     1
 95
       17
 96
       13
 40
0.0
 40
0.0
 40
0.0
 40
0.0
 40
1.0
 40
1.0
 40
1.0
 40
2.0
 40
2.0
 40
2.0
 40
3.0
 40
3.0
 40
3.0
 40
4.0
 40
4.0
 40
4.0
 40
4.0
 10
93.3125
 20
-102.4296875
 10
93.3125
 20
-103.76953125
 10
92.2265625
 20
-104.85546875
 10
90.884765625
 20
-104.85546875
 10
89.54296875
 20
-104.85546875
 10
88.458984375
 20
-103.76953125
 10
88.458984375
 20
-102.4296875
 10
88.458984375
 20
-101.0859375
 10
89.54296875
 20
-100.00048828125
 10
90.884765625
 20
-100.00048828125
 10
92.2265625
 20
-100.00048828125
 10
93.3125
 20
-101.0859375
 10
93.3125
 20
-102.4296875
 97
        0
 75
     2
 76
     1
 98
        0
  0
ENDBLK
  5
A7
330
A4
100
AcDbEntity
  8
0
100
AcDbBlockEnd
  0
BLOCK
  5
AC
330
AA
100
AcDbEntity
  8
0
100
AcDbBlockBegin
  2
block 20
 70
     0
 71
     0
 10
0.0
 20
0.0
 30
0.0
  3
block 20
  1

  0
INSERT
  5
AF
330
AA
100
AcDbEntity
  8
Layer 1
100
AcDbBlockReference
  2
block 21
 10
0.0
 20
0.0
 30
0.0
  0
ENDBLK
  5
AD
330
AA
100
AcDbEntity
  8
0
100
AcDbBlockEnd
  0
BLOCK
  5
B0
330
AE
100
AcDbEntity
  8
0
100
AcDbBlockBegin
  2
block 21
 70
     0
 71
     0
 10
0.0
 20
0.0
 30
0.0
  3
block 21
  1

  0
SPLINE
  5
B2
330
AE
100
AcDbEntity
  8
Layer 1
370
     0
100
AcDbSpline
210
0.0
220
0.0
230
1.0
 70
    11
 71
     3
 72
    17
 73
    13
 74
     0
 42
0.0000000001
 43
0.0000000001
 40
0.0
 40
0.0
 40
0.0
 40
0.0
 40
1.0
 40
1.0
 40
1.0
 40
2.0
 40
2.0
 40
2.0
 40
3.0
 40
3.0
 40
3.0
 40
4.0
 40
4.0
 40
4.0
 40
4.0
 10
101.9453125
 20
-102.4296875
 30
0.0
 10
101.9453125
 20
-103.76953125
 30
0.0
 10
100.859375
 20
-104.85546875
 30
0.0
 10
99.517578125
 20
-104.85546875
 30
0.0
 10
98.177734375
 20
-104.85546875
 30
0.0
 10
97.087890625
 20
-103.76953125
 30
0.0
 10
97.087890625
 20
-102.4296875
 30
0.0
 10
97.087890625
 20
-101.0859375
 30
0.0
 10
98.177734375
 20
-100.00048828125
 30
0.0
 10
99.517578125
 20
-100.00048828125
 30
0.0
 10
100.859375
 20
-100.00048828125
 30
0.0
 10
101.9453125
 20
-101.0859375
 30
0.0
 10
101.9453125
 20
-102.4296875
 30
0.0
  0
HATCH
  5
B3
330
AE
100
AcDbEntity
  8
Layer 1
 62
    28
420
  4200210
100
AcDbHatch
 10
0.0
 20
0.0
 30
0.0
210
0.0
220
0.0
230
1.0
  2
SOLID
 70
     1
 71
     0
 91
        1
 92
        1
 93
        1
 72
     4
 94
        3
 73
     0
 74
     1
 95
       17
 96
       13
 40
0.0
 40
0.0
 40
0.0
 40
0.0
 40
1.0
 40
1.0
 40
1.0
 40
2.0
 40
2.0
 40
2.0
 40
3.0
 40
3.0
 40
3.0
 40
4.0
 40
4.0
 40
4.0
 40
4.0
 10
101.9453125
 20
-102.4296875
 10
101.9453125
 20
-103.76953125
 10
100.859375
 20
-104.85546875
 10
99.517578125
 20
-104.85546875
 10
98.177734375
 20
-104.85546875
 10
97.087890625
 20
-103.76953125
 10
97.087890625
 20
-102.4296875
 10
97.087890625
 20
-101.0859375
 10
98.177734375
 20
-100.00048828125
 10
99.517578125
 20
-100.00048828125
 10
100.859375
 20
-100.00048828125
 10
101.9453125
 20
-101.0859375
 10
101.9453125
 20
-102.4296875
 97
        0
 75
     2
 76
     1
 98
        0
  0
ENDBLK
  5
B1
330
AE
100
AcDbEntity
  8
0
100
AcDbBlockEnd
  0
BLOCK
  5
B6
330
B4
100
AcDbEntity
  8
0
100
AcDbBlockBegin
  2
block 22
 70
     0
 71
     0
 10
0.0
 20
0.0
 30
0.0
  3
block 22
  1

  0
INSERT
  5
B9
330
B4
100
AcDbEntity
  8
Layer 1
100
AcDbBlockReference
  2
block 23
 10
0.0
 20
0.0
 30
0.0
  0
ENDBLK
  5
B7
330
B4
100
AcDbEntity
  8
0
100
AcDbBlockEnd
  0
BLOCK
  5
BA
330
B8
100
AcDbEntity
  8
0
100
AcDbBlockBegin
  2
block 23
 70
     0
 71
     0
 10
0.0
 20
0.0
 30
0.0
  3
block 23
  1

  0
INSERT
  5
BD
330
B8
100
AcDbEntity
  8
Layer 1
100
AcDbBlockReference
  2
block 24
 10
0.0
 20
0.0
 30
0.0
  0
ENDBLK
  5
BB
330
B8
100
AcDbEntity
  8
0
100
AcDbBlockEnd
  0
BLOCK
  5
BE
330
BC
100
AcDbEntity
  8
0
100
AcDbBlockBegin
  2
block 24
 70
     0
 71
     0
 10
0.0
 20
0.0
 30
0.0
  3
block 24
  1

  0
SPLINE
  5
C0
330
BC
100
AcDbEntity
  8
Layer 1
370
     0
100
AcDbSpline
210
0.0
220
0.0
230
1.0
 70
    11
 71
     3
 72
    17
 73
    13
 74
     0
 42
0.0000000001
 43
0.0000000001
 40
0.0
 40
0.0
 40
0.0
 40
0.0
 40
1.0
 40
1.0
 40
1.0
 40
2.0
 40
2.0
 40
2.0
 40
3.0
 40
3.0
 40
3.0
 40
4.0
 40
4.0
 40
4.0
 40
4.0
 10
158.9833984375
 20
-47.6689453125
 30
0.0
 10
158.9833984375
 20
-50.9814453125
 30
0.0
 10
156.2978515625
 20
-53.6669921875
 30
0.0
 10
152.9873046875
 20
-53.6669921875
 30
0.0
 10
149.6728515625
 20
-53.6669921875
 30
0.0
 10
146.9833984375
 20
-50.9814453125
 30
0.0
 10
146.9833984375
 20
-47.6689453125
 30
0.0
 10
146.9833984375
 20
-44.3544921875
 30
0.0
 10
149.6728515625
 20
-41.666015625
 30
0.0
 10
152.9873046875
 20
-41.666015625
 30
0.0
 10
156.2978515625
 20
-41.666015625
 30
0.0
 10
158.9833984375
 20
-44.3544921875
 30
0.0
 10
158.9833984375
 20
-47.6689453125
 30
0.0
  0
HATCH
  5
C1
330
BC
100
AcDbEntity
  8
Layer 1
 62
    28
420
  4200210
100
AcDbHatch
 10
0.0
 20
0.0
 30
0.0
210
0.0
220
0.0
230
1.0
  2
SOLID
 70
     1
 71
     0
 91
        1
 92
        1
 93
        1
 72
     4
 94
        3
 73
     0
 74
     1
 95
       17
 96
       13
 40
0.0
 40
0.0
 40
0.0
 40
0.0
 40
1.0
 40
1.0
 40
1.0
 40
2.0
 40
2.0
 40
2.0
 40
3.0
 40
3.0
 40
3.0
 40
4.0
 40
4.0
 40
4.0
 40
4.0
 10
158.9833984375
 20
-47.6689453125
 10
158.9833984375
 20
-50.9814453125
 10
156.2978515625
 20
-53.6669921875
 10
152.9873046875
 20
-53.6669921875
 10
149.6728515625
 20
-53.6669921875
 10
146.9833984375
 20
-50.9814453125
 10
146.9833984375
 20
-47.6689453125
 10
146.9833984375
 20
-44.3544921875
 10
149.6728515625
 20
-41.666015625
 10
152.9873046875
 20
-41.666015625
 10
156.2978515625
 20
-41.666015625
 10
158.9833984375
 20
-44.3544921875
 10
158.9833984375
 20
-47.6689453125
 97
        0
 75
     2
 76
     1
 98
        0
  0
ENDBLK
  5
BF
330
BC
100
AcDbEntity
  8
0
100
AcDbBlockEnd
  0
BLOCK
  5
C4
330
C2
100
AcDbEntity
  8
0
100
AcDbBlockBegin
  2
block 25
 70
     0
 71
     0
 10
0.0
 20
0.0
 30
0.0
  3
block 25
  1

  0
INSERT
  5
C7
330
C2
100
AcDbEntity
  8
Layer 1
100
AcDbBlockReference
  2
block 26
 10
0.0
 20
0.0
 30
0.0
  0
ENDBLK
  5
C5
330
C2
100
AcDbEntity
  8
0
100
AcDbBlockEnd
  0
BLOCK
  5
C8
330
C6
100
AcDbEntity
  8
0
100
AcDbBlockBegin
  2
block 26
 70
     0
 71
     0
 10
0.0
 20
0.0
 30
0.0
  3
block 26
  1

  0
INSERT
  5
CB
330
C6
100
AcDbEntity
  8
Layer 1
100
AcDbBlockReference
  2
block 27
 10
0.0
 20
0.0
 30
0.0
  0
ENDBLK
  5
C9
330
C6
100
AcDbEntity
  8
0
100
AcDbBlockEnd
  0
BLOCK
  5
CC
330
CA
100
AcDbEntity
  8
0
100
AcDbBlockBegin
  2
block 27
 70
     0
 71
     0
 10
0.0
 20
0.0
 30
0.0
  3
block 27
  1

  0
SPLINE
  5
CE
330
CA
100
AcDbEntity
  8
Layer 1
370
     0
100
AcDbSpline
210
0.0
220
0.0
230
1.0
 70
    11
 71
     3
 72
    17
 73
    13
 74
     0
 42
0.0000000001
 43
0.0000000001
 40
0.0
 40
0.0
 40
0.0
 40
0.0
 40
1.0
 40
1.0
 40
1.0
 40
2.0
 40
2.0
 40
2.0
 40
3.0
 40
3.0
 40
3.0
 40
4.0
 40
4.0
 40
4.0
 40
4.0
 10
187.521484375
 20
-58.1455078125
 30
0.0
 10
187.521484375
 20
-61.4580078125
 30
0.0
 10
184.8359375
 20
-64.1435546875
 30
0.0
 10
181.521484375
 20
-64.1435546875
 30
0.0
 10
178.208984375
 20
-64.1435546875
 30
0.0
 10
175.521484375
 20
-61.4580078125
 30
0.0
 10
175.521484375
 20
-58.1455078125
 30
0.0
 10
175.521484375
 20
-54.8310546875
 30
0.0
 10
178.208984375
 20
-52.142578125
 30
0.0
 10
181.521484375
 20
-52.142578125
 30
0.0
 10
184.8359375
 20
-52.142578125
 30
0.0
 10
187.521484375
 20
-54.8310546875
 30
0.0
 10
187.521484375
 20
-58.1455078125
 30
0.0
  0
HATCH
  5
CF
330
CA
100
AcDbEntity
  8
Layer 1
 62
    28
420
  4200210
100
AcDbHatch
 10
0.0
 20
0.0
 30
0.0
210
0.0
220
0.0
230
1.0
  2
SOLID
 70
     1
 71
     0
 91
        1
 92
        1
 93
        1
 72
     4
 94
        3
 73
     0
 74
     1
 95
       17
 96
       13
 40
0.0
 40
0.0
 40
0.0
 40
0.0
 40
1.0
 40
1.0
 40
1.0
 40
2.0
 40
2.0
 40
2.0
 40
3.0
 40
3.0
 40
3.0
 40
4.0
 40
4.0
 40
4.0
 40
4.0
 10
187.521484375
 20
-58.1455078125
 10
187.521484375
 20
-61.4580078125
 10
184.8359375
 20
-64.1435546875
 10
181.521484375
 20
-64.1435546875
 10
178.208984375
 20
-64.1435546875
 10
175.521484375
 20
-61.4580078125
 10
175.521484375
 20
-58.1455078125
 10
175.521484375
 20
-54.8310546875
 10
178.208984375
 20
-52.142578125
 10
181.521484375
 20
-52.142578125
 10
184.8359375
 20
-52.142578125
 10
187.521484375
 20
-54.8310546875
 10
187.521484375
 20
-58.1455078125
 97
        0
 75
     2
 76
     1
 98
        0
  0
ENDBLK
  5
CD
330
CA
100
AcDbEntity
  8
0
100
AcDbBlockEnd
  0
BLOCK
  5
D2
330
D0
100
AcDbEntity
  8
0
100
AcDbBlockBegin
  2
block 28
 70
     0
 71
     0
 10
0.0
 20
0.0
 30
0.0
  3
block 28
  1

  0
INSERT
  5
D5
330
D0
100
AcDbEntity
  8
Layer 1
100
AcDbBlockReference
  2
block 29
 10
0.0
 20
0.0
 30
0.0
  0
ENDBLK
  5
D3
330
D0
100
AcDbEntity
  8
0
100
AcDbBlockEnd
  0
BLOCK
  5
D6
330
D4
100
AcDbEntity
  8
0
100
AcDbBlockBegin
  2
block 29
 70
     0
 71
     0
 10
0.0
 20
0.0
 30
0.0
  3
block 29
  1

  0
SPLINE
  5
D8
330
D4
100
AcDbEntity
  8
Layer 1
370
     0
100
AcDbSpline
210
0.0
220
0.0
230
1.0
 70
    11
 71
     3
 72
    17
 73
    13
 74
     0
 42
0.0000000001
 43
0.0000000001
 40
0.0
 40
0.0
 40
0.0
 40
0.0
 40
1.0
 40
1.0
 40
1.0
 40
2.0
 40
2.0
 40
2.0
 40
3.0
 40
3.0
 40
3.0
 40
4.0
 40
4.0
 40
4.0
 40
4.0
 10
145.4052734375
 20
-72.50634765625
 30
0.0
 10
145.4052734375
 20
-73.61083984375
 30
0.0
 10
144.5087890625
 20
-74.50732421875
 30
0.0
 10
143.4052734375
 20
-74.50732421875
 30
0.0
 10
142.2998046875
 20
-74.50732421875
 30
0.0
 10
141.4052734375
 20
-73.61083984375
 30
0.0
 10
141.4052734375
 20
-72.50634765625
 30
0.0
 10
141.4052734375
 20
-71.40087890625
 30
0.0
 10
142.2998046875
 20
-70.50537109375
 30
0.0
 10
143.4052734375
 20
-70.50537109375
 30
0.0
 10
144.5087890625
 20
-70.50537109375
 30
0.0
 10
145.4052734375
 20
-71.40087890625
 30
0.0
 10
145.4052734375
 20
-72.50634765625
 30
0.0
  0
HATCH
  5
D9
330
D4
100
AcDbEntity
  8
Layer 1
 62
   163
420
  5404089
100
AcDbHatch
 10
0.0
 20
0.0
 30
0.0
210
0.0
220
0.0
230
1.0
  2
SOLID
 70
     1
 71
     0
 91
        1
 92
        1
 93
        1
 72
     4
 94
        3
 73
     0
 74
     1
 95
       17
 96
       13
 40
0.0
 40
0.0
 40
0.0
 40
0.0
 40
1.0
 40
1.0
 40
1.0
 40
2.0
 40
2.0
 40
2.0
 40
3.0
 40
3.0
 40
3.0
 40
4.0
 40
4.0
 40
4.0
 40
4.0
 10
145.4052734375
 20
-72.50634765625
 10
145.4052734375
 20
-73.61083984375
 10
144.5087890625
 20
-74.50732421875
 10
143.4052734375
 20
-74.50732421875
 10
142.2998046875
 20
-74.50732421875
 10
141.4052734375
 20
-73.61083984375
 10
141.4052734375
 20
-72.50634765625
 10
141.4052734375
 20
-71.40087890625
 10
142.2998046875
 20
-70.50537109375
 10
143.4052734375
 20
-70.50537109375
 10
144.5087890625
 20
-70.50537109375
 10
145.4052734375
 20
-71.40087890625
 10
145.4052734375
 20
-72.50634765625
 97
        0
 75
     2
 76
     1
 98
        0
  0
ENDBLK
  5
D7
330
D4
100
AcDbEntity
  8
0
100
AcDbBlockEnd
  0
BLOCK
  5
DC
330
DA
100
AcDbEntity
  8
0
100
AcDbBlockBegin
  2
block 30
 70
     0
 71
     0
 10
0.0
 20
0.0
 30
0.0
  3
block 30
  1

  0
INSERT
  5
DF
330
DA
100
AcDbEntity
  8
Layer 1
100
AcDbBlockReference
  2
block 31
 10
0.0
 20
0.0
 30
0.0
  0
ENDBLK
  5
DD
330
DA
100
AcDbEntity
  8
0
100
AcDbBlockEnd
  0
BLOCK
  5
E0
330
DE
100
AcDbEntity
  8
0
100
AcDbBlockBegin
  2
block 31
 70
     0
 71
     0
 10
0.0
 20
0.0
 30
0.0
  3
block 31
  1

  0
SPLINE
  5
E2
330
DE
100
AcDbEntity
  8
Layer 1
370
     0
100
AcDbSpline
210
0.0
220
0.0
230
1.0
 70
    11
 71
     3
 72
    17
 73
    13
 74
     0
 42
0.0000000001
 43
0.0000000001
 40
0.0
 40
0.0
 40
0.0
 40
0.0
 40
1.0
 40
1.0
 40
1.0
 40
2.0
 40
2.0
 40
2.0
 40
3.0
 40
3.0
 40
3.0
 40
4.0
 40
4.0
 40
4.0
 40
4.0
 10
156.9853515625
 20
-72.50634765625
 30
0.0
 10
156.9853515625
 20
-73.61083984375
 30
0.0
 10
156.0888671875
 20
-74.50732421875
 30
0.0
 10
154.9833984375
 20
-74.50732421875
 30
0.0
 10
153.8798828125
 20
-74.50732421875
 30
0.0
 10
152.9833984375
 20
-73.61083984375
 30
0.0
 10
152.9833984375
 20
-72.50634765625
 30
0.0
 10
152.9833984375
 20
-71.40087890625
 30
0.0
 10
153.8798828125
 20
-70.50537109375
 30
0.0
 10
154.9833984375
 20
-70.50537109375
 30
0.0
 10
156.0888671875
 20
-70.50537109375
 30
0.0
 10
156.9853515625
 20
-71.40087890625
 30
0.0
 10
156.9853515625
 20
-72.50634765625
 30
0.0
  0
HATCH
  5
E3
330
DE
100
AcDbEntity
  8
Layer 1
 62
   163
420
  5404089
100
AcDbHatch
 10
0.0
 20
0.0
 30
0.0
210
0.0
220
0.0
230
1.0
  2
SOLID
 70
     1
 71
     0
 91
        1
 92
        1
 93
        1
 72
     4
 94
        3
 73
     0
 74
     1
 95
       17
 96
       13
 40
0.0
 40
0.0
 40
0.0
 40
0.0
 40
1.0
 40
1.0
 40
1.0
 40
2.0
 40
2.0
 40
2.0
 40
3.0
 40
3.0
 40
3.0
 40
4.0
 40
4.0
 40
4.0
 40
4.0
 10
156.9853515625
 20
-72.50634765625
 10
156.9853515625
 20
-73.61083984375
 10
156.0888671875
 20
-74.50732421875
 10
154.9833984375
 20
-74.50732421875
 10
153.8798828125
 20
-74.50732421875
 10
152.9833984375
 20
-73.61083984375
 10
152.9833984375
 20
-72.50634765625
 10
152.9833984375
 20
-71.40087890625
 10
153.8798828125
 20
-70.50537109375
 10
154.9833984375
 20
-70.50537109375
 10
156.0888671875
 20
-70.50537109375
 10
156.9853515625
 20
-71.40087890625
 10
156.9853515625
 20
-72.50634765625
 97
        0
 75
     2
 76
     1
 98
        0
  0
ENDBLK
  5
E1
330
DE
100
AcDbEntity
  8
0
100
AcDbBlockEnd
  0
BLOCK
  5
E6
330
E4
100
AcDbEntity
  8
0
100
AcDbBlockBegin
  2
block 32
 70
     0
 71
     0
 10
0.0
 20
0.0
 30
0.0
  3
block 32
  1

  0
INSERT
  5
E9
330
E4
100
AcDbEntity
  8
Layer 1
100
AcDbBlockReference
  2
block 33
 10
0.0
 20
0.0
 30
0.0
  0
ENDBLK
  5
E7
330
E4
100
AcDbEntity
  8
0
100
AcDbBlockEnd
  0
BLOCK
  5
EA
330
E8
100
AcDbEntity
  8
0
100
AcDbBlockBegin
  2
block 33
 70
     0
 71
     0
 10
0.0
 20
0.0
 30
0.0
  3
block 33
  1

  0
INSERT
  5
ED
330
E8
100
AcDbEntity
  8
Layer 1
100
AcDbBlockReference
  2
block 34
 10
0.0
 20
0.0
 30
0.0
  0
ENDBLK
  5
EB
330
E8
100
AcDbEntity
  8
0
100
AcDbBlockEnd
  0
BLOCK
  5
EE
330
EC
100
AcDbEntity
  8
0
100
AcDbBlockBegin
  2
block 34
 70
     0
 71
     0
 10
0.0
 20
0.0
 30
0.0
  3
block 34
  1

  0
INSERT
  5
F1
330
EC
100
AcDbEntity
  8
Layer 1
100
AcDbBlockReference
  2
block 35
 10
0.0
 20
0.0
 30
0.0
  0
ENDBLK
  5
EF
330
EC
100
AcDbEntity
  8
0
100
AcDbBlockEnd
  0
BLOCK
  5
F2
330
F0
100
AcDbEntity
  8
0
100
AcDbBlockBegin
  2
block 35
 70
     0
 71
     0
 10
0.0
 20
0.0
 30
0.0
  3
block 35
  1

  0
SPLINE
  5
F4
330
F0
100
AcDbEntity
  8
Layer 1
370
     0
100
AcDbSpline
210
0.0
220
0.0
230
1.0
 70
    11
 71
     3
 72
    29
 73
    25
 74
     0
 42
0.0000000001
 43
0.0000000001
 40
0.0
 40
0.0
 40
0.0
 40
0.0
 40
1.0
 40
1.0
 40
1.0
 40
2.0
 40
2.0
 40
2.0
 40
3.0
 40
3.0
 40
3.0
 40
4.0
 40
4.0
 40
4.0
 40
5.0
 40
5.0
 40
5.0
 40
6.0
 40
6.0
 40
6.0
 40
7.0
 40
7.0
 40
7.0
 40
8.0
 40
8.0
 40
8.0
 40
8.0
 10
117.861328125
 20
-131.3515625
 30
0.0
 10
111.76953125
 20
-131.3515625
 30
0.0
 10
109.341796875
 20
-127.92578125
 30
0.0
 10
109.2421875
 20
-127.779296875
 30
0.0
 10
109.068359375
 20
-127.52734375
 30
0.0
 10
109.130859375
 20
-127.181640625
 30
0.0
 10
109.3828125
 20
-127.005859375
 30
0.0
 10
109.63671875
 20
-126.83203125
 30
0.0
 10
109.982421875
 20
-126.896484375
 30
0.0
 10
110.154296875
 20
-127.150390625
 30
0.0
 10
110.25390625
 20
-127.28515625
 30
0.0
 10
112.3984375
 20
-130.240234375
 30
0.0
 10
117.861328125
 20
-130.240234375
 30
0.0
 10
122.876953125
 20
-130.240234375
 30
0.0
 10
125.576171875
 20
-127.13671875
 30
0.0
 10
125.6015625
 20
-127.103515625
 30
0.0
 10
125.80078125
 20
-126.87109375
 30
0.0
 10
126.15234375
 20
-126.84375
 30
0.0
 10
126.384765625
 20
-127.041015625
 30
0.0
 10
126.6171875
 20
-127.240234375
 30
0.0
 10
126.646484375
 20
-127.58984375
 30
0.0
 10
126.4453125
 20
-127.82421875
 30
0.0
 10
126.32421875
 20
-127.96875
 30
0.0
 10
123.384765625
 20
-131.3515625
 30
0.0
 10
117.861328125
 20
-131.3515625
 30
0.0
  0
HATCH
  5
F5
330
F0
100
AcDbEntity
  8
Layer 1
 62
    28
420
  4200210
100
AcDbHatch
 10
0.0
 20
0.0
 30
0.0
210
0.0
220
0.0
230
1.0
  2
SOLID
 70
     1
 71
     0
 91
        1
 92
        1
 93
        1
 72
     4
 94
        3
 73
     0
 74
     1
 95
       29
 96
       25
 40
0.0
 40
0.0
 40
0.0
 40
0.0
 40
1.0
 40
1.0
 40
1.0
 40
2.0
 40
2.0
 40
2.0
 40
3.0
 40
3.0
 40
3.0
 40
4.0
 40
4.0
 40
4.0
 40
5.0
 40
5.0
 40
5.0
 40
6.0
 40
6.0
 40
6.0
 40
7.0
 40
7.0
 40
7.0
 40
8.0
 40
8.0
 40
8.0
 40
8.0
 10
117.861328125
 20
-131.3515625
 10
111.76953125
 20
-131.3515625
 10
109.341796875
 20
-127.92578125
 10
109.2421875
 20
-127.779296875
 10
109.068359375
 20
-127.52734375
 10
109.130859375
 20
-127.181640625
 10
109.3828125
 20
-127.005859375
 10
109.63671875
 20
-126.83203125
 10
109.982421875
 20
-126.896484375
 10
110.154296875
 20
-127.150390625
 10
110.25390625
 20
-127.28515625
 10
112.3984375
 20
-130.240234375
 10
117.861328125
 20
-130.240234375
 10
122.876953125
 20
-130.240234375
 10
125.576171875
 20
-127.13671875
 10
125.6015625
 20
-127.103515625
 10
125.80078125
 20
-126.87109375
 10
126.15234375
 20
-126.84375
 10
126.384765625
 20
-127.041015625
 10
126.6171875
 20
-127.240234375
 10
126.646484375
 20
-127.58984375
 10
126.4453125
 20
-127.82421875
 10
126.32421875
 20
-127.96875
 10
123.384765625
 20
-131.3515625
 10
117.861328125
 20
-131.3515625
 97
        0
 75
     2
 76
     1
 98
        0
  0
ENDBLK
  5
F3
330
F0
100
AcDbEntity
  8
0
100
AcDbBlockEnd
  0
BLOCK
  5
F8
330
F6
100
AcDbEntity
  8
0
100
AcDbBlockBegin
  2
block 36
 70
     0
 71
     0
 10
0.0
 20
0.0
 30
0.0
  3
block 36
  1

  0
INSERT
  5
FB
330
F6
100
AcDbEntity
  8
Layer 1
100
AcDbBlockReference
  2
block 37
 10
0.0
 20
0.0
 30
0.0
  0
ENDBLK
  5
F9
330
F6
100
AcDbEntity
  8
0
100
AcDbBlockEnd
  0
BLOCK
  5
FC
330
FA
100
AcDbEntity
  8
0
100
AcDbBlockBegin
  2
block 37
 70
     0
 71
     0
 10
0.0
 20
0.0
 30
0.0
  3
block 37
  1

  0
SPLINE
  5
FE
330
FA
100
AcDbEntity
  8
Layer 1
370
     0
100
AcDbSpline
210
0.0
220
0.0
230
1.0
 70
     8
 71
     3
 72
    11
 73
     7
 74
     0
 42
0.0000000001
 43
0.0000000001
 40
0.0
 40
0.0
 40
0.0
 40
0.0
 40
1.0
 40
1.0
 40
1.0
 40
2.0
 40
2.0
 40
2.0
 40
2.0
 10
90.45263671875
 20
-165.638671875
 30
0.0
 10
87.32373046875
 20
-165.638671875
 30
0.0
 10
84.78662109375
 20
-163.1025390625
 30
0.0
 10
84.78662109375
 20
-159.97265625
 30
0.0
 10
84.78662109375
 20
-156.84375
 30
0.0
 10
87.32373046875
 20
-154.3076171875
 30
0.0
 10
90.45263671875
 20
-154.3076171875
 30
0.0
  0
HATCH
  5
FF
330
FA
100
AcDbEntity
  8
Layer 1
 62
    31
420
 16107417
100
AcDbHatch
 10
0.0
 20
0.0
 30
0.0
210
0.0
220
0.0
230
1.0
  2
SOLID
 70
     1
 71
     0
 91
        1
 92
        1
 93
        2
 72
     4
 94
        3
 73
     0
 74
     0
 95
       11
 96
        7
 40
0.0
 40
0.0
 40
0.0
 40
0.0
 40
1.0
 40
1.0
 40
1.0
 40
2.0
 40
2.0
 40
2.0
 40
2.0
 10
90.45263671875
 20
-165.638671875
 10
87.32373046875
 20
-165.638671875
 10
84.78662109375
 20
-163.1025390625
 10
84.78662109375
 20
-159.97265625
 10
84.78662109375
 20
-156.84375
 10
87.32373046875
 20
-154.3076171875
 10
90.45263671875
 20
-154.3076171875
 72
     1
 10
90.45263671875
 20
-154.3076171875
 11
90.45263671875
 21
-165.638671875
 97
        0
 75
     2
 76
     1
 98
        0
  0
ENDBLK
  5
FD
330
FA
100
AcDbEntity
  8
0
100
AcDbBlockEnd
  0
BLOCK
  5
102
330
100
100
AcDbEntity
  8
0
100
AcDbBlockBegin
  2
block 38
 70
     0
 71
     0
 10
0.0
 20
0.0
 30
0.0
  3
block 38
  1

  0
INSERT
  5
105
330
100
100
AcDbEntity
  8
Layer 1
100
AcDbBlockReference
  2
block 39
 10
0.0
 20
0.0
 30
0.0
  0
ENDBLK
  5
103
330
100
100
AcDbEntity
  8
0
100
AcDbBlockEnd
  0
BLOCK
  5
106
330
104
100
AcDbEntity
  8
0
100
AcDbBlockBegin
  2
block 39
 70
     0
 71
     0
 10
0.0
 20
0.0
 30
0.0
  3
block 39
  1

  0
SPLINE
  5
108
330
104
100
AcDbEntity
  8
Layer 1
370
     0
100
AcDbSpline
210
0.0
220
0.0
230
1.0
 70
     8
 71
     3
 72
    11
 73
     7
 74
     0
 42
0.0000000001
 43
0.0000000001
 40
0.0
 40
0.0
 40
0.0
 40
0.0
 40
1.0
 40
1.0
 40
1.0
 40
2.0
 40
2.0
 40
2.0
 40
2.0
 10
52.23388671875
 20
-166.2978515625
 30
0.0
 10
55.36181640625
 20
-166.2978515625
 30
0.0
 10
57.89794921875
 20
-163.76171875
 30
0.0
 10
57.89794921875
 20
-160.6318359375
 30
0.0
 10
57.89794921875
 20
-157.5029296875
 30
0.0
 10
55.36181640625
 20
-154.966796875
 30
0.0
 10
52.23388671875
 20
-154.966796875
 30
0.0
  0
HATCH
  5
109
330
104
100
AcDbEntity
  8
Layer 1
 62
    31
420
 16107417
100
AcDbHatch
 10
0.0
 20
0.0
 30
0.0
210
0.0
220
0.0
230
1.0
  2
SOLID
 70
     1
 71
     0
 91
        1
 92
        1
 93
        2
 72
     4
 94
        3
 73
     0
 74
     0
 95
       11
 96
        7
 40
0.0
 40
0.0
 40
0.0
 40
0.0
 40
1.0
 40
1.0
 40
1.0
 40
2.0
 40
2.0
 40
2.0
 40
2.0
 10
52.23388671875
 20
-166.2978515625
 10
55.36181640625
 20
-166.2978515625
 10
57.89794921875
 20
-163.76171875
 10
57.89794921875
 20
-160.6318359375
 10
57.89794921875
 20
-157.5029296875
 10
55.36181640625
 20
-154.966796875
 10
52.23388671875
 20
-154.966796875
 72
     1
 10
52.23388671875
 20
-154.966796875
 11
52.23388671875
 21
-166.2978515625
 97
        0
 75
     2
 76
     1
 98
        0
  0
ENDBLK
  5
107
330
104
100
AcDbEntity
  8
0
100
AcDbBlockEnd
  0
BLOCK
  5
10E
330
10C
100
AcDbEntity
  8
0
100
AcDbBlockBegin
  2
block 40
 70
     0
 71
     0
 10
0.0
 20
0.0
 30
0.0
  3
block 40
  1

  0
INSERT
  5
111
330
10C
100
AcDbEntity
  8
Layer 1
100
AcDbBlockReference
  2
block 41
 10
0.0
 20
0.0
 30
0.0
  0
INSERT
  5
149
330
10C
100
AcDbEntity
  8
Layer 1
100
AcDbBlockReference
  2
block 50
 10
0.0
 20
0.0
 30
0.0
  0
INSERT
  5
16B
330
10C
100
AcDbEntity
  8
Layer 1
100
AcDbBlockReference
  2
block 57
 10
0.0
 20
0.0
 30
0.0
  0
INSERT
  5
23D
330
10C
100
AcDbEntity
  8
Layer 1
100
AcDbBlockReference
  2
block 102
 10
0.0
 20
0.0
 30
0.0
  0
INSERT
  5
255
330
10C
100
AcDbEntity
  8
Layer 1
100
AcDbBlockReference
  2
block 107
 10
0.0
 20
0.0
 30
0.0
  0
ENDBLK
  5
10F
330
10C
100
AcDbEntity
  8
0
100
AcDbBlockEnd
  0
BLOCK
  5
112
330
110
100
AcDbEntity
  8
0
100
AcDbBlockBegin
  2
block 41
 70
     0
 71
     0
 10
0.0
 20
0.0
 30
0.0
  3
block 41
  1

  0
INSERT
  5
115
330
110
100
AcDbEntity
  8
Layer 1
100
AcDbBlockReference
  2
block 42
 10
0.0
 20
0.0
 30
0.0
  0
INSERT
  5
125
330
110
100
AcDbEntity
  8
Layer 1
100
AcDbBlockReference
  2
block 44
 10
0.0
 20
0.0
 30
0.0
  0
INSERT
  5
135
330
110
100
AcDbEntity
  8
Layer 1
100
AcDbBlockReference
  2
block 46
 10
0.0
 20
0.0
 30
0.0
  0
INSERT
  5
13F
330
110
100
AcDbEntity
  8
Layer 1
100
AcDbBlockReference
  2
block 48
 10
0.0
 20
0.0
 30
0.0
  0
ENDBLK
  5
113
330
110
100
AcDbEntity
  8
0
100
AcDbBlockEnd
  0
BLOCK
  5
116
330
114
100
AcDbEntity
  8
0
100
AcDbBlockBegin
  2
block 42
 70
     0
 71
     0
 10
0.0
 20
0.0
 30
0.0
  3
block 42
  1

  0
INSERT
  5
119
330
114
100
AcDbEntity
  8
Layer 1
100
AcDbBlockReference
  2
block 43
 10
0.0
 20
0.0
 30
0.0
  0
ENDBLK
  5
117
330
114
100
AcDbEntity
  8
0
100
AcDbBlockEnd
  0
BLOCK
  5
11A
330
118
100
AcDbEntity
  8
0
100
AcDbBlockBegin
  2
block 43
 70
     0
 71
     0
 10
0.0
 20
0.0
 30
0.0
  3
block 43
  1

  0
POLYLINE
  5
11C
330
118
100
AcDbEntity
  8
Layer 1
370
     0
100
AcDb2dPolyline
 66
     1
 10
0.0
 20
0.0
 30
0.0
  0
VERTEX
  5
11D
330
11C
100
AcDbEntity
  8
Layer 1
370
     0
100
AcDbVertex
100
AcDb2dVertex
 10
-65.28076171875
 20
-188.35546875
 30
0.0
  0
VERTEX
  5
11E
330
11C
100
AcDbEntity
  8
Layer 1
370
     0
100
AcDbVertex
100
AcDb2dVertex
 10
-79.10498046875
 20
-188.35546875
 30
0.0
  0
VERTEX
  5
11F
330
11C
100
AcDbEntity
  8
Layer 1
370
     0
100
AcDbVertex
100
AcDb2dVertex
 10
-79.10498046875
 20
-173.380859375
 30
0.0
  0
VERTEX
  5
120
330
11C
100
AcDbEntity
  8
Layer 1
370
     0
100
AcDbVertex
100
AcDb2dVertex
 10
-65.28076171875
 20
-173.380859375
 30
0.0
  0
VERTEX
  5
121
330
11C
100
AcDbEntity
  8
Layer 1
370
     0
100
AcDbVertex
100
AcDb2dVertex
 10
-65.28076171875
 20
-188.35546875
 30
0.0
  0
SEQEND
  5
122
330
11C
100
AcDbEntity
  8
Layer 1
370
     0
  0
HATCH
  5
123
330
118
100
AcDbEntity
  8
Layer 1
 62
    17
420
  7487019
100
AcDbHatch
 10
0.0
 20
0.0
 30
0.0
210
0.0
220
0.0
230
1.0
  2
SOLID
 70
     1
 71
     0
 91
        1
 92
        1
 93
        4
 72
     1
 10
-65.28076171875
 20
-188.35546875
 11
-79.10498046875
 21
-188.35546875
 72
     1
 10
-79.10498046875
 20
-188.35546875
 11
-79.10498046875
 21
-173.380859375
 72
     1
 10
-79.10498046875
 20
-173.380859375
 11
-65.28076171875
 21
-173.380859375
 72
     1
 10
-65.28076171875
 20
-173.380859375
 11
-65.28076171875
 21
-188.35546875
 97
        0
 75
     2
 76
     1
 98
        0
  0
ENDBLK
  5
11B
330
118
100
AcDbEntity
  8
0
100
AcDbBlockEnd
  0
BLOCK
  5
126
330
124
100
AcDbEntity
  8
0
100
AcDbBlockBegin
  2
block 44
 70
     0
 71
     0
 10
0.0
 20
0.0
 30
0.0
  3
block 44
  1

  0
INSERT
  5
129
330
124
100
AcDbEntity
  8
Layer 1
100
AcDbBlockReference
  2
block 45
 10
0.0
 20
0.0
 30
0.0
  0
ENDBLK
  5
127
330
124
100
AcDbEntity
  8
0
100
AcDbBlockEnd
  0
BLOCK
  5
12A
330
128
100
AcDbEntity
  8
0
100
AcDbBlockBegin
  2
block 45
 70
     0
 71
     0
 10
0.0
 20
0.0
 30
0.0
  3
block 45
  1

  0
POLYLINE
  5
12C
330
128
100
AcDbEntity
  8
Layer 1
370
     0
100
AcDb2dPolyline
 66
     1
 10
0.0
 20
0.0
 30
0.0
  0
VERTEX
  5
12D
330
12C
100
AcDbEntity
  8
Layer 1
370
     0
100
AcDbVertex
100
AcDb2dVertex
 10
-44.87353515625
 20
-188.35546875
 30
0.0
  0
VERTEX
  5
12E
330
12C
100
AcDbEntity
  8
Layer 1
370
     0
100
AcDbVertex
100
AcDb2dVertex
 10
-58.70068359375
 20
-188.35546875
 30
0.0
  0
VERTEX
  5
12F
330
12C
100
AcDbEntity
  8
Layer 1
370
     0
100
AcDbVertex
100
AcDb2dVertex
 10
-58.70068359375
 20
-173.380859375
 30
0.0
  0
VERTEX
  5
130
330
12C
100
AcDbEntity
  8
Layer 1
370
     0
100
AcDbVertex
100
AcDb2dVertex
 10
-44.87353515625
 20
-173.380859375
 30
0.0
  0
VERTEX
  5
131
330
12C
100
AcDbEntity
  8
Layer 1
370
     0
100
AcDbVertex
100
AcDb2dVertex
 10
-44.87353515625
 20
-188.35546875
 30
0.0
  0
SEQEND
  5
132
330
12C
100
AcDbEntity
  8
Layer 1
370
     0
  0
HATCH
  5
133
330
128
100
AcDbEntity
  8
Layer 1
 62
    25
420
  9332049
100
AcDbHatch
 10
0.0
 20
0.0
 30
0.0
210
0.0
220
0.0
230
1.0
  2
SOLID
 70
     1
 71
     0
 91
        1
 92
        1
 93
        4
 72
     1
 10
-44.87353515625
 20
-188.35546875
 11
-58.70068359375
 21
-188.35546875
 72
     1
 10
-58.70068359375
 20
-188.35546875
 11
-58.70068359375
 21
-173.380859375
 72
     1
 10
-58.70068359375
 20
-173.380859375
 11
-44.87353515625
 21
-173.380859375
 72
     1
 10
-44.87353515625
 20
-173.380859375
 11
-44.87353515625
 21
-188.35546875
 97
        0
 75
     2
 76
     1
 98
        0
  0
ENDBLK
  5
12B
330
128
100
AcDbEntity
  8
0
100
AcDbBlockEnd
  0
BLOCK
  5
136
330
134
100
AcDbEntity
  8
0
100
AcDbBlockBegin
  2
block 46
 70
     0
 71
     0
 10
0.0
 20
0.0
 30
0.0
  3
block 46
  1

  0
INSERT
  5
139
330
134
100
AcDbEntity
  8
Layer 1
100
AcDbBlockReference
  2
block 47
 10
0.0
 20
0.0
 30
0.0
  0
ENDBLK
  5
137
330
134
100
AcDbEntity
  8
0
100
AcDbBlockEnd
  0
BLOCK
  5
13A
330
138
100
AcDbEntity
  8
0
100
AcDbBlockBegin
  2
block 47
 70
     0
 71
     0
 10
0.0
 20
0.0
 30
0.0
  3
block 47
  1

  0
SPLINE
  5
13C
330
138
100
AcDbEntity
  8
Layer 1
370
     0
100
AcDbSpline
210
0.0
220
0.0
230
1.0
 70
    11
 71
     3
 72
    14
 73
    10
 74
     0
 42
0.0000000001
 43
0.0000000001
 40
0.0
 40
0.0
 40
0.0
 40
0.0
 40
1.0
 40
1.0
 40
1.0
 40
2.0
 40
2.0
 40
2.0
 40
3.0
 40
3.0
 40
3.0
 40
3.0
 10
-72.19287109375
 20
-183.126953125
 30
0.0
 10
-77.57568359375
 20
-183.126953125
 30
0.0
 10
-81.93798828125
 20
-187.48828125
 30
0.0
 10
-81.93798828125
 20
-192.873046875
 30
0.0
 10
-81.93798828125
 20
-192.873046875
 30
0.0
 10
-62.44873046875
 20
-192.873046875
 30
0.0
 10
-62.44873046875
 20
-192.873046875
 30
0.0
 10
-62.44873046875
 20
-187.48828125
 30
0.0
 10
-66.81103515625
 20
-183.126953125
 30
0.0
 10
-72.19287109375
 20
-183.126953125
 30
0.0
  0
HATCH
  5
13D
330
138
100
AcDbEntity
  8
Layer 1
 62
    31
420
 16107417
100
AcDbHatch
 10
0.0
 20
0.0
 30
0.0
210
0.0
220
0.0
230
1.0
  2
SOLID
 70
     1
 71
     0
 91
        1
 92
        1
 93
        1
 72
     4
 94
        3
 73
     0
 74
     1
 95
       14
 96
       10
 40
0.0
 40
0.0
 40
0.0
 40
0.0
 40
1.0
 40
1.0
 40
1.0
 40
2.0
 40
2.0
 40
2.0
 40
3.0
 40
3.0
 40
3.0
 40
3.0
 10
-72.19287109375
 20
-183.126953125
 10
-77.57568359375
 20
-183.126953125
 10
-81.93798828125
 20
-187.48828125
 10
-81.93798828125
 20
-192.873046875
 10
-81.93798828125
 20
-192.873046875
 10
-62.44873046875
 20
-192.873046875
 10
-62.44873046875
 20
-192.873046875
 10
-62.44873046875
 20
-187.48828125
 10
-66.81103515625
 20
-183.126953125
 10
-72.19287109375
 20
-183.126953125
 97
        0
 75
     2
 76
     1
 98
        0
  0
ENDBLK
  5
13B
330
138
100
AcDbEntity
  8
0
100
AcDbBlockEnd
  0
BLOCK
  5
140
330
13E
100
AcDbEntity
  8
0
100
AcDbBlockBegin
  2
block 48
 70
     0
 71
     0
 10
0.0
 20
0.0
 30
0.0
  3
block 48
  1

  0
INSERT
  5
143
330
13E
100
AcDbEntity
  8
Layer 1
100
AcDbBlockReference
  2
block 49
 10
0.0
 20
0.0
 30
0.0
  0
ENDBLK
  5
141
330
13E
100
AcDbEntity
  8
0
100
AcDbBlockEnd
  0
BLOCK
  5
144
330
142
100
AcDbEntity
  8
0
100
AcDbBlockBegin
  2
block 49
 70
     0
 71
     0
 10
0.0
 20
0.0
 30
0.0
  3
block 49
  1

  0
SPLINE
  5
146
330
142
100
AcDbEntity
  8
Layer 1
370
     0
100
AcDbSpline
210
0.0
220
0.0
230
1.0
 70
    11
 71
     3
 72
    14
 73
    10
 74
     0
 42
0.0000000001
 43
0.0000000001
 40
0.0
 40
0.0
 40
0.0
 40
0.0
 40
1.0
 40
1.0
 40
1.0
 40
2.0
 40
2.0
 40
2.0
 40
3.0
 40
3.0
 40
3.0
 40
3.0
 10
-51.78857421875
 20
-183.126953125
 30
0.0
 10
-57.16943359375
 20
-183.126953125
 30
0.0
 10
-61.53369140625
 20
-187.48828125
 30
0.0
 10
-61.53369140625
 20
-192.873046875
 30
0.0
 10
-61.53369140625
 20
-192.873046875
 30
0.0
 10
-42.04052734375
 20
-192.873046875
 30
0.0
 10
-42.04052734375
 20
-192.873046875
 30
0.0
 10
-42.04052734375
 20
-187.48828125
 30
0.0
 10
-46.40478515625
 20
-183.126953125
 30
0.0
 10
-51.78857421875
 20
-183.126953125
 30
0.0
  0
HATCH
  5
147
330
142
100
AcDbEntity
  8
Layer 1
 62
    31
420
 16107417
100
AcDbHatch
 10
0.0
 20
0.0
 30
0.0
210
0.0
220
0.0
230
1.0
  2
SOLID
 70
     1
 71
     0
 91
        1
 92
        1
 93
        1
 72
     4
 94
        3
 73
     0
 74
     1
 95
       14
 96
       10
 40
0.0
 40
0.0
 40
0.0
 40
0.0
 40
1.0
 40
1.0
 40
1.0
 40
2.0
 40
2.0
 40
2.0
 40
3.0
 40
3.0
 40
3.0
 40
3.0
 10
-51.78857421875
 20
-183.126953125
 10
-57.16943359375
 20
-183.126953125
 10
-61.53369140625
 20
-187.48828125
 10
-61.53369140625
 20
-192.873046875
 10
-61.53369140625
 20
-192.873046875
 10
-42.04052734375
 20
-192.873046875
 10
-42.04052734375
 20
-192.873046875
 10
-42.04052734375
 20
-187.48828125
 10
-46.40478515625
 20
-183.126953125
 10
-51.78857421875
 20
-183.126953125
 97
        0
 75
     2
 76
     1
 98
        0
  0
ENDBLK
  5
145
330
142
100
AcDbEntity
  8
0
100
AcDbBlockEnd
  0
BLOCK
  5
14A
330
148
100
AcDbEntity
  8
0
100
AcDbBlockBegin
  2
block 50
 70
     0
 71
     0
 10
0.0
 20
0.0
 30
0.0
  3
block 50
  1

  0
INSERT
  5
14D
330
148
100
AcDbEntity
  8
Layer 1
100
AcDbBlockReference
  2
block 51
 10
0.0
 20
0.0
 30
0.0
  0
INSERT
  5
157
330
148
100
AcDbEntity
  8
Layer 1
100
AcDbBlockReference
  2
block 53
 10
0.0
 20
0.0
 30
0.0
  0
INSERT
  5
161
330
148
100
AcDbEntity
  8
Layer 1
100
AcDbBlockReference
  2
block 55
 10
0.0
 20
0.0
 30
0.0
  0
ENDBLK
  5
14B
330
148
100
AcDbEntity
  8
0
100
AcDbBlockEnd
  0
BLOCK
  5
14E
330
14C
100
AcDbEntity
  8
0
100
AcDbBlockBegin
  2
block 51
 70
     0
 71
     0
 10
0.0
 20
0.0
 30
0.0
  3
block 51
  1

  0
INSERT
  5
151
330
14C
100
AcDbEntity
  8
Layer 1
100
AcDbBlockReference
  2
block 52
 10
0.0
 20
0.0
 30
0.0
  0
ENDBLK
  5
14F
330
14C
100
AcDbEntity
  8
0
100
AcDbBlockEnd
  0
BLOCK
  5
152
330
150
100
AcDbEntity
  8
0
100
AcDbBlockBegin
  2
block 52
 70
     0
 71
     0
 10
0.0
 20
0.0
 30
0.0
  3
block 52
  1

  0
SPLINE
  5
154
330
150
100
AcDbEntity
  8
Layer 1
370
     0
100
AcDbSpline
210
0.0
220
0.0
230
1.0
 70
    11
 71
     3
 72
    17
 73
    13
 74
     0
 42
0.0000000001
 43
0.0000000001
 40
0.0
 40
0.0
 40
0.0
 40
0.0
 40
1.0
 40
1.0
 40
1.0
 40
2.0
 40
2.0
 40
2.0
 40
3.0
 40
3.0
 40
3.0
 40
4.0
 40
4.0
 40
4.0
 40
4.0
 10
-83.98779296875
 20
-151.591796875
 30
0.0
 10
-84.70654296875
 20
-153.802734375
 30
0.0
 10
-85.10791015625
 20
-156.15625
 30
0.0
 10
-85.10791015625
 20
-158.607421875
 30
0.0
 10
-85.10791015625
 20
-171.123046875
 30
0.0
 10
-74.96142578125
 20
-181.26953125
 30
0.0
 10
-62.44873046875
 20
-181.26953125
 30
0.0
 10
-62.44873046875
 20
-181.26953125
 30
0.0
 10
-62.44873046875
 20
-162.3125
 30
0.0
 10
-62.44873046875
 20
-162.3125
 30
0.0
 10
-71.55224609375
 20
-162.3125
 30
0.0
 10
-79.50830078125
 20
-158.017578125
 30
0.0
 10
-83.98779296875
 20
-151.591796875
 30
0.0
  0
HATCH
  5
155
330
150
100
AcDbEntity
  8
Layer 1
 62
    17
420
  7487019
100
AcDbHatch
 10
0.0
 20
0.0
 30
0.0
210
0.0
220
0.0
230
1.0
  2
SOLID
 70
     1
 71
     0
 91
        1
 92
        1
 93
        1
 72
     4
 94
        3
 73
     0
 74
     1
 95
       17
 96
       13
 40
0.0
 40
0.0
 40
0.0
 40
0.0
 40
1.0
 40
1.0
 40
1.0
 40
2.0
 40
2.0
 40
2.0
 40
3.0
 40
3.0
 40
3.0
 40
4.0
 40
4.0
 40
4.0
 40
4.0
 10
-83.98779296875
 20
-151.591796875
 10
-84.70654296875
 20
-153.802734375
 10
-85.10791015625
 20
-156.15625
 10
-85.10791015625
 20
-158.607421875
 10
-85.10791015625
 20
-171.123046875
 10
-74.96142578125
 20
-181.26953125
 10
-62.44873046875
 20
-181.26953125
 10
-62.44873046875
 20
-181.26953125
 10
-62.44873046875
 20
-162.3125
 10
-62.44873046875
 20
-162.3125
 10
-71.55224609375
 20
-162.3125
 10
-79.50830078125
 20
-158.017578125
 10
-83.98779296875
 20
-151.591796875
 97
        0
 75
     2
 76
     1
 98
        0
  0
ENDBLK
  5
153
330
150
100
AcDbEntity
  8
0
100
AcDbBlockEnd
  0
BLOCK
  5
158
330
156
100
AcDbEntity
  8
0
100
AcDbBlockBegin
  2
block 53
 70
     0
 71
     0
 10
0.0
 20
0.0
 30
0.0
  3
block 53
  1

  0
INSERT
  5
15B
330
156
100
AcDbEntity
  8
Layer 1
100
AcDbBlockReference
  2
block 54
 10
0.0
 20
0.0
 30
0.0
  0
ENDBLK
  5
159
330
156
100
AcDbEntity
  8
0
100
AcDbBlockEnd
  0
BLOCK
  5
15C
330
15A
100
AcDbEntity
  8
0
100
AcDbBlockBegin
  2
block 54
 70
     0
 71
     0
 10
0.0
 20
0.0
 30
0.0
  3
block 54
  1

  0
SPLINE
  5
15E
330
15A
100
AcDbEntity
  8
Layer 1
370
     0
100
AcDbSpline
210
0.0
220
0.0
230
1.0
 70
    11
 71
     3
 72
    17
 73
    13
 74
     0
 42
0.0000000001
 43
0.0000000001
 40
0.0
 40
0.0
 40
0.0
 40
0.0
 40
1.0
 40
1.0
 40
1.0
 40
2.0
 40
2.0
 40
2.0
 40
3.0
 40
3.0
 40
3.0
 40
4.0
 40
4.0
 40
4.0
 40
4.0
 10
-62.44873046875
 20
-162.3125
 30
0.0
 10
-62.44873046875
 20
-162.3125
 30
0.0
 10
-62.44873046875
 20
-181.26953125
 30
0.0
 10
-62.44873046875
 20
-181.26953125
 30
0.0
 10
-49.93408203125
 20
-181.26953125
 30
0.0
 10
-39.78759765625
 20
-171.123046875
 30
0.0
 10
-39.78759765625
 20
-158.607421875
 30
0.0
 10
-39.78759765625
 20
-156.15625
 30
0.0
 10
-40.18798828125
 20
-153.802734375
 30
0.0
 10
-40.90576171875
 20
-151.591796875
 30
0.0
 10
-45.38818359375
 20
-158.017578125
 30
0.0
 10
-53.34423828125
 20
-162.3125
 30
0.0
 10
-62.44873046875
 20
-162.3125
 30
0.0
  0
HATCH
  5
15F
330
15A
100
AcDbEntity
  8
Layer 1
 62
    25
420
  9332049
100
AcDbHatch
 10
0.0
 20
0.0
 30
0.0
210
0.0
220
0.0
230
1.0
  2
SOLID
 70
     1
 71
     0
 91
        1
 92
        1
 93
        1
 72
     4
 94
        3
 73
     0
 74
     1
 95
       17
 96
       13
 40
0.0
 40
0.0
 40
0.0
 40
0.0
 40
1.0
 40
1.0
 40
1.0
 40
2.0
 40
2.0
 40
2.0
 40
3.0
 40
3.0
 40
3.0
 40
4.0
 40
4.0
 40
4.0
 40
4.0
 10
-62.44873046875
 20
-162.3125
 10
-62.44873046875
 20
-162.3125
 10
-62.44873046875
 20
-181.26953125
 10
-62.44873046875
 20
-181.26953125
 10
-49.93408203125
 20
-181.26953125
 10
-39.78759765625
 20
-171.123046875
 10
-39.78759765625
 20
-158.607421875
 10
-39.78759765625
 20
-156.15625
 10
-40.18798828125
 20
-153.802734375
 10
-40.90576171875
 20
-151.591796875
 10
-45.38818359375
 20
-158.017578125
 10
-53.34423828125
 20
-162.3125
 10
-62.44873046875
 20
-162.3125
 97
        0
 75
     2
 76
     1
 98
        0
  0
ENDBLK
  5
15D
330
15A
100
AcDbEntity
  8
0
100
AcDbBlockEnd
  0
BLOCK
  5
162
330
160
100
AcDbEntity
  8
0
100
AcDbBlockBegin
  2
block 55
 70
     0
 71
     0
 10
0.0
 20
0.0
 30
0.0
  3
block 55
  1

  0
INSERT
  5
165
330
160
100
AcDbEntity
  8
Layer 1
100
AcDbBlockReference
  2
block 56
 10
0.0
 20
0.0
 30
0.0
  0
ENDBLK
  5
163
330
160
100
AcDbEntity
  8
0
100
AcDbBlockEnd
  0
BLOCK
  5
166
330
164
100
AcDbEntity
  8
0
100
AcDbBlockBegin
  2
block 56
 70
     0
 71
     0
 10
0.0
 20
0.0
 30
0.0
  3
block 56
  1

  0
SPLINE
  5
168
330
164
100
AcDbEntity
  8
Layer 1
370
     0
100
AcDbSpline
210
0.0
220
0.0
230
1.0
 70
    11
 71
     3
 72
    17
 73
    13
 74
     0
 42
0.0000000001
 43
0.0000000001
 40
0.0
 40
0.0
 40
0.0
 40
0.0
 40
1.0
 40
1.0
 40
1.0
 40
2.0
 40
2.0
 40
2.0
 40
3.0
 40
3.0
 40
3.0
 40
4.0
 40
4.0
 40
4.0
 40
4.0
 10
-62.44873046875
 20
-135.94921875
 30
0.0
 10
-72.50927734375
 20
-135.94921875
 30
0.0
 10
-81.03173828125
 20
-142.513671875
 30
0.0
 10
-83.98779296875
 20
-151.591796875
 30
0.0
 10
-79.50830078125
 20
-158.017578125
 30
0.0
 10
-71.55224609375
 20
-162.3125
 30
0.0
 10
-62.44873046875
 20
-162.3125
 30
0.0
 10
-53.34423828125
 20
-162.3125
 30
0.0
 10
-45.38818359375
 20
-158.017578125
 30
0.0
 10
-40.90576171875
 20
-151.591796875
 30
0.0
 10
-43.86474609375
 20
-142.513671875
 30
0.0
 10
-52.38525390625
 20
-135.94921875
 30
0.0
 10
-62.44873046875
 20
-135.94921875
 30
0.0
  0
HATCH
  5
169
330
164
100
AcDbEntity
  8
Layer 1
 62
    17
420
  7487019
100
AcDbHatch
 10
0.0
 20
0.0
 30
0.0
210
0.0
220
0.0
230
1.0
  2
SOLID
 70
     1
 71
     0
 91
        1
 92
        1
 93
        1
 72
     4
 94
        3
 73
     0
 74
     1
 95
       17
 96
       13
 40
0.0
 40
0.0
 40
0.0
 40
0.0
 40
1.0
 40
1.0
 40
1.0
 40
2.0
 40
2.0
 40
2.0
 40
3.0
 40
3.0
 40
3.0
 40
4.0
 40
4.0
 40
4.0
 40
4.0
 10
-62.44873046875
 20
-135.94921875
 10
-72.50927734375
 20
-135.94921875
 10
-81.03173828125
 20
-142.513671875
 10
-83.98779296875
 20
-151.591796875
 10
-79.50830078125
 20
-158.017578125
 10
-71.55224609375
 20
-162.3125
 10
-62.44873046875
 20
-162.3125
 10
-53.34423828125
 20
-162.3125
 10
-45.38818359375
 20
-158.017578125
 10
-40.90576171875
 20
-151.591796875
 10
-43.86474609375
 20
-142.513671875
 10
-52.38525390625
 20
-135.94921875
 10
-62.44873046875
 20
-135.94921875
 97
        0
 75
     2
 76
     1
 98
        0
  0
ENDBLK
  5
167
330
164
100
AcDbEntity
  8
0
100
AcDbBlockEnd
  0
BLOCK
  5
16C
330
16A
100
AcDbEntity
  8
0
100
AcDbBlockBegin
  2
block 57
 70
     0
 71
     0
 10
0.0
 20
0.0
 30
0.0
  3
block 57
  1

  0
INSERT
  5
16F
330
16A
100
AcDbEntity
  8
Layer 1
100
AcDbBlockReference
  2
block 58
 10
0.0
 20
0.0
 30
0.0
  0
INSERT
  5
1A3
330
16A
100
AcDbEntity
  8
Layer 1
100
AcDbBlockReference
  2
block 69
 10
0.0
 20
0.0
 30
0.0
  0
INSERT
  5
1BB
330
16A
100
AcDbEntity
  8
Layer 1
100
AcDbBlockReference
  2
block 74
 10
0.0
 20
0.0
 30
0.0
  0
INSERT
  5
1D3
330
16A
100
AcDbEntity
  8
Layer 1
100
AcDbBlockReference
  2
block 79
 10
0.0
 20
0.0
 30
0.0
  0
ENDBLK
  5
16D
330
16A
100
AcDbEntity
  8
0
100
AcDbBlockEnd
  0
BLOCK
  5
170
330
16E
100
AcDbEntity
  8
0
100
AcDbBlockBegin
  2
block 58
 70
     0
 71
     0
 10
0.0
 20
0.0
 30
0.0
  3
block 58
  1

  0
INSERT
  5
173
330
16E
100
AcDbEntity
  8
Layer 1
100
AcDbBlockReference
  2
block 59
 10
0.0
 20
0.0
 30
0.0
  0
INSERT
  5
18B
330
16E
100
AcDbEntity
  8
Layer 1
100
AcDbBlockReference
  2
block 64
 10
0.0
 20
0.0
 30
0.0
  0
ENDBLK
  5
171
330
16E
100
AcDbEntity
  8
0
100
AcDbBlockEnd
  0
BLOCK
  5
174
330
172
100
AcDbEntity
  8
0
100
AcDbBlockBegin
  2
block 59
 70
     0
 71
     0
 10
0.0
 20
0.0
 30
0.0
  3
block 59
  1

  0
INSERT
  5
177
330
172
100
AcDbEntity
  8
Layer 1
100
AcDbBlockReference
  2
block 60
 10
0.0
 20
0.0
 30
0.0
  0
INSERT
  5
181
330
172
100
AcDbEntity
  8
Layer 1
100
AcDbBlockReference
  2
block 62
 10
0.0
 20
0.0
 30
0.0
  0
ENDBLK
  5
175
330
172
100
AcDbEntity
  8
0
100
AcDbBlockEnd
  0
BLOCK
  5
178
330
176
100
AcDbEntity
  8
0
100
AcDbBlockBegin
  2
block 60
 70
     0
 71
     0
 10
0.0
 20
0.0
 30
0.0
  3
block 60
  1

  0
INSERT
  5
17B
330
176
100
AcDbEntity
  8
Layer 1
100
AcDbBlockReference
  2
block 61
 10
0.0
 20
0.0
 30
0.0
  0
ENDBLK
  5
179
330
176
100
AcDbEntity
  8
0
100
AcDbBlockEnd
  0
BLOCK
  5
17C
330
17A
100
AcDbEntity
  8
0
100
AcDbBlockBegin
  2
block 61
 70
     0
 71
     0
 10
0.0
 20
0.0
 30
0.0
  3
block 61
  1

  0
SPLINE
  5
17E
330
17A
100
AcDbEntity
  8
Layer 1
370
     0
100
AcDbSpline
210
0.0
220
0.0
230
1.0
 70
    11
 71
     3
 72
    17
 73
    13
 74
     0
 42
0.0000000001
 43
0.0000000001
 40
0.0
 40
0.0
 40
0.0
 40
0.0
 40
1.0
 40
1.0
 40
1.0
 40
2.0
 40
2.0
 40
2.0
 40
3.0
 40
3.0
 40
3.0
 40
4.0
 40
4.0
 40
4.0
 40
4.0
 10
-87.45361328125
 20
-118.544921875
 30
0.0
 10
-87.45361328125
 20
-125.17578125
 30
0.0
 10
-92.82763671875
 20
-130.55078125
 30
0.0
 10
-99.45947265625
 20
-130.55078125
 30
0.0
 10
-106.09033203125
 20
-130.55078125
 30
0.0
 10
-111.46435546875
 20
-125.17578125
 30
0.0
 10
-111.46435546875
 20
-118.544921875
 30
0.0
 10
-111.46435546875
 20
-111.9140625
 30
0.0
 10
-106.09033203125
 20
-106.5390625
 30
0.0
 10
-99.45947265625
 20
-106.5390625
 30
0.0
 10
-92.82763671875
 20
-106.5390625
 30
0.0
 10
-87.45361328125
 20
-111.9140625
 30
0.0
 10
-87.45361328125
 20
-118.544921875
 30
0.0
  0
HATCH
  5
17F
330
17A
100
AcDbEntity
  8
Layer 1
 62
    17
420
  7487019
100
AcDbHatch
 10
0.0
 20
0.0
 30
0.0
210
0.0
220
0.0
230
1.0
  2
SOLID
 70
     1
 71
     0
 91
        1
 92
        1
 93
        1
 72
     4
 94
        3
 73
     0
 74
     1
 95
       17
 96
       13
 40
0.0
 40
0.0
 40
0.0
 40
0.0
 40
1.0
 40
1.0
 40
1.0
 40
2.0
 40
2.0
 40
2.0
 40
3.0
 40
3.0
 40
3.0
 40
4.0
 40
4.0
 40
4.0
 40
4.0
 10
-87.45361328125
 20
-118.544921875
 10
-87.45361328125
 20
-125.17578125
 10
-92.82763671875
 20
-130.55078125
 10
-99.45947265625
 20
-130.55078125
 10
-106.09033203125
 20
-130.55078125
 10
-111.46435546875
 20
-125.17578125
 10
-111.46435546875
 20
-118.544921875
 10
-111.46435546875
 20
-111.9140625
 10
-106.09033203125
 20
-106.5390625
 10
-99.45947265625
 20
-106.5390625
 10
-92.82763671875
 20
-106.5390625
 10
-87.45361328125
 20
-111.9140625
 10
-87.45361328125
 20
-118.544921875
 97
        0
 75
     2
 76
     1
 98
        0
  0
ENDBLK
  5
17D
330
17A
100
AcDbEntity
  8
0
100
AcDbBlockEnd
  0
BLOCK
  5
182
330
180
100
AcDbEntity
  8
0
100
AcDbBlockBegin
  2
block 62
 70
     0
 71
     0
 10
0.0
 20
0.0
 30
0.0
  3
block 62
  1

  0
INSERT
  5
185
330
180
100
AcDbEntity
  8
Layer 1
100
AcDbBlockReference
  2
block 63
 10
0.0
 20
0.0
 30
0.0
  0
ENDBLK
  5
183
330
180
100
AcDbEntity
  8
0
100
AcDbBlockEnd
  0
BLOCK
  5
186
330
184
100
AcDbEntity
  8
0
100
AcDbBlockBegin
  2
block 63
 70
     0
 71
     0
 10
0.0
 20
0.0
 30
0.0
  3
block 63
  1

  0
SPLINE
  5
188
330
184
100
AcDbEntity
  8
Layer 1
370
     0
100
AcDbSpline
210
0.0
220
0.0
230
1.0
 70
    11
 71
     3
 72
    17
 73
    13
 74
     0
 42
0.0000000001
 43
0.0000000001
 40
0.0
 40
0.0
 40
0.0
 40
0.0
 40
1.0
 40
1.0
 40
1.0
 40
2.0
 40
2.0
 40
2.0
 40
3.0
 40
3.0
 40
3.0
 40
4.0
 40
4.0
 40
4.0
 40
4.0
 10
-91.63525390625
 20
-118.544921875
 30
0.0
 10
-91.63525390625
 20
-122.865234375
 30
0.0
 10
-95.13818359375
 20
-126.369140625
 30
0.0
 10
-99.45947265625
 20
-126.369140625
 30
0.0
 10
-103.78076171875
 20
-126.369140625
 30
0.0
 10
-107.28369140625
 20
-122.865234375
 30
0.0
 10
-107.28369140625
 20
-118.544921875
 30
0.0
 10
-107.28369140625
 20
-114.22265625
 30
0.0
 10
-103.78076171875
 20
-110.720703125
 30
0.0
 10
-99.45947265625
 20
-110.720703125
 30
0.0
 10
-95.13818359375
 20
-110.720703125
 30
0.0
 10
-91.63525390625
 20
-114.22265625
 30
0.0
 10
-91.63525390625
 20
-118.544921875
 30
0.0
  0
HATCH
  5
189
330
184
100
AcDbEntity
  8
Layer 1
 62
   243
420
 14183545
100
AcDbHatch
 10
0.0
 20
0.0
 30
0.0
210
0.0
220
0.0
230
1.0
  2
SOLID
 70
     1
 71
     0
 91
        1
 92
        1
 93
        1
 72
     4
 94
        3
 73
     0
 74
     1
 95
       17
 96
       13
 40
0.0
 40
0.0
 40
0.0
 40
0.0
 40
1.0
 40
1.0
 40
1.0
 40
2.0
 40
2.0
 40
2.0
 40
3.0
 40
3.0
 40
3.0
 40
4.0
 40
4.0
 40
4.0
 40
4.0
 10
-91.63525390625
 20
-118.544921875
 10
-91.63525390625
 20
-122.865234375
 10
-95.13818359375
 20
-126.369140625
 10
-99.45947265625
 20
-126.369140625
 10
-103.78076171875
 20
-126.369140625
 10
-107.28369140625
 20
-122.865234375
 10
-107.28369140625
 20
-118.544921875
 10
-107.28369140625
 20
-114.22265625
 10
-103.78076171875
 20
-110.720703125
 10
-99.45947265625
 20
-110.720703125
 10
-95.13818359375
 20
-110.720703125
 10
-91.63525390625
 20
-114.22265625
 10
-91.63525390625
 20
-118.544921875
 97
        0
 75
     2
 76
     1
 98
        0
  0
ENDBLK
  5
187
330
184
100
AcDbEntity
  8
0
100
AcDbBlockEnd
  0
BLOCK
  5
18C
330
18A
100
AcDbEntity
  8
0
100
AcDbBlockBegin
  2
block 64
 70
     0
 71
     0
 10
0.0
 20
0.0
 30
0.0
  3
block 64
  1

  0
INSERT
  5
18F
330
18A
100
AcDbEntity
  8
Layer 1
100
AcDbBlockReference
  2
block 65
 10
0.0
 20
0.0
 30
0.0
  0
INSERT
  5
199
330
18A
100
AcDbEntity
  8
Layer 1
100
AcDbBlockReference
  2
block 67
 10
0.0
 20
0.0
 30
0.0
  0
ENDBLK
  5
18D
330
18A
100
AcDbEntity
  8
0
100
AcDbBlockEnd
  0
BLOCK
  5
190
330
18E
100
AcDbEntity
  8
0
100
AcDbBlockBegin
  2
block 65
 70
     0
 71
     0
 10
0.0
 20
0.0
 30
0.0
  3
block 65
  1

  0
INSERT
  5
193
330
18E
100
AcDbEntity
  8
Layer 1
100
AcDbBlockReference
  2
block 66
 10
0.0
 20
0.0
 30
0.0
  0
ENDBLK
  5
191
330
18E
100
AcDbEntity
  8
0
100
AcDbBlockEnd
  0
BLOCK
  5
194
330
192
100
AcDbEntity
  8
0
100
AcDbBlockBegin
  2
block 66
 70
     0
 71
     0
 10
0.0
 20
0.0
 30
0.0
  3
block 66
  1

  0
SPLINE
  5
196
330
192
100
AcDbEntity
  8
Layer 1
370
     0
100
AcDbSpline
210
0.0
220
0.0
230
1.0
 70
    11
 71
     3
 72
    17
 73
    13
 74
     0
 42
0.0000000001
 43
0.0000000001
 40
0.0
 40
0.0
 40
0.0
 40
0.0
 40
1.0
 40
1.0
 40
1.0
 40
2.0
 40
2.0
 40
2.0
 40
3.0
 40
3.0
 40
3.0
 40
4.0
 40
4.0
 40
4.0
 40
4.0
 10
-14.60888671875
 20
-118.544921875
 30
0.0
 10
-14.60888671875
 20
-125.17578125
 30
0.0
 10
-19.98486328125
 20
-130.55078125
 30
0.0
 10
-26.61572265625
 20
-130.55078125
 30
0.0
 10
-33.24853515625
 20
-130.55078125
 30
0.0
 10
-38.62158203125
 20
-125.17578125
 30
0.0
 10
-38.62158203125
 20
-118.544921875
 30
0.0
 10
-38.62158203125
 20
-111.9140625
 30
0.0
 10
-33.24853515625
 20
-106.5390625
 30
0.0
 10
-26.61572265625
 20
-106.5390625
 30
0.0
 10
-19.98486328125
 20
-106.5390625
 30
0.0
 10
-14.60888671875
 20
-111.9140625
 30
0.0
 10
-14.60888671875
 20
-118.544921875
 30
0.0
  0
HATCH
  5
197
330
192
100
AcDbEntity
  8
Layer 1
 62
    25
420
  9332049
100
AcDbHatch
 10
0.0
 20
0.0
 30
0.0
210
0.0
220
0.0
230
1.0
  2
SOLID
 70
     1
 71
     0
 91
        1
 92
        1
 93
        1
 72
     4
 94
        3
 73
     0
 74
     1
 95
       17
 96
       13
 40
0.0
 40
0.0
 40
0.0
 40
0.0
 40
1.0
 40
1.0
 40
1.0
 40
2.0
 40
2.0
 40
2.0
 40
3.0
 40
3.0
 40
3.0
 40
4.0
 40
4.0
 40
4.0
 40
4.0
 10
-14.60888671875
 20
-118.544921875
 10
-14.60888671875
 20
-125.17578125
 10
-19.98486328125
 20
-130.55078125
 10
-26.61572265625
 20
-130.55078125
 10
-33.24853515625
 20
-130.55078125
 10
-38.62158203125
 20
-125.17578125
 10
-38.62158203125
 20
-118.544921875
 10
-38.62158203125
 20
-111.9140625
 10
-33.24853515625
 20
-106.5390625
 10
-26.61572265625
 20
-106.5390625
 10
-19.98486328125
 20
-106.5390625
 10
-14.60888671875
 20
-111.9140625
 10
-14.60888671875
 20
-118.544921875
 97
        0
 75
     2
 76
     1
 98
        0
  0
ENDBLK
  5
195
330
192
100
AcDbEntity
  8
0
100
AcDbBlockEnd
  0
BLOCK
  5
19A
330
198
100
AcDbEntity
  8
0
100
AcDbBlockBegin
  2
block 67
 70
     0
 71
     0
 10
0.0
 20
0.0
 30
0.0
  3
block 67
  1

  0
INSERT
  5
19D
330
198
100
AcDbEntity
  8
Layer 1
100
AcDbBlockReference
  2
block 68
 10
0.0
 20
0.0
 30
0.0
  0
ENDBLK
  5
19B
330
198
100
AcDbEntity
  8
0
100
AcDbBlockEnd
  0
BLOCK
  5
19E
330
19C
100
AcDbEntity
  8
0
100
AcDbBlockBegin
  2
block 68
 70
     0
 71
     0
 10
0.0
 20
0.0
 30
0.0
  3
block 68
  1

  0
SPLINE
  5
1A0
330
19C
100
AcDbEntity
  8
Layer 1
370
     0
100
AcDbSpline
210
0.0
220
0.0
230
1.0
 70
    11
 71
     3
 72
    17
 73
    13
 74
     0
 42
0.0000000001
 43
0.0000000001
 40
0.0
 40
0.0
 40
0.0
 40
0.0
 40
1.0
 40
1.0
 40
1.0
 40
2.0
 40
2.0
 40
2.0
 40
3.0
 40
3.0
 40
3.0
 40
4.0
 40
4.0
 40
4.0
 40
4.0
 10
-18.79248046875
 20
-118.544921875
 30
0.0
 10
-18.79248046875
 20
-122.865234375
 30
0.0
 10
-22.29638671875
 20
-126.369140625
 30
0.0
 10
-26.61572265625
 20
-126.369140625
 30
0.0
 10
-30.93505859375
 20
-126.369140625
 30
0.0
 10
-34.44091796875
 20
-122.865234375
 30
0.0
 10
-34.44091796875
 20
-118.544921875
 30
0.0
 10
-34.44091796875
 20
-114.22265625
 30
0.0
 10
-30.93505859375
 20
-110.720703125
 30
0.0
 10
-26.61572265625
 20
-110.720703125
 30
0.0
 10
-22.29638671875
 20
-110.720703125
 30
0.0
 10
-18.79248046875
 20
-114.22265625
 30
0.0
 10
-18.79248046875
 20
-118.544921875
 30
0.0
  0
HATCH
  5
1A1
330
19C
100
AcDbEntity
  8
Layer 1
 62
   243
420
 14183545
100
AcDbHatch
 10
0.0
 20
0.0
 30
0.0
210
0.0
220
0.0
230
1.0
  2
SOLID
 70
     1
 71
     0
 91
        1
 92
        1
 93
        1
 72
     4
 94
        3
 73
     0
 74
     1
 95
       17
 96
       13
 40
0.0
 40
0.0
 40
0.0
 40
0.0
 40
1.0
 40
1.0
 40
1.0
 40
2.0
 40
2.0
 40
2.0
 40
3.0
 40
3.0
 40
3.0
 40
4.0
 40
4.0
 40
4.0
 40
4.0
 10
-18.79248046875
 20
-118.544921875
 10
-18.79248046875
 20
-122.865234375
 10
-22.29638671875
 20
-126.369140625
 10
-26.61572265625
 20
-126.369140625
 10
-30.93505859375
 20
-126.369140625
 10
-34.44091796875
 20
-122.865234375
 10
-34.44091796875
 20
-118.544921875
 10
-34.44091796875
 20
-114.22265625
 10
-30.93505859375
 20
-110.720703125
 10
-26.61572265625
 20
-110.720703125
 10
-22.29638671875
 20
-110.720703125
 10
-18.79248046875
 20
-114.22265625
 10
-18.79248046875
 20
-118.544921875
 97
        0
 75
     2
 76
     1
 98
        0
  0
ENDBLK
  5
19F
330
19C
100
AcDbEntity
  8
0
100
AcDbBlockEnd
  0
BLOCK
  5
1A4
330
1A2
100
AcDbEntity
  8
0
100
AcDbBlockBegin
  2
block 69
 70
     0
 71
     0
 10
0.0
 20
0.0
 30
0.0
  3
block 69
  1

  0
INSERT
  5
1A7
330
1A2
100
AcDbEntity
  8
Layer 1
100
AcDbBlockReference
  2
block 70
 10
0.0
 20
0.0
 30
0.0
  0
INSERT
  5
1B1
330
1A2
100
AcDbEntity
  8
Layer 1
100
AcDbBlockReference
  2
block 72
 10
0.0
 20
0.0
 30
0.0
  0
ENDBLK
  5
1A5
330
1A2
100
AcDbEntity
  8
0
100
AcDbBlockEnd
  0
BLOCK
  5
1A8
330
1A6
100
AcDbEntity
  8
0
100
AcDbBlockBegin
  2
block 70
 70
     0
 71
     0
 10
0.0
 20
0.0
 30
0.0
  3
block 70
  1

  0
INSERT
  5
1AB
330
1A6
100
AcDbEntity
  8
Layer 1
100
AcDbBlockReference
  2
block 71
 10
0.0
 20
0.0
 30
0.0
  0
ENDBLK
  5
1A9
330
1A6
100
AcDbEntity
  8
0
100
AcDbBlockEnd
  0
BLOCK
  5
1AC
330
1AA
100
AcDbEntity
  8
0
100
AcDbBlockBegin
  2
block 71
 70
     0
 71
     0
 10
0.0
 20
0.0
 30
0.0
  3
block 71
  1

  0
SPLINE
  5
1AE
330
1AA
100
AcDbEntity
  8
Layer 1
370
     0
100
AcDbSpline
210
0.0
220
0.0
230
1.0
 70
    11
 71
     3
 72
    29
 73
    25
 74
     0
 42
0.0000000001
 43
0.0000000001
 40
0.0
 40
0.0
 40
0.0
 40
0.0
 40
1.0
 40
1.0
 40
1.0
 40
2.0
 40
2.0
 40
2.0
 40
3.0
 40
3.0
 40
3.0
 40
4.0
 40
4.0
 40
4.0
 40
5.0
 40
5.0
 40
5.0
 40
6.0
 40
6.0
 40
6.0
 40
7.0
 40
7.0
 40
7.0
 40
8.0
 40
8.0
 40
8.0
 40
8.0
 10
-57.37060546875
 20
-68.62841796875
 30
0.0
 10
-57.12841796875
 20
-70.06591796875
 30
0.0
 10
-57.61279296875
 20
-73.69580078125
 30
0.0
 10
-61.10009765625
 20
-77.64697265625
 30
0.0
 10
-62.63720703125
 20
-79.38818359375
 30
0.0
 10
-62.49755859375
 20
-79.03369140625
 30
0.0
 10
-63.08544921875
 20
-79.90966796875
 30
0.0
 10
-63.67431640625
 20
-80.78857421875
 30
0.0
 10
-64.40087890625
 20
-81.57373046875
 30
0.0
 10
-65.28662109375
 20
-82.25341796875
 30
0.0
 10
-66.18798828125
 20
-82.92041015625
 30
0.0
 10
-66.49072265625
 20
-83.31396484375
 30
0.0
 10
-67.92041015625
 20
-83.62646484375
 30
0.0
 10
-68.16748046875
 20
-82.18408203125
 30
0.0
 10
-68.35498046875
 20
-81.90771484375
 30
0.0
 10
-68.45556640625
 20
-80.12060546875
 30
0.0
 10
-68.51708984375
 20
-79.00732421875
 30
0.0
 10
-68.26904296875
 20
-77.44873046875
 30
0.0
 10
-67.67822265625
 20
-76.57470703125
 30
0.0
 10
-67.08447265625
 20
-75.69970703125
 30
0.0
 10
-66.42724609375
 20
-74.77099609375
 30
0.0
 10
-65.00439453125
 20
-73.80029296875
 30
0.0
 10
-64.09912109375
 20
-73.13232421875
 30
0.0
 10
-58.65380859375
 20
-71.05615234375
 30
0.0
 10
-57.37060546875
 20
-68.62841796875
 30
0.0
  0
HATCH
  5
1AF
330
1AA
100
AcDbEntity
  8
Layer 1
 62
    17
420
  7487019
100
AcDbHatch
 10
0.0
 20
0.0
 30
0.0
210
0.0
220
0.0
230
1.0
  2
SOLID
 70
     1
 71
     0
 91
        1
 92
        1
 93
        1
 72
     4
 94
        3
 73
     0
 74
     1
 95
       29
 96
       25
 40
0.0
 40
0.0
 40
0.0
 40
0.0
 40
1.0
 40
1.0
 40
1.0
 40
2.0
 40
2.0
 40
2.0
 40
3.0
 40
3.0
 40
3.0
 40
4.0
 40
4.0
 40
4.0
 40
5.0
 40
5.0
 40
5.0
 40
6.0
 40
6.0
 40
6.0
 40
7.0
 40
7.0
 40
7.0
 40
8.0
 40
8.0
 40
8.0
 40
8.0
 10
-57.37060546875
 20
-68.62841796875
 10
-57.12841796875
 20
-70.06591796875
 10
-57.61279296875
 20
-73.69580078125
 10
-61.10009765625
 20
-77.64697265625
 10
-62.63720703125
 20
-79.38818359375
 10
-62.49755859375
 20
-79.03369140625
 10
-63.08544921875
 20
-79.90966796875
 10
-63.67431640625
 20
-80.78857421875
 10
-64.40087890625
 20
-81.57373046875
 10
-65.28662109375
 20
-82.25341796875
 10
-66.18798828125
 20
-82.92041015625
 10
-66.49072265625
 20
-83.31396484375
 10
-67.92041015625
 20
-83.62646484375
 10
-68.16748046875
 20
-82.18408203125
 10
-68.35498046875
 20
-81.90771484375
 10
-68.45556640625
 20
-80.12060546875
 10
-68.51708984375
 20
-79.00732421875
 10
-68.26904296875
 20
-77.44873046875
 10
-67.67822265625
 20
-76.57470703125
 10
-67.08447265625
 20
-75.69970703125
 10
-66.42724609375
 20
-74.77099609375
 10
-65.00439453125
 20
-73.80029296875
 10
-64.09912109375
 20
-73.13232421875
 10
-58.65380859375
 20
-71.05615234375
 10
-57.37060546875
 20
-68.62841796875
 97
        0
 75
     2
 76
     1
 98
        0
  0
ENDBLK
  5
1AD
330
1AA
100
AcDbEntity
  8
0
100
AcDbBlockEnd
  0
BLOCK
  5
1B2
330
1B0
100
AcDbEntity
  8
0
100
AcDbBlockBegin
  2
block 72
 70
     0
 71
     0
 10
0.0
 20
0.0
 30
0.0
  3
block 72
  1

  0
INSERT
  5
1B5
330
1B0
100
AcDbEntity
  8
Layer 1
100
AcDbBlockReference
  2
block 73
 10
0.0
 20
0.0
 30
0.0
  0
ENDBLK
  5
1B3
330
1B0
100
AcDbEntity
  8
0
100
AcDbBlockEnd
  0
BLOCK
  5
1B6
330
1B4
100
AcDbEntity
  8
0
100
AcDbBlockBegin
  2
block 73
 70
     0
 71
     0
 10
0.0
 20
0.0
 30
0.0
  3
block 73
  1

  0
SPLINE
  5
1B8
330
1B4
100
AcDbEntity
  8
Layer 1
370
     0
100
AcDbSpline
210
0.0
220
0.0
230
1.0
 70
    11
 71
     3
 72
    26
 73
    22
 74
     0
 42
0.0000000001
 43
0.0000000001
 40
0.0
 40
0.0
 40
0.0
 40
0.0
 40
1.0
 40
1.0
 40
1.0
 40
2.0
 40
2.0
 40
2.0
 40
3.0
 40
3.0
 40
3.0
 40
4.0
 40
4.0
 40
4.0
 40
5.0
 40
5.0
 40
5.0
 40
6.0
 40
6.0
 40
6.0
 40
7.0
 40
7.0
 40
7.0
 40
7.0
 10
-52.96337890625
 20
-72.50634765625
 30
0.0
 10
-52.71826171875
 20
-73.94287109375
 30
0.0
 10
-53.76123046875
 20
-80.46337890625
 30
0.0
 10
-56.39794921875
 20
-81.46044921875
 30
0.0
 10
-56.69189453125
 20
-82.53466796875
 30
0.0
 10
-58.42138671875
 20
-82.06005859375
 30
0.0
 10
-59.00927734375
 20
-82.93896484375
 30
0.0
 10
-59.59521484375
 20
-83.81689453125
 30
0.0
 10
-60.32568359375
 20
-84.60107421875
 30
0.0
 10
-61.21044921875
 20
-85.27978515625
 30
0.0
 10
-62.10986328125
 20
-85.94677734375
 30
0.0
 10
-63.13525390625
 20
-86.53271484375
 30
0.0
 10
-64.56591796875
 20
-86.84423828125
 30
0.0
 10
-64.81298828125
 20
-85.40380859375
 30
0.0
 10
-64.65966796875
 20
-84.23388671875
 30
0.0
 10
-64.37841796875
 20
-83.14697265625
 30
0.0
 10
-64.08251953125
 20
-82.07275390625
 30
0.0
 10
-63.72119140625
 20
-79.16943359375
 30
0.0
 10
-60.83154296875
 20
-77.89013671875
 30
0.0
 10
-56.64404296875
 20
-76.03662109375
 30
0.0
 10
-54.87158203125
 20
-74.93505859375
 30
0.0
 10
-52.96337890625
 20
-72.50634765625
 30
0.0
  0
HATCH
  5
1B9
330
1B4
100
AcDbEntity
  8
Layer 1
 62
    17
420
  7487019
100
AcDbHatch
 10
0.0
 20
0.0
 30
0.0
210
0.0
220
0.0
230
1.0
  2
SOLID
 70
     1
 71
     0
 91
        1
 92
        1
 93
        1
 72
     4
 94
        3
 73
     0
 74
     1
 95
       26
 96
       22
 40
0.0
 40
0.0
 40
0.0
 40
0.0
 40
1.0
 40
1.0
 40
1.0
 40
2.0
 40
2.0
 40
2.0
 40
3.0
 40
3.0
 40
3.0
 40
4.0
 40
4.0
 40
4.0
 40
5.0
 40
5.0
 40
5.0
 40
6.0
 40
6.0
 40
6.0
 40
7.0
 40
7.0
 40
7.0
 40
7.0
 10
-52.96337890625
 20
-72.50634765625
 10
-52.71826171875
 20
-73.94287109375
 10
-53.76123046875
 20
-80.46337890625
 10
-56.39794921875
 20
-81.46044921875
 10
-56.69189453125
 20
-82.53466796875
 10
-58.42138671875
 20
-82.06005859375
 10
-59.00927734375
 20
-82.93896484375
 10
-59.59521484375
 20
-83.81689453125
 10
-60.32568359375
 20
-84.60107421875
 10
-61.21044921875
 20
-85.27978515625
 10
-62.10986328125
 20
-85.94677734375
 10
-63.13525390625
 20
-86.53271484375
 10
-64.56591796875
 20
-86.84423828125
 10
-64.81298828125
 20
-85.40380859375
 10
-64.65966796875
 20
-84.23388671875
 10
-64.37841796875
 20
-83.14697265625
 10
-64.08251953125
 20
-82.07275390625
 10
-63.72119140625
 20
-79.16943359375
 10
-60.83154296875
 20
-77.89013671875
 10
-56.64404296875
 20
-76.03662109375
 10
-54.87158203125
 20
-74.93505859375
 10
-52.96337890625
 20
-72.50634765625
 97
        0
 75
     2
 76
     1
 98
        0
  0
ENDBLK
  5
1B7
330
1B4
100
AcDbEntity
  8
0
100
AcDbBlockEnd
  0
BLOCK
  5
1BC
330
1BA
100
AcDbEntity
  8
0
100
AcDbBlockBegin
  2
block 74
 70
     0
 71
     0
 10
0.0
 20
0.0
 30
0.0
  3
block 74
  1

  0
INSERT
  5
1BF
330
1BA
100
AcDbEntity
  8
Layer 1
100
AcDbBlockReference
  2
block 75
 10
0.0
 20
0.0
 30
0.0
  0
INSERT
  5
1C9
330
1BA
100
AcDbEntity
  8
Layer 1
100
AcDbBlockReference
  2
block 77
 10
0.0
 20
0.0
 30
0.0
  0
ENDBLK
  5
1BD
330
1BA
100
AcDbEntity
  8
0
100
AcDbBlockEnd
  0
BLOCK
  5
1C0
330
1BE
100
AcDbEntity
  8
0
100
AcDbBlockBegin
  2
block 75
 70
     0
 71
     0
 10
0.0
 20
0.0
 30
0.0
  3
block 75
  1

  0
INSERT
  5
1C3
330
1BE
100
AcDbEntity
  8
Layer 1
100
AcDbBlockReference
  2
block 76
 10
0.0
 20
0.0
 30
0.0
  0
ENDBLK
  5
1C1
330
1BE
100
AcDbEntity
  8
0
100
AcDbBlockEnd
  0
BLOCK
  5
1C4
330
1C2
100
AcDbEntity
  8
0
100
AcDbBlockBegin
  2
block 76
 70
     0
 71
     0
 10
0.0
 20
0.0
 30
0.0
  3
block 76
  1

  0
SPLINE
  5
1C6
330
1C2
100
AcDbEntity
  8
Layer 1
370
     0
100
AcDbSpline
210
0.0
220
0.0
230
1.0
 70
    11
 71
     3
 72
    14
 73
    10
 74
     0
 42
0.0000000001
 43
0.0000000001
 40
0.0
 40
0.0
 40
0.0
 40
0.0
 40
1.0
 40
1.0
 40
1.0
 40
2.0
 40
2.0
 40
2.0
 40
3.0
 40
3.0
 40
3.0
 40
3.0
 10
-99.76513671875
 20
-116.990234375
 30
0.0
 10
-99.76513671875
 20
-137.599609375
 30
0.0
 10
-83.05712890625
 20
-154.306640625
 30
0.0
 10
-62.44873046875
 20
-154.306640625
 30
0.0
 10
-62.44873046875
 20
-154.306640625
 30
0.0
 10
-62.44873046875
 20
-79.67431640625
 30
0.0
 10
-62.44873046875
 20
-79.67431640625
 30
0.0
 10
-83.05712890625
 20
-79.67431640625
 30
0.0
 10
-99.76513671875
 20
-96.38134765625
 30
0.0
 10
-99.76513671875
 20
-116.990234375
 30
0.0
  0
HATCH
  5
1C7
330
1C2
100
AcDbEntity
  8
Layer 1
 62
    17
420
  7487019
100
AcDbHatch
 10
0.0
 20
0.0
 30
0.0
210
0.0
220
0.0
230
1.0
  2
SOLID
 70
     1
 71
     0
 91
        1
 92
        1
 93
        1
 72
     4
 94
        3
 73
     0
 74
     1
 95
       14
 96
       10
 40
0.0
 40
0.0
 40
0.0
 40
0.0
 40
1.0
 40
1.0
 40
1.0
 40
2.0
 40
2.0
 40
2.0
 40
3.0
 40
3.0
 40
3.0
 40
3.0
 10
-99.76513671875
 20
-116.990234375
 10
-99.76513671875
 20
-137.599609375
 10
-83.05712890625
 20
-154.306640625
 10
-62.44873046875
 20
-154.306640625
 10
-62.44873046875
 20
-154.306640625
 10
-62.44873046875
 20
-79.67431640625
 10
-62.44873046875
 20
-79.67431640625
 10
-83.05712890625
 20
-79.67431640625
 10
-99.76513671875
 20
-96.38134765625
 10
-99.76513671875
 20
-116.990234375
 97
        0
 75
     2
 76
     1
 98
        0
  0
ENDBLK
  5
1C5
330
1C2
100
AcDbEntity
  8
0
100
AcDbBlockEnd
  0
BLOCK
  5
1CA
330
1C8
100
AcDbEntity
  8
0
100
AcDbBlockBegin
  2
block 77
 70
     0
 71
     0
 10
0.0
 20
0.0
 30
0.0
  3
block 77
  1

  0
INSERT
  5
1CD
330
1C8
100
AcDbEntity
  8
Layer 1
100
AcDbBlockReference
  2
block 78
 10
0.0
 20
0.0
 30
0.0
  0
ENDBLK
  5
1CB
330
1C8
100
AcDbEntity
  8
0
100
AcDbBlockEnd
  0
BLOCK
  5
1CE
330
1CC
100
AcDbEntity
  8
0
100
AcDbBlockBegin
  2
block 78
 70
     0
 71
     0
 10
0.0
 20
0.0
 30
0.0
  3
block 78
  1

  0
SPLINE
  5
1D0
330
1CC
100
AcDbEntity
  8
Layer 1
370
     0
100
AcDbSpline
210
0.0
220
0.0
230
1.0
 70
    11
 71
     3
 72
    14
 73
    10
 74
     0
 42
0.0000000001
 43
0.0000000001
 40
0.0
 40
0.0
 40
0.0
 40
0.0
 40
1.0
 40
1.0
 40
1.0
 40
2.0
 40
2.0
 40
2.0
 40
3.0
 40
3.0
 40
3.0
 40
3.0
 10
-25.13232421875
 20
-116.990234375
 30
0.0
 10
-25.13232421875
 20
-96.38134765625
 30
0.0
 10
-41.83837890625
 20
-79.67431640625
 30
0.0
 10
-62.44873046875
 20
-79.67431640625
 30
0.0
 10
-62.44873046875
 20
-79.67431640625
 30
0.0
 10
-62.44873046875
 20
-154.306640625
 30
0.0
 10
-62.44873046875
 20
-154.306640625
 30
0.0
 10
-41.83837890625
 20
-154.306640625
 30
0.0
 10
-25.13232421875
 20
-137.599609375
 30
0.0
 10
-25.13232421875
 20
-116.990234375
 30
0.0
  0
HATCH
  5
1D1
330
1CC
100
AcDbEntity
  8
Layer 1
 62
    25
420
  9332049
100
AcDbHatch
 10
0.0
 20
0.0
 30
0.0
210
0.0
220
0.0
230
1.0
  2
SOLID
 70
     1
 71
     0
 91
        1
 92
        1
 93
        1
 72
     4
 94
        3
 73
     0
 74
     1
 95
       14
 96
       10
 40
0.0
 40
0.0
 40
0.0
 40
0.0
 40
1.0
 40
1.0
 40
1.0
 40
2.0
 40
2.0
 40
2.0
 40
3.0
 40
3.0
 40
3.0
 40
3.0
 10
-25.13232421875
 20
-116.990234375
 10
-25.13232421875
 20
-96.38134765625
 10
-41.83837890625
 20
-79.67431640625
 10
-62.44873046875
 20
-79.67431640625
 10
-62.44873046875
 20
-79.67431640625
 10
-62.44873046875
 20
-154.306640625
 10
-62.44873046875
 20
-154.306640625
 10
-41.83837890625
 20
-154.306640625
 10
-25.13232421875
 20
-137.599609375
 10
-25.13232421875
 20
-116.990234375
 97
        0
 75
     2
 76
     1
 98
        0
  0
ENDBLK
  5
1CF
330
1CC
100
AcDbEntity
  8
0
100
AcDbBlockEnd
  0
BLOCK
  5
1D4
330
1D2
100
AcDbEntity
  8
0
100
AcDbBlockBegin
  2
block 79
 70
     0
 71
     0
 10
0.0
 20
0.0
 30
0.0
  3
block 79
  1

  0
INSERT
  5
1D7
330
1D2
100
AcDbEntity
  8
Layer 1
100
AcDbBlockReference
  2
block 80
 10
0.0
 20
0.0
 30
0.0
  0
INSERT
  5
1E1
330
1D2
100
AcDbEntity
  8
Layer 1
100
AcDbBlockReference
  2
block 82
 10
0.0
 20
0.0
 30
0.0
  0
INSERT
  5
1F9
330
1D2
100
AcDbEntity
  8
Layer 1
100
AcDbBlockReference
  2
block 87
 10
0.0
 20
0.0
 30
0.0
  0
INSERT
  5
22B
330
1D2
100
AcDbEntity
  8
Layer 1
100
AcDbBlockReference
  2
block 98
 10
0.0
 20
0.0
 30
0.0
  0
ENDBLK
  5
1D5
330
1D2
100
AcDbEntity
  8
0
100
AcDbBlockEnd
  0
BLOCK
  5
1D8
330
1D6
100
AcDbEntity
  8
0
100
AcDbBlockBegin
  2
block 80
 70
     0
 71
     0
 10
0.0
 20
0.0
 30
0.0
  3
block 80
  1

  0
INSERT
  5
1DB
330
1D6
100
AcDbEntity
  8
Layer 1
100
AcDbBlockReference
  2
block 81
 10
0.0
 20
0.0
 30
0.0
  0
ENDBLK
  5
1D9
330
1D6
100
AcDbEntity
  8
0
100
AcDbBlockEnd
  0
BLOCK
  5
1DC
330
1DA
100
AcDbEntity
  8
0
100
AcDbBlockBegin
  2
block 81
 70
     0
 71
     0
 10
0.0
 20
0.0
 30
0.0
  3
block 81
  1

  0
SPLINE
  5
1DE
330
1DA
100
AcDbEntity
  8
Layer 1
370
     0
100
AcDbSpline
210
0.0
220
0.0
230
1.0
 70
    11
 71
     3
 72
    35
 73
    31
 74
     0
 42
0.0000000001
 43
0.0000000001
 40
0.0
 40
0.0
 40
0.0
 40
0.0
 40
1.0
 40
1.0
 40
1.0
 40
2.0
 40
2.0
 40
2.0
 40
3.0
 40
3.0
 40
3.0
 40
4.0
 40
4.0
 40
4.0
 40
5.0
 40
5.0
 40
5.0
 40
6.0
 40
6.0
 40
6.0
 40
7.0
 40
7.0
 40
7.0
 40
8.0
 40
8.0
 40
8.0
 40
9.0
 40
9.0
 40
9.0
 40
10.0
 40
10.0
 40
10.0
 40
10.0
 10
-29.53173828125
 20
-114.228515625
 30
0.0
 10
-29.53173828125
 20
-104.990234375
 30
0.0
 10
-37.02197265625
 20
-97.50146484375
 30
0.0
 10
-46.26025390625
 20
-97.50146484375
 30
0.0
 10
-54.06396484375
 20
-97.50146484375
 30
0.0
 10
-60.59814453125
 20
-102.8515625
 30
0.0
 10
-62.44873046875
 20
-110.078125
 30
0.0
 10
-64.29638671875
 20
-102.8515625
 30
0.0
 10
-70.83251953125
 20
-97.50146484375
 30
0.0
 10
-78.63525390625
 20
-97.50146484375
 30
0.0
 10
-87.87353515625
 20
-97.50146484375
 30
0.0
 10
-95.36376953125
 20
-104.990234375
 30
0.0
 10
-95.36376953125
 20
-114.228515625
 30
0.0
 10
-95.36376953125
 20
-123.466796875
 30
0.0
 10
-87.87353515625
 20
-130.955078125
 30
0.0
 10
-78.63525390625
 20
-130.955078125
 30
0.0
 10
-78.63525390625
 20
-130.955078125
 30
0.0
 10
-78.63525390625
 20
-139.587890625
 30
0.0
 10
-78.63525390625
 20
-139.587890625
 30
0.0
 10
-78.63525390625
 20
-148.828125
 30
0.0
 10
-71.14599609375
 20
-156.314453125
 30
0.0
 10
-61.90771484375
 20
-156.314453125
 30
0.0
 10
-52.66943359375
 20
-156.314453125
 30
0.0
 10
-45.18017578125
 20
-148.828125
 30
0.0
 10
-45.18017578125
 20
-139.587890625
 30
0.0
 10
-45.18017578125
 20
-139.587890625
 30
0.0
 10
-45.18017578125
 20
-130.900390625
 30
0.0
 10
-45.18017578125
 20
-130.900390625
 30
0.0
 10
-36.44873046875
 20
-130.341796875
 30
0.0
 10
-29.53173828125
 20
-123.1015625
 30
0.0
 10
-29.53173828125
 20
-114.228515625
 30
0.0
  0
HATCH
  5
1DF
330
1DA
100
AcDbEntity
  8
Layer 1
 62
    31
420
 16107417
100
AcDbHatch
 10
0.0
 20
0.0
 30
0.0
210
0.0
220
0.0
230
1.0
  2
SOLID
 70
     1
 71
     0
 91
        1
 92
        1
 93
        1
 72
     4
 94
        3
 73
     0
 74
     1
 95
       35
 96
       31
 40
0.0
 40
0.0
 40
0.0
 40
0.0
 40
1.0
 40
1.0
 40
1.0
 40
2.0
 40
2.0
 40
2.0
 40
3.0
 40
3.0
 40
3.0
 40
4.0
 40
4.0
 40
4.0
 40
5.0
 40
5.0
 40
5.0
 40
6.0
 40
6.0
 40
6.0
 40
7.0
 40
7.0
 40
7.0
 40
8.0
 40
8.0
 40
8.0
 40
9.0
 40
9.0
 40
9.0
 40
10.0
 40
10.0
 40
10.0
 40
10.0
 10
-29.53173828125
 20
-114.228515625
 10
-29.53173828125
 20
-104.990234375
 10
-37.02197265625
 20
-97.50146484375
 10
-46.26025390625
 20
-97.50146484375
 10
-54.06396484375
 20
-97.50146484375
 10
-60.59814453125
 20
-102.8515625
 10
-62.44873046875
 20
-110.078125
 10
-64.29638671875
 20
-102.8515625
 10
-70.83251953125
 20
-97.50146484375
 10
-78.63525390625
 20
-97.50146484375
 10
-87.87353515625
 20
-97.50146484375
 10
-95.36376953125
 20
-104.990234375
 10
-95.36376953125
 20
-114.228515625
 10
-95.36376953125
 20
-123.466796875
 10
-87.87353515625
 20
-130.955078125
 10
-78.63525390625
 20
-130.955078125
 10
-78.63525390625
 20
-130.955078125
 10
-78.63525390625
 20
-139.587890625
 10
-78.63525390625
 20
-139.587890625
 10
-78.63525390625
 20
-148.828125
 10
-71.14599609375
 20
-156.314453125
 10
-61.90771484375
 20
-156.314453125
 10
-52.66943359375
 20
-156.314453125
 10
-45.18017578125
 20
-148.828125
 10
-45.18017578125
 20
-139.587890625
 10
-45.18017578125
 20
-139.587890625
 10
-45.18017578125
 20
-130.900390625
 10
-45.18017578125
 20
-130.900390625
 10
-36.44873046875
 20
-130.341796875
 10
-29.53173828125
 20
-123.1015625
 10
-29.53173828125
 20
-114.228515625
 97
        0
 75
     2
 76
     1
 98
        0
  0
ENDBLK
  5
1DD
330
1DA
100
AcDbEntity
  8
0
100
AcDbBlockEnd
  0
BLOCK
  5
1E2
330
1E0
100
AcDbEntity
  8
0
100
AcDbBlockBegin
  2
block 82
 70
     0
 71
     0
 10
0.0
 20
0.0
 30
0.0
  3
block 82
  1

  0
INSERT
  5
1E5
330
1E0
100
AcDbEntity
  8
Layer 1
100
AcDbBlockReference
  2
block 83
 10
0.0
 20
0.0
 30
0.0
  0
INSERT
  5
1EF
330
1E0
100
AcDbEntity
  8
Layer 1
100
AcDbBlockReference
  2
block 85
 10
0.0
 20
0.0
 30
0.0
  0
ENDBLK
  5
1E3
330
1E0
100
AcDbEntity
  8
0
100
AcDbBlockEnd
  0
BLOCK
  5
1E6
330
1E4
100
AcDbEntity
  8
0
100
AcDbBlockBegin
  2
block 83
 70
     0
 71
     0
 10
0.0
 20
0.0
 30
0.0
  3
block 83
  1

  0
INSERT
  5
1E9
330
1E4
100
AcDbEntity
  8
Layer 1
100
AcDbBlockReference
  2
block 84
 10
0.0
 20
0.0
 30
0.0
  0
ENDBLK
  5
1E7
330
1E4
100
AcDbEntity
  8
0
100
AcDbBlockEnd
  0
BLOCK
  5
1EA
330
1E8
100
AcDbEntity
  8
0
100
AcDbBlockBegin
  2
block 84
 70
     0
 71
     0
 10
0.0
 20
0.0
 30
0.0
  3
block 84
  1

  0
SPLINE
  5
1EC
330
1E8
100
AcDbEntity
  8
Layer 1
370
     0
100
AcDbSpline
210
0.0
220
0.0
230
1.0
 70
    11
 71
     3
 72
    17
 73
    13
 74
     0
 42
0.0000000001
 43
0.0000000001
 40
0.0
 40
0.0
 40
0.0
 40
0.0
 40
1.0
 40
1.0
 40
1.0
 40
2.0
 40
2.0
 40
2.0
 40
3.0
 40
3.0
 40
3.0
 40
4.0
 40
4.0
 40
4.0
 40
4.0
 10
-64.33642578125
 20
-130.685546875
 30
0.0
 10
-64.33642578125
 20
-132.02734375
 30
0.0
 10
-65.42333984375
 20
-133.11328125
 30
0.0
 10
-66.76416015625
 20
-133.11328125
 30
0.0
 10
-68.10595703125
 20
-133.11328125
 30
0.0
 10
-69.19091796875
 20
-132.02734375
 30
0.0
 10
-69.19091796875
 20
-130.685546875
 30
0.0
 10
-69.19091796875
 20
-129.34375
 30
0.0
 10
-68.10595703125
 20
-128.2578125
 30
0.0
 10
-66.76416015625
 20
-128.2578125
 30
0.0
 10
-65.42333984375
 20
-128.2578125
 30
0.0
 10
-64.33642578125
 20
-129.34375
 30
0.0
 10
-64.33642578125
 20
-130.685546875
 30
0.0
  0
HATCH
  5
1ED
330
1E8
100
AcDbEntity
  8
Layer 1
 62
    28
420
  4200210
100
AcDbHatch
 10
0.0
 20
0.0
 30
0.0
210
0.0
220
0.0
230
1.0
  2
SOLID
 70
     1
 71
     0
 91
        1
 92
        1
 93
        1
 72
     4
 94
        3
 73
     0
 74
     1
 95
       17
 96
       13
 40
0.0
 40
0.0
 40
0.0
 40
0.0
 40
1.0
 40
1.0
 40
1.0
 40
2.0
 40
2.0
 40
2.0
 40
3.0
 40
3.0
 40
3.0
 40
4.0
 40
4.0
 40
4.0
 40
4.0
 10
-64.33642578125
 20
-130.685546875
 10
-64.33642578125
 20
-132.02734375
 10
-65.42333984375
 20
-133.11328125
 10
-66.76416015625
 20
-133.11328125
 10
-68.10595703125
 20
-133.11328125
 10
-69.19091796875
 20
-132.02734375
 10
-69.19091796875
 20
-130.685546875
 10
-69.19091796875
 20
-129.34375
 10
-68.10595703125
 20
-128.2578125
 10
-66.76416015625
 20
-128.2578125
 10
-65.42333984375
 20
-128.2578125
 10
-64.33642578125
 20
-129.34375
 10
-64.33642578125
 20
-130.685546875
 97
        0
 75
     2
 76
     1
 98
        0
  0
ENDBLK
  5
1EB
330
1E8
100
AcDbEntity
  8
0
100
AcDbBlockEnd
  0
BLOCK
  5
1F0
330
1EE
100
AcDbEntity
  8
0
100
AcDbBlockBegin
  2
block 85
 70
     0
 71
     0
 10
0.0
 20
0.0
 30
0.0
  3
block 85
  1

  0
INSERT
  5
1F3
330
1EE
100
AcDbEntity
  8
Layer 1
100
AcDbBlockReference
  2
block 86
 10
0.0
 20
0.0
 30
0.0
  0
ENDBLK
  5
1F1
330
1EE
100
AcDbEntity
  8
0
100
AcDbBlockEnd
  0
BLOCK
  5
1F4
330
1F2
100
AcDbEntity
  8
0
100
AcDbBlockBegin
  2
block 86
 70
     0
 71
     0
 10
0.0
 20
0.0
 30
0.0
  3
block 86
  1

  0
SPLINE
  5
1F6
330
1F2
100
AcDbEntity
  8
Layer 1
370
     0
100
AcDbSpline
210
0.0
220
0.0
230
1.0
 70
    11
 71
     3
 72
    17
 73
    13
 74
     0
 42
0.0000000001
 43
0.0000000001
 40
0.0
 40
0.0
 40
0.0
 40
0.0
 40
1.0
 40
1.0
 40
1.0
 40
2.0
 40
2.0
 40
2.0
 40
3.0
 40
3.0
 40
3.0
 40
4.0
 40
4.0
 40
4.0
 40
4.0
 10
-55.70458984375
 20
-130.685546875
 30
0.0
 10
-55.70458984375
 20
-132.02734375
 30
0.0
 10
-56.78955078125
 20
-133.11328125
 30
0.0
 10
-58.13232421875
 20
-133.11328125
 30
0.0
 10
-59.47216796875
 20
-133.11328125
 30
0.0
 10
-60.56103515625
 20
-132.02734375
 30
0.0
 10
-60.56103515625
 20
-130.685546875
 30
0.0
 10
-60.56103515625
 20
-129.34375
 30
0.0
 10
-59.47216796875
 20
-128.2578125
 30
0.0
 10
-58.13232421875
 20
-128.2578125
 30
0.0
 10
-56.78955078125
 20
-128.2578125
 30
0.0
 10
-55.70458984375
 20
-129.34375
 30
0.0
 10
-55.70458984375
 20
-130.685546875
 30
0.0
  0
HATCH
  5
1F7
330
1F2
100
AcDbEntity
  8
Layer 1
 62
    28
420
  4200210
100
AcDbHatch
 10
0.0
 20
0.0
 30
0.0
210
0.0
220
0.0
230
1.0
  2
SOLID
 70
     1
 71
     0
 91
        1
 92
        1
 93
        1
 72
     4
 94
        3
 73
     0
 74
     1
 95
       17
 96
       13
 40
0.0
 40
0.0
 40
0.0
 40
0.0
 40
1.0
 40
1.0
 40
1.0
 40
2.0
 40
2.0
 40
2.0
 40
3.0
 40
3.0
 40
3.0
 40
4.0
 40
4.0
 40
4.0
 40
4.0
 10
-55.70458984375
 20
-130.685546875
 10
-55.70458984375
 20
-132.02734375
 10
-56.78955078125
 20
-133.11328125
 10
-58.13232421875
 20
-133.11328125
 10
-59.47216796875
 20
-133.11328125
 10
-60.56103515625
 20
-132.02734375
 10
-60.56103515625
 20
-130.685546875
 10
-60.56103515625
 20
-129.34375
 10
-59.47216796875
 20
-128.2578125
 10
-58.13232421875
 20
-128.2578125
 10
-56.78955078125
 20
-128.2578125
 10
-55.70458984375
 20
-129.34375
 10
-55.70458984375
 20
-130.685546875
 97
        0
 75
     2
 76
     1
 98
        0
  0
ENDBLK
  5
1F5
330
1F2
100
AcDbEntity
  8
0
100
AcDbBlockEnd
  0
BLOCK
  5
1FA
330
1F8
100
AcDbEntity
  8
0
100
AcDbBlockBegin
  2
block 87
 70
     0
 71
     0
 10
0.0
 20
0.0
 30
0.0
  3
block 87
  1

  0
INSERT
  5
1FD
330
1F8
100
AcDbEntity
  8
Layer 1
100
AcDbBlockReference
  2
block 88
 10
0.0
 20
0.0
 30
0.0
  0
INSERT
  5
20B
330
1F8
100
AcDbEntity
  8
Layer 1
100
AcDbBlockReference
  2
block 91
 10
0.0
 20
0.0
 30
0.0
  0
INSERT
  5
219
330
1F8
100
AcDbEntity
  8
Layer 1
100
AcDbBlockReference
  2
block 94
 10
0.0
 20
0.0
 30
0.0
  0
INSERT
  5
222
330
1F8
100
AcDbEntity
  8
Layer 1
100
AcDbBlockReference
  2
block 96
 10
0.0
 20
0.0
 30
0.0
  0
ENDBLK
  5
1FB
330
1F8
100
AcDbEntity
  8
0
100
AcDbBlockEnd
  0
BLOCK
  5
1FE
330
1FC
100
AcDbEntity
  8
0
100
AcDbBlockBegin
  2
block 88
 70
     0
 71
     0
 10
0.0
 20
0.0
 30
0.0
  3
block 88
  1

  0
INSERT
  5
201
330
1FC
100
AcDbEntity
  8
Layer 1
100
AcDbBlockReference
  2
block 89
 10
0.0
 20
0.0
 30
0.0
  0
ENDBLK
  5
1FF
330
1FC
100
AcDbEntity
  8
0
100
AcDbBlockEnd
  0
BLOCK
  5
202
330
200
100
AcDbEntity
  8
0
100
AcDbBlockBegin
  2
block 89
 70
     0
 71
     0
 10
0.0
 20
0.0
 30
0.0
  3
block 89
  1

  0
INSERT
  5
205
330
200
100
AcDbEntity
  8
Layer 1
100
AcDbBlockReference
  2
block 90
 10
0.0
 20
0.0
 30
0.0
  0
ENDBLK
  5
203
330
200
100
AcDbEntity
  8
0
100
AcDbBlockEnd
  0
BLOCK
  5
206
330
204
100
AcDbEntity
  8
0
100
AcDbBlockBegin
  2
block 90
 70
     0
 71
     0
 10
0.0
 20
0.0
 30
0.0
  3
block 90
  1

  0
SPLINE
  5
208
330
204
100
AcDbEntity
  8
Layer 1
370
     0
100
AcDbSpline
210
0.0
220
0.0
230
1.0
 70
    11
 71
     3
 72
    17
 73
    13
 74
     0
 42
0.0000000001
 43
0.0000000001
 40
0.0
 40
0.0
 40
0.0
 40
0.0
 40
1.0
 40
1.0
 40
1.0
 40
2.0
 40
2.0
 40
2.0
 40
3.0
 40
3.0
 40
3.0
 40
4.0
 40
4.0
 40
4.0
 40
4.0
 10
-73.10791015625
 20
-115.849609375
 30
0.0
 10
-73.10791015625
 20
-119.162109375
 30
0.0
 10
-75.79345703125
 20
-121.84765625
 30
0.0
 10
-79.10498046875
 20
-121.84765625
 30
0.0
 10
-82.41943359375
 20
-121.84765625
 30
0.0
 10
-85.10791015625
 20
-119.162109375
 30
0.0
 10
-85.10791015625
 20
-115.849609375
 30
0.0
 10
-85.10791015625
 20
-112.53515625
 30
0.0
 10
-82.41943359375
 20
-109.845703125
 30
0.0
 10
-79.10498046875
 20
-109.845703125
 30
0.0
 10
-75.79345703125
 20
-109.845703125
 30
0.0
 10
-73.10791015625
 20
-112.53515625
 30
0.0
 10
-73.10791015625
 20
-115.849609375
 30
0.0
  0
HATCH
  5
209
330
204
100
AcDbEntity
  8
Layer 1
 62
    28
420
  4200210
100
AcDbHatch
 10
0.0
 20
0.0
 30
0.0
210
0.0
220
0.0
230
1.0
  2
SOLID
 70
     1
 71
     0
 91
        1
 92
        1
 93
        1
 72
     4
 94
        3
 73
     0
 74
     1
 95
       17
 96
       13
 40
0.0
 40
0.0
 40
0.0
 40
0.0
 40
1.0
 40
1.0
 40
1.0
 40
2.0
 40
2.0
 40
2.0
 40
3.0
 40
3.0
 40
3.0
 40
4.0
 40
4.0
 40
4.0
 40
4.0
 10
-73.10791015625
 20
-115.849609375
 10
-73.10791015625
 20
-119.162109375
 10
-75.79345703125
 20
-121.84765625
 10
-79.10498046875
 20
-121.84765625
 10
-82.41943359375
 20
-121.84765625
 10
-85.10791015625
 20
-119.162109375
 10
-85.10791015625
 20
-115.849609375
 10
-85.10791015625
 20
-112.53515625
 10
-82.41943359375
 20
-109.845703125
 10
-79.10498046875
 20
-109.845703125
 10
-75.79345703125
 20
-109.845703125
 10
-73.10791015625
 20
-112.53515625
 10
-73.10791015625
 20
-115.849609375
 97
        0
 75
     2
 76
     1
 98
        0
  0
ENDBLK
  5
207
330
204
100
AcDbEntity
  8
0
100
AcDbBlockEnd
  0
BLOCK
  5
20C
330
20A
100
AcDbEntity
  8
0
100
AcDbBlockBegin
  2
block 91
 70
     0
 71
     0
 10
0.0
 20
0.0
 30
0.0
  3
block 91
  1

  0
INSERT
  5
20F
330
20A
100
AcDbEntity
  8
Layer 1
100
AcDbBlockReference
  2
block 92
 10
0.0
 20
0.0
 30
0.0
  0
ENDBLK
  5
20D
330
20A
100
AcDbEntity
  8
0
100
AcDbBlockEnd
  0
BLOCK
  5
210
330
20E
100
AcDbEntity
  8
0
100
AcDbBlockBegin
  2
block 92
 70
     0
 71
     0
 10
0.0
 20
0.0
 30
0.0
  3
block 92
  1

  0
INSERT
  5
213
330
20E
100
AcDbEntity
  8
Layer 1
100
AcDbBlockReference
  2
block 93
 10
0.0
 20
0.0
 30
0.0
  0
ENDBLK
  5
211
330
20E
100
AcDbEntity
  8
0
100
AcDbBlockEnd
  0
BLOCK
  5
214
330
212
100
AcDbEntity
  8
0
100
AcDbBlockBegin
  2
block 93
 70
     0
 71
     0
 10
0.0
 20
0.0
 30
0.0
  3
block 93
  1

  0
SPLINE
  5
216
330
212
100
AcDbEntity
  8
Layer 1
370
     0
100
AcDbSpline
210
0.0
220
0.0
230
1.0
 70
    11
 71
     3
 72
    17
 73
    13
 74
     0
 42
0.0000000001
 43
0.0000000001
 40
0.0
 40
0.0
 40
0.0
 40
0.0
 40
1.0
 40
1.0
 40
1.0
 40
2.0
 40
2.0
 40
2.0
 40
3.0
 40
3.0
 40
3.0
 40
4.0
 40
4.0
 40
4.0
 40
4.0
 10
-39.78759765625
 20
-115.849609375
 30
0.0
 10
-39.78759765625
 20
-119.162109375
 30
0.0
 10
-42.47412109375
 20
-121.84765625
 30
0.0
 10
-45.78857421875
 20
-121.84765625
 30
0.0
 10
-49.10009765625
 20
-121.84765625
 30
0.0
 10
-51.78857421875
 20
-119.162109375
 30
0.0
 10
-51.78857421875
 20
-115.849609375
 30
0.0
 10
-51.78857421875
 20
-112.53515625
 30
0.0
 10
-49.10009765625
 20
-109.845703125
 30
0.0
 10
-45.78857421875
 20
-109.845703125
 30
0.0
 10
-42.47412109375
 20
-109.845703125
 30
0.0
 10
-39.78759765625
 20
-112.53515625
 30
0.0
 10
-39.78759765625
 20
-115.849609375
 30
0.0
  0
HATCH
  5
217
330
212
100
AcDbEntity
  8
Layer 1
 62
    28
420
  4200210
100
AcDbHatch
 10
0.0
 20
0.0
 30
0.0
210
0.0
220
0.0
230
1.0
  2
SOLID
 70
     1
 71
     0
 91
        1
 92
        1
 93
        1
 72
     4
 94
        3
 73
     0
 74
     1
 95
       17
 96
       13
 40
0.0
 40
0.0
 40
0.0
 40
0.0
 40
1.0
 40
1.0
 40
1.0
 40
2.0
 40
2.0
 40
2.0
 40
3.0
 40
3.0
 40
3.0
 40
4.0
 40
4.0
 40
4.0
 40
4.0
 10
-39.78759765625
 20
-115.849609375
 10
-39.78759765625
 20
-119.162109375
 10
-42.47412109375
 20
-121.84765625
 10
-45.78857421875
 20
-121.84765625
 10
-49.10009765625
 20
-121.84765625
 10
-51.78857421875
 20
-119.162109375
 10
-51.78857421875
 20
-115.849609375
 10
-51.78857421875
 20
-112.53515625
 10
-49.10009765625
 20
-109.845703125
 10
-45.78857421875
 20
-109.845703125
 10
-42.47412109375
 20
-109.845703125
 10
-39.78759765625
 20
-112.53515625
 10
-39.78759765625
 20
-115.849609375
 97
        0
 75
     2
 76
     1
 98
        0
  0
ENDBLK
  5
215
330
212
100
AcDbEntity
  8
0
100
AcDbBlockEnd
  0
BLOCK
  5
21A
330
218
100
AcDbEntity
  8
0
100
AcDbBlockBegin
  2
block 94
 70
     0
 71
     0
 10
0.0
 20
0.0
 30
0.0
  3
block 94
  1

  0
INSERT
  5
21D
330
218
100
AcDbEntity
  8
Layer 1
100
AcDbBlockReference
  2
block 95
 10
0.0
 20
0.0
 30
0.0
  0
ENDBLK
  5
21B
330
218
100
AcDbEntity
  8
0
100
AcDbBlockEnd
  0
BLOCK
  5
21E
330
21C
100
AcDbEntity
  8
0
100
AcDbBlockBegin
  2
block 95
 70
     0
 71
     0
 10
0.0
 20
0.0
 30
0.0
  3
block 95
  1

  0
SPLINE
  5
220
330
21C
100
AcDbEntity
  8
Layer 1
370
     0
100
AcDbSpline
210
0.0
220
0.0
230
1.0
 70
    11
 71
     3
 72
    17
 73
    13
 74
     0
 42
0.0000000001
 43
0.0000000001
 40
0.0
 40
0.0
 40
0.0
 40
0.0
 40
1.0
 40
1.0
 40
1.0
 40
2.0
 40
2.0
 40
2.0
 40
3.0
 40
3.0
 40
3.0
 40
4.0
 40
4.0
 40
4.0
 40
4.0
 10
-75.08154296875
 20
-113.845703125
 30
0.0
 10
-75.08154296875
 20
-114.951171875
 30
0.0
 10
-75.97705078125
 20
-115.84765625
 30
0.0
 10
-77.08154296875
 20
-115.84765625
 30
0.0
 10
-78.18603515625
 20
-115.84765625
 30
0.0
 10
-79.08154296875
 20
-114.951171875
 30
0.0
 10
-79.08154296875
 20
-113.845703125
 30
0.0
 10
-79.08154296875
 20
-112.740234375
 30
0.0
 10
-78.18603515625
 20
-111.845703125
 30
0.0
 10
-77.08154296875
 20
-111.845703125
 30
0.0
 10
-75.97705078125
 20
-111.845703125
 30
0.0
 10
-75.08154296875
 20
-112.740234375
 30
0.0
 10
-75.08154296875
 20
-113.845703125
 30
0.0
  0
ENDBLK
  5
21F
330
21C
100
AcDbEntity
  8
0
100
AcDbBlockEnd
  0
BLOCK
  5
223
330
221
100
AcDbEntity
  8
0
100
AcDbBlockBegin
  2
block 96
 70
     0
 71
     0
 10
0.0
 20
0.0
 30
0.0
  3
block 96
  1

  0
INSERT
  5
226
330
221
100
AcDbEntity
  8
Layer 1
100
AcDbBlockReference
  2
block 97
 10
0.0
 20
0.0
 30
0.0
  0
ENDBLK
  5
224
330
221
100
AcDbEntity
  8
0
100
AcDbBlockEnd
  0
BLOCK
  5
227
330
225
100
AcDbEntity
  8
0
100
AcDbBlockBegin
  2
block 97
 70
     0
 71
     0
 10
0.0
 20
0.0
 30
0.0
  3
block 97
  1

  0
SPLINE
  5
229
330
225
100
AcDbEntity
  8
Layer 1
370
     0
100
AcDbSpline
210
0.0
220
0.0
230
1.0
 70
    11
 71
     3
 72
    17
 73
    13
 74
     0
 42
0.0000000001
 43
0.0000000001
 40
0.0
 40
0.0
 40
0.0
 40
0.0
 40
1.0
 40
1.0
 40
1.0
 40
2.0
 40
2.0
 40
2.0
 40
3.0
 40
3.0
 40
3.0
 40
4.0
 40
4.0
 40
4.0
 40
4.0
 10
-41.78759765625
 20
-113.845703125
 30
0.0
 10
-41.78759765625
 20
-114.951171875
 30
0.0
 10
-42.68505859375
 20
-115.84765625
 30
0.0
 10
-43.79052734375
 20
-115.84765625
 30
0.0
 10
-44.89404296875
 20
-115.84765625
 30
0.0
 10
-45.79052734375
 20
-114.951171875
 30
0.0
 10
-45.79052734375
 20
-113.845703125
 30
0.0
 10
-45.79052734375
 20
-112.740234375
 30
0.0
 10
-44.89404296875
 20
-111.845703125
 30
0.0
 10
-43.79052734375
 20
-111.845703125
 30
0.0
 10
-42.68505859375
 20
-111.845703125
 30
0.0
 10
-41.78759765625
 20
-112.740234375
 30
0.0
 10
-41.78759765625
 20
-113.845703125
 30
0.0
  0
ENDBLK
  5
228
330
225
100
AcDbEntity
  8
0
100
AcDbBlockEnd
  0
BLOCK
  5
22C
330
22A
100
AcDbEntity
  8
0
100
AcDbBlockBegin
  2
block 98
 70
     0
 71
     0
 10
0.0
 20
0.0
 30
0.0
  3
block 98
  1

  0
INSERT
  5
22F
330
22A
100
AcDbEntity
  8
Layer 1
100
AcDbBlockReference
  2
block 99
 10
0.0
 20
0.0
 30
0.0
  0
ENDBLK
  5
22D
330
22A
100
AcDbEntity
  8
0
100
AcDbBlockEnd
  0
BLOCK
  5
230
330
22E
100
AcDbEntity
  8
0
100
AcDbBlockBegin
  2
block 99
 70
     0
 71
     0
 10
0.0
 20
0.0
 30
0.0
  3
block 99
  1

  0
INSERT
  5
233
330
22E
100
AcDbEntity
  8
Layer 1
100
AcDbBlockReference
  2
block 100
 10
0.0
 20
0.0
 30
0.0
  0
ENDBLK
  5
231
330
22E
100
AcDbEntity
  8
0
100
AcDbBlockEnd
  0
BLOCK
  5
234
330
232
100
AcDbEntity
  8
0
100
AcDbBlockBegin
  2
block 100
 70
     0
 71
     0
 10
0.0
 20
0.0
 30
0.0
  3
block 100
  1

  0
INSERT
  5
237
330
232
100
AcDbEntity
  8
Layer 1
100
AcDbBlockReference
  2
block 101
 10
0.0
 20
0.0
 30
0.0
  0
ENDBLK
  5
235
330
232
100
AcDbEntity
  8
0
100
AcDbBlockEnd
  0
BLOCK
  5
238
330
236
100
AcDbEntity
  8
0
100
AcDbBlockBegin
  2
block 101
 70
     0
 71
     0
 10
0.0
 20
0.0
 30
0.0
  3
block 101
  1

  0
SPLINE
  5
23A
330
236
100
AcDbEntity
  8
Layer 1
370
     0
100
AcDbSpline
210
0.0
220
0.0
230
1.0
 70
    11
 71
     3
 72
    29
 73
    25
 74
     0
 42
0.0000000001
 43
0.0000000001
 40
0.0
 40
0.0
 40
0.0
 40
0.0
 40
1.0
 40
1.0
 40
1.0
 40
2.0
 40
2.0
 40
2.0
 40
3.0
 40
3.0
 40
3.0
 40
4.0
 40
4.0
 40
4.0
 40
5.0
 40
5.0
 40
5.0
 40
6.0
 40
6.0
 40
6.0
 40
7.0
 40
7.0
 40
7.0
 40
8.0
 40
8.0
 40
8.0
 40
8.0
 10
-62.44873046875
 20
-150.990234375
 30
0.0
 10
-68.53955078125
 20
-150.990234375
 30
0.0
 10
-70.96728515625
 20
-147.564453125
 30
0.0
 10
-71.06689453125
 20
-147.41796875
 30
0.0
 10
-71.24169921875
 20
-147.166015625
 30
0.0
 10
-71.17822265625
 20
-146.8203125
 30
0.0
 10
-70.92626953125
 20
-146.64453125
 30
0.0
 10
-70.67333984375
 20
-146.470703125
 30
0.0
 10
-70.32763671875
 20
-146.53515625
 30
0.0
 10
-70.15478515625
 20
-146.7890625
 30
0.0
 10
-70.05615234375
 20
-146.923828125
 30
0.0
 10
-67.91162109375
 20
-149.87890625
 30
0.0
 10
-62.44873046875
 20
-149.87890625
 30
0.0
 10
-57.43310546875
 20
-149.87890625
 30
0.0
 10
-54.73388671875
 20
-146.775390625
 30
0.0
 10
-54.70849609375
 20
-146.7421875
 30
0.0
 10
-54.50830078125
 20
-146.509765625
 30
0.0
 10
-54.15771484375
 20
-146.482421875
 30
0.0
 10
-53.92529296875
 20
-146.6796875
 30
0.0
 10
-53.69287109375
 20
-146.87890625
 30
0.0
 10
-53.66357421875
 20
-147.228515625
 30
0.0
 10
-53.86376953125
 20
-147.462890625
 30
0.0
 10
-53.98583984375
 20
-147.607421875
 30
0.0
 10
-56.92431640625
 20
-150.990234375
 30
0.0
 10
-62.44873046875
 20
-150.990234375
 30
0.0
  0
HATCH
  5
23B
330
236
100
AcDbEntity
  8
Layer 1
 62
    28
420
  4200210
100
AcDbHatch
 10
0.0
 20
0.0
 30
0.0
210
0.0
220
0.0
230
1.0
  2
SOLID
 70
     1
 71
     0
 91
        1
 92
        1
 93
        1
 72
     4
 94
        3
 73
     0
 74
     1
 95
       29
 96
       25
 40
0.0
 40
0.0
 40
0.0
 40
0.0
 40
1.0
 40
1.0
 40
1.0
 40
2.0
 40
2.0
 40
2.0
 40
3.0
 40
3.0
 40
3.0
 40
4.0
 40
4.0
 40
4.0
 40
5.0
 40
5.0
 40
5.0
 40
6.0
 40
6.0
 40
6.0
 40
7.0
 40
7.0
 40
7.0
 40
8.0
 40
8.0
 40
8.0
 40
8.0
 10
-62.44873046875
 20
-150.990234375
 10
-68.53955078125
 20
-150.990234375
 10
-70.96728515625
 20
-147.564453125
 10
-71.06689453125
 20
-147.41796875
 10
-71.24169921875
 20
-147.166015625
 10
-71.17822265625
 20
-146.8203125
 10
-70.92626953125
 20
-146.64453125
 10
-70.67333984375
 20
-146.470703125
 10
-70.32763671875
 20
-146.53515625
 10
-70.15478515625
 20
-146.7890625
 10
-70.05615234375
 20
-146.923828125
 10
-67.91162109375
 20
-149.87890625
 10
-62.44873046875
 20
-149.87890625
 10
-57.43310546875
 20
-149.87890625
 10
-54.73388671875
 20
-146.775390625
 10
-54.70849609375
 20
-146.7421875
 10
-54.50830078125
 20
-146.509765625
 10
-54.15771484375
 20
-146.482421875
 10
-53.92529296875
 20
-146.6796875
 10
-53.69287109375
 20
-146.87890625
 10
-53.66357421875
 20
-147.228515625
 10
-53.86376953125
 20
-147.462890625
 10
-53.98583984375
 20
-147.607421875
 10
-56.92431640625
 20
-150.990234375
 10
-62.44873046875
 20
-150.990234375
 97
        0
 75
     2
 76
     1
 98
        0
  0
ENDBLK
  5
239
330
236
100
AcDbEntity
  8
0
100
AcDbBlockEnd
  0
BLOCK
  5
23E
330
23C
100
AcDbEntity
  8
0
100
AcDbBlockBegin
  2
block 102
 70
     0
 71
     0
 10
0.0
 20
0.0
 30
0.0
  3
block 102
  1

  0
INSERT
  5
241
330
23C
100
AcDbEntity
  8
Layer 1
100
AcDbBlockReference
  2
block 103
 10
0.0
 20
0.0
 30
0.0
  0
INSERT
  5
24B
330
23C
100
AcDbEntity
  8
Layer 1
100
AcDbBlockReference
  2
block 105
 10
0.0
 20
0.0
 30
0.0
  0
ENDBLK
  5
23F
330
23C
100
AcDbEntity
  8
0
100
AcDbBlockEnd
  0
BLOCK
  5
242
330
240
100
AcDbEntity
  8
0
100
AcDbBlockBegin
  2
block 103
 70
     0
 71
     0
 10
0.0
 20
0.0
 30
0.0
  3
block 103
  1

  0
INSERT
  5
245
330
240
100
AcDbEntity
  8
Layer 1
100
AcDbBlockReference
  2
block 104
 10
0.0
 20
0.0
 30
0.0
  0
ENDBLK
  5
243
330
240
100
AcDbEntity
  8
0
100
AcDbBlockEnd
  0
BLOCK
  5
246
330
244
100
AcDbEntity
  8
0
100
AcDbBlockBegin
  2
block 104
 70
     0
 71
     0
 10
0.0
 20
0.0
 30
0.0
  3
block 104
  1

  0
SPLINE
  5
248
330
244
100
AcDbEntity
  8
Layer 1
370
     0
100
AcDbSpline
210
0.0
220
0.0
230
1.0
 70
     8
 71
     3
 72
    11
 73
     7
 74
     0
 42
0.0000000001
 43
0.0000000001
 40
0.0
 40
0.0
 40
0.0
 40
0.0
 40
1.0
 40
1.0
 40
1.0
 40
2.0
 40
2.0
 40
2.0
 40
2.0
 10
-51.45263671875
 20
-171.962890625
 30
0.0
 10
-54.58154296875
 20
-171.962890625
 30
0.0
 10
-57.11865234375
 20
-169.427734375
 30
0.0
 10
-57.11865234375
 20
-166.296875
 30
0.0
 10
-57.11865234375
 20
-163.16796875
 30
0.0
 10
-54.58154296875
 20
-160.6328125
 30
0.0
 10
-51.45263671875
 20
-160.6328125
 30
0.0
  0
HATCH
  5
249
330
244
100
AcDbEntity
  8
Layer 1
 62
    31
420
 16107417
100
AcDbHatch
 10
0.0
 20
0.0
 30
0.0
210
0.0
220
0.0
230
1.0
  2
SOLID
 70
     1
 71
     0
 91
        1
 92
        1
 93
        2
 72
     4
 94
        3
 73
     0
 74
     0
 95
       11
 96
        7
 40
0.0
 40
0.0
 40
0.0
 40
0.0
 40
1.0
 40
1.0
 40
1.0
 40
2.0
 40
2.0
 40
2.0
 40
2.0
 10
-51.45263671875
 20
-171.962890625
 10
-54.58154296875
 20
-171.962890625
 10
-57.11865234375
 20
-169.427734375
 10
-57.11865234375
 20
-166.296875
 10
-57.11865234375
 20
-163.16796875
 10
-54.58154296875
 20
-160.6328125
 10
-51.45263671875
 20
-160.6328125
 72
     1
 10
-51.45263671875
 20
-160.6328125
 11
-51.45263671875
 21
-171.962890625
 97
        0
 75
     2
 76
     1
 98
        0
  0
ENDBLK
  5
247
330
244
100
AcDbEntity
  8
0
100
AcDbBlockEnd
  0
BLOCK
  5
24C
330
24A
100
AcDbEntity
  8
0
100
AcDbBlockBegin
  2
block 105
 70
     0
 71
     0
 10
0.0
 20
0.0
 30
0.0
  3
block 105
  1

  0
INSERT
  5
24F
330
24A
100
AcDbEntity
  8
Layer 1
100
AcDbBlockReference
  2
block 106
 10
0.0
 20
0.0
 30
0.0
  0
ENDBLK
  5
24D
330
24A
100
AcDbEntity
  8
0
100
AcDbBlockEnd
  0
BLOCK
  5
250
330
24E
100
AcDbEntity
  8
0
100
AcDbBlockBegin
  2
block 106
 70
     0
 71
     0
 10
0.0
 20
0.0
 30
0.0
  3
block 106
  1

  0
SPLINE
  5
252
330
24E
100
AcDbEntity
  8
Layer 1
370
     0
100
AcDbSpline
210
0.0
220
0.0
230
1.0
 70
     8
 71
     3
 72
    11
 73
     7
 74
     0
 42
0.0000000001
 43
0.0000000001
 40
0.0
 40
0.0
 40
0.0
 40
0.0
 40
1.0
 40
1.0
 40
1.0
 40
2.0
 40
2.0
 40
2.0
 40
2.0
 10
-73.44287109375
 20
-171.962890625
 30
0.0
 10
-70.31494140625
 20
-171.962890625
 30
0.0
 10
-67.77880859375
 20
-169.427734375
 30
0.0
 10
-67.77880859375
 20
-166.296875
 30
0.0
 10
-67.77880859375
 20
-163.16796875
 30
0.0
 10
-70.31494140625
 20
-160.6328125
 30
0.0
 10
-73.44287109375
 20
-160.6328125
 30
0.0
  0
HATCH
  5
253
330
24E
100
AcDbEntity
  8
Layer 1
 62
    31
420
 16107417
100
AcDbHatch
 10
0.0
 20
0.0
 30
0.0
210
0.0
220
0.0
230
1.0
  2
SOLID
 70
     1
 71
     0
 91
        1
 92
        1
 93
        2
 72
     4
 94
        3
 73
     0
 74
     0
 95
       11
 96
        7
 40
0.0
 40
0.0
 40
0.0
 40
0.0
 40
1.0
 40
1.0
 40
1.0
 40
2.0
 40
2.0
 40
2.0
 40
2.0
 10
-73.44287109375
 20
-171.962890625
 10
-70.31494140625
 20
-171.962890625
 10
-67.77880859375
 20
-169.427734375
 10
-67.77880859375
 20
-166.296875
 10
-67.77880859375
 20
-163.16796875
 10
-70.31494140625
 20
-160.6328125
 10
-73.44287109375
 20
-160.6328125
 72
     1
 10
-73.44287109375
 20
-160.6328125
 11
-73.44287109375
 21
-171.962890625
 97
        0
 75
     2
 76
     1
 98
        0
  0
ENDBLK
  5
251
330
24E
100
AcDbEntity
  8
0
100
AcDbBlockEnd
  0
BLOCK
  5
256
330
254
100
AcDbEntity
  8
0
100
AcDbBlockBegin
  2
block 107
 70
     0
 71
     0
 10
0.0
 20
0.0
 30
0.0
  3
block 107
  1

  0
INSERT
  5
259
330
254
100
AcDbEntity
  8
Layer 1
100
AcDbBlockReference
  2
block 108
 10
0.0
 20
0.0
 30
0.0
  0
INSERT
  5
263
330
254
100
AcDbEntity
  8
Layer 1
100
AcDbBlockReference
  2
block 110
 10
0.0
 20
0.0
 30
0.0
  0
ENDBLK
  5
257
330
254
100
AcDbEntity
  8
0
100
AcDbBlockEnd
  0
BLOCK
  5
25A
330
258
100
AcDbEntity
  8
0
100
AcDbBlockBegin
  2
block 108
 70
     0
 71
     0
 10
0.0
 20
0.0
 30
0.0
  3
block 108
  1

  0
INSERT
  5
25D
330
258
100
AcDbEntity
  8
Layer 1
100
AcDbBlockReference
  2
block 109
 10
0.0
 20
0.0
 30
0.0
  0
ENDBLK
  5
25B
330
258
100
AcDbEntity
  8
0
100
AcDbBlockEnd
  0
BLOCK
  5
25E
330
25C
100
AcDbEntity
  8
0
100
AcDbBlockBegin
  2
block 109
 70
     0
 71
     0
 10
0.0
 20
0.0
 30
0.0
  3
block 109
  1

  0
SPLINE
  5
260
330
25C
100
AcDbEntity
  8
Layer 1
370
     0
100
AcDbSpline
210
0.0
220
0.0
230
1.0
 70
    11
 71
     3
 72
    32
 73
    28
 74
     0
 42
0.0000000001
 43
0.0000000001
 40
0.0
 40
0.0
 40
0.0
 40
0.0
 40
1.0
 40
1.0
 40
1.0
 40
2.0
 40
2.0
 40
2.0
 40
3.0
 40
3.0
 40
3.0
 40
4.0
 40
4.0
 40
4.0
 40
5.0
 40
5.0
 40
5.0
 40
6.0
 40
6.0
 40
6.0
 40
7.0
 40
7.0
 40
7.0
 40
8.0
 40
8.0
 40
8.0
 40
9.0
 40
9.0
 40
9.0
 40
9.0
 10
-78.74365234375
 20
-160.150390625
 30
0.0
 10
-80.53173828125
 20
-160.150390625
 30
0.0
 10
-81.97998046875
 20
-161.599609375
 30
0.0
 10
-81.97998046875
 20
-163.38671875
 30
0.0
 10
-81.97998046875
 20
-168.853515625
 30
0.0
 10
-86.42919921875
 20
-173.302734375
 30
0.0
 10
-91.89599609375
 20
-173.302734375
 30
0.0
 10
-97.36376953125
 20
-173.302734375
 30
0.0
 10
-101.80908203125
 20
-168.853515625
 30
0.0
 10
-101.80908203125
 20
-163.38671875
 30
0.0
 10
-101.80908203125
 20
-159.6875
 30
0.0
 10
-99.77001953125
 20
-156.4609375
 30
0.0
 10
-96.76025390625
 20
-154.755859375
 30
0.0
 10
-99.43603515625
 20
-152.77734375
 30
0.0
 10
-98.98974609375
 20
-149.6328125
 30
0.0
 10
-98.71630859375
 20
-148.501953125
 30
0.0
 10
-104.35302734375
 20
-151.095703125
 30
0.0
 10
-108.28466796875
 20
-156.78515625
 30
0.0
 10
-108.28466796875
 20
-163.38671875
 30
0.0
 10
-108.28466796875
 20
-172.421875
 30
0.0
 10
-100.93408203125
 20
-179.77734375
 30
0.0
 10
-91.89599609375
 20
-179.77734375
 30
0.0
 10
-82.85986328125
 20
-179.77734375
 30
0.0
 10
-75.50537109375
 20
-172.421875
 30
0.0
 10
-75.50537109375
 20
-163.38671875
 30
0.0
 10
-75.50537109375
 20
-161.599609375
 30
0.0
 10
-76.95654296875
 20
-160.150390625
 30
0.0
 10
-78.74365234375
 20
-160.150390625
 30
0.0
  0
HATCH
  5
261
330
25C
100
AcDbEntity
  8
Layer 1
 62
    17
420
  7487019
100
AcDbHatch
 10
0.0
 20
0.0
 30
0.0
210
0.0
220
0.0
230
1.0
  2
SOLID
 70
     1
 71
     0
 91
        1
 92
        1
 93
        1
 72
     4
 94
        3
 73
     0
 74
     1
 95
       32
 96
       28
 40
0.0
 40
0.0
 40
0.0
 40
0.0
 40
1.0
 40
1.0
 40
1.0
 40
2.0
 40
2.0
 40
2.0
 40
3.0
 40
3.0
 40
3.0
 40
4.0
 40
4.0
 40
4.0
 40
5.0
 40
5.0
 40
5.0
 40
6.0
 40
6.0
 40
6.0
 40
7.0
 40
7.0
 40
7.0
 40
8.0
 40
8.0
 40
8.0
 40
9.0
 40
9.0
 40
9.0
 40
9.0
 10
-78.74365234375
 20
-160.150390625
 10
-80.53173828125
 20
-160.150390625
 10
-81.97998046875
 20
-161.599609375
 10
-81.97998046875
 20
-163.38671875
 10
-81.97998046875
 20
-168.853515625
 10
-86.42919921875
 20
-173.302734375
 10
-91.89599609375
 20
-173.302734375
 10
-97.36376953125
 20
-173.302734375
 10
-101.80908203125
 20
-168.853515625
 10
-101.80908203125
 20
-163.38671875
 10
-101.80908203125
 20
-159.6875
 10
-99.77001953125
 20
-156.4609375
 10
-96.76025390625
 20
-154.755859375
 10
-99.43603515625
 20
-152.77734375
 10
-98.98974609375
 20
-149.6328125
 10
-98.71630859375
 20
-148.501953125
 10
-104.35302734375
 20
-151.095703125
 10
-108.28466796875
 20
-156.78515625
 10
-108.28466796875
 20
-163.38671875
 10
-108.28466796875
 20
-172.421875
 10
-100.93408203125
 20
-179.77734375
 10
-91.89599609375
 20
-179.77734375
 10
-82.85986328125
 20
-179.77734375
 10
-75.50537109375
 20
-172.421875
 10
-75.50537109375
 20
-163.38671875
 10
-75.50537109375
 20
-161.599609375
 10
-76.95654296875
 20
-160.150390625
 10
-78.74365234375
 20
-160.150390625
 97
        0
 75
     2
 76
     1
 98
        0
  0
ENDBLK
  5
25F
330
25C
100
AcDbEntity
  8
0
100
AcDbBlockEnd
  0
BLOCK
  5
264
330
262
100
AcDbEntity
  8
0
100
AcDbBlockBegin
  2
block 110
 70
     0
 71
     0
 10
0.0
 20
0.0
 30
0.0
  3
block 110
  1

  0
INSERT
  5
267
330
262
100
AcDbEntity
  8
Layer 1
100
AcDbBlockReference
  2
block 111
 10
0.0
 20
0.0
 30
0.0
  0
ENDBLK
  5
265
330
262
100
AcDbEntity
  8
0
100
AcDbBlockEnd
  0
BLOCK
  5
268
330
266
100
AcDbEntity
  8
0
100
AcDbBlockBegin
  2
block 111
 70
     0
 71
     0
 10
0.0
 20
0.0
 30
0.0
  3
block 111
  1

  0
SPLINE
  5
26A
330
266
100
AcDbEntity
  8
Layer 1
370
     0
100
AcDbSpline
210
0.0
220
0.0
230
1.0
 70
    11
 71
     3
 72
    20
 73
    16
 74
     0
 42
0.0000000001
 43
0.0000000001
 40
0.0
 40
0.0
 40
0.0
 40
0.0
 40
1.0
 40
1.0
 40
1.0
 40
2.0
 40
2.0
 40
2.0
 40
3.0
 40
3.0
 40
3.0
 40
4.0
 40
4.0
 40
4.0
 40
5.0
 40
5.0
 40
5.0
 40
5.0
 10
-96.76025390625
 20
-154.755859375
 30
0.0
 10
-95.32177734375
 20
-153.94140625
 30
0.0
 10
-93.66552734375
 20
-153.47265625
 30
0.0
 10
-91.89599609375
 20
-153.47265625
 30
0.0
 10
-90.10888671875
 20
-153.47265625
 30
0.0
 10
-88.65771484375
 20
-152.021484375
 30
0.0
 10
-88.65771484375
 20
-150.234375
 30
0.0
 10
-88.65771484375
 20
-148.4453125
 30
0.0
 10
-90.10888671875
 20
-146.99609375
 30
0.0
 10
-91.89599609375
 20
-146.99609375
 30
0.0
 10
-94.33056640625
 20
-146.99609375
 30
0.0
 10
-96.63623046875
 20
-147.544921875
 30
0.0
 10
-98.71630859375
 20
-148.501953125
 30
0.0
 10
-98.98974609375
 20
-149.6328125
 30
0.0
 10
-99.43603515625
 20
-152.77734375
 30
0.0
 10
-96.76025390625
 20
-154.755859375
 30
0.0
  0
HATCH
  5
26B
330
266
100
AcDbEntity
  8
Layer 1
 62
    31
420
 16107417
100
AcDbHatch
 10
0.0
 20
0.0
 30
0.0
210
0.0
220
0.0
230
1.0
  2
SOLID
 70
     1
 71
     0
 91
        1
 92
        1
 93
        1
 72
     4
 94
        3
 73
     0
 74
     1
 95
       20
 96
       16
 40
0.0
 40
0.0
 40
0.0
 40
0.0
 40
1.0
 40
1.0
 40
1.0
 40
2.0
 40
2.0
 40
2.0
 40
3.0
 40
3.0
 40
3.0
 40
4.0
 40
4.0
 40
4.0
 40
5.0
 40
5.0
 40
5.0
 40
5.0
 10
-96.76025390625
 20
-154.755859375
 10
-95.32177734375
 20
-153.94140625
 10
-93.66552734375
 20
-153.47265625
 10
-91.89599609375
 20
-153.47265625
 10
-90.10888671875
 20
-153.47265625
 10
-88.65771484375
 20
-152.021484375
 10
-88.65771484375
 20
-150.234375
 10
-88.65771484375
 20
-148.4453125
 10
-90.10888671875
 20
-146.99609375
 10
-91.89599609375
 20
-146.99609375
 10
-94.33056640625
 20
-146.99609375
 10
-96.63623046875
 20
-147.544921875
 10
-98.71630859375
 20
-148.501953125
 10
-98.98974609375
 20
-149.6328125
 10
-99.43603515625
 20
-152.77734375
 10
-96.76025390625
 20
-154.755859375
 97
        0
 75
     2
 76
     1
 98
        0
  0
ENDBLK
  5
269
330
266
100
AcDbEntity
  8
0
100
AcDbBlockEnd
  0
BLOCK
  5
26E
330
26C
100
AcDbEntity
  8
0
100
AcDbBlockBegin
  2
block 112
 70
     0
 71
     0
 10
0.0
 20
0.0
 30
0.0
  3
block 112
  1

  0
INSERT
  5
271
330
26C
100
AcDbEntity
  8
Layer 1
100
AcDbBlockReference
  2
block 113
 10
0.0
 20
0.0
 30
0.0
  0
ENDBLK
  5
26F
330
26C
100
AcDbEntity
  8
0
100
AcDbBlockEnd
  0
BLOCK
  5
272
330
270
100
AcDbEntity
  8
0
100
AcDbBlockBegin
  2
block 113
 70
     0
 71
     0
 10
0.0
 20
0.0
 30
0.0
  3
block 113
  1

  0
SPLINE
  5
274
330
270
100
AcDbEntity
  8
Layer 1
370
     0
100
AcDbSpline
210
0.0
220
0.0
230
1.0
 70
    11
 71
     3
 72
    20
 73
    16
 74
     0
 42
0.0000000001
 43
0.0000000001
 40
0.0
 40
0.0
 40
0.0
 40
0.0
 40
1.0
 40
1.0
 40
1.0
 40
2.0
 40
2.0
 40
2.0
 40
3.0
 40
3.0
 40
3.0
 40
4.0
 40
4.0
 40
4.0
 40
5.0
 40
5.0
 40
5.0
 40
5.0
 10
68.2607421875
 20
-138.9658203125
 30
0.0
 10
69.69921875
 20
-138.1513671875
 30
0.0
 10
71.35546875
 20
-137.6826171875
 30
0.0
 10
73.125
 20
-137.6826171875
 30
0.0
 10
74.9130859375
 20
-137.6826171875
 30
0.0
 10
76.3642578125
 20
-136.232421875
 30
0.0
 10
76.3642578125
 20
-134.4443359375
 30
0.0
 10
76.3642578125
 20
-132.65625
 30
0.0
 10
74.9130859375
 20
-131.2060546875
 30
0.0
 10
73.125
 20
-131.2060546875
 30
0.0
 10
70.6904296875
 20
-131.2060546875
 30
0.0
 10
68.384765625
 20
-131.755859375
 30
0.0
 10
66.3046875
 20
-132.712890625
 30
0.0
 10
66.03125
 20
-133.8427734375
 30
0.0
 10
65.5849609375
 20
-136.9873046875
 30
0.0
 10
68.2607421875
 20
-138.9658203125
 30
0.0
  0
HATCH
  5
275
330
270
100
AcDbEntity
  8
Layer 1
 62
    31
420
 16107417
100
AcDbHatch
 10
0.0
 20
0.0
 30
0.0
210
0.0
220
0.0
230
1.0
  2
SOLID
 70
     1
 71
     0
 91
        1
 92
        1
 93
        1
 72
     4
 94
        3
 73
     0
 74
     1
 95
       20
 96
       16
 40
0.0
 40
0.0
 40
0.0
 40
0.0
 40
1.0
 40
1.0
 40
1.0
 40
2.0
 40
2.0
 40
2.0
 40
3.0
 40
3.0
 40
3.0
 40
4.0
 40
4.0
 40
4.0
 40
5.0
 40
5.0
 40
5.0
 40
5.0
 10
68.2607421875
 20
-138.9658203125
 10
69.69921875
 20
-138.1513671875
 10
71.35546875
 20
-137.6826171875
 10
73.125
 20
-137.6826171875
 10
74.9130859375
 20
-137.6826171875
 10
76.3642578125
 20
-136.232421875
 10
76.3642578125
 20
-134.4443359375
 10
76.3642578125
 20
-132.65625
 10
74.9130859375
 20
-131.2060546875
 10
73.125
 20
-131.2060546875
 10
70.6904296875
 20
-131.2060546875
 10
68.384765625
 20
-131.755859375
 10
66.3046875
 20
-132.712890625
 10
66.03125
 20
-133.8427734375
 10
65.5849609375
 20
-136.9873046875
 10
68.2607421875
 20
-138.9658203125
 97
        0
 75
     2
 76
     1
 98
        0
  0
ENDBLK
  5
273
330
270
100
AcDbEntity
  8
0
100
AcDbBlockEnd
  0
ENDSEC
  0
SECTION
  2
ENTITIES
  0
INSERT
  5
3D
330
1F
100
AcDbEntity
  8
Layer 1
100
AcDbBlockReference
  2
block 2
 10
0.0
 20
0.0
 30
0.0
  0
INSERT
  5
4D
330
1F
100
AcDbEntity
  8
Layer 1
100
AcDbBlockReference
  2
block 4
 10
0.0
 20
0.0
 30
0.0
  0
INSERT
  5
5D
330
1F
100
AcDbEntity
  8
Layer 1
100
AcDbBlockReference
  2
block 6
 10
0.0
 20
0.0
 30
0.0
  0
INSERT
  5
67
330
1F
100
AcDbEntity
  8
Layer 1
100
AcDbBlockReference
  2
block 8
 10
0.0
 20
0.0
 30
0.0
  0
SPLINE
  5
70
330
1F
100
AcDbEntity
  8
Layer 1
370
     0
100
AcDbSpline
210
0.0
220
0.0
230
1.0
 70
    11
 71
     3
 72
    23
 73
    19
 74
     0
 42
0.0000000001
 43
0.0000000001
 40
0.0
 40
0.0
 40
0.0
 40
0.0
 40
1.0
 40
1.0
 40
1.0
 40
2.0
 40
2.0
 40
2.0
 40
3.0
 40
3.0
 40
3.0
 40
4.0
 40
4.0
 40
4.0
 40
5.0
 40
5.0
 40
5.0
 40
6.0
 40
6.0
 40
6.0
 40
6.0
 10
46.69287109375
 20
-167.654296875
 30
0.0
 10
43.73388671875
 20
-158.5751953125
 30
0.0
 10
35.21337890625
 20
-152.01171875
 30
0.0
 10
25.14990234375
 20
-152.01171875
 30
0.0
 10
15.08935546875
 20
-152.01171875
 30
0.0
 10
6.56689453125
 20
-158.5751953125
 30
0.0
 10
3.61083984375
 20
-167.654296875
 30
0.0
 10
2.89208984375
 20
-169.865234375
 30
0.0
 10
2.49072265625
 20
-172.21875
 30
0.0
 10
2.49072265625
 20
-174.669921875
 30
0.0
 10
2.49072265625
 20
-187.185546875
 30
0.0
 10
12.63720703125
 20
-197.330078125
 30
0.0
 10
25.14990234375
 20
-197.330078125
 30
0.0
 10
37.66455078125
 20
-197.330078125
 30
0.0
 10
47.81103515625
 20
-187.185546875
 30
0.0
 10
47.81103515625
 20
-174.669921875
 30
0.0
 10
47.81103515625
 20
-172.21875
 30
0.0
 10
47.41064453125
 20
-169.865234375
 30
0.0
 10
46.69287109375
 20
-167.654296875
 30
0.0
  0
HATCH
  5
71
330
1F
100
AcDbEntity
  8
Layer 1
 62
    17
420
  7487019
100
AcDbHatch
 10
0.0
 20
0.0
 30
0.0
210
0.0
220
0.0
230
1.0
  2
SOLID
 70
     1
 71
     0
 91
        1
 92
        1
 93
        1
 72
     4
 94
        3
 73
     0
 74
     1
 95
       23
 96
       19
 40
0.0
 40
0.0
 40
0.0
 40
0.0
 40
1.0
 40
1.0
 40
1.0
 40
2.0
 40
2.0
 40
2.0
 40
3.0
 40
3.0
 40
3.0
 40
4.0
 40
4.0
 40
4.0
 40
5.0
 40
5.0
 40
5.0
 40
6.0
 40
6.0
 40
6.0
 40
6.0
 10
46.69287109375
 20
-167.654296875
 10
43.73388671875
 20
-158.5751953125
 10
35.21337890625
 20
-152.01171875
 10
25.14990234375
 20
-152.01171875
 10
15.08935546875
 20
-152.01171875
 10
6.56689453125
 20
-158.5751953125
 10
3.61083984375
 20
-167.654296875
 10
2.89208984375
 20
-169.865234375
 10
2.49072265625
 20
-172.21875
 10
2.49072265625
 20
-174.669921875
 10
2.49072265625
 20
-187.185546875
 10
12.63720703125
 20
-197.330078125
 10
25.14990234375
 20
-197.330078125
 10
37.66455078125
 20
-197.330078125
 10
47.81103515625
 20
-187.185546875
 10
47.81103515625
 20
-174.669921875
 10
47.81103515625
 20
-172.21875
 10
47.41064453125
 20
-169.865234375
 10
46.69287109375
 20
-167.654296875
 97
        0
 75
     2
 76
     1
 98
        0
  0
INSERT
  5
73
330
1F
100
AcDbEntity
  8
Layer 1
100
AcDbBlockReference
  2
block 10
 10
0.0
 20
0.0
 30
0.0
  0
INSERT
  5
7D
330
1F
100
AcDbEntity
  8
Layer 1
100
AcDbBlockReference
  2
block 12
 10
0.0
 20
0.0
 30
0.0
  0
INSERT
  5
87
330
1F
100
AcDbEntity
  8
Layer 1
100
AcDbBlockReference
  2
block 14
 10
0.0
 20
0.0
 30
0.0
  0
INSERT
  5
8D
330
1F
100
AcDbEntity
  8
Layer 1
100
AcDbBlockReference
  2
block 15
 10
0.0
 20
0.0
 30
0.0
  0
SPLINE
  5
92
330
1F
100
AcDbEntity
  8
Layer 1
370
     0
100
AcDbSpline
210
0.0
220
0.0
230
1.0
 70
    11
 71
     3
 72
    53
 73
    49
 74
     0
 42
0.0000000001
 43
0.0000000001
 40
0.0
 40
0.0
 40
0.0
 40
0.0
 40
1.0
 40
1.0
 40
1.0
 40
2.0
 40
2.0
 40
2.0
 40
3.0
 40
3.0
 40
3.0
 40
4.0
 40
4.0
 40
4.0
 40
5.0
 40
5.0
 40
5.0
 40
6.0
 40
6.0
 40
6.0
 40
7.0
 40
7.0
 40
7.0
 40
8.0
 40
8.0
 40
8.0
 40
9.0
 40
9.0
 40
9.0
 40
10.0
 40
10.0
 40
10.0
 40
11.0
 40
11.0
 40
11.0
 40
12.0
 40
12.0
 40
12.0
 40
13.0
 40
13.0
 40
13.0
 40
14.0
 40
14.0
 40
14.0
 40
15.0
 40
15.0
 40
15.0
 40
16.0
 40
16.0
 40
16.0
 40
16.0
 10
143.37109375
 20
-182.35546875
 30
0.0
 10
141.462890625
 20
-184.783203125
 30
0.0
 10
139.689453125
 20
-185.884765625
 30
0.0
 10
135.501953125
 20
-187.73828125
 30
0.0
 10
135.1181640625
 20
-187.908203125
 30
0.0
 10
134.78125
 20
-188.1083984375
 30
0.0
 10
134.4814453125
 20
-188.328125
 30
0.0
 10
134.677734375
 20
-188.1162109375
 30
0.0
 10
134.9130859375
 20
-187.859375
 30
0.0
 10
135.234375
 20
-187.49609375
 30
0.0
 10
138.720703125
 20
-183.544921875
 30
0.0
 10
139.205078125
 20
-179.9140625
 30
0.0
 10
138.962890625
 20
-178.4765625
 30
0.0
 10
137.6796875
 20
-180.904296875
 30
0.0
 10
132.234375
 20
-182.98046875
 30
0.0
 10
131.330078125
 20
-183.6484375
 30
0.0
 10
129.90625
 20
-184.619140625
 30
0.0
 10
129.25
 20
-185.548828125
 30
0.0
 10
128.65625
 20
-186.423828125
 30
0.0
 10
128.064453125
 20
-187.296875
 30
0.0
 10
127.81640625
 20
-188.85546875
 30
0.0
 10
127.87890625
 20
-189.96875
 30
0.0
 10
127.978515625
 20
-191.755859375
 30
0.0
 10
128.166015625
 20
-192.033203125
 30
0.0
 10
128.4140625
 20
-193.474609375
 30
0.0
 10
129.84375
 20
-193.162109375
 30
0.0
 10
130.146484375
 20
-192.76953125
 30
0.0
 10
131.046875
 20
-192.1015625
 30
0.0
 10
131.7109375
 20
-191.5927734375
 30
0.0
 10
132.28515625
 20
-191.0244140625
 30
0.0
 10
132.7783203125
 20
-190.40234375
 30
0.0
 10
132.2744140625
 20
-191.4365234375
 30
0.0
 10
132.10546875
 20
-192.451171875
 30
0.0
 10
131.955078125
 20
-192.99609375
 30
0.0
 10
131.673828125
 20
-194.08203125
 30
0.0
 10
131.521484375
 20
-195.251953125
 30
0.0
 10
131.767578125
 20
-196.693359375
 30
0.0
 10
133.19921875
 20
-196.380859375
 30
0.0
 10
134.224609375
 20
-195.794921875
 30
0.0
 10
135.123046875
 20
-195.12890625
 30
0.0
 10
136.0078125
 20
-194.44921875
 30
0.0
 10
136.73828125
 20
-193.666015625
 30
0.0
 10
137.32421875
 20
-192.787109375
 30
0.0
 10
137.912109375
 20
-191.908203125
 30
0.0
 10
139.642578125
 20
-192.3828125
 30
0.0
 10
139.935546875
 20
-191.30859375
 30
0.0
 10
142.572265625
 20
-190.3125
 30
0.0
 10
143.615234375
 20
-183.791015625
 30
0.0
 10
143.37109375
 20
-182.35546875
 30
0.0
  0
HATCH
  5
93
330
1F
100
AcDbEntity
  8
Layer 1
 62
    17
420
  7487019
100
AcDbHatch
 10
0.0
 20
0.0
 30
0.0
210
0.0
220
0.0
230
1.0
  2
SOLID
 70
     1
 71
     0
 91
        1
 92
        1
 93
        1
 72
     4
 94
        3
 73
     0
 74
     1
 95
       53
 96
       49
 40
0.0
 40
0.0
 40
0.0
 40
0.0
 40
1.0
 40
1.0
 40
1.0
 40
2.0
 40
2.0
 40
2.0
 40
3.0
 40
3.0
 40
3.0
 40
4.0
 40
4.0
 40
4.0
 40
5.0
 40
5.0
 40
5.0
 40
6.0
 40
6.0
 40
6.0
 40
7.0
 40
7.0
 40
7.0
 40
8.0
 40
8.0
 40
8.0
 40
9.0
 40
9.0
 40
9.0
 40
10.0
 40
10.0
 40
10.0
 40
11.0
 40
11.0
 40
11.0
 40
12.0
 40
12.0
 40
12.0
 40
13.0
 40
13.0
 40
13.0
 40
14.0
 40
14.0
 40
14.0
 40
15.0
 40
15.0
 40
15.0
 40
16.0
 40
16.0
 40
16.0
 40
16.0
 10
143.37109375
 20
-182.35546875
 10
141.462890625
 20
-184.783203125
 10
139.689453125
 20
-185.884765625
 10
135.501953125
 20
-187.73828125
 10
135.1181640625
 20
-187.908203125
 10
134.78125
 20
-188.1083984375
 10
134.4814453125
 20
-188.328125
 10
134.677734375
 20
-188.1162109375
 10
134.9130859375
 20
-187.859375
 10
135.234375
 20
-187.49609375
 10
138.720703125
 20
-183.544921875
 10
139.205078125
 20
-179.9140625
 10
138.962890625
 20
-178.4765625
 10
137.6796875
 20
-180.904296875
 10
132.234375
 20
-182.98046875
 10
131.330078125
 20
-183.6484375
 10
129.90625
 20
-184.619140625
 10
129.25
 20
-185.548828125
 10
128.65625
 20
-186.423828125
 10
128.064453125
 20
-187.296875
 10
127.81640625
 20
-188.85546875
 10
127.87890625
 20
-189.96875
 10
127.978515625
 20
-191.755859375
 10
128.166015625
 20
-192.033203125
 10
128.4140625
 20
-193.474609375
 10
129.84375
 20
-193.162109375
 10
130.146484375
 20
-192.76953125
 10
131.046875
 20
-192.1015625
 10
131.7109375
 20
-191.5927734375
 10
132.28515625
 20
-191.0244140625
 10
132.7783203125
 20
-190.40234375
 10
132.2744140625
 20
-191.4365234375
 10
132.10546875
 20
-192.451171875
 10
131.955078125
 20
-192.99609375
 10
131.673828125
 20
-194.08203125
 10
131.521484375
 20
-195.251953125
 10
131.767578125
 20
-196.693359375
 10
133.19921875
 20
-196.380859375
 10
134.224609375
 20
-195.794921875
 10
135.123046875
 20
-195.12890625
 10
136.0078125
 20
-194.44921875
 10
136.73828125
 20
-193.666015625
 10
137.32421875
 20
-192.787109375
 10
137.912109375
 20
-191.908203125
 10
139.642578125
 20
-192.3828125
 10
139.935546875
 20
-191.30859375
 10
142.572265625
 20
-190.3125
 10
143.615234375
 20
-183.791015625
 10
143.37109375
 20
-182.35546875
 97
        0
 75
     2
 76
     1
 98
        0
  0
SPLINE
  5
94
330
1F
100
AcDbEntity
  8
Layer 1
370
     0
100
AcDbSpline
210
0.0
220
0.0
230
1.0
 70
    11
 71
     3
 72
    17
 73
    13
 74
     0
 42
0.0000000001
 43
0.0000000001
 40
0.0
 40
0.0
 40
0.0
 40
0.0
 40
1.0
 40
1.0
 40
1.0
 40
2.0
 40
2.0
 40
2.0
 40
3.0
 40
3.0
 40
3.0
 40
4.0
 40
4.0
 40
4.0
 40
4.0
 10
39.80712890625
 20
-39.21337890625
 30
0.0
 10
19.19873046875
 20
-39.21337890625
 30
0.0
 10
2.49072265625
 20
-55.92041015625
 30
0.0
 10
2.49072265625
 20
-76.52978515625
 30
0.0
 10
2.49072265625
 20
-97.13818359375
 30
0.0
 10
19.19873046875
 20
-113.845703125
 30
0.0
 10
39.80712890625
 20
-113.845703125
 30
0.0
 10
60.41748046875
 20
-113.845703125
 30
0.0
 10
77.12353515625
 20
-97.13818359375
 30
0.0
 10
77.12353515625
 20
-76.52978515625
 30
0.0
 10
77.12353515625
 20
-55.92041015625
 30
0.0
 10
60.41748046875
 20
-39.21337890625
 30
0.0
 10
39.80712890625
 20
-39.21337890625
 30
0.0
  0
HATCH
  5
95
330
1F
100
AcDbEntity
  8
Layer 1
 62
    25
420
  9332049
100
AcDbHatch
 10
0.0
 20
0.0
 30
0.0
210
0.0
220
0.0
230
1.0
  2
SOLID
 70
     1
 71
     0
 91
        1
 92
        1
 93
        1
 72
     4
 94
        3
 73
     0
 74
     1
 95
       17
 96
       13
 40
0.0
 40
0.0
 40
0.0
 40
0.0
 40
1.0
 40
1.0
 40
1.0
 40
2.0
 40
2.0
 40
2.0
 40
3.0
 40
3.0
 40
3.0
 40
4.0
 40
4.0
 40
4.0
 40
4.0
 10
39.80712890625
 20
-39.21337890625
 10
19.19873046875
 20
-39.21337890625
 10
2.49072265625
 20
-55.92041015625
 10
2.49072265625
 20
-76.52978515625
 10
2.49072265625
 20
-97.13818359375
 10
19.19873046875
 20
-113.845703125
 10
39.80712890625
 20
-113.845703125
 10
60.41748046875
 20
-113.845703125
 10
77.12353515625
 20
-97.13818359375
 10
77.12353515625
 20
-76.52978515625
 10
77.12353515625
 20
-55.92041015625
 10
60.41748046875
 20
-39.21337890625
 10
39.80712890625
 20
-39.21337890625
 97
        0
 75
     2
 76
     1
 98
        0
  0
INSERT
  5
97
330
1F
100
AcDbEntity
  8
Layer 1
100
AcDbBlockReference
  2
block 16
 10
0.0
 20
0.0
 30
0.0
  0
INSERT
  5
A1
330
1F
100
AcDbEntity
  8
Layer 1
100
AcDbBlockReference
  2
block 18
 10
0.0
 20
0.0
 30
0.0
  0
INSERT
  5
AB
330
1F
100
AcDbEntity
  8
Layer 1
100
AcDbBlockReference
  2
block 20
 10
0.0
 20
0.0
 30
0.0
  0
INSERT
  5
B5
330
1F
100
AcDbEntity
  8
Layer 1
100
AcDbBlockReference
  2
block 22
 10
0.0
 20
0.0
 30
0.0
  0
INSERT
  5
C3
330
1F
100
AcDbEntity
  8
Layer 1
100
AcDbBlockReference
  2
block 25
 10
0.0
 20
0.0
 30
0.0
  0
INSERT
  5
D1
330
1F
100
AcDbEntity
  8
Layer 1
100
AcDbBlockReference
  2
block 28
 10
0.0
 20
0.0
 30
0.0
  0
INSERT
  5
DB
330
1F
100
AcDbEntity
  8
Layer 1
100
AcDbBlockReference
  2
block 30
 10
0.0
 20
0.0
 30
0.0
  0
INSERT
  5
E5
330
1F
100
AcDbEntity
  8
Layer 1
100
AcDbBlockReference
  2
block 32
 10
0.0
 20
0.0
 30
0.0
  0
INSERT
  5
F7
330
1F
100
AcDbEntity
  8
Layer 1
100
AcDbBlockReference
  2
block 36
 10
0.0
 20
0.0
 30
0.0
  0
INSERT
  5
101
330
1F
100
AcDbEntity
  8
Layer 1
100
AcDbBlockReference
  2
block 38
 10
0.0
 20
0.0
 30
0.0
  0
SPLINE
  5
10A
330
1F
100
AcDbEntity
  8
Layer 1
370
     0
100
AcDbSpline
210
0.0
220
0.0
230
1.0
 70
    11
 71
     3
 72
    41
 73
    37
 74
     0
 42
0.0000000001
 43
0.0000000001
 40
0.0
 40
0.0
 40
0.0
 40
0.0
 40
1.0
 40
1.0
 40
1.0
 40
2.0
 40
2.0
 40
2.0
 40
3.0
 40
3.0
 40
3.0
 40
4.0
 40
4.0
 40
4.0
 40
5.0
 40
5.0
 40
5.0
 40
6.0
 40
6.0
 40
6.0
 40
7.0
 40
7.0
 40
7.0
 40
8.0
 40
8.0
 40
8.0
 40
9.0
 40
9.0
 40
9.0
 40
10.0
 40
10.0
 40
10.0
 40
11.0
 40
11.0
 40
11.0
 40
12.0
 40
12.0
 40
12.0
 40
12.0
 10
84.38134765625
 20
-131.8486328125
 30
0.0
 10
82.59228515625
 20
-131.8486328125
 30
0.0
 10
81.14501953125
 20
-133.2978515625
 30
0.0
 10
81.14501953125
 20
-135.0849609375
 30
0.0
 10
81.14501953125
 20
-140.552734375
 30
0.0
 10
76.69580078125
 20
-145.001953125
 30
0.0
 10
71.22900390625
 20
-145.001953125
 30
0.0
 10
65.76025390625
 20
-145.001953125
 30
0.0
 10
61.3154296875
 20
-140.552734375
 30
0.0
 10
61.3154296875
 20
-135.0849609375
 30
0.0
 10
61.3154296875
 20
-131.38671875
 30
0.0
 10
63.3544921875
 20
-128.16015625
 30
0.0
 10
66.36376953125
 20
-126.4541015625
 30
0.0
 10
67.80322265625
 20
-125.6396484375
 30
0.0
 10
69.45947265625
 20
-125.1708984375
 30
0.0
 10
71.22900390625
 20
-125.1708984375
 30
0.0
 10
73.01611328125
 20
-125.1708984375
 30
0.0
 10
74.46728515625
 20
-123.720703125
 30
0.0
 10
74.46728515625
 20
-121.9326171875
 30
0.0
 10
74.46728515625
 20
-120.14453125
 30
0.0
 10
73.01611328125
 20
-118.6943359375
 30
0.0
 10
71.22900390625
 20
-118.6943359375
 30
0.0
 10
68.79345703125
 20
-118.6943359375
 30
0.0
 10
66.48876953125
 20
-119.244140625
 30
0.0
 10
64.408203125
 20
-120.201171875
 30
0.0
 10
58.771484375
 20
-122.794921875
 30
0.0
 10
54.83984375
 20
-128.4833984375
 30
0.0
 10
54.83984375
 20
-135.0849609375
 30
0.0
 10
54.83984375
 20
-144.12109375
 30
0.0
 10
62.1904296875
 20
-151.4765625
 30
0.0
 10
71.22900390625
 20
-151.4765625
 30
0.0
 10
80.26416015625
 20
-151.4765625
 30
0.0
 10
87.61962890625
 20
-144.12109375
 30
0.0
 10
87.61962890625
 20
-135.0849609375
 30
0.0
 10
87.61962890625
 20
-133.2978515625
 30
0.0
 10
86.16845703125
 20
-131.8486328125
 30
0.0
 10
84.38134765625
 20
-131.8486328125
 30
0.0
  0
HATCH
  5
10B
330
1F
100
AcDbEntity
  8
Layer 1
 62
    17
420
  7487019
100
AcDbHatch
 10
0.0
 20
0.0
 30
0.0
210
0.0
220
0.0
230
1.0
  2
SOLID
 70
     1
 71
     0
 91
        1
 92
        1
 93
        1
 72
     4
 94
        3
 73
     0
 74
     1
 95
       41
 96
       37
 40
0.0
 40
0.0
 40
0.0
 40
0.0
 40
1.0
 40
1.0
 40
1.0
 40
2.0
 40
2.0
 40
2.0
 40
3.0
 40
3.0
 40
3.0
 40
4.0
 40
4.0
 40
4.0
 40
5.0
 40
5.0
 40
5.0
 40
6.0
 40
6.0
 40
6.0
 40
7.0
 40
7.0
 40
7.0
 40
8.0
 40
8.0
 40
8.0
 40
9.0
 40
9.0
 40
9.0
 40
10.0
 40
10.0
 40
10.0
 40
11.0
 40
11.0
 40
11.0
 40
12.0
 40
12.0
 40
12.0
 40
12.0
 10
84.38134765625
 20
-131.8486328125
 10
82.59228515625
 20
-131.8486328125
 10
81.14501953125
 20
-133.2978515625
 10
81.14501953125
 20
-135.0849609375
 10
81.14501953125
 20
-140.552734375
 10
76.69580078125
 20
-145.001953125
 10
71.22900390625
 20
-145.001953125
 10
65.76025390625
 20
-145.001953125
 10
61.3154296875
 20
-140.552734375
 10
61.3154296875
 20
-135.0849609375
 10
61.3154296875
 20
-131.38671875
 10
63.3544921875
 20
-128.16015625
 10
66.36376953125
 20
-126.4541015625
 10
67.80322265625
 20
-125.6396484375
 10
69.45947265625
 20
-125.1708984375
 10
71.22900390625
 20
-125.1708984375
 10
73.01611328125
 20
-125.1708984375
 10
74.46728515625
 20
-123.720703125
 10
74.46728515625
 20
-121.9326171875
 10
74.46728515625
 20
-120.14453125
 10
73.01611328125
 20
-118.6943359375
 10
71.22900390625
 20
-118.6943359375
 10
68.79345703125
 20
-118.6943359375
 10
66.48876953125
 20
-119.244140625
 10
64.408203125
 20
-120.201171875
 10
58.771484375
 20
-122.794921875
 10
54.83984375
 20
-128.4833984375
 10
54.83984375
 20
-135.0849609375
 10
54.83984375
 20
-144.12109375
 10
62.1904296875
 20
-151.4765625
 10
71.22900390625
 20
-151.4765625
 10
80.26416015625
 20
-151.4765625
 10
87.61962890625
 20
-144.12109375
 10
87.61962890625
 20
-135.0849609375
 10
87.61962890625
 20
-133.2978515625
 10
86.16845703125
 20
-131.8486328125
 10
84.38134765625
 20
-131.8486328125
 97
        0
 75
     2
 76
     1
 98
        0
  0
INSERT
  5
10D
330
1F
100
AcDbEntity
  8
Layer 1
100
AcDbBlockReference
  2
block 40
 10
0.0
 20
0.0
 30
0.0
  0
INSERT
  5
26D
330
1F
100
AcDbEntity
  8
Layer 1
100
AcDbBlockReference
  2
block 112
 10
0.0
 20
0.0
 30
0.0
  0
SPLINE
  5
276
330
1F
100
AcDbEntity
  8
Layer 1
370
     0
100
AcDbSpline
210
0.0
220
0.0
230
1.0
 70
    11
 71
     3
 72
    23
 73
    19
 74
     0
 42
0.0000000001
 43
0.0000000001
 40
0.0
 40
0.0
 40
0.0
 40
0.0
 40
1.0
 40
1.0
 40
1.0
 40
2.0
 40
2.0
 40
2.0
 40
3.0
 40
3.0
 40
3.0
 40
4.0
 40
4.0
 40
4.0
 40
5.0
 40
5.0
 40
5.0
 40
6.0
 40
6.0
 40
6.0
 40
6.0
 10
46.69189453125
 20
-120.24609375
 30
0.0
 10
42.20947265625
 20
-126.671875
 30
0.0
 10
34.25439453125
 20
-130.966796875
 30
0.0
 10
25.1494140625
 20
-130.966796875
 30
0.0
 10
16.0458984375
 20
-130.966796875
 30
0.0
 10
8.08984375
 20
-126.671875
 30
0.0
 10
3.6103515625
 20
-120.24609375
 30
0.0
 10
2.8916015625
 20
-122.45703125
 30
0.0
 10
2.490234375
 20
-124.810546875
 30
0.0
 10
2.490234375
 20
-127.26171875
 30
0.0
 10
2.490234375
 20
-139.77734375
 30
0.0
 10
12.63671875
 20
-149.923828125
 30
0.0
 10
25.1494140625
 20
-149.923828125
 30
0.0
 10
37.66455078125
 20
-149.923828125
 30
0.0
 10
47.81103515625
 20
-139.77734375
 30
0.0
 10
47.81103515625
 20
-127.26171875
 30
0.0
 10
47.81103515625
 20
-124.810546875
 30
0.0
 10
47.41064453125
 20
-122.45703125
 30
0.0
 10
46.69189453125
 20
-120.24609375
 30
0.0
  0
HATCH
  5
277
330
1F
100
AcDbEntity
  8
Layer 1
 62
    25
420
  9332049
100
AcDbHatch
 10
0.0
 20
0.0
 30
0.0
210
0.0
220
0.0
230
1.0
  2
SOLID
 70
     1
 71
     0
 91
        1
 92
        1
 93
        1
 72
     4
 94
        3
 73
     0
 74
     1
 95
       23
 96
       19
 40
0.0
 40
0.0
 40
0.0
 40
0.0
 40
1.0
 40
1.0
 40
1.0
 40
2.0
 40
2.0
 40
2.0
 40
3.0
 40
3.0
 40
3.0
 40
4.0
 40
4.0
 40
4.0
 40
5.0
 40
5.0
 40
5.0
 40
6.0
 40
6.0
 40
6.0
 40
6.0
 10
46.69189453125
 20
-120.24609375
 10
42.20947265625
 20
-126.671875
 10
34.25439453125
 20
-130.966796875
 10
25.1494140625
 20
-130.966796875
 10
16.0458984375
 20
-130.966796875
 10
8.08984375
 20
-126.671875
 10
3.6103515625
 20
-120.24609375
 10
2.8916015625
 20
-122.45703125
 10
2.490234375
 20
-124.810546875
 10
2.490234375
 20
-127.26171875
 10
2.490234375
 20
-139.77734375
 10
12.63671875
 20
-149.923828125
 10
25.1494140625
 20
-149.923828125
 10
37.66455078125
 20
-149.923828125
 10
47.81103515625
 20
-139.77734375
 10
47.81103515625
 20
-127.26171875
 10
47.81103515625
 20
-124.810546875
 10
47.41064453125
 20
-122.45703125
 10
46.69189453125
 20
-120.24609375
 97
        0
 75
     2
 76
     1
 98
        0
  0
ENDSEC
  0
SECTION
  2
OBJECTS
  0
DICTIONARY
  5
C
330
0
100
AcDbDictionary
281
     1
  3
ACAD_GROUP
350
D
  3
ACAD_LAYOUT
350
1A
  3
ACAD_MLINESTYLE
350
17
  3
ACAD_PLOTSETTINGS
350
19
  3
ACAD_PLOTSTYLENAME
350
E
  3
ACAD_TABLESTYLE
350
278
  3
ACAD_VISUALSTYLE
350
2A
  0
DICTIONARY
  5
D
102
{ACAD_REACTORS
330
C
102
}
330
C
100
AcDbDictionary
281
     1
  0
DICTIONARY
  5
1A
102
{ACAD_REACTORS
330
C
102
}
330
C
100
AcDbDictionary
281
     1
  3
Layout1
350
1E
  3
Layout2
350
26
  3
Model
350
22
  0
DICTIONARY
  5
17
102
{ACAD_REACTORS
330
C
102
}
330
C
100
AcDbDictionary
281
     1
  3
Standard
350
18
  0
DICTIONARY
  5
19
102
{ACAD_REACTORS
330
C
102
}
330
C
100
AcDbDictionary
281
     1
  0
ACDBDICTIONARYWDFLT
  5
E
102
{ACAD_REACTORS
330
C
102
}
330
C
100
AcDbDictionary
281
     1
  3
Normal
350
F
100
AcDbDictionaryWithDefault
340
F
  0
DICTIONARY
  5
278
102
{ACAD_REACTORS
330
C
102
}
330
C
100
AcDbDictionary
281
     1
  0
DICTIONARY
  5
2A
102
{ACAD_REACTORS
330
C
102
}
330
C
100
AcDbDictionary
281
     1
  3
2dWireframe
350
2F
  3
3D Hidden
350
31
  3
3dWireframe
350
30
  3
Basic
350
32
  3
Brighten
350
36
  3
ColorChange
350
3A
  3
Conceptual
350
34
  3
Dim
350
35
  3
Facepattern
350
39
  3
Flat
350
2B
  3
FlatWithEdges
350
2C
  3
Gouraud
350
2D
  3
GouraudWithEdges
350
2E
  3
Linepattern
350
38
  3
Realistic
350
33
  3
Thicken
350
37
  0
LAYOUT
  5
1E
102
{ACAD_REACTORS
330
1A
102
}
330
1A
100
AcDbPlotSettings
  1

  2
none_device
  4

  6

 40
0.0
 41
0.0
 42
0.0
 43
0.0
 44
0.0
 45
0.0
 46
0.0
 47
0.0
 48
0.0
 49
0.0
140
0.0
141
0.0
142
1.0
143
1.0
 70
   688
 72
     0
 73
     0
 74
     5
  7

 75
    16
 76
     0
 77
     2
 78
   300
147
1.0
148
0.0
149
0.0
100
AcDbLayout
  1
Layout1
 70
     1
 71
     1
 10
0.0
 20
0.0
 11
12.0
 21
9.0
 12
0.0
 22
0.0
 32
0.0
 14
1.000000000000000E+20
 24
1.000000000000000E+20
 34
1.000000000000000E+20
 15
-1.000000000000000E+20
 25
-1.000000000000000E+20
 35
-1.000000000000000E+20
146
0.0
 13
0.0
 23
0.0
 33
0.0
 16
1.0
 26
0.0
 36
0.0
 17
0.0
 27
1.0
 37
0.0
 76
     0
330
1B
  0
LAYOUT
  5
26
102
{ACAD_REACTORS
330
1A
102
}
330
1A
100
AcDbPlotSettings
  1

  2
none_device
  4

  6

 40
0.0
 41
0.0
 42
0.0
 43
0.0
 44
0.0
 45
0.0
 46
0.0
 47
0.0
 48
0.0
 49
0.0
140
0.0
141
0.0
142
1.0
143
1.0
 70
   688
 72
     0
 73
     0
 74
     5
  7

 75
    16
 76
     0
 77
     2
 78
   300
147
1.0
148
0.0
149
0.0
100
AcDbLayout
  1
Layout2
 70
     1
 71
     2
 10
0.0
 20
0.0
 11
0.0
 21
0.0
 12
0.0
 22
0.0
 32
0.0
 14
0.0
 24
0.0
 34
0.0
 15
0.0
 25
0.0
 35
0.0
146
0.0
 13
0.0
 23
0.0
 33
0.0
 16
1.0
 26
0.0
 36
0.0
 17
0.0
 27
1.0
 37
0.0
 76
     0
330
23
  0
LAYOUT
  5
22
102
{ACAD_REACTORS
330
1A
102
}
330
1A
100
AcDbPlotSettings
  1

  2
none_device
  4

  6

 40
0.0
 41
0.0
 42
0.0
 43
0.0
 44
0.0
 45
0.0
 46
0.0
 47
0.0
 48
0.0
 49
0.0
140
0.0
141
0.0
142
1.0
143
1.0
 70
  1712
 72
     0
 73
     0
 74
     0
  7

 75
     0
 76
     0
 77
     2
 78
   300
147
1.0
148
0.0
149
0.0
100
AcDbLayout
  1
Model
 70
     1
 71
     0
 10
0.0
 20
0.0
 11
12.0
 21
9.0
 12
0.0
 22
0.0
 32
0.0
 14
1.000000000000000E+20
 24
1.000000000000000E+20
 34
1.000000000000000E+20
 15
-1.000000000000000E+20
 25
-1.000000000000000E+20
 35
-1.000000000000000E+20
146
0.0
 13
0.0
 23
0.0
 33
0.0
 16
1.0
 26
0.0
 36
0.0
 17
0.0
 27
1.0
 37
0.0
 76
     0
330
1F
331
29
  0
MLINESTYLE
  5
18
102
{ACAD_REACTORS
330
17
102
}
330
17
100
AcDbMlineStyle
  2
Standard
 70
     0
  3

 62
   256
 51
90.0
 52
90.0
 71
     2
 49
0.5
 62
   256
  6
BYLAYER
 49
-0.5
 62
   256
  6
BYLAYER
  0
ACDBPLACEHOLDER
  5
F
102
{ACAD_REACTORS
330
E
102
}
330
E
  0
VISUALSTYLE
  5
2F
102
{ACAD_REACTORS
330
2A
102
}
330
2A
100
AcDbVisualStyle
  2
2dWireframe
 70
     4
 71
     0
 72
     2
 73
     0
 90
        0
 40
-0.6
 41
-30.0
 62
     5
 63
     7
421
 16777215
 74
     1
 91
        4
 64
     7
 65
   257
 75
     1
175
     1
 42
1.0
 92
        0
 66
   257
 43
1.0
 76
     1
 77
     6
 78
     2
 67
     7
 79
     5
170
     0
171
     0
290
     0
174
     0
 93
        1
 44
0.0
173
     0
291
     0
 45
0.0
1001
ACAD
1000
AcDbSavedByObjectVersion
1070
     0
  0
VISUALSTYLE
  5
31
102
{ACAD_REACTORS
330
2A
102
}
330
2A
100
AcDbVisualStyle
  2
3D Hidden
 70
     6
 71
     1
 72
     2
 73
     2
 90
        0
 40
-0.6
 41
-30.0
 62
     5
 63
     7
421
 16777215
 74
     2
 91
        2
 64
     7
 65
   257
 75
     2
175
     1
 42
40.0
 92
        0
 66
   257
 43
1.0
 76
     1
 77
     6
 78
     2
 67
     7
 79
     3
170
     0
171
     0
290
     0
174
     0
 93
        1
 44
0.0
173
     0
291
     0
 45
0.0
1001
ACAD
1000
AcDbSavedByObjectVersion
1070
     0
  0
VISUALSTYLE
  5
30
102
{ACAD_REACTORS
330
2A
102
}
330
2A
100
AcDbVisualStyle
  2
3dWireframe
 70
     5
 71
     0
 72
     2
 73
     0
 90
        0
 40
-0.6
 41
-30.0
 62
     5
 63
     7
421
 16777215
 74
     1
 91
        4
 64
     7
 65
   257
 75
     1
175
     1
 42
1.0
 92
        0
 66
   257
 43
1.0
 76
     1
 77
     6
 78
     2
 67
     7
 79
     5
170
     0
171
     0
290
     0
174
     0
 93
        1
 44
0.0
173
     0
291
     0
 45
0.0
1001
ACAD
1000
AcDbSavedByObjectVersion
1070
     0
  0
VISUALSTYLE
  5
32
102
{ACAD_REACTORS
330
2A
102
}
330
2A
100
AcDbVisualStyle
  2
Basic
 70
     7
 71
     1
 72
     0
 73
     1
 90
        0
 40
-0.6
 41
-30.0
 62
     5
 63
     7
421
 16777215
 74
     0
 91
        4
 64
     7
 65
   257
 75
     1
175
     1
 42
1.0
 92
        8
 66
     7
 43
1.0
 76
     1
 77
     6
 78
     2
 67
     7
 79
     5
170
     0
171
     0
290
     0
174
     0
 93
        1
 44
0.0
173
     0
291
     1
 45
0.0
1001
ACAD
1000
AcDbSavedByObjectVersion
1070
     0
  0
VISUALSTYLE
  5
36
102
{ACAD_REACTORS
330
2A
102
}
330
2A
100
AcDbVisualStyle
  2
Brighten
 70
    12
 71
     2
 72
     2
 73
     0
 90
        0
 40
-0.6
 41
-30.0
 62
     5
 63
     7
421
 16777215
 74
     1
 91
        4
 64
     7
 65
   257
 75
     1
175
     1
 42
1.0
 92
        8
 66
     7
 43
1.0
 76
     1
 77
     6
 78
     2
 67
     7
 79
     5
170
     0
171
     0
290
     0
174
     0
 93
        1
 44
50.0
173
     0
291
     1
 45
0.0
1001
ACAD
1000
AcDbSavedByObjectVersion
1070
     0
  0
VISUALSTYLE
  5
3A
102
{ACAD_REACTORS
330
2A
102
}
330
2A
100
AcDbVisualStyle
  2
ColorChange
 70
    16
 71
     2
 72
     2
 73
     3
 90
        0
 40
-0.6
 41
-30.0
 62
     5
 63
     8
421
  8421504
 74
     1
 91
        4
 64
     7
 65
   257
 75
     1
175
     1
 42
1.0
 92
        8
 66
     8
424
  8421504
 43
1.0
 76
     1
 77
     6
 78
     2
 67
     7
 79
     5
170
     0
171
     0
290
     0
174
     0
 93
        1
 44
0.0
173
     0
291
     1
 45
0.0
1001
ACAD
1000
AcDbSavedByObjectVersion
1070
     0
  0
VISUALSTYLE
  5
34
102
{ACAD_REACTORS
330
2A
102
}
330
2A
100
AcDbVisualStyle
  2
Conceptual
 70
     9
 71
     3
 72
     2
 73
     0
 90
        0
 40
-0.6
 41
-30.0
 62
     5
 63
     7
421
 16777215
 74
     2
 91
        2
 64
     7
 65
   257
 75
     1
175
     1
 42
40.0
 92
        8
 66
     7
 43
1.0
 76
     1
 77
     6
 78
     2
 67
     7
 79
     3
170
     0
171
     0
290
     0
174
     0
 93
        1
 44
0.0
173
     0
291
     0
 45
0.0
1001
ACAD
1000
AcDbSavedByObjectVersion
1070
     0
  0
VISUALSTYLE
  5
35
102
{ACAD_REACTORS
330
2A
102
}
330
2A
100
AcDbVisualStyle
  2
Dim
 70
    11
 71
     2
 72
     2
 73
     0
 90
        0
 40
-0.6
 41
-30.0
 62
     5
 63
     7
421
 16777215
 74
     1
 91
        4
 64
     7
 65
   257
 75
     1
175
     1
 42
1.0
 92
        8
 66
     7
 43
1.0
 76
     1
 77
     6
 78
     2
 67
     7
 79
     5
170
     0
171
     0
290
     0
174
     0
 93
        1
 44
-50.0
173
     0
291
     1
 45
0.0
1001
ACAD
1000
AcDbSavedByObjectVersion
1070
     0
  0
VISUALSTYLE
  5
39
102
{ACAD_REACTORS
330
2A
102
}
330
2A
100
AcDbVisualStyle
  2
Facepattern
 70
    15
 71
     2
 72
     2
 73
     0
 90
        0
 40
-0.6
 41
-30.0
 62
     5
 63
     7
421
 16777215
 74
     1
 91
        4
 64
     7
 65
   257
 75
     1
175
     1
 42
1.0
 92
        8
 66
     7
 43
1.0
 76
     1
 77
     6
 78
     2
 67
     7
 79
     5
170
     0
171
     0
290
     0
174
     0
 93
        1
 44
0.0
173
     0
291
     1
 45
0.0
1001
ACAD
1000
AcDbSavedByObjectVersion
1070
     0
  0
VISUALSTYLE
  5
2B
102
{ACAD_REACTORS
330
2A
102
}
330
2A
100
AcDbVisualStyle
  2
Flat
 70
     0
 71
     2
 72
     1
 73
     1
 90
        2
 40
-0.6
 41
30.0
 62
     5
 63
     7
421
 16777215
 74
     0
 91
        4
 64
     7
 65
   257
 75
     1
175
     1
 42
1.0
 92
        8
 66
     7
 43
1.0
 76
     1
 77
     6
 78
     2
 67
     7
 79
     5
170
     0
171
     0
290
     0
174
     0
 93
       13
 44
0.0
173
     0
291
     1
 45
0.0
1001
ACAD
1000
AcDbSavedByObjectVersion
1070
     0
  0
VISUALSTYLE
  5
2C
102
{ACAD_REACTORS
330
2A
102
}
330
2A
100
AcDbVisualStyle
  2
FlatWithEdges
 70
     1
 71
     2
 72
     1
 73
     1
 90
        2
 40
-0.6
 41
30.0
 62
     5
 63
     7
421
 16777215
 74
     1
 91
        4
 64
     7
 65
   257
 75
     1
175
     1
 42
1.0
 92
        0
 66
   257
 43
1.0
 76
     1
 77
     6
 78
     2
 67
     7
 79
     5
170
     0
171
     0
290
     0
174
     0
 93
       13
 44
0.0
173
     0
291
     1
 45
0.0
1001
ACAD
1000
AcDbSavedByObjectVersion
1070
     0
  0
VISUALSTYLE
  5
2D
102
{ACAD_REACTORS
330
2A
102
}
330
2A
100
AcDbVisualStyle
  2
Gouraud
 70
     2
 71
     2
 72
     2
 73
     1
 90
        2
 40
-0.6
 41
30.0
 62
     5
 63
     7
421
 16777215
 74
     0
 91
        4
 64
     7
 65
   257
 75
     1
175
     1
 42
1.0
 92
        0
 66
     7
 43
1.0
 76
     1
 77
     6
 78
     2
 67
     7
 79
     5
170
     0
171
     0
290
     0
174
     0
 93
       13
 44
0.0
173
     0
291
     1
 45
0.0
1001
ACAD
1000
AcDbSavedByObjectVersion
1070
     0
  0
VISUALSTYLE
  5
2E
102
{ACAD_REACTORS
330
2A
102
}
330
2A
100
AcDbVisualStyle
  2
GouraudWithEdges
 70
     3
 71
     2
 72
     2
 73
     1
 90
        2
 40
-0.6
 41
30.0
 62
     5
 63
     7
421
 16777215
 74
     1
 91
        4
 64
     7
 65
   257
 75
     1
175
     1
 42
1.0
 92
        0
 66
   257
 43
1.0
 76
     1
 77
     6
 78
     2
 67
     7
 79
     5
170
     0
171
     0
290
     0
174
     0
 93
       13
 44
0.0
173
     0
291
     1
 45
0.0
1001
ACAD
1000
AcDbSavedByObjectVersion
1070
     0
  0
VISUALSTYLE
  5
38
102
{ACAD_REACTORS
330
2A
102
}
330
2A
100
AcDbVisualStyle
  2
Linepattern
 70
    14
 71
     2
 72
     2
 73
     0
 90
        0
 40
-0.6
 41
-30.0
 62
     5
 63
     7
421
 16777215
 74
     1
 91
        4
 64
     7
 65
   257
 75
     7
175
     7
 42
1.0
 92
        8
 66
     7
 43
1.0
 76
     1
 77
     6
 78
     2
 67
     7
 79
     5
170
     0
171
     0
290
     0
174
     0
 93
        1
 44
0.0
173
     0
291
     1
 45
0.0
1001
ACAD
1000
AcDbSavedByObjectVersion
1070
     0
  0
VISUALSTYLE
  5
33
102
{ACAD_REACTORS
330
2A
102
}
330
2A
100
AcDbVisualStyle
  2
Realistic
 70
     8
 71
     2
 72
     2
 73
     0
 90
        0
 40
-0.6
 41
-30.0
 62
     5
 63
     7
421
 16777215
 74
     1
 91
        0
 64
     7
 65
   257
 75
     1
175
     1
 42
1.0
 92
        8
 66
     8
424
  7895160
 43
1.0
 76
     1
 77
     6
 78
     2
 67
     7
 79
     5
170
     0
171
     0
290
     0
174
     0
 93
       13
 44
0.0
173
     0
291
     0
 45
0.0
1001
ACAD
1000
AcDbSavedByObjectVersion
1070
     0
  0
VISUALSTYLE
  5
37
102
{ACAD_REACTORS
330
2A
102
}
330
2A
100
AcDbVisualStyle
  2
Thicken
 70
    13
 71
     2
 72
     2
 73
     0
 90
        0
 40
-0.6
 41
-30.0
 62
     5
 63
     7
421
 16777215
 74
     1
 91
        4
 64
     7
 65
   257
 75
     1
175
     1
 42
1.0
 92
       12
 66
     7
 43
1.0
 76
     1
 77
     6
 78
     2
 67
     7
 79
     5
170
     0
171
     0
290
     0
174
     0
 93
        1
 44
0.0
173
     0
291
     1
 45
0.0
1001
ACAD
1000
AcDbSavedByObjectVersion
1070
     0
  0
ENDSEC
  0
EOF
