  0
SECTION
  2
HEADER
  9
$ACADVER
  1
AC1018
  9
$ACADMAINTVER
 70
     0
  9
$DWGCODEPAGE
  3
ANSI_1252
  9
$INSBASE
 10
0.0
 20
0.0
 30
0.0
  9
$EXTMIN
 10
1.000000000000000E+20
 20
1.000000000000000E+20
 30
1.000000000000000E+20
  9
$EXTMAX
 10
-1.000000000000000E+20
 20
-1.000000000000000E+20
 30
-1.000000000000000E+20
  9
$LIMMIN
 10
0.0
 20
0.0
  9
$LIMMAX
 10
12.0
 20
9.0
  9
$ORTHOMODE
 70
     0
  9
$REGENMODE
 70
     1
  9
$FILLMODE
 70
     1
  9
$QTEXTMODE
 70
     0
  9
$MIRRTEXT
 70
     1
  9
$LTSCALE
 40
1.0
  9
$ATTMODE
 70
     1
  9
$TEXTSIZE
 40
0.2
  9
$TRACEWID
 40
0.05
  9
$TEXTSTYLE
  7
Standard
  9
$CLAYER
  8
0
  9
$CELTYPE
  6
ByLayer
  9
$CECOLOR
 62
   256
  9
$CELTSCALE
 40
1.0
  9
$DISPSILH
 70
     0
  9
$DIMSCALE
 40
1.0
  9
$DIMASZ
 40
0.18
  9
$DIMEXO
 40
0.0625
  9
$DIMDLI
 40
0.38
  9
$DIMRND
 40
0.0
  9
$DIMDLE
 40
0.0
  9
$DIMEXE
 40
0.18
  9
$DIMTP
 40
0.0
  9
$DIMTM
 40
0.0
  9
$DIMTXT
 40
0.18
  9
$DIMCEN
 40
0.09
  9
$DIMTSZ
 40
0.0
  9
$DIMTOL
 70
     0
  9
$DIMLIM
 70
     0
  9
$DIMTIH
 70
     1
  9
$DIMTOH
 70
     1
  9
$DIMSE1
 70
     0
  9
$DIMSE2
 70
     0
  9
$DIMTAD
 70
     0
  9
$DIMZIN
 70
     0
  9
$DIMBLK
  1

  9
$DIMASO
 70
     1
  9
$DIMSHO
 70
     1
  9
$DIMPOST
  1

  9
$DIMAPOST
  1

  9
$DIMALT
 70
     0
  9
$DIMALTD
 70
     2
  9
$DIMALTF
 40
25.4
  9
$DIMLFAC
 40
1.0
  9
$DIMTOFL
 70
     0
  9
$DIMTVP
 40
0.0
  9
$DIMTIX
 70
     0
  9
$DIMSOXD
 70
     0
  9
$DIMSAH
 70
     0
  9
$DIMBLK1
  1

  9
$DIMBLK2
  1

  9
$DIMSTYLE
  2
Standard
  9
$DIMCLRD
 70
     0
  9
$DIMCLRE
 70
     0
  9
$DIMCLRT
 70
     0
  9
$DIMTFAC
 40
1.0
  9
$DIMGAP
 40
0.09
  9
$DIMJUST
 70
     0
  9
$DIMSD1
 70
     0
  9
$DIMSD2
 70
     0
  9
$DIMTOLJ
 70
     1
  9
$DIMTZIN
 70
     0
  9
$DIMALTZ
 70
     0
  9
$DIMALTTZ
 70
     0
  9
$DIMUPT
 70
     0
  9
$DIMDEC
 70
     4
  9
$DIMTDEC
 70
     4
  9
$DIMALTU
 70
     2
  9
$DIMALTTD
 70
     2
  9
$DIMTXSTY
  7
Standard
  9
$DIMAUNIT
 70
     0
  9
$DIMADEC
 70
     0
  9
$DIMALTRND
 40
0.0
  9
$DIMAZIN
 70
     0
  9
$DIMDSEP
 70
    46
  9
$DIMATFIT
 70
     3
  9
$DIMFRAC
 70
     0
  9
$DIMLDRBLK
  1

  9
$DIMLUNIT
 70
     2
  9
$DIMLWD
 70
    -2
  9
$DIMLWE
 70
    -2
  9
$DIMTMOVE
 70
     0
  9
$LUNITS
 70
     2
  9
$LUPREC
 70
     4
  9
$SKETCHINC
 40
0.1
  9
$FILLETRAD
 40
0.5
  9
$AUNITS
 70
     0
  9
$AUPREC
 70
     0
  9
$MENU
  1
.
  9
$ELEVATION
 40
0.0
  9
$PELEVATION
 40
0.0
  9
$THICKNESS
 40
0.0
  9
$LIMCHECK
 70
     0
  9
$CHAMFERA
 40
0.5
  9
$CHAMFERB
 40
0.5
  9
$CHAMFERC
 40
1.0
  9
$CHAMFERD
 40
0.0
  9
$SKPOLY
 70
     0
  9
$TDCREATE
 40
2456899.633781944
  9
$TDUCREATE
 40
2456899.758781944
  9
$TDUPDATE
 40
2456899.633781956
  9
$TDUUPDATE
 40
2456899.758781956
  9
$TDINDWG
 40
0.0000000116
  9
$TDUSRTIMER
 40
0.0000000116
  9
$USRTIMER
 70
     1
  9
$ANGBASE
 50
0.0
  9
$ANGDIR
 70
     0
  9
$PDMODE
 70
     0
  9
$PDSIZE
 40
0.0
  9
$PLINEWID
 40
0.0
  9
$SPLFRAME
 70
     0
  9
$SPLINETYPE
 70
     6
  9
$SPLINESEGS
 70
     8
  9
$HANDSEED
  5
E5
  9
$SURFTAB1
 70
     6
  9
$SURFTAB2
 70
     6
  9
$SURFTYPE
 70
     6
  9
$SURFU
 70
     6
  9
$SURFV
 70
     6
  9
$UCSBASE
  2

  9
$UCSNAME
  2

  9
$UCSORG
 10
0.0
 20
0.0
 30
0.0
  9
$UCSXDIR
 10
1.0
 20
0.0
 30
0.0
  9
$UCSYDIR
 10
0.0
 20
1.0
 30
0.0
  9
$UCSORTHOREF
  2

  9
$UCSORTHOVIEW
 70
     0
  9
$UCSORGTOP
 10
0.0
 20
0.0
 30
0.0
  9
$UCSORGBOTTOM
 10
0.0
 20
0.0
 30
0.0
  9
$UCSORGLEFT
 10
0.0
 20
0.0
 30
0.0
  9
$UCSORGRIGHT
 10
0.0
 20
0.0
 30
0.0
  9
$UCSORGFRONT
 10
0.0
 20
0.0
 30
0.0
  9
$UCSORGBACK
 10
0.0
 20
0.0
 30
0.0
  9
$PUCSBASE
  2

  9
$PUCSNAME
  2

  9
$PUCSORG
 10
0.0
 20
0.0
 30
0.0
  9
$PUCSXDIR
 10
1.0
 20
0.0
 30
0.0
  9
$PUCSYDIR
 10
0.0
 20
1.0
 30
0.0
  9
$PUCSORTHOREF
  2

  9
$PUCSORTHOVIEW
 70
     0
  9
$PUCSORGTOP
 10
0.0
 20
0.0
 30
0.0
  9
$PUCSORGBOTTOM
 10
0.0
 20
0.0
 30
0.0
  9
$PUCSORGLEFT
 10
0.0
 20
0.0
 30
0.0
  9
$PUCSORGRIGHT
 10
0.0
 20
0.0
 30
0.0
  9
$PUCSORGFRONT
 10
0.0
 20
0.0
 30
0.0
  9
$PUCSORGBACK
 10
0.0
 20
0.0
 30
0.0
  9
$USERI1
 70
     0
  9
$USERI2
 70
     0
  9
$USERI3
 70
     0
  9
$USERI4
 70
     0
  9
$USERI5
 70
     0
  9
$USERR1
 40
0.0
  9
$USERR2
 40
0.0
  9
$USERR3
 40
0.0
  9
$USERR4
 40
0.0
  9
$USERR5
 40
0.0
  9
$WORLDVIEW
 70
     1
  9
$SHADEDGE
 70
     3
  9
$SHADEDIF
 70
    70
  9
$TILEMODE
 70
     1
  9
$MAXACTVP
 70
    64
  9
$PINSBASE
 10
0.0
 20
0.0
 30
0.0
  9
$PLIMCHECK
 70
     0
  9
$PEXTMIN
 10
1.000000000000000E+20
 20
1.000000000000000E+20
 30
1.000000000000000E+20
  9
$PEXTMAX
 10
-1.000000000000000E+20
 20
-1.000000000000000E+20
 30
-1.000000000000000E+20
  9
$PLIMMIN
 10
0.0
 20
0.0
  9
$PLIMMAX
 10
12.0
 20
9.0
  9
$UNITMODE
 70
     0
  9
$VISRETAIN
 70
     1
  9
$PLINEGEN
 70
     0
  9
$PSLTSCALE
 70
     1
  9
$TREEDEPTH
 70
  3020
  9
$CMLSTYLE
  2
Standard
  9
$CMLJUST
 70
     0
  9
$CMLSCALE
 40
1.0
  9
$PROXYGRAPHICS
 70
     1
  9
$MEASUREMENT
 70
     0
  9
$CELWEIGHT
370
    -1
  9
$ENDCAPS
280
     0
  9
$JOINSTYLE
280
     0
  9
$LWDISPLAY
290
     1
  9
$INSUNITS
 70
     1
  9
$HYPERLINKBASE
  1

  9
$STYLESHEET
  1

  9
$XEDIT
290
     1
  9
$CEPSNTYPE
380
     0
  9
$PSTYLEMODE
290
     1
  9
$FINGERPRINTGUID
  2
{3C1BA958-6435-4858-B51A-BE07758B0317}
  9
$VERSIONGUID
  2
{FAEB1C32-E019-11D5-929B-00C0DF256EC4}
  9
$EXTNAMES
290
     1
  9
$PSVPSCALE
 40
0.0
  9
$OLESTARTUP
290
     0
  9
$SORTENTS
280
   127
  9
$INDEXCTL
280
     0
  9
$HIDETEXT
280
     1
  9
$XCLIPFRAME
290
     0
  9
$HALOGAP
280
     0
  9
$OBSCOLOR
 70
   257
  9
$OBSLTYPE
280
     0
  9
$INTERSECTIONDISPLAY
280
     0
  9
$INTERSECTIONCOLOR
 70
   257
  9
$DIMASSOC
280
     2
  9
$PROJECTNAME
  1

  0
ENDSEC
  0
SECTION
  2
CLASSES
  0
CLASS
  1
ACDBDICTIONARYWDFLT
  2
AcDbDictionaryWithDefault
  3
ObjectDBX Classes
 90
        0
 91
        3
280
     0
281
     0
  0
CLASS
  1
VISUALSTYLE
  2
AcDbVisualStyle
  3
ObjectDBX Classes
 90
     4095
 91
        3
280
     0
281
     0
  0
ENDSEC
  0
SECTION
  2
TABLES
  0
TABLE
  2
VPORT
  5
8
330
0
100
AcDbSymbolTable
 70
     1
  0
VPORT
  5
29
330
8
100
AcDbSymbolTableRecord
100
AcDbViewportTableRecord
  2
*Active
 70
     0
 10
0.0
 20
0.0
 11
1.0
 21
1.0
 12
0.0
 22
0.0
 13
0.0
 23
0.0
 14
0.5
 24
0.5
 15
0.5
 25
0.5
 16
0.0
 26
0.0
 36
1.0
 17
100.0
 27
-100.0
 37
0.0
 40
200.0
 41
1.0
 42
50.0
 43
0.0
 44
0.0
 50
0.0
 51
0.0
 71
     0
 72
   100
 73
     1
 74
     3
 75
     0
 76
     0
 77
     0
 78
     0
281
     0
 65
     1
110
0.0
120
0.0
130
0.0
111
1.0
121
0.0
131
0.0
112
0.0
122
1.0
132
0.0
 79
     0
146
0.0
  0
ENDTAB
  0
TABLE
  2
LTYPE
  5
5
330
0
100
AcDbSymbolTable
 70
     1
  0
LTYPE
  5
14
330
5
100
AcDbSymbolTableRecord
100
AcDbLinetypeTableRecord
  2
ByBlock
 70
     0
  3

 72
    65
 73
     0
 40
0.0
  0
LTYPE
  5
15
330
5
100
AcDbSymbolTableRecord
100
AcDbLinetypeTableRecord
  2
ByLayer
 70
     0
  3

 72
    65
 73
     0
 40
0.0
  0
LTYPE
  5
16
330
5
100
AcDbSymbolTableRecord
100
AcDbLinetypeTableRecord
  2
Continuous
 70
     0
  3
Solid line
 72
    65
 73
     0
 40
0.0
  0
ENDTAB
  0
TABLE
  2
LAYER
  5
2
330
0
100
AcDbSymbolTable
 70
     2
  0
LAYER
  5
10
330
2
100
AcDbSymbolTableRecord
100
AcDbLayerTableRecord
  2
0
 70
     0
 62
     7
  6
Continuous
370
    -3
390
F
  0
LAYER
  5
3B
330
2
100
AcDbSymbolTableRecord
100
AcDbLayerTableRecord
  2
Layer 1
 70
     0
 62
     7
  6
Continuous
370
    -3
390
F
  0
ENDTAB
  0
TABLE
  2
STYLE
  5
3
330
0
100
AcDbSymbolTable
 70
     1
  0
STYLE
  5
11
330
3
100
AcDbSymbolTableRecord
100
AcDbTextStyleTableRecord
  2
Standard
 70
     0
 40
0.0
 41
1.0
 50
0.0
 71
     0
 42
0.2
  3
txt
  4

  0
ENDTAB
  0
TABLE
  2
VIEW
  5
6
330
0
100
AcDbSymbolTable
 70
     0
  0
ENDTAB
  0
TABLE
  2
UCS
  5
7
330
0
100
AcDbSymbolTable
 70
     0
  0
ENDTAB
  0
TABLE
  2
APPID
  5
9
330
0
100
AcDbSymbolTable
 70
     1
  0
APPID
  5
12
330
9
100
AcDbSymbolTableRecord
100
AcDbRegAppTableRecord
  2
ACAD
 70
     0
  0
ENDTAB
  0
TABLE
  2
DIMSTYLE
  5
A
330
0
100
AcDbSymbolTable
 70
     1
100
AcDbDimStyleTable
  0
DIMSTYLE
105
27
330
A
100
AcDbSymbolTableRecord
100
AcDbDimStyleTableRecord
  2
Standard
 70
     0
340
11
  0
ENDTAB
  0
TABLE
  2
BLOCK_RECORD
  5
1
330
0
100
AcDbSymbolTable
 70
    36
  0
BLOCK_RECORD
  5
1F
330
1
100
AcDbSymbolTableRecord
100
AcDbBlockTableRecord
  2
*Model_Space
340
22
  0
BLOCK_RECORD
  5
1B
330
1
100
AcDbSymbolTableRecord
100
AcDbBlockTableRecord
  2
*Paper_Space
340
1E
  0
BLOCK_RECORD
  5
23
330
1
100
AcDbSymbolTableRecord
100
AcDbBlockTableRecord
  2
*Paper_Space0
340
26
  0
BLOCK_RECORD
  5
3C
330
1
100
AcDbSymbolTableRecord
100
AcDbBlockTableRecord
  2
block 2
340
0
102
{BLKREFS
331
3D
102
}
  0
BLOCK_RECORD
  5
40
330
1
100
AcDbSymbolTableRecord
100
AcDbBlockTableRecord
  2
block 3
340
0
102
{BLKREFS
331
41
102
}
  0
BLOCK_RECORD
  5
45
330
1
100
AcDbSymbolTableRecord
100
AcDbBlockTableRecord
  2
block 4
340
0
102
{BLKREFS
331
46
102
}
  0
BLOCK_RECORD
  5
49
330
1
100
AcDbSymbolTableRecord
100
AcDbBlockTableRecord
  2
block 5
340
0
102
{BLKREFS
331
4A
102
}
  0
BLOCK_RECORD
  5
4E
330
1
100
AcDbSymbolTableRecord
100
AcDbBlockTableRecord
  2
block 6
340
0
102
{BLKREFS
331
4F
102
}
  0
BLOCK_RECORD
  5
52
330
1
100
AcDbSymbolTableRecord
100
AcDbBlockTableRecord
  2
block 7
340
0
102
{BLKREFS
331
53
102
}
  0
BLOCK_RECORD
  5
57
330
1
100
AcDbSymbolTableRecord
100
AcDbBlockTableRecord
  2
block 8
340
0
102
{BLKREFS
331
58
102
}
  0
BLOCK_RECORD
  5
5B
330
1
100
AcDbSymbolTableRecord
100
AcDbBlockTableRecord
  2
block 9
340
0
102
{BLKREFS
331
5C
102
}
  0
BLOCK_RECORD
  5
61
330
1
100
AcDbSymbolTableRecord
100
AcDbBlockTableRecord
  2
block 10
340
0
102
{BLKREFS
331
62
102
}
  0
BLOCK_RECORD
  5
65
330
1
100
AcDbSymbolTableRecord
100
AcDbBlockTableRecord
  2
block 11
340
0
102
{BLKREFS
331
66
102
}
  0
BLOCK_RECORD
  5
70
330
1
100
AcDbSymbolTableRecord
100
AcDbBlockTableRecord
  2
block 12
340
0
102
{BLKREFS
331
71
102
}
  0
BLOCK_RECORD
  5
74
330
1
100
AcDbSymbolTableRecord
100
AcDbBlockTableRecord
  2
block 13
340
0
102
{BLKREFS
331
75
102
}
  0
BLOCK_RECORD
  5
7F
330
1
100
AcDbSymbolTableRecord
100
AcDbBlockTableRecord
  2
block 14
340
0
102
{BLKREFS
331
80
102
}
  0
BLOCK_RECORD
  5
83
330
1
100
AcDbSymbolTableRecord
100
AcDbBlockTableRecord
  2
block 15
340
0
102
{BLKREFS
331
84
102
}
  0
BLOCK_RECORD
  5
87
330
1
100
AcDbSymbolTableRecord
100
AcDbBlockTableRecord
  2
block 16
340
0
102
{BLKREFS
331
88
102
}
  0
BLOCK_RECORD
  5
8C
330
1
100
AcDbSymbolTableRecord
100
AcDbBlockTableRecord
  2
block 17
340
0
102
{BLKREFS
331
8D
102
}
  0
BLOCK_RECORD
  5
90
330
1
100
AcDbSymbolTableRecord
100
AcDbBlockTableRecord
  2
block 18
340
0
102
{BLKREFS
331
91
102
}
  0
BLOCK_RECORD
  5
94
330
1
100
AcDbSymbolTableRecord
100
AcDbBlockTableRecord
  2
block 19
340
0
102
{BLKREFS
331
95
102
}
  0
BLOCK_RECORD
  5
99
330
1
100
AcDbSymbolTableRecord
100
AcDbBlockTableRecord
  2
block 20
340
0
102
{BLKREFS
331
9A
102
}
  0
BLOCK_RECORD
  5
9D
330
1
100
AcDbSymbolTableRecord
100
AcDbBlockTableRecord
  2
block 21
340
0
102
{BLKREFS
331
9E
102
}
  0
BLOCK_RECORD
  5
A1
330
1
100
AcDbSymbolTableRecord
100
AcDbBlockTableRecord
  2
block 22
340
0
102
{BLKREFS
331
A2
102
}
  0
BLOCK_RECORD
  5
A6
330
1
100
AcDbSymbolTableRecord
100
AcDbBlockTableRecord
  2
block 23
340
0
102
{BLKREFS
331
A7
102
}
  0
BLOCK_RECORD
  5
AA
330
1
100
AcDbSymbolTableRecord
100
AcDbBlockTableRecord
  2
block 24
340
0
102
{BLKREFS
331
AB
102
}
  0
BLOCK_RECORD
  5
AF
330
1
100
AcDbSymbolTableRecord
100
AcDbBlockTableRecord
  2
block 25
340
0
102
{BLKREFS
331
B0
102
}
  0
BLOCK_RECORD
  5
B3
330
1
100
AcDbSymbolTableRecord
100
AcDbBlockTableRecord
  2
block 26
340
0
102
{BLKREFS
331
B4
102
}
  0
BLOCK_RECORD
  5
B7
330
1
100
AcDbSymbolTableRecord
100
AcDbBlockTableRecord
  2
block 27
340
0
102
{BLKREFS
331
B8
102
}
  0
BLOCK_RECORD
  5
BC
330
1
100
AcDbSymbolTableRecord
100
AcDbBlockTableRecord
  2
block 28
340
0
102
{BLKREFS
331
BD
102
}
  0
BLOCK_RECORD
  5
C0
330
1
100
AcDbSymbolTableRecord
100
AcDbBlockTableRecord
  2
block 29
340
0
102
{BLKREFS
331
C1
102
}
  0
BLOCK_RECORD
  5
C4
330
1
100
AcDbSymbolTableRecord
100
AcDbBlockTableRecord
  2
block 30
340
0
102
{BLKREFS
331
C5
102
}
  0
BLOCK_RECORD
  5
C9
330
1
100
AcDbSymbolTableRecord
100
AcDbBlockTableRecord
  2
block 31
340
0
102
{BLKREFS
331
CA
102
}
  0
BLOCK_RECORD
  5
CD
330
1
100
AcDbSymbolTableRecord
100
AcDbBlockTableRecord
  2
block 32
340
0
102
{BLKREFS
331
CE
102
}
  0
BLOCK_RECORD
  5
D2
330
1
100
AcDbSymbolTableRecord
100
AcDbBlockTableRecord
  2
block 33
340
0
102
{BLKREFS
331
D3
102
}
  0
BLOCK_RECORD
  5
D6
330
1
100
AcDbSymbolTableRecord
100
AcDbBlockTableRecord
  2
block 34
340
0
102
{BLKREFS
331
D7
102
}
  0
BLOCK_RECORD
  5
DB
330
1
100
AcDbSymbolTableRecord
100
AcDbBlockTableRecord
  2
block 35
340
0
102
{BLKREFS
331
DC
102
}
  0
BLOCK_RECORD
  5
DF
330
1
100
AcDbSymbolTableRecord
100
AcDbBlockTableRecord
  2
block 36
340
0
102
{BLKREFS
331
E0
102
}
  0
ENDTAB
  0
ENDSEC
  0
SECTION
  2
BLOCKS
  0
BLOCK
  5
20
330
1F
100
AcDbEntity
  8
0
100
AcDbBlockBegin
  2
*Model_Space
 70
     0
 71
     0
 10
0.0
 20
0.0
 30
0.0
  3
*Model_Space
  1

  0
ENDBLK
  5
21
330
1F
100
AcDbEntity
  8
0
100
AcDbBlockEnd
  0
BLOCK
  5
1C
330
1B
100
AcDbEntity
 67
     1
  8
0
100
AcDbBlockBegin
  2
*Paper_Space
 70
     0
 71
     0
 10
0.0
 20
0.0
 30
0.0
  3
*Paper_Space
  1

  0
ENDBLK
  5
1D
330
1B
100
AcDbEntity
 67
     1
  8
0
100
AcDbBlockEnd
  0
BLOCK
  5
24
330
23
100
AcDbEntity
  8
0
100
AcDbBlockBegin
  2
*Paper_Space0
 70
     0
 71
     0
 10
0.0
 20
0.0
 30
0.0
  3
*Paper_Space0
  1

  0
ENDBLK
  5
25
330
23
100
AcDbEntity
  8
0
100
AcDbBlockEnd
  0
BLOCK
  5
3E
330
3C
100
AcDbEntity
  8
0
100
AcDbBlockBegin
  2
block 2
 70
     0
 71
     0
 10
0.0
 20
0.0
 30
0.0
  3
block 2
  1

  0
INSERT
  5
41
330
3C
100
AcDbEntity
  8
Layer 1
100
AcDbBlockReference
  2
block 3
 10
0.0
 20
0.0
 30
0.0
  0
ENDBLK
  5
3F
330
3C
100
AcDbEntity
  8
0
100
AcDbBlockEnd
  0
BLOCK
  5
42
330
40
100
AcDbEntity
  8
0
100
AcDbBlockBegin
  2
block 3
 70
     0
 71
     0
 10
0.0
 20
0.0
 30
0.0
  3
block 3
  1

  0
SPLINE
  5
44
330
40
100
AcDbEntity
  8
Layer 1
 62
   250
420
  2301728
370
    18
100
AcDbSpline
210
0.0
220
0.0
230
1.0
 70
    11
 71
     3
 72
    17
 73
    13
 74
     0
 42
0.0000000001
 43
0.0000000001
 40
0.0
 40
0.0
 40
0.0
 40
0.0
 40
1.0
 40
1.0
 40
1.0
 40
2.0
 40
2.0
 40
2.0
 40
3.0
 40
3.0
 40
3.0
 40
4.0
 40
4.0
 40
4.0
 40
4.0
 10
26.5205078125
 20
-49.630859375
 30
0.0
 10
26.5205078125
 20
-49.630859375
 30
0.0
 10
29.59765625
 20
-70.791015625
 30
0.0
 10
41.5166015625
 20
-70.791015625
 30
0.0
 10
53.435546875
 20
-70.791015625
 30
0.0
 10
57.4375
 20
-70.791015625
 30
0.0
 10
57.4375
 20
-70.791015625
 30
0.0
 10
57.4375
 20
-70.791015625
 30
0.0
 10
51.962890625
 20
-49.630859375
 30
0.0
 10
40.044921875
 20
-49.630859375
 30
0.0
 10
28.1240234375
 20
-49.630859375
 30
0.0
 10
26.5205078125
 20
-49.630859375
 30
0.0
 10
26.5205078125
 20
-49.630859375
 30
0.0
  0
ENDBLK
  5
43
330
40
100
AcDbEntity
  8
0
100
AcDbBlockEnd
  0
BLOCK
  5
47
330
45
100
AcDbEntity
  8
0
100
AcDbBlockBegin
  2
block 4
 70
     0
 71
     0
 10
0.0
 20
0.0
 30
0.0
  3
block 4
  1

  0
INSERT
  5
4A
330
45
100
AcDbEntity
  8
Layer 1
100
AcDbBlockReference
  2
block 5
 10
0.0
 20
0.0
 30
0.0
  0
ENDBLK
  5
48
330
45
100
AcDbEntity
  8
0
100
AcDbBlockEnd
  0
BLOCK
  5
4B
330
49
100
AcDbEntity
  8
0
100
AcDbBlockBegin
  2
block 5
 70
     0
 71
     0
 10
0.0
 20
0.0
 30
0.0
  3
block 5
  1

  0
SPLINE
  5
4D
330
49
100
AcDbEntity
  8
Layer 1
 62
   250
420
  2301728
370
    18
100
AcDbSpline
210
0.0
220
0.0
230
1.0
 70
    11
 71
     3
 72
    17
 73
    13
 74
     0
 42
0.0000000001
 43
0.0000000001
 40
0.0
 40
0.0
 40
0.0
 40
0.0
 40
1.0
 40
1.0
 40
1.0
 40
2.0
 40
2.0
 40
2.0
 40
3.0
 40
3.0
 40
3.0
 40
4.0
 40
4.0
 40
4.0
 40
4.0
 10
14.26953125
 20
-20.08544921875
 30
0.0
 10
14.26953125
 20
-20.08544921875
 30
0.0
 10
16.2578125
 20
-33.74462890625
 30
0.0
 10
23.953125
 20
-33.74462890625
 30
0.0
 10
31.6474609375
 20
-33.74462890625
 30
0.0
 10
34.2314453125
 20
-33.74462890625
 30
0.0
 10
34.2314453125
 20
-33.74462890625
 30
0.0
 10
34.2314453125
 20
-33.74462890625
 30
0.0
 10
30.6953125
 20
-20.08544921875
 30
0.0
 10
23.001953125
 20
-20.08544921875
 30
0.0
 10
15.3076171875
 20
-20.08544921875
 30
0.0
 10
14.26953125
 20
-20.08544921875
 30
0.0
 10
14.26953125
 20
-20.08544921875
 30
0.0
  0
ENDBLK
  5
4C
330
49
100
AcDbEntity
  8
0
100
AcDbBlockEnd
  0
BLOCK
  5
50
330
4E
100
AcDbEntity
  8
0
100
AcDbBlockBegin
  2
block 6
 70
     0
 71
     0
 10
0.0
 20
0.0
 30
0.0
  3
block 6
  1

  0
INSERT
  5
53
330
4E
100
AcDbEntity
  8
Layer 1
100
AcDbBlockReference
  2
block 7
 10
0.0
 20
0.0
 30
0.0
  0
ENDBLK
  5
51
330
4E
100
AcDbEntity
  8
0
100
AcDbBlockEnd
  0
BLOCK
  5
54
330
52
100
AcDbEntity
  8
0
100
AcDbBlockBegin
  2
block 7
 70
     0
 71
     0
 10
0.0
 20
0.0
 30
0.0
  3
block 7
  1

  0
SPLINE
  5
56
330
52
100
AcDbEntity
  8
Layer 1
 62
   250
420
  2301728
370
    18
100
AcDbSpline
210
0.0
220
0.0
230
1.0
 70
    11
 71
     3
 72
    17
 73
    13
 74
     0
 42
0.0000000001
 43
0.0000000001
 40
0.0
 40
0.0
 40
0.0
 40
0.0
 40
1.0
 40
1.0
 40
1.0
 40
2.0
 40
2.0
 40
2.0
 40
3.0
 40
3.0
 40
3.0
 40
4.0
 40
4.0
 40
4.0
 40
4.0
 10
101.70703125
 20
-39.05078125
 30
0.0
 10
101.70703125
 20
-39.05078125
 30
0.0
 10
98.626953125
 20
-60.2109375
 30
0.0
 10
86.7080078125
 20
-60.2109375
 30
0.0
 10
74.787109375
 20
-60.2109375
 30
0.0
 10
70.787109375
 20
-60.2109375
 30
0.0
 10
70.787109375
 20
-60.2109375
 30
0.0
 10
70.787109375
 20
-60.2109375
 30
0.0
 10
76.26171875
 20
-39.05078125
 30
0.0
 10
88.181640625
 20
-39.05078125
 30
0.0
 10
100.09765625
 20
-39.05078125
 30
0.0
 10
101.70703125
 20
-39.05078125
 30
0.0
 10
101.70703125
 20
-39.05078125
 30
0.0
  0
ENDBLK
  5
55
330
52
100
AcDbEntity
  8
0
100
AcDbBlockEnd
  0
BLOCK
  5
59
330
57
100
AcDbEntity
  8
0
100
AcDbBlockBegin
  2
block 8
 70
     0
 71
     0
 10
0.0
 20
0.0
 30
0.0
  3
block 8
  1

  0
INSERT
  5
5C
330
57
100
AcDbEntity
  8
Layer 1
100
AcDbBlockReference
  2
block 9
 10
0.0
 20
0.0
 30
0.0
  0
ENDBLK
  5
5A
330
57
100
AcDbEntity
  8
0
100
AcDbBlockEnd
  0
BLOCK
  5
5D
330
5B
100
AcDbEntity
  8
0
100
AcDbBlockBegin
  2
block 9
 70
     0
 71
     0
 10
0.0
 20
0.0
 30
0.0
  3
block 9
  1

  0
SPLINE
  5
5F
330
5B
100
AcDbEntity
  8
Layer 1
 62
   250
420
  2301728
370
    18
100
AcDbSpline
210
0.0
220
0.0
230
1.0
 70
    11
 71
     3
 72
    17
 73
    13
 74
     0
 42
0.0000000001
 43
0.0000000001
 40
0.0
 40
0.0
 40
0.0
 40
0.0
 40
1.0
 40
1.0
 40
1.0
 40
2.0
 40
2.0
 40
2.0
 40
3.0
 40
3.0
 40
3.0
 40
4.0
 40
4.0
 40
4.0
 40
4.0
 10
58.66552734375
 20
-5.19921875
 30
0.0
 10
58.66552734375
 20
-5.19921875
 30
0.0
 10
56.67529296875
 20
-18.8583984375
 30
0.0
 10
48.98486328125
 20
-18.8583984375
 30
0.0
 10
41.28955078125
 20
-18.8583984375
 30
0.0
 10
38.70263671875
 20
-18.8583984375
 30
0.0
 10
38.70263671875
 20
-18.8583984375
 30
0.0
 10
38.70263671875
 20
-18.8583984375
 30
0.0
 10
42.23779296875
 20
-5.19921875
 30
0.0
 10
49.93505859375
 20
-5.19921875
 30
0.0
 10
57.63037109375
 20
-5.19921875
 30
0.0
 10
58.66552734375
 20
-5.19921875
 30
0.0
 10
58.66552734375
 20
-5.19921875
 30
0.0
  0
ENDBLK
  5
5E
330
5B
100
AcDbEntity
  8
0
100
AcDbBlockEnd
  0
BLOCK
  5
63
330
61
100
AcDbEntity
  8
0
100
AcDbBlockBegin
  2
block 10
 70
     0
 71
     0
 10
0.0
 20
0.0
 30
0.0
  3
block 10
  1

  0
INSERT
  5
66
330
61
100
AcDbEntity
  8
Layer 1
100
AcDbBlockReference
  2
block 11
 10
0.0
 20
0.0
 30
0.0
  0
ENDBLK
  5
64
330
61
100
AcDbEntity
  8
0
100
AcDbBlockEnd
  0
BLOCK
  5
67
330
65
100
AcDbEntity
  8
0
100
AcDbBlockBegin
  2
block 11
 70
     0
 71
     0
 10
0.0
 20
0.0
 30
0.0
  3
block 11
  1

  0
POLYLINE
  5
69
330
65
100
AcDbEntity
  8
Layer 1
 62
   250
420
  2301728
370
    18
100
AcDb2dPolyline
 66
     1
 10
0.0
 20
0.0
 30
0.0
  0
VERTEX
  5
6A
330
69
100
AcDbEntity
  8
Layer 1
 62
   250
420
  2301728
370
    18
100
AcDbVertex
100
AcDb2dVertex
 10
113.0185546875
 20
-187.3837890625
 30
0.0
  0
VERTEX
  5
6B
330
69
100
AcDbEntity
  8
Layer 1
 62
   250
420
  2301728
370
    18
100
AcDbVertex
100
AcDb2dVertex
 10
102.1572265625
 20
-187.3837890625
 30
0.0
  0
VERTEX
  5
6C
330
69
100
AcDbEntity
  8
Layer 1
 62
   250
420
  2301728
370
    18
100
AcDbVertex
100
AcDb2dVertex
 10
102.1572265625
 20
-172.4052734375
 30
0.0
  0
VERTEX
  5
6D
330
69
100
AcDbEntity
  8
Layer 1
 62
   250
420
  2301728
370
    18
100
AcDbVertex
100
AcDb2dVertex
 10
113.0185546875
 20
-172.4052734375
 30
0.0
  0
VERTEX
  5
6E
330
69
100
AcDbEntity
  8
Layer 1
 62
   250
420
  2301728
370
    18
100
AcDbVertex
100
AcDb2dVertex
 10
113.0185546875
 20
-187.3837890625
 30
0.0
  0
SEQEND
  5
6F
330
69
100
AcDbEntity
  8
Layer 1
370
    18
  0
ENDBLK
  5
68
330
65
100
AcDbEntity
  8
0
100
AcDbBlockEnd
  0
BLOCK
  5
72
330
70
100
AcDbEntity
  8
0
100
AcDbBlockBegin
  2
block 12
 70
     0
 71
     0
 10
0.0
 20
0.0
 30
0.0
  3
block 12
  1

  0
INSERT
  5
75
330
70
100
AcDbEntity
  8
Layer 1
100
AcDbBlockReference
  2
block 13
 10
0.0
 20
0.0
 30
0.0
  0
ENDBLK
  5
73
330
70
100
AcDbEntity
  8
0
100
AcDbBlockEnd
  0
BLOCK
  5
76
330
74
100
AcDbEntity
  8
0
100
AcDbBlockBegin
  2
block 13
 70
     0
 71
     0
 10
0.0
 20
0.0
 30
0.0
  3
block 13
  1

  0
POLYLINE
  5
78
330
74
100
AcDbEntity
  8
Layer 1
 62
   250
420
  2301728
370
    18
100
AcDb2dPolyline
 66
     1
 10
0.0
 20
0.0
 30
0.0
  0
VERTEX
  5
79
330
78
100
AcDbEntity
  8
Layer 1
 62
   250
420
  2301728
370
    18
100
AcDbVertex
100
AcDb2dVertex
 10
95.92333984375
 20
-187.3837890625
 30
0.0
  0
VERTEX
  5
7A
330
78
100
AcDbEntity
  8
Layer 1
 62
   250
420
  2301728
370
    18
100
AcDbVertex
100
AcDb2dVertex
 10
85.05908203125
 20
-187.3837890625
 30
0.0
  0
VERTEX
  5
7B
330
78
100
AcDbEntity
  8
Layer 1
 62
   250
420
  2301728
370
    18
100
AcDbVertex
100
AcDb2dVertex
 10
85.05908203125
 20
-172.4052734375
 30
0.0
  0
VERTEX
  5
7C
330
78
100
AcDbEntity
  8
Layer 1
 62
   250
420
  2301728
370
    18
100
AcDbVertex
100
AcDb2dVertex
 10
95.92333984375
 20
-172.4052734375
 30
0.0
  0
VERTEX
  5
7D
330
78
100
AcDbEntity
  8
Layer 1
 62
   250
420
  2301728
370
    18
100
AcDbVertex
100
AcDb2dVertex
 10
95.92333984375
 20
-187.3837890625
 30
0.0
  0
SEQEND
  5
7E
330
78
100
AcDbEntity
  8
Layer 1
370
    18
  0
ENDBLK
  5
77
330
74
100
AcDbEntity
  8
0
100
AcDbBlockEnd
  0
BLOCK
  5
81
330
7F
100
AcDbEntity
  8
0
100
AcDbBlockBegin
  2
block 14
 70
     0
 71
     0
 10
0.0
 20
0.0
 30
0.0
  3
block 14
  1

  0
INSERT
  5
84
330
7F
100
AcDbEntity
  8
Layer 1
100
AcDbBlockReference
  2
block 15
 10
0.0
 20
0.0
 30
0.0
  0
ENDBLK
  5
82
330
7F
100
AcDbEntity
  8
0
100
AcDbBlockEnd
  0
BLOCK
  5
85
330
83
100
AcDbEntity
  8
0
100
AcDbBlockBegin
  2
block 15
 70
     0
 71
     0
 10
0.0
 20
0.0
 30
0.0
  3
block 15
  1

  0
INSERT
  5
88
330
83
100
AcDbEntity
  8
Layer 1
100
AcDbBlockReference
  2
block 16
 10
0.0
 20
0.0
 30
0.0
  0
ENDBLK
  5
86
330
83
100
AcDbEntity
  8
0
100
AcDbBlockEnd
  0
BLOCK
  5
89
330
87
100
AcDbEntity
  8
0
100
AcDbBlockBegin
  2
block 16
 70
     0
 71
     0
 10
0.0
 20
0.0
 30
0.0
  3
block 16
  1

  0
SPLINE
  5
8B
330
87
100
AcDbEntity
  8
Layer 1
 62
   250
420
  2301728
370
    18
100
AcDbSpline
210
0.0
220
0.0
230
1.0
 70
    11
 71
     3
 72
    29
 73
    25
 74
     0
 42
0.0000000001
 43
0.0000000001
 40
0.0
 40
0.0
 40
0.0
 40
0.0
 40
1.0
 40
1.0
 40
1.0
 40
2.0
 40
2.0
 40
2.0
 40
3.0
 40
3.0
 40
3.0
 40
4.0
 40
4.0
 40
4.0
 40
5.0
 40
5.0
 40
5.0
 40
6.0
 40
6.0
 40
6.0
 40
7.0
 40
7.0
 40
7.0
 40
8.0
 40
8.0
 40
8.0
 40
8.0
 10
129.8818359375
 20
-184.595703125
 30
0.0
 10
130.3427734375
 20
-184.595703125
 30
0.0
 10
130.7158203125
 20
-184.96875
 30
0.0
 10
130.7158203125
 20
-185.4296875
 30
0.0
 10
130.7158203125
 20
-185.4296875
 30
0.0
 10
130.7158203125
 20
-187.509765625
 30
0.0
 10
130.7158203125
 20
-187.509765625
 30
0.0
 10
130.7158203125
 20
-187.509765625
 30
0.0
 10
139.4521484375
 20
-187.509765625
 30
0.0
 10
139.4521484375
 20
-187.509765625
 30
0.0
 10
139.4521484375
 20
-182.287109375
 30
0.0
 10
135.21875
 20
-178.0546875
 30
0.0
 10
129.998046875
 20
-178.0546875
 30
0.0
 10
124.7783203125
 20
-178.0546875
 30
0.0
 10
120.54296875
 20
-182.287109375
 30
0.0
 10
120.54296875
 20
-187.509765625
 30
0.0
 10
120.54296875
 20
-187.509765625
 30
0.0
 10
129.0498046875
 20
-187.509765625
 30
0.0
 10
129.0498046875
 20
-187.509765625
 30
0.0
 10
129.0498046875
 20
-187.509765625
 30
0.0
 10
129.0498046875
 20
-185.4296875
 30
0.0
 10
129.0498046875
 20
-185.4296875
 30
0.0
 10
129.0498046875
 20
-184.96875
 30
0.0
 10
129.423828125
 20
-184.595703125
 30
0.0
 10
129.8818359375
 20
-184.595703125
 30
0.0
  0
ENDBLK
  5
8A
330
87
100
AcDbEntity
  8
0
100
AcDbBlockEnd
  0
BLOCK
  5
8E
330
8C
100
AcDbEntity
  8
0
100
AcDbBlockBegin
  2
block 17
 70
     0
 71
     0
 10
0.0
 20
0.0
 30
0.0
  3
block 17
  1

  0
INSERT
  5
91
330
8C
100
AcDbEntity
  8
Layer 1
100
AcDbBlockReference
  2
block 18
 10
0.0
 20
0.0
 30
0.0
  0
ENDBLK
  5
8F
330
8C
100
AcDbEntity
  8
0
100
AcDbBlockEnd
  0
BLOCK
  5
92
330
90
100
AcDbEntity
  8
0
100
AcDbBlockBegin
  2
block 18
 70
     0
 71
     0
 10
0.0
 20
0.0
 30
0.0
  3
block 18
  1

  0
INSERT
  5
95
330
90
100
AcDbEntity
  8
Layer 1
100
AcDbBlockReference
  2
block 19
 10
0.0
 20
0.0
 30
0.0
  0
ENDBLK
  5
93
330
90
100
AcDbEntity
  8
0
100
AcDbBlockEnd
  0
BLOCK
  5
96
330
94
100
AcDbEntity
  8
0
100
AcDbBlockBegin
  2
block 19
 70
     0
 71
     0
 10
0.0
 20
0.0
 30
0.0
  3
block 19
  1

  0
SPLINE
  5
98
330
94
100
AcDbEntity
  8
Layer 1
 62
   250
420
  2301728
370
    18
100
AcDbSpline
210
0.0
220
0.0
230
1.0
 70
    11
 71
     3
 72
    29
 73
    25
 74
     0
 42
0.0000000001
 43
0.0000000001
 40
0.0
 40
0.0
 40
0.0
 40
0.0
 40
1.0
 40
1.0
 40
1.0
 40
2.0
 40
2.0
 40
2.0
 40
3.0
 40
3.0
 40
3.0
 40
4.0
 40
4.0
 40
4.0
 40
5.0
 40
5.0
 40
5.0
 40
6.0
 40
6.0
 40
6.0
 40
7.0
 40
7.0
 40
7.0
 40
8.0
 40
8.0
 40
8.0
 40
8.0
 10
157.46875
 20
-184.595703125
 30
0.0
 10
157.9296875
 20
-184.595703125
 30
0.0
 10
158.30078125
 20
-184.96875
 30
0.0
 10
158.30078125
 20
-185.4296875
 30
0.0
 10
158.30078125
 20
-185.4296875
 30
0.0
 10
158.30078125
 20
-187.509765625
 30
0.0
 10
158.30078125
 20
-187.509765625
 30
0.0
 10
158.30078125
 20
-187.509765625
 30
0.0
 10
167.0390625
 20
-187.509765625
 30
0.0
 10
167.0390625
 20
-187.509765625
 30
0.0
 10
167.0390625
 20
-182.287109375
 30
0.0
 10
162.8037109375
 20
-178.0546875
 30
0.0
 10
157.583984375
 20
-178.0546875
 30
0.0
 10
152.3642578125
 20
-178.0546875
 30
0.0
 10
148.1298828125
 20
-182.287109375
 30
0.0
 10
148.1298828125
 20
-187.509765625
 30
0.0
 10
148.1298828125
 20
-187.509765625
 30
0.0
 10
156.6357421875
 20
-187.509765625
 30
0.0
 10
156.6357421875
 20
-187.509765625
 30
0.0
 10
156.6357421875
 20
-187.509765625
 30
0.0
 10
156.6357421875
 20
-185.4296875
 30
0.0
 10
156.6357421875
 20
-185.4296875
 30
0.0
 10
156.6357421875
 20
-184.96875
 30
0.0
 10
157.0087890625
 20
-184.595703125
 30
0.0
 10
157.46875
 20
-184.595703125
 30
0.0
  0
ENDBLK
  5
97
330
94
100
AcDbEntity
  8
0
100
AcDbBlockEnd
  0
BLOCK
  5
9B
330
99
100
AcDbEntity
  8
0
100
AcDbBlockBegin
  2
block 20
 70
     0
 71
     0
 10
0.0
 20
0.0
 30
0.0
  3
block 20
  1

  0
INSERT
  5
9E
330
99
100
AcDbEntity
  8
Layer 1
100
AcDbBlockReference
  2
block 21
 10
0.0
 20
0.0
 30
0.0
  0
ENDBLK
  5
9C
330
99
100
AcDbEntity
  8
0
100
AcDbBlockEnd
  0
BLOCK
  5
9F
330
9D
100
AcDbEntity
  8
0
100
AcDbBlockBegin
  2
block 21
 70
     0
 71
     0
 10
0.0
 20
0.0
 30
0.0
  3
block 21
  1

  0
INSERT
  5
A2
330
9D
100
AcDbEntity
  8
Layer 1
100
AcDbBlockReference
  2
block 22
 10
0.0
 20
0.0
 30
0.0
  0
ENDBLK
  5
A0
330
9D
100
AcDbEntity
  8
0
100
AcDbBlockEnd
  0
BLOCK
  5
A3
330
A1
100
AcDbEntity
  8
0
100
AcDbBlockBegin
  2
block 22
 70
     0
 71
     0
 10
0.0
 20
0.0
 30
0.0
  3
block 22
  1

  0
SPLINE
  5
A5
330
A1
100
AcDbEntity
  8
Layer 1
 62
   250
420
  2301728
370
    18
100
AcDbSpline
210
0.0
220
0.0
230
1.0
 70
    11
 71
     3
 72
    17
 73
    13
 74
     0
 42
0.0000000001
 43
0.0000000001
 40
0.0
 40
0.0
 40
0.0
 40
0.0
 40
1.0
 40
1.0
 40
1.0
 40
2.0
 40
2.0
 40
2.0
 40
3.0
 40
3.0
 40
3.0
 40
4.0
 40
4.0
 40
4.0
 40
4.0
 10
107.33984375
 20
-157.564453125
 30
0.0
 10
124.92578125
 20
-157.564453125
 30
0.0
 10
131.2578125
 20
-147.43359375
 30
0.0
 10
134.921875
 20
-137.9853515625
 30
0.0
 10
134.921875
 20
-137.9853515625
 30
0.0
 10
123.857421875
 20
-153.2177734375
 30
0.0
 10
107.818359375
 20
-152.634765625
 30
0.0
 10
94.21435546875
 20
-152.1396484375
 30
0.0
 10
79.41552734375
 20
-138.083984375
 30
0.0
 10
79.41552734375
 20
-138.083984375
 30
0.0
 10
83.08154296875
 20
-147.533203125
 30
0.0
 10
93.72900390625
 20
-157.564453125
 30
0.0
 10
107.33984375
 20
-157.564453125
 30
0.0
  0
ENDBLK
  5
A4
330
A1
100
AcDbEntity
  8
0
100
AcDbBlockEnd
  0
BLOCK
  5
A8
330
A6
100
AcDbEntity
  8
0
100
AcDbBlockBegin
  2
block 23
 70
     0
 71
     0
 10
0.0
 20
0.0
 30
0.0
  3
block 23
  1

  0
INSERT
  5
AB
330
A6
100
AcDbEntity
  8
Layer 1
100
AcDbBlockReference
  2
block 24
 10
0.0
 20
0.0
 30
0.0
  0
ENDBLK
  5
A9
330
A6
100
AcDbEntity
  8
0
100
AcDbBlockEnd
  0
BLOCK
  5
AC
330
AA
100
AcDbEntity
  8
0
100
AcDbBlockBegin
  2
block 24
 70
     0
 71
     0
 10
0.0
 20
0.0
 30
0.0
  3
block 24
  1

  0
SPLINE
  5
AE
330
AA
100
AcDbEntity
  8
Layer 1
 62
   250
420
  2301728
370
    18
100
AcDbSpline
210
0.0
220
0.0
230
1.0
 70
    11
 71
     3
 72
    35
 73
    31
 74
     0
 42
0.0000000001
 43
0.0000000001
 40
0.0
 40
0.0
 40
0.0
 40
0.0
 40
1.0
 40
1.0
 40
1.0
 40
2.0
 40
2.0
 40
2.0
 40
3.0
 40
3.0
 40
3.0
 40
4.0
 40
4.0
 40
4.0
 40
5.0
 40
5.0
 40
5.0
 40
6.0
 40
6.0
 40
6.0
 40
7.0
 40
7.0
 40
7.0
 40
8.0
 40
8.0
 40
8.0
 40
9.0
 40
9.0
 40
9.0
 40
10.0
 40
10.0
 40
10.0
 40
10.0
 10
139.4521484375
 20
-93.11328125
 30
0.0
 10
139.4521484375
 20
-84.935546875
 30
0.0
 10
132.8251953125
 20
-78.30615234375
 30
0.0
 10
124.6455078125
 20
-78.30615234375
 30
0.0
 10
117.7373046875
 20
-78.30615234375
 30
0.0
 10
111.9521484375
 20
-83.04150390625
 30
0.0
 10
110.3154296875
 20
-89.44140625
 30
0.0
 10
108.6796875
 20
-83.04150390625
 30
0.0
 10
102.8916015625
 20
-78.30615234375
 30
0.0
 10
95.986328125
 20
-78.30615234375
 30
0.0
 10
87.806640625
 20
-78.30615234375
 30
0.0
 10
81.173828125
 20
-84.93408203125
 30
0.0
 10
81.173828125
 20
-93.11328125
 30
0.0
 10
81.173828125
 20
-101.29296875
 30
0.0
 10
86.6962890625
 20
-107.921875
 30
0.0
 10
94.8740234375
 20
-107.921875
 30
0.0
 10
94.8740234375
 20
-107.921875
 30
0.0
 10
95.8466796875
 20
-113.638671875
 30
0.0
 10
95.986328125
 20
-115.564453125
 30
0.0
 10
96.576171875
 20
-123.72265625
 30
0.0
 10
99.9306640625
 20
-135.92578125
 30
0.0
 10
110.7939453125
 20
-135.92578125
 30
0.0
 10
120.6982421875
 20
-135.92578125
 30
0.0
 10
125.015625
 20
-123.72265625
 30
0.0
 10
125.6015625
 20
-115.564453125
 30
0.0
 10
125.7421875
 20
-113.6259765625
 30
0.0
 10
126.7119140625
 20
-107.873046875
 30
0.0
 10
126.7119140625
 20
-107.873046875
 30
0.0
 10
134.4423828125
 20
-107.37890625
 30
0.0
 10
139.4521484375
 20
-100.96923828125
 30
0.0
 10
139.4521484375
 20
-93.11328125
 30
0.0
  0
ENDBLK
  5
AD
330
AA
100
AcDbEntity
  8
0
100
AcDbBlockEnd
  0
BLOCK
  5
B1
330
AF
100
AcDbEntity
  8
0
100
AcDbBlockBegin
  2
block 25
 70
     0
 71
     0
 10
0.0
 20
0.0
 30
0.0
  3
block 25
  1

  0
INSERT
  5
B4
330
AF
100
AcDbEntity
  8
Layer 1
100
AcDbBlockReference
  2
block 26
 10
0.0
 20
0.0
 30
0.0
  0
ENDBLK
  5
B2
330
AF
100
AcDbEntity
  8
0
100
AcDbBlockEnd
  0
BLOCK
  5
B5
330
B3
100
AcDbEntity
  8
0
100
AcDbBlockBegin
  2
block 26
 70
     0
 71
     0
 10
0.0
 20
0.0
 30
0.0
  3
block 26
  1

  0
INSERT
  5
B8
330
B3
100
AcDbEntity
  8
Layer 1
100
AcDbBlockReference
  2
block 27
 10
0.0
 20
0.0
 30
0.0
  0
ENDBLK
  5
B6
330
B3
100
AcDbEntity
  8
0
100
AcDbBlockEnd
  0
BLOCK
  5
B9
330
B7
100
AcDbEntity
  8
0
100
AcDbBlockBegin
  2
block 27
 70
     0
 71
     0
 10
0.0
 20
0.0
 30
0.0
  3
block 27
  1

  0
SPLINE
  5
BB
330
B7
100
AcDbEntity
  8
Layer 1
 62
   250
420
  2301728
370
    18
100
AcDbSpline
210
0.0
220
0.0
230
1.0
 70
    11
 71
     3
 72
    17
 73
    13
 74
     0
 42
0.0000000001
 43
0.0000000001
 40
0.0
 40
0.0
 40
0.0
 40
0.0
 40
1.0
 40
1.0
 40
1.0
 40
2.0
 40
2.0
 40
2.0
 40
3.0
 40
3.0
 40
3.0
 40
4.0
 40
4.0
 40
4.0
 40
4.0
 10
138.376953125
 20
-32.22607421875
 30
0.0
 10
138.376953125
 20
-35.15966796875
 30
0.0
 10
136.0
 20
-37.5380859375
 30
0.0
 10
133.06640625
 20
-37.5380859375
 30
0.0
 10
130.130859375
 20
-37.5380859375
 30
0.0
 10
127.755859375
 20
-35.15966796875
 30
0.0
 10
127.755859375
 20
-32.22607421875
 30
0.0
 10
127.755859375
 20
-29.29345703125
 30
0.0
 10
130.130859375
 20
-26.9150390625
 30
0.0
 10
133.06640625
 20
-26.9150390625
 30
0.0
 10
136.0
 20
-26.9150390625
 30
0.0
 10
138.376953125
 20
-29.29345703125
 30
0.0
 10
138.376953125
 20
-32.22607421875
 30
0.0
  0
ENDBLK
  5
BA
330
B7
100
AcDbEntity
  8
0
100
AcDbBlockEnd
  0
BLOCK
  5
BE
330
BC
100
AcDbEntity
  8
0
100
AcDbBlockBegin
  2
block 28
 70
     0
 71
     0
 10
0.0
 20
0.0
 30
0.0
  3
block 28
  1

  0
INSERT
  5
C1
330
BC
100
AcDbEntity
  8
Layer 1
100
AcDbBlockReference
  2
block 29
 10
0.0
 20
0.0
 30
0.0
  0
ENDBLK
  5
BF
330
BC
100
AcDbEntity
  8
0
100
AcDbBlockEnd
  0
BLOCK
  5
C2
330
C0
100
AcDbEntity
  8
0
100
AcDbBlockBegin
  2
block 29
 70
     0
 71
     0
 10
0.0
 20
0.0
 30
0.0
  3
block 29
  1

  0
INSERT
  5
C5
330
C0
100
AcDbEntity
  8
Layer 1
100
AcDbBlockReference
  2
block 30
 10
0.0
 20
0.0
 30
0.0
  0
ENDBLK
  5
C3
330
C0
100
AcDbEntity
  8
0
100
AcDbBlockEnd
  0
BLOCK
  5
C6
330
C4
100
AcDbEntity
  8
0
100
AcDbBlockBegin
  2
block 30
 70
     0
 71
     0
 10
0.0
 20
0.0
 30
0.0
  3
block 30
  1

  0
SPLINE
  5
C8
330
C4
100
AcDbEntity
  8
Layer 1
 62
   250
420
  2301728
370
    18
100
AcDbSpline
210
0.0
220
0.0
230
1.0
 70
    11
 71
     3
 72
    17
 73
    13
 74
     0
 42
0.0000000001
 43
0.0000000001
 40
0.0
 40
0.0
 40
0.0
 40
0.0
 40
1.0
 40
1.0
 40
1.0
 40
2.0
 40
2.0
 40
2.0
 40
3.0
 40
3.0
 40
3.0
 40
4.0
 40
4.0
 40
4.0
 40
4.0
 10
184.921875
 20
-77.27392578125
 30
0.0
 10
184.921875
 20
-80.20751953125
 30
0.0
 10
182.54296875
 20
-82.5859375
 30
0.0
 10
179.609375
 20
-82.5859375
 30
0.0
 10
176.677734375
 20
-82.5859375
 30
0.0
 10
174.2978515625
 20
-80.20751953125
 30
0.0
 10
174.2978515625
 20
-77.27392578125
 30
0.0
 10
174.2978515625
 20
-74.34130859375
 30
0.0
 10
176.677734375
 20
-71.962890625
 30
0.0
 10
179.609375
 20
-71.962890625
 30
0.0
 10
182.54296875
 20
-71.962890625
 30
0.0
 10
184.921875
 20
-74.34130859375
 30
0.0
 10
184.921875
 20
-77.27392578125
 30
0.0
  0
ENDBLK
  5
C7
330
C4
100
AcDbEntity
  8
0
100
AcDbBlockEnd
  0
BLOCK
  5
CB
330
C9
100
AcDbEntity
  8
0
100
AcDbBlockBegin
  2
block 31
 70
     0
 71
     0
 10
0.0
 20
0.0
 30
0.0
  3
block 31
  1

  0
INSERT
  5
CE
330
C9
100
AcDbEntity
  8
Layer 1
100
AcDbBlockReference
  2
block 32
 10
0.0
 20
0.0
 30
0.0
  0
ENDBLK
  5
CC
330
C9
100
AcDbEntity
  8
0
100
AcDbBlockEnd
  0
BLOCK
  5
CF
330
CD
100
AcDbEntity
  8
0
100
AcDbBlockBegin
  2
block 32
 70
     0
 71
     0
 10
0.0
 20
0.0
 30
0.0
  3
block 32
  1

  0
SPLINE
  5
D1
330
CD
100
AcDbEntity
  8
Layer 1
 62
   250
420
  2301728
370
    18
100
AcDbSpline
210
0.0
220
0.0
230
1.0
 70
    11
 71
     3
 72
    17
 73
    13
 74
     0
 42
0.0000000001
 43
0.0000000001
 40
0.0
 40
0.0
 40
0.0
 40
0.0
 40
1.0
 40
1.0
 40
1.0
 40
2.0
 40
2.0
 40
2.0
 40
3.0
 40
3.0
 40
3.0
 40
4.0
 40
4.0
 40
4.0
 40
4.0
 10
124.083984375
 20
-54.681640625
 30
0.0
 10
124.083984375
 20
-55.65966796875
 30
0.0
 10
123.29296875
 20
-56.453125
 30
0.0
 10
122.3134765625
 20
-56.453125
 30
0.0
 10
121.3349609375
 20
-56.453125
 30
0.0
 10
120.54296875
 20
-55.65966796875
 30
0.0
 10
120.54296875
 20
-54.681640625
 30
0.0
 10
120.54296875
 20
-53.703125
 30
0.0
 10
121.3349609375
 20
-52.90966796875
 30
0.0
 10
122.3134765625
 20
-52.90966796875
 30
0.0
 10
123.29296875
 20
-52.90966796875
 30
0.0
 10
124.083984375
 20
-53.703125
 30
0.0
 10
124.083984375
 20
-54.681640625
 30
0.0
  0
ENDBLK
  5
D0
330
CD
100
AcDbEntity
  8
0
100
AcDbBlockEnd
  0
BLOCK
  5
D4
330
D2
100
AcDbEntity
  8
0
100
AcDbBlockBegin
  2
block 33
 70
     0
 71
     0
 10
0.0
 20
0.0
 30
0.0
  3
block 33
  1

  0
INSERT
  5
D7
330
D2
100
AcDbEntity
  8
Layer 1
100
AcDbBlockReference
  2
block 34
 10
0.0
 20
0.0
 30
0.0
  0
ENDBLK
  5
D5
330
D2
100
AcDbEntity
  8
0
100
AcDbBlockEnd
  0
BLOCK
  5
D8
330
D6
100
AcDbEntity
  8
0
100
AcDbBlockBegin
  2
block 34
 70
     0
 71
     0
 10
0.0
 20
0.0
 30
0.0
  3
block 34
  1

  0
SPLINE
  5
DA
330
D6
100
AcDbEntity
  8
Layer 1
 62
   250
420
  2301728
370
    18
100
AcDbSpline
210
0.0
220
0.0
230
1.0
 70
    11
 71
     3
 72
    17
 73
    13
 74
     0
 42
0.0000000001
 43
0.0000000001
 40
0.0
 40
0.0
 40
0.0
 40
0.0
 40
1.0
 40
1.0
 40
1.0
 40
2.0
 40
2.0
 40
2.0
 40
3.0
 40
3.0
 40
3.0
 40
4.0
 40
4.0
 40
4.0
 40
4.0
 10
155.7919921875
 20
-52.91015625
 30
0.0
 10
155.7919921875
 20
-53.88818359375
 30
0.0
 10
154.998046875
 20
-54.681640625
 30
0.0
 10
154.0224609375
 20
-54.681640625
 30
0.0
 10
153.0419921875
 20
-54.681640625
 30
0.0
 10
152.2509765625
 20
-53.88818359375
 30
0.0
 10
152.2509765625
 20
-52.91015625
 30
0.0
 10
152.2509765625
 20
-51.931640625
 30
0.0
 10
153.0419921875
 20
-51.13818359375
 30
0.0
 10
154.0224609375
 20
-51.13818359375
 30
0.0
 10
154.998046875
 20
-51.13818359375
 30
0.0
 10
155.7919921875
 20
-51.931640625
 30
0.0
 10
155.7919921875
 20
-52.91015625
 30
0.0
  0
ENDBLK
  5
D9
330
D6
100
AcDbEntity
  8
0
100
AcDbBlockEnd
  0
BLOCK
  5
DD
330
DB
100
AcDbEntity
  8
0
100
AcDbBlockBegin
  2
block 35
 70
     0
 71
     0
 10
0.0
 20
0.0
 30
0.0
  3
block 35
  1

  0
INSERT
  5
E0
330
DB
100
AcDbEntity
  8
Layer 1
100
AcDbBlockReference
  2
block 36
 10
0.0
 20
0.0
 30
0.0
  0
ENDBLK
  5
DE
330
DB
100
AcDbEntity
  8
0
100
AcDbBlockEnd
  0
BLOCK
  5
E1
330
DF
100
AcDbEntity
  8
0
100
AcDbBlockBegin
  2
block 36
 70
     0
 71
     0
 10
0.0
 20
0.0
 30
0.0
  3
block 36
  1

  0
SPLINE
  5
E3
330
DF
100
AcDbEntity
  8
Layer 1
 62
   250
420
  2301728
370
    18
100
AcDbSpline
210
0.0
220
0.0
230
1.0
 70
    11
 71
     3
 72
    65
 73
    61
 74
     0
 42
0.0000000001
 43
0.0000000001
 40
0.0
 40
0.0
 40
0.0
 40
0.0
 40
1.0
 40
1.0
 40
1.0
 40
2.0
 40
2.0
 40
2.0
 40
3.0
 40
3.0
 40
3.0
 40
4.0
 40
4.0
 40
4.0
 40
5.0
 40
5.0
 40
5.0
 40
6.0
 40
6.0
 40
6.0
 40
7.0
 40
7.0
 40
7.0
 40
8.0
 40
8.0
 40
8.0
 40
9.0
 40
9.0
 40
9.0
 40
10.0
 40
10.0
 40
10.0
 40
11.0
 40
11.0
 40
11.0
 40
12.0
 40
12.0
 40
12.0
 40
13.0
 40
13.0
 40
13.0
 40
14.0
 40
14.0
 40
14.0
 40
15.0
 40
15.0
 40
15.0
 40
16.0
 40
16.0
 40
16.0
 40
17.0
 40
17.0
 40
17.0
 40
18.0
 40
18.0
 40
18.0
 40
19.0
 40
19.0
 40
19.0
 40
20.0
 40
20.0
 40
20.0
 40
20.0
 10
162.2158203125
 20
-121.8603515625
 30
0.0
 10
162.2158203125
 20
-121.8603515625
 30
0.0
 10
155.791015625
 20
-122.5947265625
 30
0.0
 10
155.791015625
 20
-122.5947265625
 30
0.0
 10
155.791015625
 20
-122.5947265625
 30
0.0
 10
149.3681640625
 20
-121.8603515625
 30
0.0
 10
149.3681640625
 20
-121.8603515625
 30
0.0
 10
148.767578125
 20
-121.7841796875
 30
0.0
 10
148.20703125
 20
-122.2275390625
 30
0.0
 10
148.13671875
 20
-122.837890625
 30
0.0
 10
148.068359375
 20
-123.447265625
 30
0.0
 10
148.5068359375
 20
-123.9970703125
 30
0.0
 10
149.1123046875
 20
-124.06640625
 30
0.0
 10
149.1123046875
 20
-124.06640625
 30
0.0
 10
154.607421875
 20
-124.6962890625
 30
0.0
 10
154.607421875
 20
-124.6962890625
 30
0.0
 10
154.607421875
 20
-124.6962890625
 30
0.0
 10
154.607421875
 20
-132.767578125
 30
0.0
 10
154.607421875
 20
-132.767578125
 30
0.0
 10
154.2431640625
 20
-133.2001953125
 30
0.0
 10
153.3994140625
 20
-134.0126953125
 30
0.0
 10
152.54296875
 20
-133.5537109375
 30
0.0
 10
152.0
 20
-133.26171875
 30
0.0
 10
151.328125
 20
-133.4658203125
 30
0.0
 10
151.0400390625
 20
-134.0048828125
 30
0.0
 10
150.75
 20
-134.544921875
 30
0.0
 10
150.951171875
 20
-135.2197265625
 30
0.0
 10
151.4912109375
 20
-135.509765625
 30
0.0
 10
152.03515625
 20
-135.8017578125
 30
0.0
 10
152.5673828125
 20
-135.9248046875
 30
0.0
 10
153.0693359375
 20
-135.9248046875
 30
0.0
 10
154.142578125
 20
-135.9248046875
 30
0.0
 10
155.0888671875
 20
-135.3681640625
 30
0.0
 10
155.779296875
 20
-134.73828125
 30
0.0
 10
156.458984375
 20
-135.3701171875
 30
0.0
 10
157.3974609375
 20
-135.9248046875
 30
0.0
 10
158.482421875
 20
-135.9248046875
 30
0.0
 10
158.986328125
 20
-135.9248046875
 30
0.0
 10
159.5224609375
 20
-135.8056640625
 30
0.0
 10
160.078125
 20
-135.5166015625
 30
0.0
 10
160.623046875
 20
-135.2353515625
 30
0.0
 10
160.8349609375
 20
-134.564453125
 30
0.0
 10
160.552734375
 20
-134.0205078125
 30
0.0
 10
160.2734375
 20
-133.4755859375
 30
0.0
 10
159.6005859375
 20
-133.263671875
 30
0.0
 10
159.056640625
 20
-133.5458984375
 30
0.0
 10
158.1396484375
 20
-134.0166015625
 30
0.0
 10
157.328125
 20
-133.216796875
 30
0.0
 10
156.978515625
 20
-132.7822265625
 30
0.0
 10
156.978515625
 20
-132.7822265625
 30
0.0
 10
156.978515625
 20
-124.6962890625
 30
0.0
 10
156.978515625
 20
-124.6962890625
 30
0.0
 10
156.978515625
 20
-124.6962890625
 30
0.0
 10
162.46875
 20
-124.06640625
 30
0.0
 10
162.46875
 20
-124.06640625
 30
0.0
 10
163.080078125
 20
-123.9970703125
 30
0.0
 10
163.5146484375
 20
-123.447265625
 30
0.0
 10
163.4462890625
 20
-122.837890625
 30
0.0
 10
163.376953125
 20
-122.2265625
 30
0.0
 10
162.8251953125
 20
-121.7822265625
 30
0.0
 10
162.2158203125
 20
-121.8603515625
 30
0.0
  0
ENDBLK
  5
E2
330
DF
100
AcDbEntity
  8
0
100
AcDbBlockEnd
  0
ENDSEC
  0
SECTION
  2
ENTITIES
  0
INSERT
  5
3D
330
1F
100
AcDbEntity
  8
Layer 1
100
AcDbBlockReference
  2
block 2
 10
0.0
 20
0.0
 30
0.0
  0
INSERT
  5
46
330
1F
100
AcDbEntity
  8
Layer 1
100
AcDbBlockReference
  2
block 4
 10
0.0
 20
0.0
 30
0.0
  0
INSERT
  5
4F
330
1F
100
AcDbEntity
  8
Layer 1
100
AcDbBlockReference
  2
block 6
 10
0.0
 20
0.0
 30
0.0
  0
INSERT
  5
58
330
1F
100
AcDbEntity
  8
Layer 1
100
AcDbBlockReference
  2
block 8
 10
0.0
 20
0.0
 30
0.0
  0
SPLINE
  5
60
330
1F
100
AcDbEntity
  8
Layer 1
 62
   250
420
  2301728
370
    18
100
AcDbSpline
210
0.0
220
0.0
230
1.0
 70
    11
 71
     3
 72
   479
 73
   475
 74
     0
 42
0.0000000001
 43
0.0000000001
 40
0.0
 40
0.0
 40
0.0
 40
0.0
 40
1.0
 40
1.0
 40
1.0
 40
2.0
 40
2.0
 40
2.0
 40
3.0
 40
3.0
 40
3.0
 40
4.0
 40
4.0
 40
4.0
 40
5.0
 40
5.0
 40
5.0
 40
6.0
 40
6.0
 40
6.0
 40
7.0
 40
7.0
 40
7.0
 40
8.0
 40
8.0
 40
8.0
 40
9.0
 40
9.0
 40
9.0
 40
10.0
 40
10.0
 40
10.0
 40
11.0
 40
11.0
 40
11.0
 40
12.0
 40
12.0
 40
12.0
 40
13.0
 40
13.0
 40
13.0
 40
14.0
 40
14.0
 40
14.0
 40
15.0
 40
15.0
 40
15.0
 40
16.0
 40
16.0
 40
16.0
 40
17.0
 40
17.0
 40
17.0
 40
18.0
 40
18.0
 40
18.0
 40
19.0
 40
19.0
 40
19.0
 40
20.0
 40
20.0
 40
20.0
 40
21.0
 40
21.0
 40
21.0
 40
22.0
 40
22.0
 40
22.0
 40
23.0
 40
23.0
 40
23.0
 40
24.0
 40
24.0
 40
24.0
 40
25.0
 40
25.0
 40
25.0
 40
26.0
 40
26.0
 40
26.0
 40
27.0
 40
27.0
 40
27.0
 40
28.0
 40
28.0
 40
28.0
 40
29.0
 40
29.0
 40
29.0
 40
30.0
 40
30.0
 40
30.0
 40
31.0
 40
31.0
 40
31.0
 40
32.0
 40
32.0
 40
32.0
 40
33.0
 40
33.0
 40
33.0
 40
34.0
 40
34.0
 40
34.0
 40
35.0
 40
35.0
 40
35.0
 40
36.0
 40
36.0
 40
36.0
 40
37.0
 40
37.0
 40
37.0
 40
38.0
 40
38.0
 40
38.0
 40
39.0
 40
39.0
 40
39.0
 40
40.0
 40
40.0
 40
40.0
 40
41.0
 40
41.0
 40
41.0
 40
42.0
 40
42.0
 40
42.0
 40
43.0
 40
43.0
 40
43.0
 40
44.0
 40
44.0
 40
44.0
 40
45.0
 40
45.0
 40
45.0
 40
46.0
 40
46.0
 40
46.0
 40
47.0
 40
47.0
 40
47.0
 40
48.0
 40
48.0
 40
48.0
 40
49.0
 40
49.0
 40
49.0
 40
50.0
 40
50.0
 40
50.0
 40
51.0
 40
51.0
 40
51.0
 40
52.0
 40
52.0
 40
52.0
 40
53.0
 40
53.0
 40
53.0
 40
54.0
 40
54.0
 40
54.0
 40
55.0
 40
55.0
 40
55.0
 40
56.0
 40
56.0
 40
56.0
 40
57.0
 40
57.0
 40
57.0
 40
58.0
 40
58.0
 40
58.0
 40
59.0
 40
59.0
 40
59.0
 40
60.0
 40
60.0
 40
60.0
 40
61.0
 40
61.0
 40
61.0
 40
62.0
 40
62.0
 40
62.0
 40
63.0
 40
63.0
 40
63.0
 40
64.0
 40
64.0
 40
64.0
 40
65.0
 40
65.0
 40
65.0
 40
66.0
 40
66.0
 40
66.0
 40
67.0
 40
67.0
 40
67.0
 40
68.0
 40
68.0
 40
68.0
 40
69.0
 40
69.0
 40
69.0
 40
70.0
 40
70.0
 40
70.0
 40
71.0
 40
71.0
 40
71.0
 40
72.0
 40
72.0
 40
72.0
 40
73.0
 40
73.0
 40
73.0
 40
74.0
 40
74.0
 40
74.0
 40
75.0
 40
75.0
 40
75.0
 40
76.0
 40
76.0
 40
76.0
 40
77.0
 40
77.0
 40
77.0
 40
78.0
 40
78.0
 40
78.0
 40
79.0
 40
79.0
 40
79.0
 40
80.0
 40
80.0
 40
80.0
 40
81.0
 40
81.0
 40
81.0
 40
82.0
 40
82.0
 40
82.0
 40
83.0
 40
83.0
 40
83.0
 40
84.0
 40
84.0
 40
84.0
 40
85.0
 40
85.0
 40
85.0
 40
86.0
 40
86.0
 40
86.0
 40
87.0
 40
87.0
 40
87.0
 40
88.0
 40
88.0
 40
88.0
 40
89.0
 40
89.0
 40
89.0
 40
90.0
 40
90.0
 40
90.0
 40
91.0
 40
91.0
 40
91.0
 40
92.0
 40
92.0
 40
92.0
 40
93.0
 40
93.0
 40
93.0
 40
94.0
 40
94.0
 40
94.0
 40
95.0
 40
95.0
 40
95.0
 40
96.0
 40
96.0
 40
96.0
 40
97.0
 40
97.0
 40
97.0
 40
98.0
 40
98.0
 40
98.0
 40
99.0
 40
99.0
 40
99.0
 40
100.0
 40
100.0
 40
100.0
 40
101.0
 40
101.0
 40
101.0
 40
102.0
 40
102.0
 40
102.0
 40
103.0
 40
103.0
 40
103.0
 40
104.0
 40
104.0
 40
104.0
 40
105.0
 40
105.0
 40
105.0
 40
106.0
 40
106.0
 40
106.0
 40
107.0
 40
107.0
 40
107.0
 40
108.0
 40
108.0
 40
108.0
 40
109.0
 40
109.0
 40
109.0
 40
110.0
 40
110.0
 40
110.0
 40
111.0
 40
111.0
 40
111.0
 40
112.0
 40
112.0
 40
112.0
 40
113.0
 40
113.0
 40
113.0
 40
114.0
 40
114.0
 40
114.0
 40
115.0
 40
115.0
 40
115.0
 40
116.0
 40
116.0
 40
116.0
 40
117.0
 40
117.0
 40
117.0
 40
118.0
 40
118.0
 40
118.0
 40
119.0
 40
119.0
 40
119.0
 40
120.0
 40
120.0
 40
120.0
 40
121.0
 40
121.0
 40
121.0
 40
122.0
 40
122.0
 40
122.0
 40
123.0
 40
123.0
 40
123.0
 40
124.0
 40
124.0
 40
124.0
 40
125.0
 40
125.0
 40
125.0
 40
126.0
 40
126.0
 40
126.0
 40
127.0
 40
127.0
 40
127.0
 40
128.0
 40
128.0
 40
128.0
 40
129.0
 40
129.0
 40
129.0
 40
130.0
 40
130.0
 40
130.0
 40
131.0
 40
131.0
 40
131.0
 40
132.0
 40
132.0
 40
132.0
 40
133.0
 40
133.0
 40
133.0
 40
134.0
 40
134.0
 40
134.0
 40
135.0
 40
135.0
 40
135.0
 40
136.0
 40
136.0
 40
136.0
 40
137.0
 40
137.0
 40
137.0
 40
138.0
 40
138.0
 40
138.0
 40
139.0
 40
139.0
 40
139.0
 40
140.0
 40
140.0
 40
140.0
 40
141.0
 40
141.0
 40
141.0
 40
142.0
 40
142.0
 40
142.0
 40
143.0
 40
143.0
 40
143.0
 40
144.0
 40
144.0
 40
144.0
 40
145.0
 40
145.0
 40
145.0
 40
146.0
 40
146.0
 40
146.0
 40
147.0
 40
147.0
 40
147.0
 40
148.0
 40
148.0
 40
148.0
 40
149.0
 40
149.0
 40
149.0
 40
150.0
 40
150.0
 40
150.0
 40
151.0
 40
151.0
 40
151.0
 40
152.0
 40
152.0
 40
152.0
 40
153.0
 40
153.0
 40
153.0
 40
154.0
 40
154.0
 40
154.0
 40
155.0
 40
155.0
 40
155.0
 40
156.0
 40
156.0
 40
156.0
 40
157.0
 40
157.0
 40
157.0
 40
158.0
 40
158.0
 40
158.0
 40
158.0
 10
70.21728515625
 20
-125.08203125
 30
0.0
 10
70.16845703125
 20
-125.07421875
 30
0.0
 10
70.11572265625
 20
-125.0791015625
 30
0.0
 10
70.06494140625
 20
-125.072265625
 30
0.0
 10
70.06884765625
 20
-125.0322265625
 30
0.0
 10
70.07470703125
 20
-124.9912109375
 30
0.0
 10
70.07568359375
 20
-124.9501953125
 30
0.0
 10
70.14697265625
 20
-124.955078125
 30
0.0
 10
70.21337890625
 20
-124.970703125
 30
0.0
 10
70.28466796875
 20
-124.970703125
 30
0.0
 10
72.42724609375
 20
-124.9609375
 30
0.0
 10
74.16064453125
 20
-123.216796875
 30
0.0
 10
74.16064453125
 20
-121.07421875
 30
0.0
 10
74.16064453125
 20
-118.931640625
 30
0.0
 10
72.41748046875
 20
-117.1875
 30
0.0
 10
70.27392578125
 20
-117.1982421875
 30
0.0
 10
70.17919921875
 20
-117.1982421875
 30
0.0
 10
70.08642578125
 20
-117.2197265625
 30
0.0
 10
69.99462890625
 20
-117.2265625
 30
0.0
 10
69.98779296875
 20
-117.185546875
 30
0.0
 10
69.98388671875
 20
-117.142578125
 30
0.0
 10
69.97705078125
 20
-117.1015625
 30
0.0
 10
70.06787109375
 20
-117.080078125
 30
0.0
 10
70.16064453125
 20
-117.0703125
 30
0.0
 10
70.25146484375
 20
-117.0419921875
 30
0.0
 10
72.31689453125
 20
-116.419921875
 30
0.0
 10
73.48095703125
 20
-114.2548828125
 30
0.0
 10
72.87158203125
 20
-112.201171875
 30
0.0
 10
72.25048828125
 20
-110.146484375
 30
0.0
 10
70.08447265625
 20
-108.98046875
 30
0.0
 10
68.03173828125
 20
-109.591796875
 30
0.0
 10
67.93798828125
 20
-109.619140625
 30
0.0
 10
67.85498046875
 20
-109.666015625
 30
0.0
 10
67.76708984375
 20
-109.7001953125
 30
0.0
 10
67.74951171875
 20
-109.6611328125
 30
0.0
 10
67.73095703125
 20
-109.6240234375
 30
0.0
 10
67.71240234375
 20
-109.587890625
 30
0.0
 10
67.79736328125
 20
-109.5400390625
 30
0.0
 10
67.88134765625
 20
-109.5
 30
0.0
 10
67.96337890625
 20
-109.447265625
 30
0.0
 10
69.75146484375
 20
-108.26953125
 30
0.0
 10
70.25146484375
 20
-105.859375
 30
0.0
 10
69.07373046875
 20
-104.072265625
 30
0.0
 10
67.89697265625
 20
-102.2734375
 30
0.0
 10
65.48779296875
 20
-101.7734375
 30
0.0
 10
63.69873046875
 20
-102.9501953125
 30
0.0
 10
63.62060546875
 20
-103.001953125
 30
0.0
 10
63.55712890625
 20
-103.0703125
 30
0.0
 10
63.48291015625
 20
-103.1259765625
 30
0.0
 10
63.45263671875
 20
-103.091796875
 30
0.0
 10
63.42333984375
 20
-103.0546875
 30
0.0
 10
63.39501953125
 20
-103.021484375
 30
0.0
 10
63.45654296875
 20
-102.95703125
 30
0.0
 10
63.53076171875
 20
-102.9091796875
 30
0.0
 10
63.58837890625
 20
-102.83984375
 30
0.0
 10
64.98779296875
 20
-101.2177734375
 30
0.0
 10
64.80908203125
 20
-98.7646484375
 30
0.0
 10
63.17724609375
 20
-97.36572265625
 30
0.0
 10
61.55712890625
 20
-95.96533203125
 30
0.0
 10
59.10205078125
 20
-96.1435546875
 30
0.0
 10
57.70263671875
 20
-97.76513671875
 30
0.0
 10
57.64111328125
 20
-97.83349609375
 30
0.0
 10
57.60302734375
 20
-97.912109375
 30
0.0
 10
57.54931640625
 20
-97.98388671875
 30
0.0
 10
57.51416015625
 20
-97.96044921875
 30
0.0
 10
57.47998046875
 20
-97.93701171875
 30
0.0
 10
57.44287109375
 20
-97.9140625
 30
0.0
 10
57.48388671875
 20
-97.84130859375
 30
0.0
 10
57.53271484375
 20
-97.7744140625
 30
0.0
 10
57.56787109375
 20
-97.69677734375
 30
0.0
 10
58.51318359375
 20
-95.76611328125
 30
0.0
 10
57.70263671875
 20
-93.4443359375
 30
0.0
 10
55.78076171875
 20
-92.50048828125
 30
0.0
 10
53.84814453125
 20
-91.55712890625
 30
0.0
 10
51.51611328125
 20
-92.3681640625
 30
0.0
 10
50.57373046875
 20
-94.2998046875
 30
0.0
 10
50.53955078125
 20
-94.3720703125
 30
0.0
 10
50.52099609375
 20
-94.447265625
 30
0.0
 10
50.49072265625
 20
-94.51953125
 30
0.0
 10
50.45068359375
 20
-94.50634765625
 30
0.0
 10
50.41259765625
 20
-94.49169921875
 30
0.0
 10
50.37451171875
 20
-94.47900390625
 30
0.0
 10
50.39306640625
 20
-94.4072265625
 30
0.0
 10
50.42333984375
 20
-94.33984375
 30
0.0
 10
50.43896484375
 20
-94.26611328125
 30
0.0
 10
50.90673828125
 20
-92.16748046875
 30
0.0
 10
49.58447265625
 20
-90.0908203125
 30
0.0
 10
47.48779296875
 20
-89.6357421875
 30
0.0
 10
45.38818359375
 20
-89.1689453125
 30
0.0
 10
43.32275390625
 20
-90.4912109375
 30
0.0
 10
42.85498046875
 20
-92.58935546875
 30
0.0
 10
42.84033203125
 20
-92.662109375
 30
0.0
 10
42.84130859375
 20
-92.73486328125
 30
0.0
 10
42.82861328125
 20
-92.806640625
 30
0.0
 10
42.77392578125
 20
-92.80078125
 30
0.0
 10
42.71923828125
 20
-92.79345703125
 30
0.0
 10
42.66552734375
 20
-92.7880859375
 30
0.0
 10
42.66943359375
 20
-92.71435546875
 30
0.0
 10
42.68896484375
 20
-92.6416015625
 30
0.0
 10
42.68896484375
 20
-92.56787109375
 30
0.0
 10
42.68896484375
 20
-91.54638671875
 30
0.0
 10
42.26611328125
 20
-90.53564453125
 30
0.0
 10
41.54443359375
 20
-89.8134765625
 30
0.0
 10
40.79931640625
 20
-89.06982421875
 30
0.0
 10
39.74853515625
 20
-88.71533203125
 30
0.0
 10
38.70556640625
 20
-88.73974609375
 30
0.0
 10
38.67236328125
 20
-88.73828125
 30
0.0
 10
38.64013671875
 20
-88.74658203125
 30
0.0
 10
38.60986328125
 20
-88.74658203125
 30
0.0
 10
37.59716796875
 20
-88.74658203125
 30
0.0
 10
36.58544921875
 20
-89.09228515625
 30
0.0
 10
35.85888671875
 20
-89.8134765625
 30
0.0
 10
35.13818359375
 20
-90.53564453125
 30
0.0
 10
34.72705078125
 20
-91.54638671875
 30
0.0
 10
34.72705078125
 20
-92.56787109375
 30
0.0
 10
34.72705078125
 20
-92.6416015625
 30
0.0
 10
34.74462890625
 20
-92.712890625
 30
0.0
 10
34.74853515625
 20
-92.787109375
 30
0.0
 10
34.69482421875
 20
-92.79345703125
 30
0.0
 10
34.64013671875
 20
-92.80029296875
 30
0.0
 10
34.58642578125
 20
-92.806640625
 30
0.0
 10
34.57470703125
 20
-92.7333984375
 30
0.0
 10
34.57568359375
 20
-92.662109375
 30
0.0
 10
34.56005859375
 20
-92.58935546875
 30
0.0
 10
34.10498046875
 20
-90.4912109375
 30
0.0
 10
32.02783203125
 20
-89.1689453125
 30
0.0
 10
29.92919921875
 20
-89.6357421875
 30
0.0
 10
27.82958984375
 20
-90.0908203125
 30
0.0
 10
26.50927734375
 20
-92.16748046875
 30
0.0
 10
26.97509765625
 20
-94.26611328125
 30
0.0
 10
26.99072265625
 20
-94.33984375
 30
0.0
 10
27.02099609375
 20
-94.404296875
 30
0.0
 10
27.04150390625
 20
-94.4755859375
 30
0.0
 10
26.99072265625
 20
-94.49169921875
 30
0.0
 10
26.94287109375
 20
-94.51123046875
 30
0.0
 10
26.89306640625
 20
-94.5283203125
 30
0.0
 10
26.86376953125
 20
-94.45263671875
 30
0.0
 10
26.84619140625
 20
-94.3740234375
 30
0.0
 10
26.80908203125
 20
-94.2998046875
 30
0.0
 10
25.87646484375
 20
-92.3681640625
 30
0.0
 10
23.54443359375
 20
-91.568359375
 30
0.0
 10
21.62255859375
 20
-92.51123046875
 30
0.0
 10
19.68896484375
 20
-93.4443359375
 30
0.0
 10
18.89111328125
 20
-95.77685546875
 30
0.0
 10
19.82568359375
 20
-97.70947265625
 30
0.0
 10
19.86279296875
 20
-97.7841796875
 30
0.0
 10
19.90771484375
 20
-97.85107421875
 30
0.0
 10
19.94775390625
 20
-97.92333984375
 30
0.0
 10
19.90966796875
 20
-97.94921875
 30
0.0
 10
19.87060546875
 20
-97.974609375
 30
0.0
 10
19.82958984375
 20
-98.0009765625
 30
0.0
 10
19.77685546875
 20
-97.93212890625
 30
0.0
 10
19.73779296875
 20
-97.853515625
 30
0.0
 10
19.67822265625
 20
-97.7861328125
 30
0.0
 10
18.28173828125
 20
-96.16552734375
 30
0.0
 10
15.82470703125
 20
-95.98876953125
 30
0.0
 10
14.19384765625
 20
-97.38720703125
 30
0.0
 10
12.57177734375
 20
-98.796875
 30
0.0
 10
12.39501953125
 20
-101.240234375
 30
0.0
 10
13.79345703125
 20
-102.873046875
 30
0.0
 10
13.85302734375
 20
-102.94140625
 30
0.0
 10
13.92431640625
 20
-102.98828125
 30
0.0
 10
13.98681640625
 20
-103.0517578125
 30
0.0
 10
13.95361328125
 20
-103.0888671875
 30
0.0
 10
13.92041015625
 20
-103.130859375
 30
0.0
 10
13.88720703125
 20
-103.16796875
 30
0.0
 10
13.81494140625
 20
-103.11328125
 30
0.0
 10
13.75244140625
 20
-103.0458984375
 30
0.0
 10
13.67138671875
 20
-102.9951171875
 30
0.0
 10
11.87451171875
 20
-101.818359375
 30
0.0
 10
9.46240234375
 20
-102.31640625
 30
0.0
 10
8.29736328125
 20
-104.1171875
 30
0.0
 10
7.11962890625
 20
-105.916015625
 30
0.0
 10
7.62060546875
 20
-108.3251953125
 30
0.0
 10
9.41845703125
 20
-109.5029296875
 30
0.0
 10
9.49951171875
 20
-109.5546875
 30
0.0
 10
9.58544921875
 20
-109.59375
 30
0.0
 10
9.66748046875
 20
-109.6396484375
 30
0.0
 10
9.64892578125
 20
-109.681640625
 30
0.0
 10
9.62646484375
 20
-109.724609375
 30
0.0
 10
9.60693359375
 20
-109.767578125
 30
0.0
 10
9.51806640625
 20
-109.732421875
 30
0.0
 10
9.43505859375
 20
-109.685546875
 30
0.0
 10
9.34033203125
 20
-109.658203125
 30
0.0
 10
7.28662109375
 20
-109.046875
 30
0.0
 10
5.12255859375
 20
-110.224609375
 30
0.0
 10
4.51025390625
 20
-112.279296875
 30
0.0
 10
3.90087890625
 20
-114.34375
 30
0.0
 10
5.07568359375
 20
-116.498046875
 30
0.0
 10
7.14306640625
 20
-117.109375
 30
0.0
 10
7.23388671875
 20
-117.13671875
 30
0.0
 10
7.32763671875
 20
-117.1513671875
 30
0.0
 10
7.42138671875
 20
-117.171875
 30
0.0
 10
7.41455078125
 20
-117.2197265625
 30
0.0
 10
7.40771484375
 20
-117.267578125
 30
0.0
 10
7.40185546875
 20
-117.314453125
 30
0.0
 10
7.30810546875
 20
-117.3076171875
 30
0.0
 10
7.21630859375
 20
-117.287109375
 30
0.0
 10
7.11962890625
 20
-117.287109375
 30
0.0
 10
4.96630859375
 20
-117.298828125
 30
0.0
 10
3.23291015625
 20
-119.041015625
 30
0.0
 10
3.24462890625
 20
-121.1845703125
 30
0.0
 10
3.24462890625
 20
-123.328125
 30
0.0
 10
4.98583984375
 20
-125.060546875
 30
0.0
 10
7.13037109375
 20
-125.060546875
 30
0.0
 10
7.13037109375
 20
-125.060546875
 30
0.0
 10
7.14306640625
 20
-125.060546875
 30
0.0
 10
7.14306640625
 20
-125.060546875
 30
0.0
 10
7.20947265625
 20
-125.060546875
 30
0.0
 10
7.27294921875
 20
-125.04296875
 30
0.0
 10
7.33837890625
 20
-125.0400390625
 30
0.0
 10
7.34228515625
 20
-125.0888671875
 30
0.0
 10
7.34912109375
 20
-125.13671875
 30
0.0
 10
7.35400390625
 20
-125.18359375
 30
0.0
 10
7.30322265625
 20
-125.1904296875
 30
0.0
 10
7.25732421875
 20
-125.1865234375
 30
0.0
 10
7.20947265625
 20
-125.193359375
 30
0.0
 10
5.08642578125
 20
-125.560546875
 30
0.0
 10
3.66650390625
 20
-127.5703125
 30
0.0
 10
4.02197265625
 20
-129.6796875
 30
0.0
 10
4.02197265625
 20
-129.6796875
 30
0.0
 10
4.02197265625
 20
-129.69140625
 30
0.0
 10
4.02197265625
 20
-129.69140625
 30
0.0
 10
4.35400390625
 20
-131.580078125
 30
0.0
 10
5.98779296875
 20
-132.921875
 30
0.0
 10
7.85205078125
 20
-132.921875
 30
0.0
 10
8.06494140625
 20
-132.921875
 30
0.0
 10
8.28662109375
 20
-132.9013671875
 30
0.0
 10
8.50830078125
 20
-132.85546875
 30
0.0
 10
8.54541015625
 20
-132.849609375
 30
0.0
 10
8.57568359375
 20
-132.8349609375
 30
0.0
 10
8.61083984375
 20
-132.828125
 30
0.0
 10
8.61962890625
 20
-132.87109375
 30
0.0
 10
8.62744140625
 20
-132.916015625
 30
0.0
 10
8.63916015625
 20
-132.958984375
 30
0.0
 10
6.54931640625
 20
-133.421875
 30
0.0
 10
5.22216796875
 20
-135.4921875
 30
0.0
 10
5.67626953125
 20
-137.5859375
 30
0.0
 10
5.67626953125
 20
-137.5859375
 30
0.0
 10
5.68798828125
 20
-137.5859375
 30
0.0
 10
5.68798828125
 20
-137.5859375
 30
0.0
 10
6.07666015625
 20
-139.408203125
 30
0.0
 10
7.68505859375
 20
-140.6396484375
 30
0.0
 10
9.47412109375
 20
-140.6396484375
 30
0.0
 10
9.73388671875
 20
-140.6396484375
 30
0.0
 10
9.99560546875
 20
-140.6181640625
 30
0.0
 10
10.25537109375
 20
-140.560546875
 30
0.0
 10
10.26123046875
 20
-140.60546875
 30
0.0
 10
10.27197265625
 20
-140.654296875
 30
0.0
 10
10.28173828125
 20
-140.703125
 30
0.0
 10
10.26806640625
 20
-140.705078125
 30
0.0
 10
10.25537109375
 20
-140.7041015625
 30
0.0
 10
10.24169921875
 20
-140.70703125
 30
0.0
 10
8.14111328125
 20
-141.162109375
 30
0.0
 10
6.80908203125
 20
-143.2265625
 30
0.0
 10
7.27490234375
 20
-145.3271484375
 30
0.0
 10
7.66357421875
 20
-147.1484375
 30
0.0
 10
9.27587890625
 20
-148.390625
 30
0.0
 10
11.06298828125
 20
-148.390625
 30
0.0
 10
11.34033203125
 20
-148.390625
 30
0.0
 10
11.61865234375
 20
-148.357421875
 30
0.0
 10
11.89501953125
 20
-148.302734375
 30
0.0
 10
11.90087890625
 20
-148.302734375
 30
0.0
 10
11.90478515625
 20
-148.298828125
 30
0.0
 10
11.91162109375
 20
-148.298828125
 30
0.0
 10
11.92041015625
 20
-148.361328125
 30
0.0
 10
11.93115234375
 20
-148.42578125
 30
0.0
 10
11.94482421875
 20
-148.490234375
 30
0.0
 10
11.26611328125
 20
-148.64453125
 30
0.0
 10
10.62646484375
 20
-148.958984375
 30
0.0
 10
10.13037109375
 20
-149.45703125
 30
0.0
 10
9.39697265625
 20
-150.1787109375
 30
0.0
 10
8.98388671875
 20
-151.1904296875
 30
0.0
 10
8.98388671875
 20
-152.2119140625
 30
0.0
 10
8.98388671875
 20
-153.2333984375
 30
0.0
 10
9.39697265625
 20
-154.2333984375
 30
0.0
 10
10.13037109375
 20
-154.9560546875
 30
0.0
 10
10.39013671875
 20
-155.2158203125
 30
0.0
 10
10.69580078125
 20
-155.4208984375
 30
0.0
 10
11.01904296875
 20
-155.5986328125
 30
0.0
 10
10.96923828125
 20
-155.5830078125
 30
0.0
 10
10.92431640625
 20
-155.5576171875
 30
0.0
 10
10.87353515625
 20
-155.5439453125
 30
0.0
 10
8.79541015625
 20
-154.9990234375
 30
0.0
 10
6.66259765625
 20
-156.2333984375
 30
0.0
 10
6.10888671875
 20
-158.2978515625
 30
0.0
 10
5.56494140625
 20
-160.3740234375
 30
0.0
 10
6.78662109375
 20
-162.4951171875
 30
0.0
 10
8.85302734375
 20
-163.0498046875
 30
0.0
 10
6.71923828125
 20
-163.0283203125
 30
0.0
 10
4.96630859375
 20
-164.7275390625
 30
0.0
 10
4.92236328125
 20
-166.8603515625
 30
0.0
 10
4.87744140625
 20
-169.0029296875
 30
0.0
 10
6.58837890625
 20
-170.7783203125
 30
0.0
 10
8.73095703125
 20
-170.8232421875
 30
0.0
 10
8.76416015625
 20
-170.8232421875
 30
0.0
 10
8.79541015625
 20
-170.8232421875
 30
0.0
 10
8.84228515625
 20
-170.8232421875
 30
0.0
 10
8.78564453125
 20
-170.8466796875
 30
0.0
 10
8.73095703125
 20
-170.8681640625
 30
0.0
 10
8.68505859375
 20
-170.8798828125
 30
0.0
 10
6.69775390625
 20
-171.7021484375
 30
0.0
 10
5.74267578125
 20
-173.9658203125
 30
0.0
 10
6.55322265625
 20
-175.9541015625
 30
0.0
 10
6.55322265625
 20
-175.9541015625
 30
0.0
 10
6.56396484375
 20
-175.9541015625
 30
0.0
 10
6.56396484375
 20
-175.9541015625
 30
0.0
 10
7.37548828125
 20
-177.9423828125
 30
0.0
 10
9.64208984375
 20
-178.8857421875
 30
0.0
 10
11.62939453125
 20
-178.0751953125
 30
0.0
 10
11.67333984375
 20
-178.0654296875
 30
0.0
 10
11.71630859375
 20
-178.0419921875
 30
0.0
 10
11.76025390625
 20
-178.0185546875
 30
0.0
 10
11.73876953125
 20
-178.0419921875
 30
0.0
 10
11.71630859375
 20
-178.0654296875
 30
0.0
 10
11.69580078125
 20
-178.0751953125
 30
0.0
 10
10.13037109375
 20
-179.5517578125
 30
0.0
 10
10.05126953125
 20
-182.0048828125
 30
0.0
 10
11.51806640625
 20
-183.5712890625
 30
0.0
 10
12.98486328125
 20
-185.1376953125
 30
0.0
 10
15.44775390625
 20
-185.2158203125
 30
0.0
 10
17.01318359375
 20
-183.7490234375
 30
0.0
 10
17.02392578125
 20
-183.7392578125
 30
0.0
 10
17.03564453125
 20
-183.7275390625
 30
0.0
 10
17.04931640625
 20
-183.7275390625
 30
0.0
 10
15.94873046875
 20
-185.5712890625
 30
0.0
 10
16.55908203125
 20
-187.9462890625
 30
0.0
 10
18.41259765625
 20
-189.0478515625
 30
0.0
 10
20.24462890625
 20
-190.1357421875
 30
0.0
 10
22.62255859375
 20
-189.5361328125
 30
0.0
 10
23.72314453125
 20
-187.7041015625
 30
0.0
 10
23.11083984375
 20
-189.7353515625
 30
0.0
 10
24.25439453125
 20
-191.8896484375
 30
0.0
 10
26.28662109375
 20
-192.5224609375
 30
0.0
 10
28.31884765625
 20
-193.1552734375
 30
0.0
 10
30.47314453125
 20
-192.0341796875
 30
0.0
 10
31.14013671875
 20
-190.0244140625
 30
0.0
 10
30.97412109375
 20
-192.1337890625
 30
0.0
 10
32.52880859375
 20
-193.9892578125
 30
0.0
 10
34.63720703125
 20
-194.1884765625
 30
0.0
 10
34.76025390625
 20
-194.1982421875
 30
0.0
 10
34.89208984375
 20
-194.1982421875
 30
0.0
 10
35.01611328125
 20
-194.1982421875
 30
0.0
 10
36.61962890625
 20
-194.1982421875
 30
0.0
 10
38.03271484375
 20
-193.1982421875
 30
0.0
 10
38.60986328125
 20
-191.7451171875
 30
0.0
 10
38.73193359375
 20
-191.4384765625
 30
0.0
 10
38.82861328125
 20
-191.1201171875
 30
0.0
 10
38.86767578125
 20
-190.7802734375
 30
0.0
 10
39.12353515625
 20
-192.8681640625
 30
0.0
 10
40.99951171875
 20
-194.3779296875
 30
0.0
 10
43.11083984375
 20
-194.1669921875
 30
0.0
 10
45.22021484375
 20
-193.9560546875
 30
0.0
 10
46.76513671875
 20
-192.1005859375
 30
0.0
 10
46.59716796875
 20
-190.0029296875
 30
0.0
 10
47.27392578125
 20
-192.0009765625
 30
0.0
 10
49.43017578125
 20
-193.1005859375
 30
0.0
 10
51.46142578125
 20
-192.4677734375
 30
0.0
 10
53.48193359375
 20
-191.8232421875
 30
0.0
 10
54.61572265625
 20
-189.6689453125
 30
0.0
 10
54.00634765625
 20
-187.6357421875
 30
0.0
 10
55.11474609375
 20
-189.4580078125
 30
0.0
 10
57.49267578125
 20
-190.0458984375
 30
0.0
 10
59.32275390625
 20
-188.9462890625
 30
0.0
 10
61.15673828125
 20
-187.8466796875
 30
0.0
 10
61.75732421875
 20
-185.4599609375
 30
0.0
 10
60.65576171875
 20
-183.6181640625
 30
0.0
 10
60.66650390625
 20
-183.6279296875
 30
0.0
 10
60.67724609375
 20
-183.6396484375
 30
0.0
 10
60.68896484375
 20
-183.6494140625
 30
0.0
 10
62.26708984375
 20
-185.1044921875
 30
0.0
 10
64.73193359375
 20
-185.0048828125
 30
0.0
 10
66.18798828125
 20
-183.4287109375
 30
0.0
 10
67.64013671875
 20
-181.8525390625
 30
0.0
 10
67.54150390625
 20
-179.3974609375
 30
0.0
 10
65.96337890625
 20
-177.9423828125
 30
0.0
 10
65.94189453125
 20
-177.9189453125
 30
0.0
 10
65.92041015625
 20
-177.8974609375
 30
0.0
 10
65.88623046875
 20
-177.8759765625
 30
0.0
 10
65.94189453125
 20
-177.8974609375
 30
0.0
 10
65.98583984375
 20
-177.9091796875
 30
0.0
 10
66.03076171875
 20
-177.9306640625
 30
0.0
 10
68.03173828125
 20
-178.7197265625
 30
0.0
 10
70.28466796875
 20
-177.7529296875
 30
0.0
 10
71.08544921875
 20
-175.7548828125
 30
0.0
 10
71.87255859375
 20
-173.7666015625
 30
0.0
 10
70.89306640625
 20
-171.5009765625
 30
0.0
 10
68.90771484375
 20
-170.7021484375
 30
0.0
 10
68.85107421875
 20
-170.6787109375
 30
0.0
 10
68.79638671875
 20
-170.6689453125
 30
0.0
 10
68.73974609375
 20
-170.6455078125
 30
0.0
 10
68.78564453125
 20
-170.6455078125
 30
0.0
 10
68.82958984375
 20
-170.6455078125
 30
0.0
 10
68.87451171875
 20
-170.6455078125
 30
0.0
 10
71.02880859375
 20
-170.5908203125
 30
0.0
 10
72.71630859375
 20
-168.8037109375
 30
0.0
 10
72.66259765625
 20
-166.6591796875
 30
0.0
 10
72.60498046875
 20
-164.5283203125
 30
0.0
 10
70.84033203125
 20
-162.8388671875
 30
0.0
 10
68.71826171875
 20
-162.8720703125
 30
0.0
 10
70.78466796875
 20
-162.2958984375
 30
0.0
 10
71.99365234375
 20
-160.1630859375
 30
0.0
 10
71.42822265625
 20
-158.1083984375
 30
0.0
 10
70.86279296875
 20
-156.0322265625
 30
0.0
 10
68.71826171875
 20
-154.8115234375
 30
0.0
 10
66.65380859375
 20
-155.3759765625
 30
0.0
 10
66.56103515625
 20
-155.4013671875
 30
0.0
 10
66.48193359375
 20
-155.4443359375
 30
0.0
 10
66.39404296875
 20
-155.4755859375
 30
0.0
 10
66.39013671875
 20
-155.4677734375
 30
0.0
 10
66.38623046875
 20
-155.4541015625
 30
0.0
 10
66.38037109375
 20
-155.4443359375
 30
0.0
 10
66.72998046875
 20
-155.2646484375
 30
0.0
 10
67.06103515625
 20
-155.0458984375
 30
0.0
 10
67.34033203125
 20
-154.7666015625
 30
0.0
 10
68.06396484375
 20
-154.0439453125
 30
0.0
 10
68.47314453125
 20
-153.0458984375
 30
0.0
 10
68.47314453125
 20
-152.0107421875
 30
0.0
 10
68.47314453125
 20
-150.9892578125
 30
0.0
 10
68.06396484375
 20
-149.9912109375
 30
0.0
 10
67.34033203125
 20
-149.26953125
 30
0.0
 10
66.83837890625
 20
-148.763671875
 30
0.0
 10
66.18798828125
 20
-148.447265625
 30
0.0
 10
65.49853515625
 20
-148.294921875
 30
0.0
 10
65.50244140625
 20
-148.263671875
 30
0.0
 10
65.51123046875
 20
-148.232421875
 30
0.0
 10
65.51513671875
 20
-148.201171875
 30
0.0
 10
65.51513671875
 20
-148.201171875
 30
0.0
 10
65.51904296875
 20
-148.1796875
 30
0.0
 10
65.52880859375
 20
-148.138671875
 30
0.0
 10
65.53662109375
 20
-148.140625
 30
0.0
 10
65.54638671875
 20
-148.146484375
 30
0.0
 10
65.55517578125
 20
-148.146484375
 30
0.0
 10
65.83251953125
 20
-148.203125
 30
0.0
 10
66.10888671875
 20
-148.236328125
 30
0.0
 10
66.37646484375
 20
-148.236328125
 30
0.0
 10
68.16357421875
 20
-148.236328125
 30
0.0
 10
69.77294921875
 20
-146.9921875
 30
0.0
 10
70.17333984375
 20
-145.169921875
 30
0.0
 10
70.61669921875
 20
-143.072265625
 30
0.0
 10
69.29541015625
 20
-140.99609375
 30
0.0
 10
67.19873046875
 20
-140.541015625
 30
0.0
 10
67.18408203125
 20
-140.537109375
 30
0.0
 10
67.17041015625
 20
-140.5390625
 30
0.0
 10
67.15771484375
 20
-140.53515625
 30
0.0
 10
67.15869140625
 20
-140.5224609375
 30
0.0
 10
67.16357421875
 20
-140.5078125
 30
0.0
 10
67.16552734375
 20
-140.494140625
 30
0.0
 10
67.17041015625
 20
-140.470703125
 30
0.0
 10
67.17431640625
 20
-140.451171875
 30
0.0
 10
67.17822265625
 20
-140.427734375
 30
0.0
 10
67.43701171875
 20
-140.484375
 30
0.0
 10
67.70654296875
 20
-140.5078125
 30
0.0
 10
67.96337890625
 20
-140.5078125
 30
0.0
 10
69.74169921875
 20
-140.5078125
 30
0.0
 10
71.35009765625
 20
-139.275390625
 30
0.0
 10
71.75048828125
 20
-137.453125
 30
0.0
 10
72.20458984375
 20
-135.3583984375
 30
0.0
 10
70.88720703125
 20
-133.294921875
 30
0.0
 10
68.79443359375
 20
-132.8359375
 30
0.0
 10
68.80322265625
 20
-132.796875
 30
0.0
 10
68.81103515625
 20
-132.7578125
 30
0.0
 10
68.81787109375
 20
-132.7177734375
 30
0.0
 10
68.85400390625
 20
-132.724609375
 30
0.0
 10
68.88427734375
 20
-132.73828125
 30
0.0
 10
68.91845703125
 20
-132.7451171875
 30
0.0
 10
69.14111328125
 20
-132.7890625
 30
0.0
 10
69.35205078125
 20
-132.80078125
 30
0.0
 10
69.57373046875
 20
-132.80078125
 30
0.0
 10
71.43798828125
 20
-132.80078125
 30
0.0
 10
73.08349609375
 20
-131.45703125
 30
0.0
 10
73.39306640625
 20
-129.5703125
 30
0.0
 10
73.75927734375
 20
-127.44921875
 30
0.0
 10
72.32763671875
 20
-125.4375
 30
0.0
 10
70.21728515625
 20
-125.08203125
 30
0.0
  0
INSERT
  5
62
330
1F
100
AcDbEntity
  8
Layer 1
100
AcDbBlockReference
  2
block 10
 10
0.0
 20
0.0
 30
0.0
  0
INSERT
  5
71
330
1F
100
AcDbEntity
  8
Layer 1
100
AcDbBlockReference
  2
block 12
 10
0.0
 20
0.0
 30
0.0
  0
INSERT
  5
80
330
1F
100
AcDbEntity
  8
Layer 1
100
AcDbBlockReference
  2
block 14
 10
0.0
 20
0.0
 30
0.0
  0
INSERT
  5
8D
330
1F
100
AcDbEntity
  8
Layer 1
100
AcDbBlockReference
  2
block 17
 10
0.0
 20
0.0
 30
0.0
  0
INSERT
  5
9A
330
1F
100
AcDbEntity
  8
Layer 1
100
AcDbBlockReference
  2
block 20
 10
0.0
 20
0.0
 30
0.0
  0
INSERT
  5
A7
330
1F
100
AcDbEntity
  8
Layer 1
100
AcDbBlockReference
  2
block 23
 10
0.0
 20
0.0
 30
0.0
  0
INSERT
  5
B0
330
1F
100
AcDbEntity
  8
Layer 1
100
AcDbBlockReference
  2
block 25
 10
0.0
 20
0.0
 30
0.0
  0
INSERT
  5
BD
330
1F
100
AcDbEntity
  8
Layer 1
100
AcDbBlockReference
  2
block 28
 10
0.0
 20
0.0
 30
0.0
  0
INSERT
  5
CA
330
1F
100
AcDbEntity
  8
Layer 1
100
AcDbBlockReference
  2
block 31
 10
0.0
 20
0.0
 30
0.0
  0
INSERT
  5
D3
330
1F
100
AcDbEntity
  8
Layer 1
100
AcDbBlockReference
  2
block 33
 10
0.0
 20
0.0
 30
0.0
  0
INSERT
  5
DC
330
1F
100
AcDbEntity
  8
Layer 1
100
AcDbBlockReference
  2
block 35
 10
0.0
 20
0.0
 30
0.0
  0
ENDSEC
  0
SECTION
  2
OBJECTS
  0
DICTIONARY
  5
C
330
0
100
AcDbDictionary
281
     1
  3
ACAD_GROUP
350
D
  3
ACAD_LAYOUT
350
1A
  3
ACAD_MLINESTYLE
350
17
  3
ACAD_PLOTSETTINGS
350
19
  3
ACAD_PLOTSTYLENAME
350
E
  3
ACAD_TABLESTYLE
350
E4
  3
ACAD_VISUALSTYLE
350
2A
  0
DICTIONARY
  5
D
102
{ACAD_REACTORS
330
C
102
}
330
C
100
AcDbDictionary
281
     1
  0
DICTIONARY
  5
1A
102
{ACAD_REACTORS
330
C
102
}
330
C
100
AcDbDictionary
281
     1
  3
Layout1
350
1E
  3
Layout2
350
26
  3
Model
350
22
  0
DICTIONARY
  5
17
102
{ACAD_REACTORS
330
C
102
}
330
C
100
AcDbDictionary
281
     1
  3
Standard
350
18
  0
DICTIONARY
  5
19
102
{ACAD_REACTORS
330
C
102
}
330
C
100
AcDbDictionary
281
     1
  0
ACDBDICTIONARYWDFLT
  5
E
102
{ACAD_REACTORS
330
C
102
}
330
C
100
AcDbDictionary
281
     1
  3
Normal
350
F
100
AcDbDictionaryWithDefault
340
F
  0
DICTIONARY
  5
E4
102
{ACAD_REACTORS
330
C
102
}
330
C
100
AcDbDictionary
281
     1
  0
DICTIONARY
  5
2A
102
{ACAD_REACTORS
330
C
102
}
330
C
100
AcDbDictionary
281
     1
  3
2dWireframe
350
2F
  3
3D Hidden
350
31
  3
3dWireframe
350
30
  3
Basic
350
32
  3
Brighten
350
36
  3
ColorChange
350
3A
  3
Conceptual
350
34
  3
Dim
350
35
  3
Facepattern
350
39
  3
Flat
350
2B
  3
FlatWithEdges
350
2C
  3
Gouraud
350
2D
  3
GouraudWithEdges
350
2E
  3
Linepattern
350
38
  3
Realistic
350
33
  3
Thicken
350
37
  0
LAYOUT
  5
1E
102
{ACAD_REACTORS
330
1A
102
}
330
1A
100
AcDbPlotSettings
  1

  2
none_device
  4

  6

 40
0.0
 41
0.0
 42
0.0
 43
0.0
 44
0.0
 45
0.0
 46
0.0
 47
0.0
 48
0.0
 49
0.0
140
0.0
141
0.0
142
1.0
143
1.0
 70
   688
 72
     0
 73
     0
 74
     5
  7

 75
    16
 76
     0
 77
     2
 78
   300
147
1.0
148
0.0
149
0.0
100
AcDbLayout
  1
Layout1
 70
     1
 71
     1
 10
0.0
 20
0.0
 11
12.0
 21
9.0
 12
0.0
 22
0.0
 32
0.0
 14
1.000000000000000E+20
 24
1.000000000000000E+20
 34
1.000000000000000E+20
 15
-1.000000000000000E+20
 25
-1.000000000000000E+20
 35
-1.000000000000000E+20
146
0.0
 13
0.0
 23
0.0
 33
0.0
 16
1.0
 26
0.0
 36
0.0
 17
0.0
 27
1.0
 37
0.0
 76
     0
330
1B
  0
LAYOUT
  5
26
102
{ACAD_REACTORS
330
1A
102
}
330
1A
100
AcDbPlotSettings
  1

  2
none_device
  4

  6

 40
0.0
 41
0.0
 42
0.0
 43
0.0
 44
0.0
 45
0.0
 46
0.0
 47
0.0
 48
0.0
 49
0.0
140
0.0
141
0.0
142
1.0
143
1.0
 70
   688
 72
     0
 73
     0
 74
     5
  7

 75
    16
 76
     0
 77
     2
 78
   300
147
1.0
148
0.0
149
0.0
100
AcDbLayout
  1
Layout2
 70
     1
 71
     2
 10
0.0
 20
0.0
 11
0.0
 21
0.0
 12
0.0
 22
0.0
 32
0.0
 14
0.0
 24
0.0
 34
0.0
 15
0.0
 25
0.0
 35
0.0
146
0.0
 13
0.0
 23
0.0
 33
0.0
 16
1.0
 26
0.0
 36
0.0
 17
0.0
 27
1.0
 37
0.0
 76
     0
330
23
  0
LAYOUT
  5
22
102
{ACAD_REACTORS
330
1A
102
}
330
1A
100
AcDbPlotSettings
  1

  2
none_device
  4

  6

 40
0.0
 41
0.0
 42
0.0
 43
0.0
 44
0.0
 45
0.0
 46
0.0
 47
0.0
 48
0.0
 49
0.0
140
0.0
141
0.0
142
1.0
143
1.0
 70
  1712
 72
     0
 73
     0
 74
     0
  7

 75
     0
 76
     0
 77
     2
 78
   300
147
1.0
148
0.0
149
0.0
100
AcDbLayout
  1
Model
 70
     1
 71
     0
 10
0.0
 20
0.0
 11
12.0
 21
9.0
 12
0.0
 22
0.0
 32
0.0
 14
1.000000000000000E+20
 24
1.000000000000000E+20
 34
1.000000000000000E+20
 15
-1.000000000000000E+20
 25
-1.000000000000000E+20
 35
-1.000000000000000E+20
146
0.0
 13
0.0
 23
0.0
 33
0.0
 16
1.0
 26
0.0
 36
0.0
 17
0.0
 27
1.0
 37
0.0
 76
     0
330
1F
331
29
  0
MLINESTYLE
  5
18
102
{ACAD_REACTORS
330
17
102
}
330
17
100
AcDbMlineStyle
  2
Standard
 70
     0
  3

 62
   256
 51
90.0
 52
90.0
 71
     2
 49
0.5
 62
   256
  6
BYLAYER
 49
-0.5
 62
   256
  6
BYLAYER
  0
ACDBPLACEHOLDER
  5
F
102
{ACAD_REACTORS
330
E
102
}
330
E
  0
VISUALSTYLE
  5
2F
102
{ACAD_REACTORS
330
2A
102
}
330
2A
100
AcDbVisualStyle
  2
2dWireframe
 70
     4
 71
     0
 72
     2
 73
     0
 90
        0
 40
-0.6
 41
-30.0
 62
     5
 63
     7
421
 16777215
 74
     1
 91
        4
 64
     7
 65
   257
 75
     1
175
     1
 42
1.0
 92
        0
 66
   257
 43
1.0
 76
     1
 77
     6
 78
     2
 67
     7
 79
     5
170
     0
171
     0
290
     0
174
     0
 93
        1
 44
0.0
173
     0
291
     0
 45
0.0
1001
ACAD
1000
AcDbSavedByObjectVersion
1070
     0
  0
VISUALSTYLE
  5
31
102
{ACAD_REACTORS
330
2A
102
}
330
2A
100
AcDbVisualStyle
  2
3D Hidden
 70
     6
 71
     1
 72
     2
 73
     2
 90
        0
 40
-0.6
 41
-30.0
 62
     5
 63
     7
421
 16777215
 74
     2
 91
        2
 64
     7
 65
   257
 75
     2
175
     1
 42
40.0
 92
        0
 66
   257
 43
1.0
 76
     1
 77
     6
 78
     2
 67
     7
 79
     3
170
     0
171
     0
290
     0
174
     0
 93
        1
 44
0.0
173
     0
291
     0
 45
0.0
1001
ACAD
1000
AcDbSavedByObjectVersion
1070
     0
  0
VISUALSTYLE
  5
30
102
{ACAD_REACTORS
330
2A
102
}
330
2A
100
AcDbVisualStyle
  2
3dWireframe
 70
     5
 71
     0
 72
     2
 73
     0
 90
        0
 40
-0.6
 41
-30.0
 62
     5
 63
     7
421
 16777215
 74
     1
 91
        4
 64
     7
 65
   257
 75
     1
175
     1
 42
1.0
 92
        0
 66
   257
 43
1.0
 76
     1
 77
     6
 78
     2
 67
     7
 79
     5
170
     0
171
     0
290
     0
174
     0
 93
        1
 44
0.0
173
     0
291
     0
 45
0.0
1001
ACAD
1000
AcDbSavedByObjectVersion
1070
     0
  0
VISUALSTYLE
  5
32
102
{ACAD_REACTORS
330
2A
102
}
330
2A
100
AcDbVisualStyle
  2
Basic
 70
     7
 71
     1
 72
     0
 73
     1
 90
        0
 40
-0.6
 41
-30.0
 62
     5
 63
     7
421
 16777215
 74
     0
 91
        4
 64
     7
 65
   257
 75
     1
175
     1
 42
1.0
 92
        8
 66
     7
 43
1.0
 76
     1
 77
     6
 78
     2
 67
     7
 79
     5
170
     0
171
     0
290
     0
174
     0
 93
        1
 44
0.0
173
     0
291
     1
 45
0.0
1001
ACAD
1000
AcDbSavedByObjectVersion
1070
     0
  0
VISUALSTYLE
  5
36
102
{ACAD_REACTORS
330
2A
102
}
330
2A
100
AcDbVisualStyle
  2
Brighten
 70
    12
 71
     2
 72
     2
 73
     0
 90
        0
 40
-0.6
 41
-30.0
 62
     5
 63
     7
421
 16777215
 74
     1
 91
        4
 64
     7
 65
   257
 75
     1
175
     1
 42
1.0
 92
        8
 66
     7
 43
1.0
 76
     1
 77
     6
 78
     2
 67
     7
 79
     5
170
     0
171
     0
290
     0
174
     0
 93
        1
 44
50.0
173
     0
291
     1
 45
0.0
1001
ACAD
1000
AcDbSavedByObjectVersion
1070
     0
  0
VISUALSTYLE
  5
3A
102
{ACAD_REACTORS
330
2A
102
}
330
2A
100
AcDbVisualStyle
  2
ColorChange
 70
    16
 71
     2
 72
     2
 73
     3
 90
        0
 40
-0.6
 41
-30.0
 62
     5
 63
     8
421
  8421504
 74
     1
 91
        4
 64
     7
 65
   257
 75
     1
175
     1
 42
1.0
 92
        8
 66
     8
424
  8421504
 43
1.0
 76
     1
 77
     6
 78
     2
 67
     7
 79
     5
170
     0
171
     0
290
     0
174
     0
 93
        1
 44
0.0
173
     0
291
     1
 45
0.0
1001
ACAD
1000
AcDbSavedByObjectVersion
1070
     0
  0
VISUALSTYLE
  5
34
102
{ACAD_REACTORS
330
2A
102
}
330
2A
100
AcDbVisualStyle
  2
Conceptual
 70
     9
 71
     3
 72
     2
 73
     0
 90
        0
 40
-0.6
 41
-30.0
 62
     5
 63
     7
421
 16777215
 74
     2
 91
        2
 64
     7
 65
   257
 75
     1
175
     1
 42
40.0
 92
        8
 66
     7
 43
1.0
 76
     1
 77
     6
 78
     2
 67
     7
 79
     3
170
     0
171
     0
290
     0
174
     0
 93
        1
 44
0.0
173
     0
291
     0
 45
0.0
1001
ACAD
1000
AcDbSavedByObjectVersion
1070
     0
  0
VISUALSTYLE
  5
35
102
{ACAD_REACTORS
330
2A
102
}
330
2A
100
AcDbVisualStyle
  2
Dim
 70
    11
 71
     2
 72
     2
 73
     0
 90
        0
 40
-0.6
 41
-30.0
 62
     5
 63
     7
421
 16777215
 74
     1
 91
        4
 64
     7
 65
   257
 75
     1
175
     1
 42
1.0
 92
        8
 66
     7
 43
1.0
 76
     1
 77
     6
 78
     2
 67
     7
 79
     5
170
     0
171
     0
290
     0
174
     0
 93
        1
 44
-50.0
173
     0
291
     1
 45
0.0
1001
ACAD
1000
AcDbSavedByObjectVersion
1070
     0
  0
VISUALSTYLE
  5
39
102
{ACAD_REACTORS
330
2A
102
}
330
2A
100
AcDbVisualStyle
  2
Facepattern
 70
    15
 71
     2
 72
     2
 73
     0
 90
        0
 40
-0.6
 41
-30.0
 62
     5
 63
     7
421
 16777215
 74
     1
 91
        4
 64
     7
 65
   257
 75
     1
175
     1
 42
1.0
 92
        8
 66
     7
 43
1.0
 76
     1
 77
     6
 78
     2
 67
     7
 79
     5
170
     0
171
     0
290
     0
174
     0
 93
        1
 44
0.0
173
     0
291
     1
 45
0.0
1001
ACAD
1000
AcDbSavedByObjectVersion
1070
     0
  0
VISUALSTYLE
  5
2B
102
{ACAD_REACTORS
330
2A
102
}
330
2A
100
AcDbVisualStyle
  2
Flat
 70
     0
 71
     2
 72
     1
 73
     1
 90
        2
 40
-0.6
 41
30.0
 62
     5
 63
     7
421
 16777215
 74
     0
 91
        4
 64
     7
 65
   257
 75
     1
175
     1
 42
1.0
 92
        8
 66
     7
 43
1.0
 76
     1
 77
     6
 78
     2
 67
     7
 79
     5
170
     0
171
     0
290
     0
174
     0
 93
       13
 44
0.0
173
     0
291
     1
 45
0.0
1001
ACAD
1000
AcDbSavedByObjectVersion
1070
     0
  0
VISUALSTYLE
  5
2C
102
{ACAD_REACTORS
330
2A
102
}
330
2A
100
AcDbVisualStyle
  2
FlatWithEdges
 70
     1
 71
     2
 72
     1
 73
     1
 90
        2
 40
-0.6
 41
30.0
 62
     5
 63
     7
421
 16777215
 74
     1
 91
        4
 64
     7
 65
   257
 75
     1
175
     1
 42
1.0
 92
        0
 66
   257
 43
1.0
 76
     1
 77
     6
 78
     2
 67
     7
 79
     5
170
     0
171
     0
290
     0
174
     0
 93
       13
 44
0.0
173
     0
291
     1
 45
0.0
1001
ACAD
1000
AcDbSavedByObjectVersion
1070
     0
  0
VISUALSTYLE
  5
2D
102
{ACAD_REACTORS
330
2A
102
}
330
2A
100
AcDbVisualStyle
  2
Gouraud
 70
     2
 71
     2
 72
     2
 73
     1
 90
        2
 40
-0.6
 41
30.0
 62
     5
 63
     7
421
 16777215
 74
     0
 91
        4
 64
     7
 65
   257
 75
     1
175
     1
 42
1.0
 92
        0
 66
     7
 43
1.0
 76
     1
 77
     6
 78
     2
 67
     7
 79
     5
170
     0
171
     0
290
     0
174
     0
 93
       13
 44
0.0
173
     0
291
     1
 45
0.0
1001
ACAD
1000
AcDbSavedByObjectVersion
1070
     0
  0
VISUALSTYLE
  5
2E
102
{ACAD_REACTORS
330
2A
102
}
330
2A
100
AcDbVisualStyle
  2
GouraudWithEdges
 70
     3
 71
     2
 72
     2
 73
     1
 90
        2
 40
-0.6
 41
30.0
 62
     5
 63
     7
421
 16777215
 74
     1
 91
        4
 64
     7
 65
   257
 75
     1
175
     1
 42
1.0
 92
        0
 66
   257
 43
1.0
 76
     1
 77
     6
 78
     2
 67
     7
 79
     5
170
     0
171
     0
290
     0
174
     0
 93
       13
 44
0.0
173
     0
291
     1
 45
0.0
1001
ACAD
1000
AcDbSavedByObjectVersion
1070
     0
  0
VISUALSTYLE
  5
38
102
{ACAD_REACTORS
330
2A
102
}
330
2A
100
AcDbVisualStyle
  2
Linepattern
 70
    14
 71
     2
 72
     2
 73
     0
 90
        0
 40
-0.6
 41
-30.0
 62
     5
 63
     7
421
 16777215
 74
     1
 91
        4
 64
     7
 65
   257
 75
     7
175
     7
 42
1.0
 92
        8
 66
     7
 43
1.0
 76
     1
 77
     6
 78
     2
 67
     7
 79
     5
170
     0
171
     0
290
     0
174
     0
 93
        1
 44
0.0
173
     0
291
     1
 45
0.0
1001
ACAD
1000
AcDbSavedByObjectVersion
1070
     0
  0
VISUALSTYLE
  5
33
102
{ACAD_REACTORS
330
2A
102
}
330
2A
100
AcDbVisualStyle
  2
Realistic
 70
     8
 71
     2
 72
     2
 73
     0
 90
        0
 40
-0.6
 41
-30.0
 62
     5
 63
     7
421
 16777215
 74
     1
 91
        0
 64
     7
 65
   257
 75
     1
175
     1
 42
1.0
 92
        8
 66
     8
424
  7895160
 43
1.0
 76
     1
 77
     6
 78
     2
 67
     7
 79
     5
170
     0
171
     0
290
     0
174
     0
 93
       13
 44
0.0
173
     0
291
     0
 45
0.0
1001
ACAD
1000
AcDbSavedByObjectVersion
1070
     0
  0
VISUALSTYLE
  5
37
102
{ACAD_REACTORS
330
2A
102
}
330
2A
100
AcDbVisualStyle
  2
Thicken
 70
    13
 71
     2
 72
     2
 73
     0
 90
        0
 40
-0.6
 41
-30.0
 62
     5
 63
     7
421
 16777215
 74
     1
 91
        4
 64
     7
 65
   257
 75
     1
175
     1
 42
1.0
 92
       12
 66
     7
 43
1.0
 76
     1
 77
     6
 78
     2
 67
     7
 79
     5
170
     0
171
     0
290
     0
174
     0
 93
        1
 44
0.0
173
     0
291
     1
 45
0.0
1001
ACAD
1000
AcDbSavedByObjectVersion
1070
     0
  0
ENDSEC
  0
EOF
